<svg xmlns="http://www.w3.org/2000/svg" class="svg-symbols">
<defs>
<symbol id="icon-github" viewBox="0 0 32 32">
<title>github</title>
<path d="M16 2.387c-7.708 0-13.958 6.249-13.958 13.958 0 6.167 3.999 11.399 9.545 13.244 0.697 0.129 0.954-0.303 0.954-0.671 0-0.333-0.013-1.432-0.019-2.599-3.883 0.844-4.703-1.647-4.703-1.647-0.635-1.613-1.55-2.042-1.55-2.042-1.266-0.866 0.096-0.849 0.096-0.849 1.401 0.098 2.139 1.438 2.139 1.438 1.245 2.134 3.265 1.517 4.062 1.16 0.125-0.902 0.487-1.518 0.886-1.866-3.1-0.353-6.359-1.55-6.359-6.898 0-1.524 0.545-2.769 1.438-3.746-0.145-0.352-0.623-1.771 0.135-3.694 0 0 1.172-0.375 3.839 1.431 1.113-0.309 2.307-0.464 3.494-0.47 1.186 0.005 2.381 0.16 3.496 0.47 2.664-1.806 3.834-1.431 3.834-1.431 0.76 1.923 0.282 3.342 0.137 3.694 0.895 0.977 1.436 2.223 1.436 3.746 0 5.361-3.265 6.541-6.373 6.887 0.501 0.433 0.947 1.282 0.947 2.585 0 1.868-0.016 3.371-0.016 3.83 0 0.372 0.251 0.807 0.959 0.67 5.543-1.848 9.537-7.078 9.537-13.243 0-7.709-6.249-13.958-13.957-13.958z"></path>
</symbol>
<symbol id="icon-dribbble" viewBox="0 0 32 32">
<title>dribbble</title>
<path d="M16 30c-7.722 0-14-6.278-14-14s6.278-14 14-14c7.722 0 14 6.278 14 14s-6.278 14-14 14v0zM27.807 17.914c-0.41-0.131-3.702-1.11-7.448-0.509 1.564 4.298 2.198 7.798 2.324 8.526 2.68-1.816 4.594-4.687 5.124-8.017v0zM20.67 27.025c-0.18-1.050-0.87-4.703-2.548-9.067-0.027 0.011-0.055 0.016-0.077 0.027-6.748 2.352-9.171 7.027-9.384 7.465 2.029 1.581 4.577 2.527 7.339 2.527 1.657 0 3.238-0.339 4.67-0.952v0zM7.113 24.012c0.273-0.465 3.555-5.895 9.718-7.891 0.153-0.049 0.312-0.098 0.47-0.142-0.301-0.678-0.629-1.362-0.968-2.029-5.966 1.788-11.763 1.712-12.288 1.706-0.005 0.12-0.005 0.241-0.005 0.366 0 3.068 1.165 5.873 3.073 7.99v0zM4.297 13.566c0.536 0.005 5.463 0.027 11.058-1.455-1.98-3.522-4.118-6.486-4.435-6.918-3.347 1.58-5.852 4.665-6.623 8.373v0zM13.2 4.39c0.328 0.443 2.505 3.402 4.463 7 4.255-1.591 6.054-4.014 6.267-4.32-2.111-1.876-4.889-3.013-7.93-3.013-0.963 0.005-1.903 0.12-2.8 0.334v0zM25.259 8.459c-0.252 0.339-2.259 2.909-6.677 4.714 0.279 0.569 0.547 1.148 0.793 1.734 0.087 0.208 0.175 0.41 0.257 0.618 3.981-0.498 7.935 0.301 8.329 0.383-0.027-2.822-1.039-5.414-2.702-7.448v0z"></path>
</symbol>
<symbol id="icon-twitter" viewBox="0 0 32 32">
<title>twitter</title>
<path d="M28.308 9.135c-0.904 0.404-1.88 0.673-2.899 0.793 1.043-0.625 1.841-1.615 2.221-2.793-0.976 0.577-2.058 1-3.207 1.226-0.923-0.981-2.236-1.591-3.688-1.591-2.788 0-5.048 2.26-5.048 5.048 0 0.394 0.043 0.779 0.13 1.149-4.197-0.212-7.918-2.221-10.409-5.279-0.433 0.745-0.683 1.615-0.683 2.538 0 1.75 0.889 3.298 2.245 4.202-0.827-0.024-1.606-0.255-2.288-0.63 0 0.019 0 0.043 0 0.063 0 2.447 1.74 4.49 4.053 4.952-0.423 0.115-0.87 0.178-1.332 0.178-0.327 0-0.639-0.034-0.952-0.091 0.644 2.005 2.51 3.466 4.716 3.51-1.731 1.356-3.904 2.163-6.274 2.163-0.409 0-0.808-0.024-1.207-0.072 2.24 1.438 4.894 2.269 7.745 2.269 9.288 0 14.37-7.697 14.37-14.37 0-0.221-0.005-0.438-0.014-0.654 0.986-0.707 1.841-1.596 2.519-2.611z"></path>
</symbol>
<symbol id="icon-facebook" viewBox="0 0 32 32">
<title>facebook</title>
<path d="M18.438 7.875h4.063v-4.875h-4.063c-3.136 0-5.688 2.551-5.688 5.688v2.438h-3.25v4.875h3.25v13h4.875v-13h4.063l0.813-4.875h-4.875v-2.438c0-0.44 0.372-0.813 0.813-0.813z"></path>
</symbol>
<symbol id="icon-google" viewBox="0 0 32 32">
<title>google</title>
<path d="M10.181 14.294v3.494h5.775c-0.231 1.5-1.744 4.394-5.775 4.394-3.475 0-6.313-2.881-6.313-6.431s2.838-6.431 6.313-6.431c1.981 0 3.3 0.844 4.056 1.569l2.762-2.662c-1.775-1.656-4.075-2.662-6.819-2.662-5.631 0.006-10.181 4.556-10.181 10.188s4.55 10.181 10.181 10.181c5.875 0 9.775-4.131 9.775-9.95 0-0.669-0.075-1.181-0.163-1.688h-9.613z"></path>
<path d="M32 14h-3v-3h-3v3h-3v3h3v3h3v-3h3z"></path>
</symbol>
</defs>
</svg>
