<?xml version="1.0" encoding="utf-8"?>
<!-- Generator: Adobe Illustrator 17.1.0, SVG Export Plug-In . SVG Version: 6.00 Build 0)  -->
<!DOCTYPE svg PUBLIC "-//W3C//DTD SVG 1.1//EN" "http://www.w3.org/Graphics/SVG/1.1/DTD/svg11.dtd">
<svg version="1.1" id="Layer_1" xmlns="http://www.w3.org/2000/svg" xmlns:xlink="http://www.w3.org/1999/xlink" x="0px" y="0px"
	 viewBox="0 0 48 47" enable-background="new 0 0 48 47" xml:space="preserve">
<path fill="#010101" d="M11,0H1C0.447,0,0,0.448,0,1v45c0,0.552,0.447,1,1,1h10c0.553,0,1-0.448,1-1V1C12,0.448,11.553,0,11,0z"/>
<path fill="#010101" d="M29,0H19c-0.553,0-1,0.448-1,1v45c0,0.552,0.447,1,1,1h10c0.553,0,1-0.448,1-1V1C30,0.448,29.553,0,29,0z"/>
<path fill="#010101" d="M47,0H37c-0.553,0-1,0.448-1,1v45c0,0.552,0.447,1,1,1h10c0.553,0,1-0.448,1-1V1C48,0.448,47.553,0,47,0z"/>
</svg>
