<?xml version="1.0" encoding="utf-8"?>
<!-- Generator: Adobe Illustrator 17.1.0, SVG Export Plug-In . SVG Version: 6.00 Build 0)  -->
<!DOCTYPE svg PUBLIC "-//W3C//DTD SVG 1.1//EN" "http://www.w3.org/Graphics/SVG/1.1/DTD/svg11.dtd">
<svg version="1.1" id="Layer_1" xmlns="http://www.w3.org/2000/svg" xmlns:xlink="http://www.w3.org/1999/xlink" x="0px" y="0px"
	 viewBox="0 0 46 45" enable-background="new 0 0 46 45" xml:space="preserve">
<g>
	<path fill="#010101" d="M45,0H1C0.448,0,0,0.448,0,1v43c0,0.552,0.448,1,1,1h44c0.552,0,1-0.448,1-1V1C46,0.448,45.552,0,45,0z
		 M28,4v8h-9V4H28z M42,40.087C42,40.591,41.591,41,41.087,41H4.913C4.409,41,4,40.591,4,40.087V4.913C4,4.409,4.409,4,4.913,4h10v9
		v3v0h3v0H28v0h3v0h11V40.087z M42,12H32V4h9.087C41.591,4,42,4.409,42,4.913V12z"/>
	<rect x="18.913" y="4" opacity="0.3" fill="#010101" width="9.087" height="8"/>
	<path fill="#FFFFFF" d="M38,35c0,0.552-0.354,1-0.79,1H8.79C8.354,36,8,35.552,8,35v-1c0-0.552,0.354-1,0.79-1H37.21
		c0.436,0,0.79,0.448,0.79,1V35z M38,29c0,0.552-0.354,1-0.79,1H8.79C8.354,30,8,29.552,8,29v-1c0-0.552,0.354-1,0.79-1H37.21
		c0.436,0,0.79,0.448,0.79,1V29z M38,22v1c0,0.552-0.354,1-0.79,1H8.79C8.354,24,8,23.552,8,23v-1c0-0.552,0.354-1,0.79-1H37.21
		C37.646,21,38,21.448,38,22z"/>
	<path opacity="0.3" fill="#010101" d="M41.17,4H32v8h10V4.812C42,4.363,41.628,4,41.17,4z"/>
	<path fill="#010101" d="M8.79,21C8.354,21,8,21.448,8,22v1c0,0.552,0.354,1,0.79,1H37.21c0.436,0,0.79-0.448,0.79-1v-1
		c0-0.552-0.354-1-0.79-1H8.79z"/>
	<path fill="#010101" d="M37.21,27H8.79C8.354,27,8,27.448,8,28v1c0,0.552,0.354,1,0.79,1H37.21c0.436,0,0.79-0.448,0.79-1v-1
		C38,27.448,37.646,27,37.21,27z"/>
	<path fill="#010101" d="M37.21,33H8.79C8.354,33,8,33.448,8,34v1c0,0.552,0.354,1,0.79,1H37.21c0.436,0,0.79-0.448,0.79-1v-1
		C38,33.448,37.646,33,37.21,33z"/>
</g>
</svg>
