<?xml version="1.0" encoding="utf-8"?>
<!-- Generator: Adobe Illustrator 17.1.0, SVG Export Plug-In . SVG Version: 6.00 Build 0)  -->
<!DOCTYPE svg PUBLIC "-//W3C//DTD SVG 1.1//EN" "http://www.w3.org/Graphics/SVG/1.1/DTD/svg11.dtd">
<svg version="1.1" id="Layer_1" xmlns="http://www.w3.org/2000/svg" xmlns:xlink="http://www.w3.org/1999/xlink" x="0px" y="0px"
	 viewBox="0 0 33 48" enable-background="new 0 0 33 48" xml:space="preserve">
<rect x="4" y="39" fill="none" width="5" height="5"/>
<rect x="4" y="4" fill="none" width="5" height="5"/>
<rect x="29" y="11" fill="none" width="5" height="5"/>
<g>
	<rect x="4" y="4" fill="none" width="5" height="5"/>
	<rect x="4" y="39" fill="none" width="5" height="5"/>
	<rect x="24" y="15" fill="none" width="5" height="5"/>
	<path fill="#010101" d="M32,11H21c-0.552,0-1,0.447-1,1v8.436L16.354,24H9V13h3c0.552,0,1-0.447,1-1V1c0-0.553-0.448-1-1-1H1
		C0.448,0,0,0.447,0,1v11c0,0.553,0.448,1,1,1h3v22H1c-0.552,0-1,0.447-1,1v11c0,0.553,0.448,1,1,1h11c0.552,0,1-0.447,1-1V36
		c0-0.553-0.448-1-1-1H9v-6h9c0.262,0,0.513-0.103,0.7-0.286L23.51,24H32c0.552,0,1-0.447,1-1V12C33,11.447,32.552,11,32,11z M4,4h5
		v5H4V4z M9,44H4v-5h5V44z M29,20h-5v-5h5V20z"/>
</g>
</svg>
