<?xml version="1.0" encoding="utf-8"?>
<!-- Generator: Adobe Illustrator 17.1.0, SVG Export Plug-In . SVG Version: 6.00 Build 0)  -->
<!DOCTYPE svg PUBLIC "-//W3C//DTD SVG 1.1//EN" "http://www.w3.org/Graphics/SVG/1.1/DTD/svg11.dtd">
<svg version="1.1" id="Layer_1" xmlns="http://www.w3.org/2000/svg" xmlns:xlink="http://www.w3.org/1999/xlink" x="0px" y="0px"
	 viewBox="0 0 15 15" enable-background="new 0 0 15 15" xml:space="preserve">
<g>
	<path fill="#303030" d="M14.988,13.32l-4.175-4.174c0.618-0.933,0.982-2.047,0.982-3.249C11.795,2.641,9.156,0,5.897,0
		C2.64,0,0,2.641,0,5.898s2.64,5.898,5.897,5.898c1.202,0,2.316-0.364,3.249-0.981l4.174,4.174L14.988,13.32z M5.897,9.436
		c-1.951,0-3.539-1.587-3.539-3.538c0-1.951,1.588-3.539,3.539-3.539c1.951,0,3.539,1.587,3.539,3.539
		C9.436,7.849,7.849,9.436,5.897,9.436z"/>
</g>
</svg>
