<?xml version="1.0" encoding="utf-8"?>
<!-- Generator: Adobe Illustrator 17.1.0, SVG Export Plug-In . SVG Version: 6.00 Build 0)  -->
<!DOCTYPE svg PUBLIC "-//W3C//DTD SVG 1.1//EN" "http://www.w3.org/Graphics/SVG/1.1/DTD/svg11.dtd">
<svg version="1.1" id="Layer_1" xmlns="http://www.w3.org/2000/svg" xmlns:xlink="http://www.w3.org/1999/xlink" x="0px" y="0px"
	 viewBox="0 0 47 47" enable-background="new 0 0 47 47" xml:space="preserve">
<g>
	<path fill="none" d="M23.5,16c-4.135,0-7.5,3.365-7.5,7.5s3.365,7.5,7.5,7.5s7.5-3.365,7.5-7.5S27.635,16,23.5,16z"/>
	<path d="M47,26v-5l-6.444-1.371c-0.444-1.963-1.219-3.797-2.261-5.448l3.59-5.53l-3.536-3.536l-5.53,3.59
		c-1.652-1.042-3.485-1.818-5.448-2.261L26,0h-5l-1.371,6.444c-1.963,0.444-3.796,1.219-5.448,2.261l-5.53-3.59L5.115,8.651
		l3.59,5.53c-1.042,1.651-1.818,3.485-2.261,5.448L0,21v5l6.444,1.371c0.444,1.963,1.219,3.797,2.261,5.448l-3.59,5.53l3.536,3.536
		l5.53-3.59c1.652,1.042,3.485,1.818,5.448,2.261L21,47h5l1.371-6.444c1.963-0.444,3.796-1.219,5.448-2.261l5.53,3.59l3.536-3.536
		l-3.59-5.53c1.042-1.651,1.818-3.485,2.261-5.448L47,26z M23.5,31c-4.135,0-7.5-3.365-7.5-7.5s3.365-7.5,7.5-7.5s7.5,3.365,7.5,7.5
		S27.635,31,23.5,31z"/>
</g>
</svg>
