<?xml version="1.0" encoding="utf-8"?>
<!-- Generator: Adobe Illustrator 17.1.0, SVG Export Plug-In . SVG Version: 6.00 Build 0)  -->
<!DOCTYPE svg PUBLIC "-//W3C//DTD SVG 1.1//EN" "http://www.w3.org/Graphics/SVG/1.1/DTD/svg11.dtd">
<svg version="1.1" id="Layer_1" xmlns="http://www.w3.org/2000/svg" xmlns:xlink="http://www.w3.org/1999/xlink" x="0px" y="0px"
	 viewBox="0 0 56 48" enable-background="new 0 0 56 48" xml:space="preserve">
<g id="display_1_">
	<path fill="#010101" d="M54,0H2C0.9,0,0,0.9,0,2v34c0,1.1,0.9,2,2,2h22c0,0.4,0,1,0,2c0,4-3.9,4-3.9,4h-7.4c-0.4,0-0.7,0.3-0.7,0.7
		V48h32v-3.3c0-0.4-0.3-0.7-0.7-0.7H36c0,0-4,0-4-4c0-1,0-1.6,0-2h22c1.1,0,2-0.9,2-2V2C56,0.9,55.1,0,54,0z M51,35h-2v-2h2V35z
		 M51,30H5V5h46V30z"/>
</g>
<rect x="5" y="5" opacity="0.3" fill="#010101" width="46" height="25"/>
</svg>
