<?xml version="1.0" encoding="utf-8"?>
<!-- Generator: Adobe Illustrator 17.1.0, SVG Export Plug-In . SVG Version: 6.00 Build 0)  -->
<!DOCTYPE svg PUBLIC "-//W3C//DTD SVG 1.1//EN" "http://www.w3.org/Graphics/SVG/1.1/DTD/svg11.dtd">
<svg version="1.1" id="Layer_1" xmlns="http://www.w3.org/2000/svg" xmlns:xlink="http://www.w3.org/1999/xlink" x="0px" y="0px"
	 viewBox="0 0 47 47" enable-background="new 0 0 47 47" xml:space="preserve">
<path fill="#010101" d="M26,21v5H4v-5H26 M29.362,17H0.638C0.286,17,0,17.447,0,18v11c0,0.553,0.286,1,0.638,1h28.723
	C29.714,30,30,29.553,30,29V18C30,17.447,29.714,17,29.362,17L29.362,17z"/>
<path fill="#010101" d="M43,4v5h-5V4H43 M46,0H35c-0.552,0-1,0.447-1,1v11c0,0.553,0.448,1,1,1h11c0.552,0,1-0.447,1-1V1
	C47,0.447,46.552,0,46,0L46,0z"/>
<path fill="#010101" d="M26,4v5h-5V4H26 M29,0H18c-0.552,0-1,0.447-1,1v11c0,0.553,0.448,1,1,1h11c0.552,0,1-0.447,1-1V1
	C30,0.447,29.552,0,29,0L29,0z"/>
<path fill="#010101" d="M43,38v5H4v-5H43 M46,34H1c-0.552,0-1,0.447-1,1v11c0,0.553,0.448,1,1,1h45c0.552,0,1-0.447,1-1V35
	C47,34.447,46.552,34,46,34L46,34z"/>
<path fill="#010101" d="M6.5,4C7.879,4,9,5.121,9,6.5S7.879,9,6.5,9S4,7.879,4,6.5S5.121,4,6.5,4 M6.5,0C2.91,0,0,2.91,0,6.5
	S2.91,13,6.5,13S13,10.09,13,6.5S10.09,0,6.5,0L6.5,0z"/>
<path fill="#010101" d="M40.5,21c1.379,0,2.5,1.121,2.5,2.5S41.879,26,40.5,26S38,24.879,38,23.5S39.121,21,40.5,21 M40.5,17
	c-3.59,0-6.5,2.91-6.5,6.5s2.91,6.5,6.5,6.5s6.5-2.91,6.5-6.5S44.09,17,40.5,17L40.5,17z"/>
</svg>
