<?xml version="1.0" encoding="utf-8"?>
<!-- Generator: Adobe Illustrator 18.1.0, SVG Export Plug-In . SVG Version: 6.00 Build 0)  -->
<svg version="1.1" id="Layer_1" xmlns="http://www.w3.org/2000/svg" xmlns:xlink="http://www.w3.org/1999/xlink" x="0px" y="0px"
	 viewBox="0 0 113 25" enable-background="new 0 0 113 25" xml:space="preserve">
<g>
	<path fill="#303030" d="M34.5,17.9l-4-1.8l4-1.8c0.3-0.1,0.5-0.4,0.5-0.7s-0.2-0.6-0.5-0.7l-5.1-2.3V5.9c0-0.1,0-0.2-0.1-0.3
		c0,0,0,0,0,0c-0.1-0.1-0.1-0.2-0.2-0.2c0,0,0,0,0,0c0,0,0,0,0,0c0,0,0,0-0.1,0L17.8,0.1C17.7,0,17.6,0,17.5,0s-0.2,0-0.3,0.1L6,5.2
		c0,0,0,0-0.1,0c0,0,0,0,0,0c0,0,0,0,0,0C5.8,5.3,5.7,5.4,5.7,5.5c0,0,0,0,0,0C5.6,5.7,5.6,5.8,5.6,5.9v4.6l-5.1,2.3
		C0.2,12.9,0,13.2,0,13.5s0.2,0.6,0.5,0.7l4,1.8l-4,1.8C0.2,18,0,18.3,0,18.6s0.2,0.6,0.5,0.7l11.1,5.1c0.1,0,0.2,0.1,0.3,0.1
		s0.2,0,0.3-0.1l5.2-2.4l5.2,2.4c0.1,0,0.2,0.1,0.3,0.1c0.1,0,0.2,0,0.3-0.1l11.1-5.1c0.3-0.1,0.5-0.4,0.5-0.7
		C35,18.3,34.8,18,34.5,17.9z M32.3,13.5l-2.9,1.3v-2.7L32.3,13.5z M7.1,15.6V7.1l9.6,4.4V20L7.1,15.6z M11.9,7.6L8.2,5.9l9.3-4.2
		l3.7,1.7L11.9,7.6z M27.9,7.1v8.5L18.3,20v-8.5L27.9,7.1z M23.1,4.2l3.7,1.7l-4,1.8h0l0,0l-5.2,2.4l-1.4-0.7l-2.3-1L23.1,4.2z
		 M28.6,16.9l3.7,1.7l-9.3,4.2l-3.7-1.7L28.6,16.9z M15.6,21.2l-3.7,1.7l-9.3-4.2l3.7-1.7L15.6,21.2z M5.6,12.2v2.7l-2.9-1.3
		L5.6,12.2z"/>
</g>
<g>
	<path fill="#303030" d="M42.6,8.7c0-0.5,0.4-0.9,0.9-0.9h3.8c1.2,0,2.2,0.3,2.8,0.9c0.5,0.5,0.7,1.1,0.7,1.8v0c0,1.3-0.7,2-1.5,2.4
		c1.2,0.4,2.1,1.1,2.1,2.6v0c0,1.9-1.6,2.9-3.9,2.9h-4c-0.5,0-0.9-0.4-0.9-0.9C42.6,17.5,42.6,8.7,42.6,8.7z M47,12.3
		c1.2,0,2-0.5,2-1.4v0c0-0.8-0.7-1.4-1.9-1.4h-2.7v2.8C44.4,12.3,47,12.3,47,12.3z M47.5,16.8c1.3,0,2.1-0.5,2.1-1.5v0
		c0-0.9-0.7-1.4-2.2-1.4h-3v2.9H47.5z"/>
	<path fill="#303030" d="M52.8,16.1L52.8,16.1c0-1.8,1.4-2.6,3.3-2.6c0.9,0,1.5,0.1,2.2,0.3v-0.2c0-1.1-0.7-1.8-2-1.8
		c-0.7,0-1.3,0.1-1.8,0.3c-0.1,0-0.2,0-0.3,0c-0.4,0-0.8-0.3-0.8-0.8c0-0.3,0.2-0.6,0.5-0.7c0.8-0.3,1.5-0.5,2.6-0.5
		c1.2,0,2.1,0.3,2.7,0.9c0.6,0.6,0.9,1.4,0.9,2.5v4c0,0.5-0.4,0.9-0.9,0.9c-0.5,0-0.9-0.4-0.9-0.8v-0.3c-0.5,0.7-1.4,1.2-2.6,1.2
		C54.2,18.6,52.8,17.7,52.8,16.1z M58.3,15.5V15c-0.5-0.2-1.1-0.3-1.8-0.3c-1.2,0-1.9,0.5-1.9,1.3v0c0,0.8,0.7,1.2,1.6,1.2
		C57.4,17.3,58.3,16.6,58.3,15.5z"/>
	<path fill="#303030" d="M62,17.6c-0.2-0.1-0.3-0.3-0.3-0.6c0-0.4,0.3-0.7,0.7-0.7c0.2,0,0.3,0,0.4,0.1c0.8,0.5,1.6,0.8,2.3,0.8
		c0.8,0,1.2-0.3,1.2-0.9v0c0-0.6-0.9-0.8-1.8-1.1c-1.2-0.3-2.5-0.8-2.5-2.4v0c0-1.5,1.3-2.5,2.9-2.5c0.9,0,1.8,0.2,2.5,0.7
		c0.3,0.1,0.4,0.4,0.4,0.7c0,0.4-0.3,0.7-0.8,0.7c-0.2,0-0.2,0-0.4-0.1c-0.7-0.3-1.3-0.5-1.9-0.5c-0.7,0-1.1,0.3-1.1,0.8v0
		c0,0.6,0.9,0.8,1.8,1.1C66.7,14,68,14.6,68,16v0c0,1.7-1.3,2.5-3,2.5C64,18.6,62.9,18.3,62,17.6z"/>
	<path fill="#303030" d="M73.6,18.6c-2.3,0-4.1-1.7-4.1-4.2v0c0-2.3,1.6-4.2,3.9-4.2c2.6,0,3.8,2.1,3.8,4c0,0.5-0.4,0.9-0.9,0.9h-5
		c0.2,1.3,1.1,2,2.3,2c0.8,0,1.4-0.3,1.9-0.7c0.1-0.1,0.3-0.2,0.5-0.2c0.4,0,0.7,0.3,0.7,0.7c0,0.2-0.1,0.4-0.2,0.6
		C75.8,18.2,74.9,18.6,73.6,18.6z M75.4,13.8c-0.1-1.2-0.8-2.1-2-2.1c-1.1,0-1.9,0.9-2.1,2.1H75.4z"/>
	<path fill="#303030" d="M78.7,9c0-0.1-0.1-0.2-0.1-0.4c0-0.5,0.4-0.9,1-0.9c0.5,0,0.8,0.3,0.9,0.7l2.5,7.3l2.4-7.3
		c0.2-0.4,0.5-0.7,0.9-0.7h0.1c0.5,0,0.8,0.3,0.9,0.7l2.4,7.3l2.5-7.3c0.1-0.4,0.5-0.7,0.9-0.7c0.5,0,0.9,0.4,0.9,0.9
		c0,0.1,0,0.3-0.1,0.4l-3.2,8.8c-0.2,0.5-0.5,0.8-1,0.8h-0.2c-0.5,0-0.8-0.3-1-0.8l-2.4-7l-2.4,7c-0.2,0.5-0.5,0.8-1,0.8h-0.2
		c-0.5,0-0.8-0.3-1-0.8L78.7,9z"/>
	<path fill="#303030" d="M98.8,18.6c-2.3,0-4.1-1.7-4.1-4.2v0c0-2.3,1.6-4.2,3.9-4.2c2.6,0,3.8,2.1,3.8,4c0,0.5-0.4,0.9-0.9,0.9h-5
		c0.2,1.3,1.1,2,2.3,2c0.8,0,1.4-0.3,1.9-0.7c0.1-0.1,0.3-0.2,0.5-0.2c0.4,0,0.7,0.3,0.7,0.7c0,0.2-0.1,0.4-0.2,0.6
		C100.9,18.2,100,18.6,98.8,18.6z M100.6,13.8c-0.1-1.2-0.8-2.1-2-2.1c-1.1,0-1.9,0.9-2.1,2.1H100.6z"/>
	<path fill="#303030" d="M104.3,8.1c0-0.5,0.4-0.9,0.9-0.9s0.9,0.4,0.9,0.9v3.6c0.6-0.8,1.4-1.5,2.7-1.5c1.9,0,3.7,1.5,3.7,4.2v0
		c0,2.7-1.8,4.2-3.7,4.2c-1.3,0-2.2-0.7-2.7-1.4v0.4c0,0.5-0.4,0.9-0.9,0.9c-0.5,0-0.9-0.4-0.9-0.9V8.1z M110.7,14.4L110.7,14.4
		c0-1.6-1.1-2.6-2.3-2.6s-2.3,1-2.3,2.6v0c0,1.5,1.1,2.6,2.3,2.6C109.7,17,110.7,16,110.7,14.4z"/>
</g>
</svg>
