<?xml version="1.0" encoding="utf-8"?>
<!-- Generator: Adobe Illustrator 17.1.0, SVG Export Plug-In . SVG Version: 6.00 Build 0)  -->
<svg version="1.1" id="Layer_1" xmlns="http://www.w3.org/2000/svg" xmlns:xlink="http://www.w3.org/1999/xlink" x="0px" y="0px"
	 viewBox="0 0 340 200" enable-background="new 0 0 340 200" xml:space="preserve">
<g>
	<path fill="#1495cd" d="M257.657,92.15l-20.687-9.465l20.688-9.465c1.423-0.651,2.343-2.083,2.343-3.648
		c0-1.565-0.92-2.997-2.343-3.648l-26.319-12.039V30.238c0-0.581-0.149-1.175-0.442-1.767c-0.036-0.087-0.065-0.15-0.1-0.214
		c-0.275-0.474-0.638-0.877-1.089-1.212c-0.048-0.054-0.116-0.118-0.204-0.176c-0.079-0.053-0.157-0.088-0.223-0.112
		c-0.069-0.049-0.166-0.115-0.293-0.171L171.671,0.364C171.144,0.123,170.582,0,170.002,0s-1.142,0.123-1.669,0.364l-57.327,26.225
		c-0.12,0.054-0.216,0.119-0.286,0.169c-0.067,0.024-0.147,0.061-0.228,0.115c-0.087,0.058-0.154,0.123-0.201,0.176
		c-0.465,0.348-0.821,0.746-1.078,1.198c-0.035,0.059-0.068,0.13-0.098,0.202c-0.302,0.614-0.451,1.208-0.451,1.789v23.646
		L82.343,65.924C80.919,66.576,80,68.008,80,69.573c0,1.564,0.919,2.996,2.342,3.648l20.688,9.464l-20.688,9.463
		C80.92,92.799,80,94.231,80,95.796c0,1.565,0.92,2.997,2.343,3.648l57.327,26.225c0.525,0.241,1.086,0.363,1.669,0.363
		s1.144-0.122,1.67-0.364l26.99-12.348l26.997,12.349c0.525,0.241,1.086,0.363,1.669,0.363s1.144-0.122,1.67-0.364l57.324-26.223
		c1.423-0.652,2.343-2.084,2.343-3.648C260,94.232,259.08,92.8,257.657,92.15z M246.346,69.571l-15.007,6.866V62.706L246.346,69.571
		z M116.687,80.109V36.485l49.304,22.552v43.626L116.687,80.109z M141.338,38.938l-19.019-8.7l47.683-21.814l19.018,8.7
		L141.338,38.938z M223.315,36.485v43.624l-49.302,22.554V59.037L223.315,36.485z M198.666,21.537l19.019,8.7l-20.493,9.374h-0.039
		l-0.185,0.1l-26.968,12.336l-7.324-3.352l-11.689-5.347L198.666,21.537z M227.327,87.096l19.019,8.702l-47.682,21.812l-19.019-8.7
		L227.327,87.096z M160.355,108.908l-19.017,8.702L93.654,95.796l19.021-8.7L160.355,108.908z M108.663,62.706v13.731l-15.009-6.865
		L108.663,62.706z"/>
</g>
<g>
	<path fill="#1495cd" d="M0.222,151.995c0-2.585,1.994-4.579,4.578-4.579h18.611c5.909,0,10.561,1.625,13.516,4.579
		c2.29,2.289,3.471,5.095,3.471,8.567v0.147c0,6.204-3.545,9.528-7.385,11.522c6.056,2.067,10.266,5.539,10.266,12.556v0.147
		c0,9.232-7.607,14.18-19.128,14.18H4.801c-2.584,0-4.578-1.994-4.578-4.579V151.995z M21.566,169.203
		c5.835,0,9.749-2.29,9.749-7.016v-0.148c0-4.062-3.249-6.573-9.084-6.573H9.159v13.737H21.566z M24.225,191.063
		c6.203,0,9.97-2.437,9.97-7.091v-0.147c0-4.357-3.472-6.942-10.635-6.942H9.159v14.18H24.225z"/>
	<path fill="#1495cd" d="M49.92,187.887v-0.147c0-8.42,6.574-12.556,16.1-12.556c4.358,0,7.46,0.665,10.488,1.625v-0.96
		c0-5.539-3.398-8.494-9.675-8.494c-3.398,0-6.204,0.591-8.641,1.552c-0.518,0.147-0.961,0.221-1.403,0.221
		c-2.068,0-3.767-1.625-3.767-3.693c0-1.625,1.108-3.028,2.437-3.545c3.693-1.403,7.46-2.29,12.556-2.29
		c5.835,0,10.193,1.552,12.925,4.357c2.88,2.807,4.21,6.942,4.21,12.039v19.202c0,2.437-1.92,4.284-4.358,4.284
		c-2.584,0-4.357-1.773-4.357-3.767v-1.476c-2.658,3.175-6.721,5.686-12.703,5.686C56.42,199.926,49.92,195.716,49.92,187.887z
		 M76.656,185.081v-2.658c-2.29-0.886-5.318-1.551-8.862-1.551c-5.76,0-9.158,2.437-9.158,6.499v0.148
		c0,3.766,3.323,5.908,7.607,5.908C72.151,193.426,76.656,190.03,76.656,185.081z"/>
	<path fill="#1495cd" d="M94.377,195.199c-0.961-0.517-1.699-1.625-1.699-3.102c0-1.994,1.551-3.619,3.619-3.619
		c0.738,0,1.403,0.221,1.92,0.517c3.767,2.511,7.681,3.767,11.226,3.767c3.84,0,6.056-1.625,6.056-4.21v-0.147
		c0-3.029-4.136-4.063-8.715-5.466c-5.76-1.625-12.186-3.988-12.186-11.448v-0.147c0-7.386,6.13-11.89,13.885-11.89
		c4.136,0,8.494,1.181,12.26,3.175c1.256,0.665,2.141,1.847,2.141,3.398c0,2.068-1.625,3.619-3.692,3.619
		c-0.739,0-1.182-0.147-1.773-0.443c-3.176-1.626-6.425-2.659-9.158-2.659c-3.472,0-5.465,1.625-5.465,3.84v0.148
		c0,2.88,4.209,4.062,8.788,5.539c5.687,1.772,12.112,4.357,12.112,11.374v0.147c0,8.198-6.351,12.26-14.476,12.26
		C104.273,199.852,98.882,198.301,94.377,195.199z"/>
	<path fill="#1495cd" d="M150.725,200c-11.3,0-20.015-8.198-20.015-20.236v-0.148c0-11.152,7.902-20.31,19.054-20.31
		c12.408,0,18.538,10.193,18.538,19.202c0,2.511-1.921,4.284-4.21,4.284h-24.446c0.96,6.351,5.465,9.896,11.225,9.896
		c3.767,0,6.721-1.329,9.232-3.398c0.665-0.517,1.256-0.812,2.29-0.812c1.994,0,3.545,1.552,3.545,3.619
		c0,1.108-0.517,2.068-1.182,2.732C161.212,198.006,156.781,200,150.725,200z M159.587,176.883
		c-0.591-5.76-3.989-10.266-9.897-10.266c-5.465,0-9.305,4.21-10.118,10.266H159.587z"/>
	<path fill="#1495cd" d="M175.313,153.25c-0.221-0.517-0.37-1.182-0.37-1.772c0-2.512,2.143-4.431,4.654-4.431
		c2.216,0,3.914,1.402,4.504,3.323l11.891,35.524l11.669-35.377c0.738-2.143,2.289-3.619,4.578-3.619h0.665
		c2.29,0,3.914,1.476,4.578,3.619l11.669,35.377l11.891-35.598c0.664-1.847,2.216-3.249,4.431-3.249
		c2.437,0,4.504,1.919,4.504,4.357c0,0.591-0.221,1.329-0.443,1.846l-15.288,42.836c-0.812,2.29-2.511,3.766-4.727,3.766h-0.886
		c-2.216,0-3.84-1.403-4.653-3.766l-11.522-33.752l-11.521,33.752c-0.812,2.363-2.511,3.766-4.727,3.766h-0.886
		c-2.216,0-3.84-1.403-4.727-3.766L175.313,153.25z"/>
	<path fill="#1495cd" d="M272.722,200c-11.3,0-20.015-8.198-20.015-20.236v-0.148c0-11.152,7.902-20.31,19.054-20.31
		c12.407,0,18.537,10.193,18.537,19.202c0,2.511-1.92,4.284-4.21,4.284h-24.446c0.961,6.351,5.466,9.896,11.226,9.896
		c3.766,0,6.721-1.329,9.232-3.398c0.664-0.517,1.255-0.812,2.29-0.812c1.993,0,3.545,1.552,3.545,3.619
		c0,1.108-0.517,2.068-1.182,2.732C283.209,198.006,278.778,200,272.722,200z M281.585,176.883
		c-0.591-5.76-3.989-10.266-9.897-10.266c-5.465,0-9.305,4.21-10.118,10.266H281.585z"/>
	<path fill="#1495cd" d="M299.453,149.262c0-2.512,1.92-4.432,4.431-4.432c2.511,0,4.505,1.92,4.505,4.432v17.355
		c2.88-4.063,6.942-7.312,13.294-7.312c9.158,0,18.095,7.238,18.095,20.236v0.148c0,12.924-8.862,20.236-18.095,20.236
		c-6.5,0-10.561-3.249-13.294-6.868v1.994c0,2.437-1.994,4.431-4.505,4.431c-2.437,0-4.431-1.994-4.431-4.431V149.262z
		 M330.693,179.69v-0.148c0-7.533-5.095-12.481-11.151-12.481c-6.057,0-11.375,5.022-11.375,12.481v0.148
		c0,7.459,5.318,12.481,11.375,12.481C325.672,192.171,330.693,187.37,330.693,179.69z"/>
</g>
</svg>
