<?xml version="1.0" encoding="utf-8"?>
<!-- Generator: Adobe Illustrator 14.0.0, SVG Export Plug-In  -->
<!DOCTYPE svg PUBLIC "-//W3C//DTD SVG 1.1//EN" "http://www.w3.org/Graphics/SVG/1.1/DTD/svg11.dtd" [
	<!ENTITY ns_flows "http://ns.adobe.com/Flows/1.0/">
]>
<svg version="1.1"
	 xmlns="http://www.w3.org/2000/svg" xmlns:xlink="http://www.w3.org/1999/xlink" xmlns:a="http://ns.adobe.com/AdobeSVGViewerExtensions/3.0/"
	 x="0px" y="0px" width="50px" height="300px" viewBox="0 0 50 300" enable-background="new 0 0 50 300" xml:space="preserve">
<defs>
</defs>
<rect display="none" opacity="0.5" fill="#FBB03B" width="50" height="50"/>
<rect y="50" display="none" opacity="0.5" fill="#FCEE21" width="50" height="50"/>
<rect y="100" display="none" opacity="0.5" fill="#D9E021" width="50" height="50"/>
<rect y="150" display="none" opacity="0.5" fill="#8CC63F" width="50" height="50"/>
<rect y="200" display="none" opacity="0.5" fill="#39B54A" width="50" height="50"/>
<rect y="250" display="none" opacity="0.5" fill="#009245" width="50" height="50"/>
<rect x="15" y="17" width="20" height="4"/>
<rect x="15" y="23" width="20" height="4"/>
<rect x="15" y="29" width="20" height="4"/>
<path d="M35.854,83.438l-6.046-6.045c0.895-1.351,1.422-2.965,1.422-4.705c0-4.717-3.823-8.542-8.542-8.542
	c-4.718,0-8.541,3.825-8.541,8.542s3.823,8.542,8.541,8.542c1.74,0,3.354-0.527,4.705-1.421l6.045,6.045L35.854,83.438z
	 M22.688,77.812c-2.825,0-5.125-2.299-5.125-5.125c0-2.826,2.3-5.125,5.125-5.125c2.826,0,5.125,2.299,5.125,5.125
	C27.812,75.514,25.514,77.812,22.688,77.812z"/>
<polygon points="36,126.1 25,116.2 14,126.1 18.4,126.1 18.4,133.8 22.801,133.8 22.801,129.4 27.199,129.4 27.199,133.8 
	31.6,133.8 31.6,126.1 "/>
<polygon points="32.778,170.051 29.949,167.222 25,172.172 20.05,167.222 17.222,170.051 22.172,175 17.222,179.951 20.051,182.779 
	25,177.83 29.949,182.779 32.777,179.951 27.828,175.002 "/>
<polygon points="30.914,218.828 28.086,216 19.086,224.999 28.086,234 30.914,231.17 24.743,224.999 "/>
<polygon points="21.914,266 19.086,268.828 25.257,275.001 19.086,281.172 21.914,284 30.914,275.001 "/>
<rect x="15" y="17" display="none" fill="#FFFFFF" width="20" height="4"/>
<rect x="15" y="23" display="none" fill="#FFFFFF" width="20" height="4"/>
<rect x="15" y="29" display="none" fill="#FFFFFF" width="20" height="4"/>
<path display="none" fill="#FFFFFF" d="M35.854,83.438l-6.046-6.045c0.895-1.351,1.422-2.965,1.422-4.705
	c0-4.717-3.823-8.542-8.542-8.542c-4.718,0-8.541,3.825-8.541,8.542s3.823,8.542,8.541,8.542c1.74,0,3.354-0.527,4.705-1.421
	l6.045,6.045L35.854,83.438z M22.688,77.812c-2.825,0-5.125-2.299-5.125-5.125c0-2.826,2.3-5.125,5.125-5.125
	c2.826,0,5.125,2.299,5.125,5.125C27.812,75.514,25.514,77.812,22.688,77.812z"/>
<polygon display="none" fill="#FFFFFF" points="36,126.1 25,116.2 14,126.1 18.4,126.1 18.4,133.8 22.801,133.8 22.801,129.4 
	27.199,129.4 27.199,133.8 31.6,133.8 31.6,126.1 "/>
<polygon display="none" fill="#FFFFFF" points="32.778,170.051 29.949,167.222 25,172.172 20.05,167.222 17.222,170.051 22.172,175 
	17.222,179.951 20.051,182.779 25,177.83 29.949,182.779 32.777,179.951 27.828,175.002 "/>
<polygon display="none" fill="#FFFFFF" points="30.914,218.828 28.086,216 19.086,224.999 28.086,234 30.914,231.17 24.743,224.999 
	"/>
<polygon display="none" fill="#FFFFFF" points="21.914,266 19.086,268.828 25.257,275.001 19.086,281.172 21.914,284 
	30.914,275.001 "/>
</svg>
