<svg xmlns="http://www.w3.org/2000/svg" viewBox="0 0 36 25"><path fill="#FFF" d="M35.6 18.5L31 16.4l4.6-2.1c.2-.1.4-.3.4-.6 0-.2-.1-.5-.4-.6l-5.4-2.5V5.9c0-.1 0-.2-.1-.3 0-.1-.1-.1-.2-.2h-.1L18.3.1c-.2-.1-.4-.1-.5 0L6.2 5.3h-.1c-.1.2-.2.2-.2.3 0 .1-.1.2-.1.3v4.9L.4 13.3c-.3.1-.4.3-.4.5s.1.5.4.6L5 16.5.4 18.6c-.3 0-.4.3-.4.5s.1.5.4.6L12 25c.1 0 .2.1.3.1s.2 0 .3-.1l5.5-2.5 5.5 2.5c.1 0 .2.1.3.1.1 0 .2 0 .3-.1l11.6-5.3c.2-.1.4-.3.4-.6-.2-.2-.3-.5-.6-.6zm-11.8 5.2l-4.3-2 10.1-4.6 4.3 2-10.1 4.6zM29 6.9v9.2l-10.3 4.7v-9.2L29 6.9zm-.9-1L23.5 8 18 10.5l-1.6-.7-2.7-1.2L23.8 4l4.3 1.9zm2.1 6.2l3.7 1.7-3.7 1.7v-3.4zm-18-4.2l-4.3-2L18 1.3l4.3 2-10.1 4.6zm5.2 3.7v9.2L7 16.1V6.9l10.4 4.7zM5.8 15.5l-3.7-1.7 3.7-1.7v3.4zm.6 1.6l10.1 4.6-4.3 2-10.1-4.6 4.3-2z"/></svg>