<svg xmlns="http://www.w3.org/2000/svg" viewBox="0 0 187 40"><path d="M56.3 29.7l-7.2-3.3 7.2-3.3c.3-.2.6-.5.6-.9s-.2-.7-.6-.9l-8.6-4V9.4c0-.2 0-.3-.1-.4v-.1l-.3-.3s-.1 0-.1-.1L28.8.1c-.2-.1-.5-.1-.8 0L9.7 8.5s-.1 0-.1.1l-.3.3V9c-.1.1-.2.3-.2.4v7.8l-8.6 4c-.3.2-.5.5-.5.9s.2.7.6.9l7.2 3.3-7.2 3.3c-.4.2-.6.6-.6 1s.2.7.6.9l18.3 8.4c.1.1.2.1.4.1.1 0 .3 0 .4-.1l8.7-4 8.7 4c.1.1.3.1.4.1.1 0 .3 0 .4-.1l18.3-8.4c.3-.2.6-.5.6-.9s-.2-.8-.5-.9zm-18.7 8.2l-6.8-3.1 15.9-7.4 6.8 3.1-15.9 7.4zM45.7 11v14.7l-16.3 7.5V18.5L45.7 11zm-1.3-1.6l-7.2 3.3-8.7 4-2.5-1-4.3-2 15.9-7.4 6.8 3.1zm3.3 10l5.8 2.7-5.8 2.7v-5.4zm-28.4-6.8l-6.8-3.1 15.9-7.4 6.8 3.1-15.9 7.4zm8.1 5.9v14.7l-16.3-7.5V11l16.3 7.5zM9.1 24.8l-5.8-2.7 5.8-2.7v5.4zm1 2.6L26 34.8l-6.8 3.1-15.9-7.3 6.8-3.2zM82 21.1c1.3-.7 2.8-2 2.8-4.4v-.1c0-1.2-.4-2.3-1.3-3.2-1.2-1.1-2.9-1.7-5.1-1.7h-7.1c-.6 0-1.2.6-1.2 1.2v17c0 .7.5 1.2 1.2 1.2h7.4c4.3 0 7-2.1 7-5.4v-.1c.2-2-1.1-3.6-3.7-4.5zm.4-4.1c0 2.1-1.6 3.3-4.3 3.3h-5.5v-6.4h5.7c2.6 0 4.1 1.1 4.1 3.1zm-9.8 5.5h5.9c3.2 0 5 1.1 5 3.2v.1c0 2-1.8 3.3-4.6 3.3h-6.3v-6.6zm21.9-5.9c-1.7 0-3.1.3-4.6 1-.3.1-.6.5-.6 1 0 .6.5 1 1 1 .1 0 .3 0 .4-.1 1.2-.5 2.4-.8 3.6-.8 2.6 0 4.1 1.3 4.1 3.8v.3c-1.1-.3-2.3-.6-4.2-.6-3.8 0-6.1 1.8-6.1 4.7v.1c0 3 2.7 4.5 5.4 4.5 2.5 0 4.1-1.2 5-2.2v1c0 .6.5 1.1 1.1 1.1s1.1-.5 1.1-1.2v-7.8c0-1.8-.5-3.2-1.5-4.2-1.1-1.1-2.7-1.6-4.7-1.6zm-.7 13c-1.7 0-3.4-.9-3.4-2.7v-.1c0-1.8 1.5-2.8 4-2.8 1.4 0 2.7.2 4 .6v1.3c0 2.1-2 3.7-4.6 3.7zm15.8-6.7c-1.8-.6-3.5-1.1-3.5-2.3v-.1c0-1.1 1.1-1.9 2.6-1.9 1.1 0 2.4.4 3.6 1.1.1 0 .3.1.5.1.6 0 1-.5 1-1 0-.4-.2-.8-.6-1-1.4-.8-3.1-1.2-4.5-1.2-2.9 0-4.9 1.7-4.9 4.2v.1c0 2.8 2.7 3.6 4.7 4.1 1.9.5 3.4 1.1 3.4 2.4v.1c0 1.3-1.1 2.1-2.8 2.1-1.5 0-3-.5-4.4-1.5-.1-.1-.4-.2-.6-.2-.6 0-1 .5-1 1 0 .4.2.7.4.9 1.6 1.1 3.6 1.8 5.5 1.8 3.1 0 5.1-1.8 5.1-4.4v-.1c.1-2.6-2.2-3.5-4.5-4.2zm13.7-6.4c-3.9 0-6.9 3.3-6.9 7.5 0 4.3 3.1 7.5 7.1 7.5 2.2 0 3.8-.7 5.4-2.2.2-.2.4-.5.4-.8 0-.6-.5-1-1-1-.3 0-.5.2-.7.3-1.2 1.1-2.5 1.6-4 1.6-2.6 0-4.5-1.8-4.8-4.6h10.1c.6 0 1.1-.5 1.1-1.1 0-3.6-2.3-7.2-6.7-7.2zm0 2c2.9 0 4.1 2.4 4.4 4.6h-8.8c.2-2.7 2-4.6 4.4-4.6zm33.5-5.3c.1-.1.1-.3.1-.5 0-.6-.6-1.2-1.2-1.2-.5 0-.9.3-1.1.9l-5.2 15-4.9-15c-.2-.6-.6-.9-1.2-.9h-.1c-.6 0-1 .3-1.2.9l-4.9 15-5.1-15c-.2-.6-.7-1-1.2-1-.7 0-1.2.6-1.2 1.2 0 .2.1.4.1.5l6.1 17.1c.2.7.6 1 1.2 1h.2c.6 0 1-.4 1.2-1l4.8-14.5 4.9 14.5c.2.6.7 1 1.2 1h.2c.6 0 1-.4 1.2-1l6.1-17zm6.4 3.3c-3.9 0-6.9 3.3-6.9 7.5 0 4.3 3.1 7.5 7.1 7.5 2.2 0 3.8-.7 5.4-2.2.2-.2.4-.5.4-.8 0-.6-.5-1-1-1-.3 0-.5.2-.7.3-1.2 1.1-2.5 1.6-4 1.6-2.6 0-4.5-1.8-4.8-4.6h10.1c.6 0 1.1-.5 1.1-1.1 0-3.6-2.3-7.2-6.7-7.2zm0 2c2.9 0 4.1 2.4 4.4 4.6h-8.8c.3-2.7 2.1-4.6 4.4-4.6zm17-2c-2.1 0-3.9 1-5.3 2.9V12c0-.7-.5-1.2-1.2-1.2-.6 0-1.1.5-1.1 1.2v18.2c0 .7.5 1.2 1.2 1.2.6 0 1.1-.5 1.1-1.2v-1.4c1.4 1.8 3.1 2.8 5.3 2.8 3.3 0 6.8-2.6 6.8-7.5V24c0-4.9-3.5-7.5-6.8-7.5zm-.4 2.1c2.8 0 4.8 2.3 4.8 5.4 0 3.2-2 5.4-4.8 5.4-2.4 0-5-2-5-5.4v-.1c0-2.5 1.9-5.3 5-5.3z" fill="#303030"/></svg>