<!-- Generated by IcoMoon.io -->
<svg version="1.1" xmlns="http://www.w3.org/2000/svg" width="24" height="24" viewBox="0 0 24 24">
<title>activity</title>
<path d="M22 11h-4c-0.431 0-0.813 0.275-0.95 0.681l-2.050 6.156-5.050-15.156c-0.138-0.406-0.519-0.681-0.95-0.681s-0.813 0.275-0.95 0.681l-2.769 8.319h-3.281c-0.55 0-1 0.45-1 1s0.45 1 1 1h4c0.431 0 0.813-0.275 0.95-0.681l2.050-6.156 5.050 15.156c0.138 0.406 0.519 0.681 0.95 0.681s0.813-0.275 0.95-0.681l2.769-8.319h3.281c0.55 0 1-0.45 1-1s-0.45-1-1-1z"></path>
</svg>
