<!-- Generated by IcoMoon.io -->
<svg version="1.1" xmlns="http://www.w3.org/2000/svg" width="24" height="24" viewBox="0 0 24 24">
<title>airplay</title>
<path d="M20 2h-16c-1.656 0-3 1.344-3 3v10c0 1.656 1.344 3 3 3h1c0.55 0 1-0.45 1-1s-0.45-1-1-1h-1c-0.55 0-1-0.45-1-1v-10c0-0.55 0.45-1 1-1h16c0.55 0 1 0.45 1 1v10c0 0.55-0.45 1-1 1h-1c-0.55 0-1 0.45-1 1s0.45 1 1 1h1c1.656 0 3-1.344 3-3v-10c0-1.656-1.344-3-3-3z"></path>
<path d="M12.769 14.362c-0.188-0.225-0.469-0.363-0.769-0.363-0.294 0-0.581 0.131-0.769 0.363l-5 6c-0.25 0.3-0.3 0.713-0.138 1.062s0.519 0.575 0.906 0.575h10c0.387 0 0.744-0.225 0.906-0.575s0.112-0.769-0.138-1.062l-5-6zM9.138 20l2.862-3.438 2.862 3.438h-5.725z"></path>
</svg>
