<!-- Generated by IcoMoon.io -->
<svg version="1.1" xmlns="http://www.w3.org/2000/svg" width="24" height="24" viewBox="0 0 24 24">
<title>anchor</title>
<path d="M22 11h-3c-0.55 0-1 0.45-1 1s0.45 1 1 1h1.944c-0.462 4.163-3.781 7.481-7.944 7.944v-12.069c1.725-0.444 3-2.013 3-3.875 0-2.206-1.794-4-4-4s-4 1.794-4 4c0 1.863 1.275 3.431 3 3.875v12.069c-4.162-0.462-7.481-3.781-7.944-7.944h1.944c0.55 0 1-0.45 1-1s-0.45-1-1-1h-3c-0.55 0-1 0.45-1 1 0 6.063 4.938 11 11 11s11-4.938 11-11c0-0.55-0.45-1-1-1zM10 5c0-1.1 0.9-2 2-2s2 0.9 2 2-0.9 2-2 2c-1.1 0-2-0.9-2-2z"></path>
</svg>
