<!-- Generated by IcoMoon.io -->
<svg version="1.1" xmlns="http://www.w3.org/2000/svg" width="24" height="24" viewBox="0 0 24 24">
<title>arrow-down</title>
<path d="M18.706 13.294c-0.387-0.387-1.025-0.387-1.413 0l-4.294 4.294v-13.587c0-0.55-0.45-1-1-1s-1 0.45-1 1v13.587l-4.294-4.294c-0.387-0.387-1.025-0.387-1.413 0s-0.387 1.025 0 1.413l6 6c0.012 0.012 0.025 0.025 0.037 0.038 0 0 0 0 0 0s0.006 0.006 0.006 0.006c0 0 0 0 0.006 0.006 0 0 0 0 0.006 0.006 0 0 0.006 0.006 0.006 0.006s0 0 0 0 0.006 0.006 0.006 0.006c0 0 0 0 0 0 0.075 0.063 0.15 0.106 0.231 0.144 0 0 0 0 0.006 0 0 0 0 0 0.006 0 0.106 0.044 0.225 0.075 0.35 0.081 0 0 0 0 0 0 0.006 0 0.006 0 0.012 0 0 0 0 0 0 0s0.006 0 0.006 0c0 0 0.006 0 0.006 0s0.006 0 0.006 0 0.006 0 0.012 0 0.006 0 0.012 0c0 0 0.006 0 0.006 0s0.006 0 0.006 0c0 0 0.006 0 0.006 0s0 0 0 0c0.006 0 0.006 0 0.012 0 0 0 0 0 0 0 0.125-0.006 0.244-0.031 0.35-0.081 0 0 0 0 0 0s0.006 0 0.006 0c0 0 0.006 0 0.006 0s0 0 0 0c0.075-0.031 0.144-0.075 0.213-0.131 0 0 0 0 0 0s0.006-0.006 0.006-0.006c0 0 0 0 0 0s0.006-0.006 0.006-0.006c0 0 0 0 0.006-0.006 0 0 0 0 0.006-0.006 0 0 0.006-0.006 0.006-0.006s0 0 0 0c0.019-0.012 0.031-0.031 0.050-0.050l5.994-5.994c0.406-0.394 0.406-1.031 0.012-1.419z"></path>
</svg>
