<!-- Generated by IcoMoon.io -->
<svg version="1.1" xmlns="http://www.w3.org/2000/svg" width="24" height="24" viewBox="0 0 24 24">
<title>bluetooth</title>
<path d="M13.413 12l4.794-4.794c0.387-0.387 0.387-1.025 0-1.413l-5.5-5.5c-0.288-0.288-0.719-0.369-1.088-0.219-0.375 0.156-0.619 0.519-0.619 0.925v8.587l-3.794-3.794c-0.387-0.387-1.025-0.387-1.413 0s-0.387 1.025 0 1.413l4.794 4.794-4.794 4.794c-0.387 0.387-0.387 1.025 0 1.413s1.025 0.387 1.413 0l3.794-3.794v8.587c0 0.406 0.244 0.769 0.619 0.925 0.125 0.050 0.256 0.075 0.381 0.075 0.262 0 0.519-0.1 0.706-0.294l5.5-5.5c0.387-0.387 0.387-1.025 0-1.413l-4.794-4.794zM13 3.412l3.087 3.087-3.087 3.087v-6.175zM13 20.587v-6.169l3.087 3.087-3.087 3.081z"></path>
</svg>
