<!-- Generated by IcoMoon.io -->
<svg version="1.1" xmlns="http://www.w3.org/2000/svg" width="24" height="24" viewBox="0 0 24 24">
<title>briefcase</title>
<path d="M20 6h-3v-1c0-1.656-1.344-3-3-3h-4c-1.656 0-3 1.344-3 3v1h-3c-1.656 0-3 1.344-3 3v10c0 1.656 1.344 3 3 3h16c1.656 0 3-1.344 3-3v-10c0-1.656-1.344-3-3-3zM9 5c0-0.55 0.45-1 1-1h4c0.55 0 1 0.45 1 1v1h-6v-1zM15 8v12h-6v-12h6zM3 19v-10c0-0.55 0.45-1 1-1h3v12h-3c-0.55 0-1-0.45-1-1zM21 19c0 0.55-0.45 1-1 1h-3v-12h3c0.55 0 1 0.45 1 1v10z"></path>
</svg>
