<!-- Generated by IcoMoon.io -->
<svg version="1.1" xmlns="http://www.w3.org/2000/svg" width="24" height="24" viewBox="0 0 24 24">
<title>camera-off</title>
<path d="M23.706 22.294l-1.994-1.994c0 0-0.006-0.006-0.006-0.006l-5.706-5.706c-0.006-0.006-0.019-0.019-0.025-0.025l-9.269-9.269c0 0 0 0-0.006-0.006l-5-5c-0.387-0.387-1.025-0.387-1.413 0s-0.387 1.025 0 1.413l3.3 3.3h-0.588c-1.656 0-3 1.344-3 3v11c0 1.656 1.344 3 3 3h17.587l1.706 1.706c0.194 0.194 0.45 0.294 0.706 0.294s0.513-0.1 0.706-0.294c0.394-0.387 0.394-1.025 0-1.413zM9.681 11.094l4.225 4.225c-0.537 0.45-1.212 0.7-1.925 0.7-1.656 0-3-1.344-3-3 0-0.712 0.25-1.387 0.7-1.925zM3 20c-0.55 0-1-0.45-1-1v-11c0-0.55 0.45-1 1-1h2.588l2.675 2.675c-0.819 0.906-1.281 2.094-1.281 3.344 0 2.756 2.244 5 5 5 1.244 0 2.431-0.469 3.344-1.287l3.263 3.262h-15.588z"></path>
<path d="M9 4h5.463l1.7 2.556c0.188 0.281 0.5 0.444 0.831 0.444h4c0.55 0 1 0.45 1 1v9.337c0 0.55 0.45 1 1 1s1-0.45 1-1v-9.337c0-1.656-1.344-3-3-3h-3.462l-1.7-2.556c-0.188-0.281-0.5-0.444-0.831-0.444h-6c-0.55 0-1 0.45-1 1s0.45 1 1 1z"></path>
</svg>
