<!-- Generated by IcoMoon.io -->
<svg version="1.1" xmlns="http://www.w3.org/2000/svg" width="24" height="24" viewBox="0 0 24 24">
<title>camera</title>
<path d="M21 5h-3.462l-1.7-2.556c-0.188-0.281-0.5-0.444-0.831-0.444h-6c-0.331 0-0.644 0.169-0.831 0.444l-1.713 2.556h-3.462c-1.656 0-3 1.344-3 3v11c0 1.656 1.344 3 3 3h18c1.656 0 3-1.344 3-3v-11c0-1.656-1.344-3-3-3zM22 19c0 0.55-0.45 1-1 1h-18c-0.55 0-1-0.45-1-1v-11c0-0.55 0.45-1 1-1h4c0.331 0 0.644-0.169 0.831-0.444l1.706-2.556h4.931l1.7 2.556c0.188 0.281 0.5 0.444 0.831 0.444h4c0.55 0 1 0.45 1 1v11z"></path>
<path d="M12 8c-2.756 0-5 2.244-5 5s2.244 5 5 5 5-2.244 5-5-2.244-5-5-5zM12 16c-1.656 0-3-1.344-3-3s1.344-3 3-3c1.656 0 3 1.344 3 3s-1.344 3-3 3z"></path>
</svg>
