<!-- Generated by IcoMoon.io -->
<svg version="1.1" xmlns="http://www.w3.org/2000/svg" width="24" height="24" viewBox="0 0 24 24">
<title>check-circle</title>
<path d="M22 10.069c-0.55 0-1 0.45-1 1v0.931c0 4.962-4.038 8.994-9 8.994s-9-4.038-9-9c0-4.962 4.038-9 9-9 1.3 0 2.55 0.269 3.719 0.8 0.5 0.231 1.094 0.006 1.325-0.494s0.006-1.094-0.494-1.325c-1.431-0.65-2.963-0.981-4.544-0.981-6.063 0-11 4.938-11 11s4.938 11 11 11c6.063 0 10.994-4.931 11-10.994v-0.931c-0.006-0.55-0.456-1-1.006-1z"></path>
<path d="M23.706 2.294c-0.387-0.387-1.025-0.387-1.413 0l-10.294 10.294-2.294-2.294c-0.387-0.387-1.025-0.387-1.413 0s-0.387 1.025 0 1.413l3 3c0.194 0.194 0.45 0.294 0.706 0.294s0.513-0.1 0.706-0.294l11-11c0.394-0.387 0.394-1.025 0-1.413z"></path>
</svg>
