<!-- Generated by IcoMoon.io -->
<svg version="1.1" xmlns="http://www.w3.org/2000/svg" width="24" height="24" viewBox="0 0 24 24">
<title>clock</title>
<path d="M12 1c-6.063 0-11 4.938-11 11s4.938 11 11 11 11-4.938 11-11-4.938-11-11-11zM12 21c-4.962 0-9-4.038-9-9s4.038-9 9-9c4.962 0 9 4.038 9 9s-4.038 9-9 9z"></path>
<path d="M13 11.587v-5.587c0-0.55-0.45-1-1-1s-1 0.45-1 1v6c0 0.263 0.106 0.519 0.294 0.706l3 3c0.194 0.194 0.45 0.294 0.706 0.294s0.513-0.1 0.706-0.294c0.387-0.387 0.387-1.025 0-1.413l-2.706-2.706z"></path>
</svg>
