<!-- Generated by IcoMoon.io -->
<svg version="1.1" xmlns="http://www.w3.org/2000/svg" width="24" height="24" viewBox="0 0 24 24">
<title>cpu</title>
<path d="M15 8h-6c-0.55 0-1 0.45-1 1v6c0 0.55 0.45 1 1 1h6c0.55 0 1-0.45 1-1v-6c0-0.55-0.45-1-1-1zM14 14h-4v-4h4v4z"></path>
<path d="M23 13h-2v-3h2c0.55 0 1-0.45 1-1s-0.45-1-1-1h-2v-2c0-1.656-1.344-3-3-3h-2v-2c0-0.55-0.45-1-1-1s-1 0.45-1 1v2h-4v-2c0-0.55-0.45-1-1-1s-1 0.45-1 1v2h-2c-1.656 0-3 1.344-3 3v2h-2c-0.55 0-1 0.45-1 1s0.45 1 1 1h2v3h-2c-0.55 0-1 0.45-1 1s0.45 1 1 1h2v3c0 1.656 1.344 3 3 3h2v2c0 0.55 0.45 1 1 1s1-0.45 1-1v-2h4v2c0 0.55 0.45 1 1 1s1-0.45 1-1v-2h2c1.656 0 3-1.344 3-3v-3h2c0.55 0 1-0.45 1-1s-0.45-1-1-1zM19 18c0 0.55-0.45 1-1 1h-12c-0.55 0-1-0.45-1-1v-12c0-0.55 0.45-1 1-1h12c0.55 0 1 0.45 1 1v12z"></path>
</svg>
