<!-- Generated by IcoMoon.io -->
<svg version="1.1" xmlns="http://www.w3.org/2000/svg" width="24" height="24" viewBox="0 0 24 24">
<title>download</title>
<path d="M21 16c-0.55 0-1 0.45-1 1v3c0 0.55-0.45 1-1 1h-14c-0.55 0-1-0.45-1-1v-3c0-0.55-0.45-1-1-1s-1 0.45-1 1v3c0 1.656 1.344 3 3 3h14c1.656 0 3-1.344 3-3v-3c0-0.55-0.45-1-1-1z"></path>
<path d="M11.288 16.706c0.012 0.012 0.025 0.025 0.037 0.038 0 0 0 0 0 0s0.006 0.006 0.006 0.006c0 0 0 0 0.006 0.006 0 0 0 0 0.006 0.006 0 0 0.006 0.006 0.006 0.006s0 0 0 0 0.006 0.006 0.006 0.006c0 0 0 0 0 0 0.075 0.063 0.15 0.106 0.231 0.144 0 0 0 0 0.006 0 0 0 0 0 0.006 0 0.106 0.044 0.225 0.075 0.35 0.081 0 0 0 0 0 0 0.006 0 0.006 0 0.012 0 0 0 0 0 0 0s0.006 0 0.006 0c0 0 0.006 0 0.006 0s0.006 0 0.006 0 0.006 0 0.012 0 0.006 0 0.012 0c0 0 0.006 0 0.006 0s0.006 0 0.006 0c0 0 0.006 0 0.006 0s0 0 0 0c0.006 0 0.006 0 0.012 0 0 0 0 0 0 0 0.125-0.006 0.244-0.031 0.35-0.081 0 0 0 0 0 0s0.006 0 0.006 0c0 0 0.006 0 0.006 0s0 0 0 0c0.075-0.031 0.144-0.075 0.213-0.131 0 0 0 0 0 0s0.006-0.006 0.006-0.006c0 0 0 0 0 0s0.006-0.006 0.006-0.006c0 0 0 0 0.006-0.006 0 0 0 0 0.006-0.006 0 0 0.006-0.006 0.006-0.006s0 0 0 0c0.019-0.012 0.031-0.031 0.050-0.050l3.994-3.994c0.387-0.387 0.387-1.025 0-1.413s-1.025-0.387-1.413 0l-2.275 2.287v-11.587c0-0.55-0.45-1-1-1s-1 0.45-1 1v11.587l-2.294-2.294c-0.387-0.387-1.025-0.387-1.413 0s-0.387 1.025 0 1.413l3.994 4z"></path>
</svg>
