<!-- Generated by IcoMoon.io -->
<svg version="1.1" xmlns="http://www.w3.org/2000/svg" width="32" height="32" viewBox="0 0 32 32">
<title>dribbble</title>
<path d="M16 30c-7.722 0-14-6.278-14-14s6.278-14 14-14c7.722 0 14 6.278 14 14s-6.278 14-14 14v0zM27.807 17.914c-0.41-0.131-3.702-1.11-7.448-0.509 1.564 4.298 2.198 7.798 2.324 8.526 2.68-1.816 4.594-4.687 5.124-8.017v0zM20.67 27.025c-0.18-1.050-0.87-4.703-2.548-9.067-0.027 0.011-0.055 0.016-0.077 0.027-6.748 2.352-9.171 7.027-9.384 7.465 2.029 1.581 4.577 2.527 7.339 2.527 1.657 0 3.238-0.339 4.67-0.952v0zM7.113 24.012c0.273-0.465 3.555-5.895 9.718-7.891 0.153-0.049 0.312-0.098 0.47-0.142-0.301-0.678-0.629-1.362-0.968-2.029-5.966 1.788-11.763 1.712-12.288 1.706-0.005 0.12-0.005 0.241-0.005 0.366 0 3.068 1.165 5.873 3.073 7.99v0zM4.297 13.566c0.536 0.005 5.463 0.027 11.058-1.455-1.98-3.522-4.118-6.486-4.435-6.918-3.347 1.58-5.852 4.665-6.623 8.373v0zM13.2 4.39c0.328 0.443 2.505 3.402 4.463 7 4.255-1.591 6.054-4.014 6.267-4.32-2.111-1.876-4.889-3.013-7.93-3.013-0.963 0.005-1.903 0.12-2.8 0.334v0zM25.259 8.459c-0.252 0.339-2.259 2.909-6.677 4.714 0.279 0.569 0.547 1.148 0.793 1.734 0.087 0.208 0.175 0.41 0.257 0.618 3.981-0.498 7.935 0.301 8.329 0.383-0.027-2.822-1.039-5.414-2.702-7.448v0z"></path>
</svg>
