<!-- Generated by IcoMoon.io -->
<svg version="1.1" xmlns="http://www.w3.org/2000/svg" width="24" height="24" viewBox="0 0 24 24">
<title>external-link</title>
<path d="M18 12c-0.55 0-1 0.45-1 1v6c0 0.55-0.45 1-1 1h-11c-0.55 0-1-0.45-1-1v-11c0-0.55 0.45-1 1-1h6c0.55 0 1-0.45 1-1s-0.45-1-1-1h-6c-1.656 0-3 1.344-3 3v11c0 1.656 1.344 3 3 3h11c1.656 0 3-1.344 3-3v-6c0-0.55-0.45-1-1-1z"></path>
<path d="M22 2.963c0 0 0 0 0 0 0-0.006 0-0.006 0-0.012 0 0 0-0.006 0-0.006s0-0.006 0-0.006c0 0 0-0.006 0-0.006s0 0 0 0c-0.006-0.106-0.031-0.206-0.069-0.3 0 0 0 0 0-0.006 0 0 0 0 0-0.006 0 0 0-0.006-0.006-0.006 0 0 0 0 0 0-0.038-0.094-0.094-0.175-0.156-0.256 0 0 0 0 0 0s-0.006-0.006-0.006-0.006c0 0 0 0 0 0s-0.006-0.006-0.006-0.006-0.006-0.006-0.006-0.006 0 0 0-0.006c-0.025-0.025-0.044-0.050-0.069-0.069 0 0 0 0-0.006 0 0 0-0.006-0.006-0.006-0.006s-0.006 0-0.006-0.006c0 0 0 0-0.006 0 0 0-0.006-0.006-0.006-0.006s0 0 0 0c-0.075-0.069-0.162-0.119-0.256-0.156 0 0 0 0 0 0s-0.006 0-0.006 0c0 0 0 0-0.006 0 0 0 0 0-0.006 0-0.094-0.037-0.194-0.063-0.3-0.069 0 0 0 0 0 0s-0.006 0-0.006 0c0 0-0.006 0-0.006 0s-0.006 0-0.006 0c0 0-0.006 0-0.006 0s0 0-0.006 0c-0.012 0-0.025 0-0.038 0h-6c-0.55 0-1 0.45-1 1s0.45 1 1 1h3.588l-9.3 9.275c-0.387 0.387-0.387 1.025 0 1.413 0.194 0.194 0.45 0.294 0.706 0.294s0.513-0.1 0.706-0.294l9.294-9.294v3.588c0 0.55 0.45 1 1 1s1-0.45 1-1v-6c0-0.012 0-0.025 0-0.037z"></path>
</svg>
