<!-- Generated by IcoMoon.io -->
<svg version="1.1" xmlns="http://www.w3.org/2000/svg" width="24" height="24" viewBox="0 0 24 24">
<title>eye-off</title>
<path d="M10.137 5.213c0.569-0.138 1.2-0.213 1.844-0.213h0.025c2.6 0 5.075 1.225 7.356 3.644 1.25 1.325 2.1 2.675 2.494 3.35-0.537 0.931-1.131 1.781-1.8 2.575-0.356 0.419-0.306 1.050 0.119 1.406 0.188 0.156 0.419 0.237 0.644 0.237 0.281 0 0.569-0.119 0.762-0.356 0.875-1.038 1.625-2.144 2.3-3.387 0.156-0.288 0.162-0.631 0.012-0.925-0.044-0.087-1.087-2.156-3.038-4.238-2.65-2.813-5.712-4.306-8.856-4.306h-0.025c-0.794 0-1.594 0.094-2.319 0.269-0.537 0.131-0.863 0.675-0.731 1.206 0.138 0.537 0.675 0.869 1.212 0.738z"></path>
<path d="M23.706 22.294l-5.050-5.050c-0.006-0.006-0.012-0.012-0.025-0.025l-16.925-16.925c-0.387-0.387-1.025-0.387-1.413 0s-0.387 1.025 0 1.413l4.275 4.275c-1.794 1.544-3.288 3.406-4.45 5.538-0.156 0.288-0.162 0.631-0.019 0.925 0.044 0.087 1.088 2.156 3.044 4.237 2.65 2.825 5.712 4.319 8.862 4.319 0.006 0 0.012 0 0.019 0 2.094-0.037 4.081-0.637 5.8-1.756l4.462 4.463c0.194 0.194 0.45 0.294 0.706 0.294s0.513-0.1 0.706-0.294c0.4-0.387 0.4-1.025 0.006-1.413zM10.025 11.444l2.531 2.531c-0.2 0.069-0.412 0.1-0.631 0.1-1.1 0-2-0.9-2-2 0-0.219 0.038-0.431 0.1-0.631zM12 19c-2.6 0-5.075-1.231-7.362-3.644-1.25-1.325-2.1-2.669-2.494-3.35 1.025-1.769 2.319-3.312 3.844-4.606l2.55 2.55c-0.394 0.631-0.612 1.369-0.612 2.125 0 2.206 1.794 4 4 4 0.756 0 1.494-0.219 2.125-0.612l2.325 2.325c-1.319 0.769-2.813 1.188-4.375 1.212z"></path>
</svg>
