<!-- Generated by IcoMoon.io -->
<svg version="1.1" xmlns="http://www.w3.org/2000/svg" width="24" height="24" viewBox="0 0 24 24">
<title>feather</title>
<path d="M15.994 0.994c-1.869 0-3.631 0.731-4.95 2.050l-6.75 6.75c-0.188 0.188-0.294 0.444-0.294 0.706v8.088l-2.706 2.706c-0.387 0.387-0.387 1.025 0 1.413 0.194 0.194 0.45 0.294 0.706 0.294s0.513-0.1 0.706-0.294l2.706-2.706h8.088c0.269 0 0.519-0.106 0.706-0.294l6.738-6.762c1.325-1.325 2.050-3.081 2.050-4.95 0.006-3.863-3.138-7-7-7zM13.087 18h-5.669l2-2h5.663l-1.994 2zM19.531 11.531c0 0 0 0 0 0l-2.463 2.469c-0.025 0-0.044 0-0.069 0h-5.587l5.294-5.294c0.387-0.387 0.387-1.025 0-1.413s-1.025-0.387-1.413 0l-9.294 9.294v-5.669l6.456-6.462c0.944-0.944 2.2-1.462 3.537-1.462 2.756 0 5.006 2.244 5.006 5.006 0 1.331-0.525 2.587-1.469 3.531z"></path>
</svg>
