<!-- Generated by IcoMoon.io -->
<svg version="1.1" xmlns="http://www.w3.org/2000/svg" width="24" height="24" viewBox="0 0 24 24">
<title>file</title>
<path d="M21 8.988c0-0.006 0-0.006 0-0.012 0 0 0 0 0 0-0.006-0.269-0.119-0.506-0.294-0.681l-7-7c0 0-0.006-0.006-0.006-0.006s0 0 0 0-0.006-0.006-0.006-0.006c0 0 0 0 0 0s-0.006-0.006-0.006-0.006c0 0 0 0 0 0s-0.006-0.006-0.006-0.006c0 0 0 0 0 0-0.169-0.156-0.4-0.25-0.644-0.256 0 0 0 0 0 0-0.006 0-0.006 0-0.012 0s-0.006 0-0.012 0h-7.013c-1.656 0-3 1.344-3 3v16c0 1.656 1.344 3 3 3h12c1.656 0 3-1.344 3-3v-11.013c0-0.006 0-0.006 0-0.012zM14 4.413l3.588 3.588h-3.588v-3.588zM18 21h-12c-0.55 0-1-0.45-1-1v-16c0-0.55 0.45-1 1-1h6v6c0 0.55 0.45 1 1 1h6v10c0 0.55-0.45 1-1 1z"></path>
</svg>
