<!-- Generated by IcoMoon.io -->
<svg version="1.1" xmlns="http://www.w3.org/2000/svg" width="24" height="24" viewBox="0 0 24 24">
<title>flag</title>
<path d="M20.375 2.037c-0.387-0.144-0.8-0.063-1.069 0.244-0.312 0.256-1.381 0.719-3.3 0.719-1.306 0-2.438-0.45-3.631-0.931-1.319-0.525-2.681-1.069-4.375-1.069-1.375 0-2.55 0.194-3.494 0.569-0.762 0.306-1.119 0.631-1.212 0.725-0.188 0.188-0.294 0.444-0.294 0.706v19c0 0.55 0.45 1 1 1s1-0.45 1-1v-6.469c0.5-0.244 1.488-0.531 3-0.531 1.306 0 2.438 0.45 3.631 0.931 1.319 0.525 2.681 1.069 4.369 1.069 1.375 0 2.55-0.194 3.494-0.569 0.756-0.3 1.119-0.631 1.212-0.719 0.188-0.188 0.294-0.444 0.294-0.706v-12.006c0-0.419-0.237-0.819-0.625-0.963zM19 14.469c-0.5 0.244-1.488 0.531-3 0.531-1.306 0-2.438-0.45-3.631-0.931-1.319-0.525-2.681-1.069-4.369-1.069-1.144 0-2.15 0.131-3 0.394v-9.862c0.5-0.244 1.488-0.531 3-0.531 1.306 0 2.438 0.45 3.631 0.931 1.313 0.525 2.675 1.069 4.369 1.069 1.144 0 2.15-0.131 3-0.394v9.862z"></path>
</svg>
