<!-- Generated by IcoMoon.io -->
<svg version="1.1" xmlns="http://www.w3.org/2000/svg" width="32" height="32" viewBox="0 0 32 32">
<title>github</title>
<path d="M16 2.387c-7.708 0-13.958 6.249-13.958 13.958 0 6.167 3.999 11.399 9.545 13.244 0.697 0.129 0.954-0.303 0.954-0.671 0-0.333-0.013-1.432-0.019-2.599-3.883 0.844-4.703-1.647-4.703-1.647-0.635-1.613-1.55-2.042-1.55-2.042-1.266-0.866 0.096-0.849 0.096-0.849 1.401 0.098 2.139 1.438 2.139 1.438 1.245 2.134 3.265 1.517 4.062 1.16 0.125-0.902 0.487-1.518 0.886-1.866-3.1-0.353-6.359-1.55-6.359-6.898 0-1.524 0.545-2.769 1.438-3.746-0.145-0.352-0.623-1.771 0.135-3.694 0 0 1.172-0.375 3.839 1.431 1.113-0.309 2.307-0.464 3.494-0.47 1.186 0.005 2.381 0.16 3.496 0.47 2.664-1.806 3.834-1.431 3.834-1.431 0.76 1.923 0.282 3.342 0.137 3.694 0.895 0.977 1.436 2.223 1.436 3.746 0 5.361-3.265 6.541-6.373 6.887 0.501 0.433 0.947 1.282 0.947 2.585 0 1.868-0.016 3.371-0.016 3.83 0 0.372 0.251 0.807 0.959 0.67 5.543-1.848 9.537-7.078 9.537-13.243 0-7.709-6.249-13.958-13.957-13.958z"></path>
</svg>
