<!-- Generated by IcoMoon.io -->
<svg version="1.1" xmlns="http://www.w3.org/2000/svg" width="24" height="24" viewBox="0 0 24 24">
<title>inbox</title>
<path d="M22.906 12.575l-3.462-7.794c-0.488-1.081-1.563-1.781-2.744-1.781h-9.4c-1.175 0-2.25 0.694-2.738 1.762-0.006 0.012-0.012 0.025-0.012 0.038l-3.456 7.775c-0.063 0.131-0.094 0.275-0.094 0.425v5c0 1.656 1.344 3 3 3h16c1.656 0 3-1.344 3-3v-5c0-0.15-0.031-0.294-0.094-0.425zM6.381 5.594c0.006-0.006 0.006-0.012 0.012-0.019 0.162-0.35 0.519-0.575 0.906-0.575h9.4c0.4 0 0.75 0.231 0.912 0.594l2.85 6.406h-4.462c-0.331 0-0.644 0.169-0.831 0.444l-1.706 2.556h-2.931l-1.7-2.556c-0.188-0.281-0.5-0.444-0.831-0.444h-4.463l2.844-6.406zM20 19h-16c-0.55 0-1-0.45-1-1v-4h4.463l1.7 2.556c0.188 0.281 0.5 0.444 0.831 0.444h4c0.331 0 0.644-0.169 0.831-0.444l1.7-2.556h4.475v4c0 0.55-0.45 1-1 1z"></path>
</svg>
