<!-- Generated by IcoMoon.io -->
<svg version="1.1" xmlns="http://www.w3.org/2000/svg" width="24" height="24" viewBox="0 0 24 24">
<title>instagram</title>
<path d="M17 1h-10c-3.306 0-6 2.694-6 6v10c0 3.306 2.694 6 6 6h10c3.306 0 6-2.694 6-6v-10c0-3.306-2.694-6-6-6zM21 17c0 2.206-1.794 4-4 4h-10c-2.206 0-4-1.794-4-4v-10c0-2.206 1.794-4 4-4h10c2.206 0 4 1.794 4 4v10z"></path>
<path d="M16.987 11.225c0-0.012 0-0.019-0.006-0.031-0.162-1.056-0.65-2.019-1.406-2.775s-1.719-1.244-2.775-1.406c-0.25-0.038-0.506-0.056-0.762-0.056-2.756 0-5 2.244-5 5s2.244 5 5 5c2.756 0 5-2.244 5-5 0-0.25-0.019-0.5-0.050-0.725v-0.006zM12.044 14.956c-1.656 0-3-1.344-3-3s1.344-3 3-3c0.156 0 0.306 0.012 0.456 0.037 1.275 0.194 2.306 1.219 2.506 2.494v0.006c0 0.012 0 0.019 0.006 0.031 0.019 0.131 0.031 0.281 0.031 0.431 0 1.656-1.344 3-3 3z"></path>
<path d="M17.5 5.5c-0.263 0-0.519 0.106-0.706 0.294s-0.294 0.444-0.294 0.706 0.106 0.519 0.294 0.706c0.188 0.188 0.444 0.294 0.706 0.294s0.519-0.106 0.706-0.294c0.188-0.188 0.294-0.444 0.294-0.706s-0.106-0.519-0.294-0.706c-0.188-0.188-0.444-0.294-0.706-0.294z"></path>
</svg>
