<!-- Generated by IcoMoon.io -->
<svg version="1.1" xmlns="http://www.w3.org/2000/svg" width="24" height="24" viewBox="0 0 24 24">
<title>layers</title>
<path d="M1.55 7.894l10 5c0.144 0.069 0.294 0.106 0.45 0.106s0.306-0.037 0.45-0.106l10-5c0.338-0.169 0.55-0.519 0.55-0.894s-0.213-0.725-0.55-0.894l-10-5c-0.281-0.144-0.612-0.144-0.894 0l-10 5c-0.337 0.169-0.55 0.519-0.55 0.894s0.206 0.725 0.544 0.894zM12 3.119l7.763 3.881-7.763 3.881-7.762-3.881 7.762-3.881z"></path>
<path d="M21.55 16.106l-9.55 4.775-9.55-4.775c-0.494-0.25-1.094-0.044-1.344 0.45s-0.044 1.094 0.45 1.344l10 5c0.144 0.069 0.294 0.106 0.45 0.106s0.306-0.037 0.45-0.106l10-5c0.494-0.25 0.694-0.85 0.45-1.344-0.256-0.5-0.856-0.7-1.356-0.45z"></path>
<path d="M1.55 12.894l10 5c0.144 0.069 0.294 0.106 0.45 0.106s0.306-0.038 0.45-0.106l10-5c0.494-0.25 0.694-0.85 0.45-1.344-0.25-0.494-0.85-0.694-1.344-0.45l-9.556 4.781-9.55-4.775c-0.494-0.25-1.094-0.044-1.344 0.45-0.25 0.487-0.050 1.094 0.444 1.338z"></path>
</svg>
