<!-- Generated by IcoMoon.io -->
<svg version="1.1" xmlns="http://www.w3.org/2000/svg" width="24" height="24" viewBox="0 0 24 24">
<title>loader</title>
<path d="M12 1c-0.55 0-1 0.45-1 1v4c0 0.55 0.45 1 1 1s1-0.45 1-1v-4c0-0.55-0.45-1-1-1z"></path>
<path d="M12 17c-0.55 0-1 0.45-1 1v4c0 0.55 0.45 1 1 1s1-0.45 1-1v-4c0-0.55-0.45-1-1-1z"></path>
<path d="M5.637 4.225c-0.387-0.387-1.025-0.387-1.413 0s-0.387 1.025 0 1.413l2.831 2.831c0.194 0.194 0.45 0.294 0.706 0.294s0.513-0.1 0.706-0.294c0.387-0.387 0.387-1.025 0-1.413l-2.831-2.831z"></path>
<path d="M16.95 15.531c-0.387-0.387-1.025-0.387-1.413 0s-0.387 1.025 0 1.413l2.831 2.831c0.194 0.194 0.45 0.294 0.706 0.294s0.513-0.1 0.706-0.294c0.387-0.387 0.387-1.025 0-1.413l-2.831-2.831z"></path>
<path d="M7 12c0-0.55-0.45-1-1-1h-4c-0.55 0-1 0.45-1 1s0.45 1 1 1h4c0.55 0 1-0.45 1-1z"></path>
<path d="M22 11h-4c-0.55 0-1 0.45-1 1s0.45 1 1 1h4c0.55 0 1-0.45 1-1s-0.45-1-1-1z"></path>
<path d="M7.050 15.531l-2.831 2.831c-0.387 0.387-0.387 1.025 0 1.413 0.194 0.194 0.45 0.294 0.706 0.294s0.513-0.1 0.706-0.294l2.831-2.831c0.387-0.387 0.387-1.025 0-1.413s-1.019-0.387-1.413 0z"></path>
<path d="M16.237 8.763c0.256 0 0.513-0.1 0.706-0.294l2.831-2.831c0.387-0.387 0.387-1.025 0-1.413s-1.025-0.387-1.413 0l-2.831 2.831c-0.387 0.387-0.387 1.025 0 1.413 0.2 0.194 0.45 0.294 0.706 0.294z"></path>
</svg>
