<!-- Generated by IcoMoon.io -->
<svg version="1.1" xmlns="http://www.w3.org/2000/svg" width="24" height="24" viewBox="0 0 24 24">
<title>mail</title>
<path d="M23 5.981c-0.012-1.644-1.35-2.981-3-2.981h-16c-1.65 0-2.988 1.331-3 2.981 0 0.012 0 0.019 0 0.031v11.988c0 1.656 1.344 3 3 3h16c1.656 0 3-1.344 3-3v-11.988c0-0.012 0-0.025 0-0.031zM4 5h16c0.394 0 0.731 0.225 0.894 0.556l-8.894 6.225-8.894-6.225c0.162-0.331 0.5-0.556 0.894-0.556zM20 19h-16c-0.55 0-1-0.45-1-1v-10.081l8.425 5.9c0.175 0.119 0.375 0.181 0.575 0.181s0.4-0.063 0.575-0.181l8.425-5.9v10.081c0 0.55-0.45 1-1 1z"></path>
</svg>
