<!-- Generated by IcoMoon.io -->
<svg version="1.1" xmlns="http://www.w3.org/2000/svg" width="24" height="24" viewBox="0 0 24 24">
<title>minimize</title>
<path d="M8 2c-0.55 0-1 0.45-1 1v3c0 0.55-0.45 1-1 1h-3c-0.55 0-1 0.45-1 1s0.45 1 1 1h3c1.656 0 3-1.344 3-3v-3c0-0.55-0.45-1-1-1z"></path>
<path d="M18 9h3c0.55 0 1-0.45 1-1s-0.45-1-1-1h-3c-0.55 0-1-0.45-1-1v-3c0-0.55-0.45-1-1-1s-1 0.45-1 1v3c0 1.656 1.344 3 3 3z"></path>
<path d="M21 15h-3c-1.656 0-3 1.344-3 3v3c0 0.55 0.45 1 1 1s1-0.45 1-1v-3c0-0.55 0.45-1 1-1h3c0.55 0 1-0.45 1-1s-0.45-1-1-1z"></path>
<path d="M6 15h-3c-0.55 0-1 0.45-1 1s0.45 1 1 1h3c0.55 0 1 0.45 1 1v3c0 0.55 0.45 1 1 1s1-0.45 1-1v-3c0-1.656-1.344-3-3-3z"></path>
</svg>
