<!-- Generated by IcoMoon.io -->
<svg version="1.1" xmlns="http://www.w3.org/2000/svg" width="24" height="24" viewBox="0 0 24 24">
<title>minimize-2</title>
<path d="M21.706 2.294c-0.387-0.387-1.025-0.387-1.413 0l-5.294 5.294v-3.588c0-0.55-0.45-1-1-1s-1 0.45-1 1v6c0 0.012 0 0.025 0 0.037 0 0 0 0 0 0.006 0 0 0 0.006 0 0.006s0 0.006 0 0.006c0 0 0 0.006 0 0.006s0 0.006 0 0.006c0 0 0 0 0 0 0.006 0.106 0.031 0.206 0.069 0.3 0 0 0 0 0 0.006 0 0 0 0 0 0.006 0 0 0 0.006 0.006 0.006 0 0 0 0 0 0 0.037 0.094 0.094 0.175 0.156 0.256 0 0 0 0 0 0s0.006 0.006 0.006 0.006c0 0 0 0 0 0s0.006 0.006 0.006 0.006 0.006 0.006 0.006 0.006 0 0 0 0.006c0.025 0.025 0.044 0.050 0.069 0.069 0 0 0 0 0.006 0 0 0 0.006 0.006 0.006 0.006s0.006 0 0.006 0.006c0 0 0 0 0.006 0 0 0 0.006 0.006 0.006 0.006s0 0 0 0c0.075 0.069 0.162 0.119 0.25 0.156 0 0 0 0 0.006 0 0 0 0.006 0 0.006 0s0.006 0 0.006 0c0 0 0 0 0 0 0.1 0.044 0.213 0.069 0.325 0.075 0 0 0 0 0 0 0.006 0 0.006 0 0.012 0 0 0 0 0 0 0s0.006 0 0.006 0c0 0 0.006 0 0.006 0s0.006 0 0.006 0 0.006 0 0.012 0h6c0.55 0 1-0.45 1-1s-0.45-1-1-1h-3.588l5.294-5.294c0.406-0.375 0.406-1.012 0.012-1.4z"></path>
<path d="M10.925 13.612c0 0 0-0.006-0.006-0.006 0 0 0 0 0-0.006 0 0 0 0 0-0.006-0.038-0.087-0.087-0.169-0.15-0.244 0 0 0 0 0 0s-0.006-0.006-0.006-0.006c0 0 0 0-0.006-0.006 0 0 0 0-0.006-0.006 0 0-0.006-0.006-0.006-0.006s0 0 0 0c-0.025-0.025-0.044-0.050-0.069-0.069 0 0 0 0 0 0s-0.006-0.006-0.006-0.006c0 0 0 0-0.006-0.006 0 0 0 0-0.006-0.006 0 0-0.006-0.006-0.006-0.006s0 0 0 0-0.006-0.006-0.006-0.006v0c-0.069-0.056-0.138-0.1-0.213-0.138v0c0 0-0.006 0-0.006 0s-0.006 0-0.006 0c0 0 0 0 0 0-0.125-0.056-0.263-0.087-0.406-0.087h-6.012c-0.55 0-1 0.45-1 1s0.45 1 1 1h3.588l-5.294 5.294c-0.387 0.387-0.387 1.025 0 1.413 0.194 0.194 0.45 0.294 0.706 0.294s0.513-0.1 0.706-0.294l5.294-5.294v3.588c0 0.55 0.45 1 1 1s1-0.45 1-1v-6c0-0.138-0.025-0.269-0.075-0.387 0 0 0 0 0 0z"></path>
</svg>
