<!-- Generated by IcoMoon.io -->
<svg version="1.1" xmlns="http://www.w3.org/2000/svg" width="24" height="24" viewBox="0 0 24 24">
<title>moon</title>
<path d="M21.825 12.188c-0.325-0.444-0.944-0.544-1.388-0.225l-0.019 0.012c-0.012 0.006-0.025 0.019-0.038 0.025-1.031 0.756-2.256 1.156-3.544 1.156-3.306 0-6-2.694-6-6 0-1.275 0.406-2.544 1.15-3.575 0.231-0.319 0.25-0.744 0.056-1.081s-0.569-0.531-0.963-0.494c-2.463 0.237-4.744 1.375-6.425 3.206-1.687 1.844-2.619 4.244-2.619 6.744 0 5.512 4.488 10 10 10 2.506 0 4.9-0.931 6.75-2.625 1.788-1.644 2.919-3.862 3.194-6.275 0.081-0.281 0.038-0.606-0.156-0.869zM17.431 17.862c-1.475 1.35-3.394 2.1-5.394 2.1-4.413 0-8-3.588-8-8 0-2 0.744-3.919 2.094-5.394 0.881-0.963 1.975-1.688 3.181-2.125-0.306 0.875-0.469 1.8-0.469 2.725 0 4.413 3.588 8 8 8 0.938 0 1.856-0.162 2.719-0.469-0.444 1.194-1.169 2.281-2.131 3.162z"></path>
</svg>
