<!-- Generated by IcoMoon.io -->
<svg version="1.1" xmlns="http://www.w3.org/2000/svg" width="24" height="24" viewBox="0 0 24 24">
<title>more-horizontal</title>
<path d="M12 9c-1.656 0-3 1.344-3 3s1.344 3 3 3c1.656 0 3-1.344 3-3s-1.344-3-3-3zM12 13c-0.55 0-1-0.45-1-1s0.45-1 1-1 1 0.45 1 1-0.45 1-1 1z"></path>
<path d="M20 9c-1.656 0-3 1.344-3 3s1.344 3 3 3 3-1.344 3-3c0-1.656-1.344-3-3-3zM20 13c-0.55 0-1-0.45-1-1s0.45-1 1-1 1 0.45 1 1-0.45 1-1 1z"></path>
<path d="M4 9c-1.656 0-3 1.344-3 3s1.344 3 3 3 3-1.344 3-3c0-1.656-1.344-3-3-3zM4 13c-0.55 0-1-0.45-1-1s0.45-1 1-1 1 0.45 1 1-0.45 1-1 1z"></path>
</svg>
