<!-- Generated by IcoMoon.io -->
<svg version="1.1" xmlns="http://www.w3.org/2000/svg" width="24" height="24" viewBox="0 0 24 24">
<title>move</title>
<path d="M22.744 12.669c0 0 0 0 0 0 0.006-0.006 0.006-0.006 0.006-0.006s0 0 0 0 0.006-0.006 0.006-0.006c0 0 0.006-0.006 0.006-0.006s0 0 0 0 0.006-0.006 0.006-0.006c0 0 0 0 0 0 0.063-0.075 0.113-0.156 0.15-0.244 0 0 0 0 0-0.006 0 0 0-0.006 0-0.006s0-0.006 0-0.006c0 0 0 0 0 0 0.038-0.094 0.063-0.194 0.069-0.3 0 0 0 0 0 0s0-0.006 0-0.006c0 0 0-0.006 0-0.006s0-0.006 0-0.006c0 0 0-0.006 0-0.006s0 0 0-0.006c0-0.025 0-0.050 0-0.075 0 0 0 0 0-0.006 0 0 0-0.006 0-0.006s0-0.006 0-0.006c0 0 0-0.006 0-0.006s0-0.006 0-0.006c0 0 0 0 0 0-0.006-0.1-0.031-0.2-0.069-0.294 0 0 0 0 0 0s0-0.006 0-0.006c0 0 0-0.006 0-0.006s0 0 0 0c-0.044-0.106-0.106-0.206-0.188-0.294 0 0 0 0 0 0s-0.006-0.006-0.006-0.006c0 0 0 0-0.006-0.006 0 0 0-0.006-0.006-0.006 0 0-0.006-0.006-0.006-0.006s0 0-0.006-0.006c0 0-0.006-0.006-0.006-0.006l-3-3c-0.387-0.387-1.025-0.387-1.413 0s-0.387 1.025 0 1.413l1.294 1.294h-6.575v-6.6l1.294 1.294c0.194 0.194 0.45 0.294 0.706 0.294s0.513-0.1 0.706-0.294c0.387-0.387 0.387-1.025 0-1.413l-3-3c0 0-0.006-0.006-0.006-0.006s0 0-0.006-0.006c0 0-0.006-0.006-0.006-0.006s-0.006-0.006-0.006-0.006c0 0 0 0-0.006-0.006 0 0-0.006-0.006-0.006-0.006s0 0 0 0-0.006-0.006-0.006-0.006c0 0 0 0 0 0-0.081-0.075-0.175-0.131-0.275-0.175 0 0 0 0 0 0s-0.006 0-0.006 0c0 0-0.006 0-0.006 0s0 0 0 0c-0.1-0.044-0.213-0.069-0.325-0.069 0 0 0 0 0 0-0.006 0-0.006 0-0.012 0 0 0 0 0 0 0s-0.006 0-0.006 0c0 0-0.006 0-0.006 0s-0.006 0-0.006 0-0.006 0-0.012 0v0 0c-0.006 0-0.006 0-0.012 0 0 0-0.006 0-0.006 0s-0.006 0-0.006 0c0 0-0.006 0-0.006 0s0 0 0 0c-0.006 0-0.006 0-0.012 0 0 0 0 0 0 0-0.113 0.006-0.225 0.031-0.325 0.069 0 0 0 0-0.006 0 0 0 0 0-0.006 0-0.119 0.050-0.231 0.119-0.325 0.219l-3 3c-0.387 0.387-0.387 1.025 0 1.413s1.025 0.387 1.413 0l1.287-1.294v6.588h-6.588l1.294-1.294c0.387-0.387 0.387-1.025 0-1.413s-1.025-0.387-1.413 0l-3 3c-0.1 0.1-0.169 0.206-0.219 0.325 0 0 0 0 0 0s0 0.006 0 0.006c0 0 0 0.006 0 0.006s0 0 0 0c-0.038 0.1-0.063 0.206-0.069 0.319v0c0 0.006 0 0.006 0 0.012 0 0 0 0 0 0s0 0.006 0 0.006c0 0 0 0.006 0 0.006s0 0.006 0 0.006 0 0.006 0 0.012v0 0c0 0.006 0 0.006 0 0.012 0 0 0 0.006 0 0.006s0 0.006 0 0.006c0 0 0 0.006 0 0.006s0 0 0 0c0 0.006 0 0.006 0 0.012 0 0 0 0 0 0 0.006 0.112 0.031 0.225 0.069 0.325 0 0 0 0 0 0s0 0.006 0 0.006c0 0 0 0.006 0 0.006s0 0 0 0c0.044 0.1 0.1 0.188 0.175 0.275 0 0 0 0 0 0s0.006 0.006 0.006 0.006c0 0 0 0 0 0s0.006 0.006 0.006 0.006c0 0 0 0 0.006 0.006 0 0 0.006 0.006 0.006 0.006s0.006 0.006 0.006 0.006c0 0 0 0 0.006 0.006 0 0 0.006 0.006 0.006 0.006l3 3c0.194 0.194 0.45 0.294 0.706 0.294s0.513-0.1 0.706-0.294c0.387-0.387 0.387-1.025 0-1.413l-1.294-1.281h6.588v6.588l-1.294-1.294c-0.387-0.387-1.025-0.387-1.413 0s-0.387 1.025 0 1.413l3 3c0 0 0.006 0.006 0.006 0.006s0 0 0.006 0.006c0 0 0.006 0.006 0.006 0.006s0 0 0.006 0.006c0 0 0.006 0.006 0.006 0.006s0.006 0 0.006 0.006c0 0 0 0 0.006 0.006 0 0 0.006 0.006 0.006 0.006s0 0 0 0c0.081 0.069 0.169 0.125 0.262 0.169 0 0 0 0 0 0s0.006 0 0.006 0c0 0 0.006 0 0.006 0s0 0 0 0c0.106 0.044 0.219 0.069 0.338 0.075 0 0 0 0 0 0 0.006 0 0.006 0 0.012 0 0 0 0 0 0 0s0.006 0 0.006 0c0 0 0.006 0 0.006 0s0.006 0 0.006 0 0.006 0 0.012 0 0.006 0 0.012 0c0 0 0.006 0 0.006 0s0.006 0 0.006 0c0 0 0.006 0 0.006 0s0 0 0 0c0.006 0 0.006 0 0.012 0 0 0 0 0 0 0 0.125-0.006 0.244-0.031 0.35-0.081 0 0 0 0 0 0s0.006 0 0.006 0c0 0 0.006 0 0.006 0s0 0 0 0c0.075-0.031 0.144-0.075 0.213-0.131 0 0 0 0 0 0s0.006-0.006 0.006-0.006c0 0 0 0 0 0s0.006-0.006 0.006-0.006c0 0 0 0 0.006-0.006 0 0 0 0 0.006-0.006 0 0 0.006-0.006 0.006-0.006s0 0 0 0c0.019-0.012 0.031-0.031 0.050-0.050l2.994-2.994c0.387-0.387 0.387-1.025 0-1.413s-1.025-0.387-1.413 0l-1.281 1.287v-6.588h6.588l-1.294 1.294c-0.387 0.387-0.387 1.025 0 1.413 0.194 0.194 0.45 0.294 0.706 0.294s0.513-0.1 0.706-0.294l2.994-2.994c0.019-0.012 0.031-0.031 0.044-0.044z"></path>
</svg>
