<!-- Generated by IcoMoon.io -->
<svg version="1.1" xmlns="http://www.w3.org/2000/svg" width="24" height="24" viewBox="0 0 24 24">
<title>phone</title>
<path d="M20.356 13.894c0 0-0.006 0-0.006 0-0.888-0.119-1.75-0.338-2.506-0.631-0.344-0.131-0.706-0.2-1.075-0.2-0.788 0-1.531 0.3-2.094 0.85l-0.781 0.713c-1.806-1.162-3.356-2.725-4.537-4.563l0.719-0.719c0.556-0.563 0.869-1.313 0.869-2.112 0-0.356-0.063-0.725-0.169-0.987-0.325-0.85-0.544-1.725-0.669-2.675 0-0.006 0-0.006 0-0.012-0.213-1.462-1.488-2.562-2.969-2.562h-3.019c-1.65 0-3 1.35-3 3 0 0.106 0.006 0.2 0.019 0.363 0 0.006 0 0.012 0 0.019 0.356 3.231 1.481 6.375 3.262 9.094 1.581 2.456 3.713 4.587 6.175 6.169 2.744 1.8 5.819 2.9 9.131 3.269 0.006 0 0.012 0 0.019 0 0.094 0.006 0.188 0.012 0.281 0.012 1.656 0 3-1.344 3-3v-3c0-0.019 0-0.038 0-0.056-0.006-1.5-1.119-2.75-2.65-2.969zM8.919 7.012c0-0.006 0-0.006-0.006-0.012 0.006 0 0.006 0.006 0.006 0.012zM21 16.9c0 0.012 0 0.025 0 0.044v2.988c0 0.55-0.45 1-1 1-0.031 0-0.056 0-0.087-0.006-2.994-0.337-5.769-1.331-8.25-2.956 0 0-0.006-0.006-0.006-0.006-2.219-1.425-4.15-3.356-5.575-5.575 0 0 0-0.006-0.006-0.006-1.612-2.456-2.631-5.3-2.95-8.212-0.012-0.119-0.012-0.15-0.012-0.169 0-0.55 0.45-1 1-1h3c0.006 0 0.006 0 0.012 0h0.006c0.494 0 0.919 0.363 0.987 0.85 0.15 1.106 0.406 2.131 0.787 3.125 0 0.006 0.006 0.012 0.006 0.012 0.012 0.037 0.025 0.138 0.025 0.244 0 0.263-0.1 0.513-0.288 0.7l-1.269 1.269c-0.319 0.319-0.387 0.813-0.162 1.206 1.519 2.644 3.694 4.831 6.288 6.325 0.375 0.219 0.85 0.169 1.175-0.125l1.35-1.231c0.012-0.006 0.019-0.019 0.031-0.025 0.188-0.188 0.438-0.288 0.7-0.288 0.125 0 0.244 0.025 0.356 0.063 0.894 0.344 1.919 0.606 2.95 0.744 0.544 0.081 0.925 0.487 0.925 1 0.006 0.012 0.006 0.019 0.006 0.031z"></path>
</svg>
