<!-- Generated by IcoMoon.io -->
<svg version="1.1" xmlns="http://www.w3.org/2000/svg" width="24" height="24" viewBox="0 0 24 24">
<title>phone-off</title>
<path d="M1.137 4.381c0.363 3.219 1.475 6.325 3.219 8.975 0.194 0.294 0.513 0.45 0.837 0.45 0.188 0 0.381-0.056 0.55-0.162 0.462-0.306 0.588-0.925 0.288-1.388-1.575-2.394-2.575-5.187-2.9-8.094-0.012-0.125-0.012-0.15-0.012-0.169 0-0.55 0.45-1 1-1h3c0.006 0 0.006 0 0.012 0h0.006c0.494 0 0.919 0.363 0.987 0.85 0.15 1.106 0.406 2.131 0.787 3.125 0 0.006 0.006 0.012 0.006 0.012 0.012 0.038 0.025 0.138 0.025 0.244 0 0.263-0.1 0.513-0.288 0.7l-1.269 1.269c-0.387 0.387-0.387 1.025 0 1.413s1.025 0.387 1.413 0l1.275-1.275c0.556-0.563 0.869-1.313 0.869-2.112 0-0.356-0.063-0.725-0.169-0.981-0.325-0.85-0.544-1.725-0.669-2.675 0-0.006 0-0.006 0-0.012-0.213-1.463-1.488-2.562-2.969-2.562h-3.019c-1.65 0-3 1.35-3 3 0 0.106 0.006 0.2 0.019 0.363-0.006 0.019-0.006 0.025 0 0.031zM8.919 7.006c0-0.006 0-0.006-0.006-0.012 0.006 0.006 0.006 0.012 0.006 0.012z"></path>
<path d="M23.706 0.294c-0.387-0.387-1.025-0.387-1.413 0l-12.231 12.231c-0.031 0.025-0.063 0.050-0.087 0.081-0.031 0.031-0.056 0.056-0.081 0.087l-9.6 9.6c-0.387 0.387-0.387 1.025 0 1.413 0.194 0.194 0.45 0.294 0.706 0.294s0.513-0.1 0.706-0.294l6.162-6.162c0.844 0.762 1.744 1.456 2.7 2.069 2.744 1.8 5.819 2.9 9.131 3.269 0.006 0 0.012 0 0.019 0 0.094 0.006 0.188 0.012 0.281 0.012 1.656 0 3-1.344 3-3v-3.025c0-1.506-1.113-2.756-2.644-2.975 0 0-0.006 0-0.006 0-0.888-0.119-1.75-0.337-2.506-0.631-0.344-0.131-0.706-0.2-1.075-0.2-0.787 0-1.531 0.3-2.094 0.85l-0.781 0.712c-0.619-0.4-1.212-0.844-1.769-1.331l11.581-11.587c0.394-0.387 0.394-1.025 0-1.413zM13.512 16.737c0.375 0.219 0.85 0.169 1.175-0.125l1.35-1.231c0.012-0.006 0.019-0.019 0.031-0.025 0.188-0.188 0.438-0.288 0.7-0.288 0.125 0 0.244 0.025 0.356 0.063 0.894 0.344 1.919 0.606 2.95 0.744 0.544 0.081 0.925 0.488 0.925 1v0.012c0 0 0 0.006 0 0.006v3.006c0 0.55-0.45 1-1 1-0.031 0-0.056 0-0.087-0.006-2.994-0.337-5.769-1.331-8.25-2.956 0 0-0.006-0.006-0.006-0.006-0.837-0.537-1.625-1.144-2.369-1.806l1.419-1.419c0.862 0.769 1.806 1.45 2.806 2.031z"></path>
</svg>
