<!-- Generated by IcoMoon.io -->
<svg version="1.1" xmlns="http://www.w3.org/2000/svg" width="24" height="24" viewBox="0 0 24 24">
<title>plus-square</title>
<path d="M19 2h-14c-1.656 0-3 1.344-3 3v14c0 1.656 1.344 3 3 3h14c1.656 0 3-1.344 3-3v-14c0-1.656-1.344-3-3-3zM20 19c0 0.55-0.45 1-1 1h-14c-0.55 0-1-0.45-1-1v-14c0-0.55 0.45-1 1-1h14c0.55 0 1 0.45 1 1v14z"></path>
<path d="M16 11h-3v-3c0-0.55-0.45-1-1-1s-1 0.45-1 1v3h-3c-0.55 0-1 0.45-1 1s0.45 1 1 1h3v3c0 0.55 0.45 1 1 1s1-0.45 1-1v-3h3c0.55 0 1-0.45 1-1s-0.45-1-1-1z"></path>
</svg>
