<!-- Generated by IcoMoon.io -->
<svg version="1.1" xmlns="http://www.w3.org/2000/svg" width="24" height="24" viewBox="0 0 24 24">
<title>printer</title>
<path d="M20 8h-1v-6c0-0.55-0.45-1-1-1h-12c-0.55 0-1 0.45-1 1v6h-1c-1.656 0-3 1.344-3 3v5c0 1.656 1.344 3 3 3h1v3c0 0.55 0.45 1 1 1h12c0.55 0 1-0.45 1-1v-3h1c1.656 0 3-1.344 3-3v-5c0-1.656-1.344-3-3-3zM7 3h10v5h-10v-5zM17 21h-10v-6h10v6zM21 16c0 0.55-0.45 1-1 1h-1v-3c0-0.55-0.45-1-1-1h-12c-0.55 0-1 0.45-1 1v3h-1c-0.55 0-1-0.45-1-1v-5c0-0.55 0.45-1 1-1h16c0.55 0 1 0.45 1 1v5z"></path>
</svg>
