<!-- Generated by IcoMoon.io -->
<svg version="1.1" xmlns="http://www.w3.org/2000/svg" width="24" height="24" viewBox="0 0 24 24">
<title>radio</title>
<path d="M12 9c-1.656 0-3 1.344-3 3s1.344 3 3 3c1.656 0 3-1.344 3-3s-1.344-3-3-3zM12 13c-0.55 0-1-0.45-1-1s0.45-1 1-1 1 0.45 1 1-0.45 1-1 1z"></path>
<path d="M16.944 7.050c-0.394-0.387-1.025-0.387-1.413 0-0.387 0.394-0.387 1.025 0 1.413 0.944 0.944 1.469 2.2 1.469 3.537s-0.519 2.594-1.469 3.537c-0.394 0.387-0.394 1.025 0 1.413 0.194 0.194 0.45 0.294 0.706 0.294s0.513-0.1 0.706-0.294c1.325-1.325 2.050-3.081 2.050-4.95 0.006-1.869-0.725-3.625-2.050-4.95z"></path>
<path d="M7 11.994c0-1.338 0.519-2.594 1.469-3.537 0.394-0.387 0.394-1.025 0-1.413-0.387-0.394-1.025-0.394-1.413 0-1.325 1.319-2.056 3.081-2.056 4.95s0.731 3.631 2.050 4.95c0.194 0.194 0.45 0.294 0.706 0.294s0.513-0.1 0.706-0.294c0.387-0.394 0.387-1.025 0-1.413-0.944-0.944-1.462-2.2-1.462-3.537z"></path>
<path d="M19.775 4.225c-0.387-0.387-1.025-0.394-1.413 0-0.387 0.387-0.387 1.025 0 1.413 1.7 1.7 2.637 3.956 2.637 6.363s-0.938 4.662-2.637 6.363c-0.387 0.387-0.387 1.025 0 1.413 0.194 0.194 0.45 0.294 0.706 0.294s0.513-0.1 0.706-0.294c2.081-2.075 3.225-4.837 3.225-7.775s-1.144-5.7-3.225-7.775z"></path>
<path d="M3 12c0-2.406 0.938-4.662 2.637-6.363 0.387-0.387 0.387-1.025 0-1.413s-1.025-0.387-1.413 0c-2.081 2.075-3.225 4.838-3.225 7.775s1.144 5.7 3.219 7.775c0.194 0.194 0.45 0.294 0.706 0.294s0.513-0.1 0.706-0.294c0.387-0.387 0.394-1.025 0-1.413-1.694-1.7-2.631-3.956-2.631-6.363z"></path>
</svg>
