<!-- Generated by IcoMoon.io -->
<svg version="1.1" xmlns="http://www.w3.org/2000/svg" width="24" height="24" viewBox="0 0 24 24">
<title>refresh-cw</title>
<path d="M24 4c0-0.55-0.45-1-1-1s-1 0.45-1 1v3.687l-2.944-2.769c-1.887-1.881-4.394-2.919-7.062-2.919-2.1 0-4.106 0.644-5.806 1.863-1.669 1.2-2.919 2.856-3.619 4.8-0.188 0.519 0.081 1.094 0.6 1.281s1.094-0.081 1.281-0.6c0.563-1.556 1.569-2.887 2.9-3.85 1.362-0.975 2.962-1.494 4.644-1.494 2.138 0 4.15 0.831 5.656 2.344 0.006 0.006 0.012 0.012 0.025 0.019l2.8 2.631h-3.475c-0.55 0-1 0.45-1 1s0.45 1 1 1h5.988c0.006 0 0.006 0 0.012 0 0.025 0 0.050 0 0.075 0 0 0 0 0 0.006 0 0 0 0.006 0 0.006 0 0.006 0 0.006 0 0.012 0 0 0 0 0 0 0 0.094-0.006 0.181-0.031 0.262-0.063 0.138-0.050 0.263-0.138 0.369-0.25 0.094-0.1 0.162-0.213 0.206-0.331 0 0 0 0 0 0 0-0.006 0-0.006 0.006-0.012 0 0 0 0 0-0.006 0 0 0-0.006 0-0.006s0-0.006 0-0.006c0 0 0 0 0-0.006s0-0.006 0.006-0.012v0c0.025-0.075 0.044-0.162 0.050-0.244 0 0 0 0 0 0s0 0 0-0.006c0 0 0-0.006 0-0.006s0 0 0 0c0-0.006 0-0.006 0-0.012 0 0 0 0 0 0 0-0.006 0-0.006 0-0.012 0 0 0 0 0 0 0-0.006 0-0.006 0-0.012 0 0 0 0 0-0.006s0-0.006 0-0.012c0 0 0 0 0 0v-5.988z"></path>
<path d="M20.813 14.125c-0.519-0.188-1.094 0.081-1.281 0.6-1.144 3.15-4.169 5.275-7.525 5.275-2.137 0-4.15-0.831-5.656-2.344-0.006-0.006-0.012-0.012-0.025-0.019l-2.8-2.637h3.475c0.55 0 1-0.45 1-1s-0.45-1-1-1h-6c-0.15 0-0.294 0.031-0.425 0.094 0 0 0 0 0 0s-0.006 0-0.006 0.006c0 0-0.006 0-0.006 0.006 0 0 0 0 0 0-0.006 0-0.006 0.006-0.012 0.006 0 0 0 0 0 0-0.081 0.044-0.156 0.094-0.225 0.156 0 0 0 0 0 0s-0.006 0.006-0.006 0.006c0 0 0 0 0 0s-0.006 0-0.006 0.006c0 0-0.006 0.006-0.006 0.006s0 0 0 0-0.006 0.006-0.006 0.006c0 0 0 0 0 0s-0.006 0.006-0.006 0.006c0 0 0 0 0 0-0.025 0.025-0.044 0.050-0.069 0.075-0.050 0.063-0.094 0.131-0.125 0.206 0 0 0 0 0 0 0 0.006 0 0.006-0.006 0.012 0 0 0 0 0 0s0 0.006-0.006 0.006c0 0 0 0.006 0 0.006s0 0.006 0 0.006c0 0 0 0.006-0.006 0.006 0 0 0 0 0 0-0.038 0.1-0.063 0.213-0.069 0.325 0 0 0 0 0 0.006 0 0 0 0.006 0 0.006s0 0.006 0 0.006c0 0 0 0.006 0 0.006s0 0.006 0 0.006c0 0 0 0.006 0 0.006s0 0.006 0 0.006c0 0 0 0 0 0v6c0 0.55 0.45 1 1 1s1-0.45 1-1v-3.687l2.944 2.769c1.887 1.881 4.394 2.919 7.062 2.919 4.194 0 7.975-2.65 9.406-6.594 0.175-0.513-0.094-1.081-0.612-1.269z"></path>
</svg>
