<!-- Generated by IcoMoon.io -->
<svg version="1.1" xmlns="http://www.w3.org/2000/svg" width="24" height="24" viewBox="0 0 24 24">
<title>refresh-ccw</title>
<path d="M24 14c0 0 0-0.006 0-0.006s0 0 0-0.006 0-0.006 0-0.012c0 0 0 0 0 0s0-0.006 0-0.006c0 0 0 0 0-0.006 0 0 0-0.006 0-0.006s0 0 0-0.006c0 0 0-0.006 0-0.006-0.006-0.112-0.031-0.213-0.069-0.312 0 0 0 0 0 0s0-0.006-0.006-0.006c0 0 0-0.006 0-0.006s0-0.006 0-0.006c0 0 0-0.006-0.006-0.006 0 0 0 0 0 0 0-0.006 0-0.006-0.006-0.012 0 0 0 0 0 0-0.031-0.063-0.069-0.125-0.113-0.188 0 0 0 0 0 0s-0.006-0.006-0.006-0.006c0 0-0.006-0.006-0.006-0.006s0 0 0-0.006c-0.025-0.031-0.050-0.056-0.075-0.087 0 0 0 0 0 0s-0.006-0.006-0.006-0.006c0 0 0 0 0 0s-0.006-0.006-0.006-0.006c0 0 0 0-0.006-0.006 0 0 0 0-0.006-0.006 0 0-0.006-0.006-0.006-0.006s0 0 0 0c-0.075-0.069-0.156-0.125-0.244-0.169 0 0 0 0 0 0s-0.006 0-0.006-0.006c0 0-0.006 0-0.006 0s0 0-0.006 0c0 0-0.006 0-0.006-0.006 0 0 0 0 0 0-0.125-0.056-0.263-0.087-0.406-0.087h-6c-0.55 0-1 0.45-1 1s0.45 1 1 1h3.475l-2.8 2.631c-0.006 0.006-0.012 0.012-0.025 0.019-1.512 1.512-3.519 2.344-5.656 2.344-3.356 0-6.381-2.119-7.525-5.275-0.188-0.519-0.762-0.788-1.281-0.6s-0.788 0.762-0.6 1.281c1.425 3.95 5.206 6.6 9.4 6.6 2.669 0 5.175-1.038 7.062-2.919l2.944-2.769v3.687c0 0.55 0.45 1 1 1s1-0.45 1-1v-6c0 0 0 0 0 0z"></path>
<path d="M0.687 10.95c0 0 0.006 0 0.006 0s0 0 0 0c0.056 0.019 0.119 0.031 0.181 0.038 0 0 0 0 0 0 0.006 0 0.006 0 0.012 0 0 0 0.006 0 0.006 0s0.006 0 0.006 0 0.006 0 0.012 0c0 0 0 0 0 0 0.031 0 0.063 0.006 0.087 0.006 0.006 0 0.006 0 0.012 0h5.988c0.55 0 1-0.45 1-1s-0.45-1-1-1h-3.475l2.8-2.631c0.006-0.006 0.012-0.012 0.025-0.019 1.506-1.506 3.519-2.344 5.656-2.344 1.681 0 3.281 0.513 4.644 1.488 1.338 0.956 2.337 2.288 2.9 3.85 0.188 0.519 0.762 0.787 1.281 0.6s0.787-0.762 0.6-1.281c-0.7-1.938-1.95-3.6-3.619-4.794-1.7-1.212-3.706-1.863-5.806-1.863-2.669 0-5.175 1.038-7.062 2.919l-2.944 2.769v-3.687c0-0.55-0.45-1-1-1s-1 0.45-1 1v5.988c0 0.063 0.006 0.125 0.012 0.188v0c0 0.006 0 0.006 0 0.012 0 0 0 0 0 0 0 0.006 0 0.006 0 0.012 0 0 0 0 0 0s0 0.006 0 0.006c0 0 0 0 0 0 0 0.006 0 0.006 0 0.012 0 0 0 0 0 0 0 0.006 0 0.006 0 0.012 0 0 0 0 0 0 0 0.006 0 0.006 0 0.012 0 0 0 0 0 0 0.037 0.156 0.119 0.306 0.237 0.438 0.119 0.125 0.256 0.213 0.406 0.262 0.025 0.006 0.025 0.006 0.031 0.006-0.006 0-0.006 0 0 0z"></path>
</svg>
