<!-- Generated by IcoMoon.io -->
<svg version="1.1" xmlns="http://www.w3.org/2000/svg" width="24" height="24" viewBox="0 0 24 24">
<title>rewind</title>
<path d="M11.438 4.1c-0.344-0.169-0.75-0.125-1.056 0.106l-9 7c-0.244 0.188-0.387 0.481-0.387 0.787s0.144 0.6 0.387 0.787l9 7c0.181 0.138 0.394 0.213 0.612 0.213 0.15 0 0.3-0.031 0.438-0.1 0.344-0.169 0.563-0.519 0.563-0.9v-13.994c0.006-0.381-0.213-0.731-0.556-0.9zM10 16.956l-6.369-4.956 6.369-4.956v9.912z"></path>
<path d="M22.437 4.1c-0.344-0.169-0.75-0.125-1.056 0.106l-9 7c-0.244 0.188-0.387 0.481-0.387 0.787s0.144 0.6 0.387 0.787l9 7c0.181 0.138 0.394 0.213 0.612 0.213 0.15 0 0.3-0.031 0.438-0.1 0.344-0.169 0.563-0.519 0.563-0.9v-13.994c0.006-0.381-0.213-0.731-0.556-0.9zM21 16.956l-6.369-4.956 6.369-4.956v9.912z"></path>
</svg>
