<!-- Generated by IcoMoon.io -->
<svg version="1.1" xmlns="http://www.w3.org/2000/svg" width="24" height="24" viewBox="0 0 24 24">
<title>rotate-ccw</title>
<path d="M12 2.006c-2.663 0-5.169 1.031-7.056 2.913l-2.944 2.769v-3.687c0-0.55-0.45-1-1-1s-1 0.45-1 1v6c0 0 0 0 0 0s0 0.006 0 0.006c0 0 0 0.006 0 0.006s0 0.006 0 0.006c0 0 0 0.006 0 0.006s0 0.006 0 0.006c0 0 0 0.006 0 0.006s0 0 0 0.006c0 0 0 0.006 0 0.006v0c0.006 0.1 0.025 0.2 0.063 0.294v0c0 0.006 0 0.006 0.006 0.012 0 0 0 0 0 0.006 0 0 0 0.006 0 0.006s0 0.006 0 0.006c0 0 0 0 0 0.006s0 0.006 0.006 0.012c0 0 0 0 0 0 0.038 0.094 0.094 0.181 0.162 0.262 0 0 0 0 0 0s0.006 0.006 0.006 0.006c0 0 0 0 0 0s0.006 0.006 0.006 0.006c0 0 0 0 0 0s0.006 0.006 0.006 0.006c0 0 0 0 0 0s0 0 0 0 0 0 0.006 0.006c0 0 0 0 0 0s0.006 0.006 0.006 0.006c0 0 0 0 0 0 0.094 0.1 0.206 0.175 0.325 0.225 0 0 0 0 0 0s0.006 0 0.006 0.006c0 0 0.006 0 0.006 0s0 0 0.006 0 0.006 0 0.012 0.006c0 0 0 0 0 0 0.094 0.038 0.2 0.063 0.306 0.063v0c0.006 0 0.006 0 0.012 0 0 0 0 0 0.006 0 0 0 0.006 0 0.006 0s0.006 0 0.006 0c0 0 0.006 0 0.006 0s0.006 0 0.006 0c0 0 0 0 0.006 0 0 0 0.006 0 0.006 0s0 0 0 0h6c0.55 0 1-0.45 1-1s-0.45-1-1-1h-3.462l2.8-2.631c0.006-0.006 0.012-0.012 0.019-0.019 1.512-1.506 3.519-2.337 5.65-2.337 4.413 0 8 3.588 8 8s-3.588 8-8 8c-1.681 0-3.288-0.519-4.644-1.494-1.338-0.963-2.337-2.294-2.9-3.856-0.188-0.519-0.762-0.787-1.281-0.6s-0.787 0.762-0.6 1.281c0.7 1.944 1.95 3.606 3.619 4.8 1.7 1.225 3.713 1.869 5.813 1.869 5.513 0 10-4.488 10-10s-4.488-9.994-10-9.994z"></path>
</svg>
