<!-- Generated by IcoMoon.io -->
<svg version="1.1" xmlns="http://www.w3.org/2000/svg" width="24" height="24" viewBox="0 0 24 24">
<title>rotate-cw</title>
<path d="M24 4c0-0.55-0.45-1-1-1s-1 0.45-1 1v3.687l-2.931-2.763c-1.887-1.887-4.4-2.925-7.062-2.925-5.512 0-10 4.488-10 10s4.488 10 10 10c2.1 0 4.113-0.644 5.813-1.869 1.662-1.194 2.919-2.856 3.619-4.794 0.188-0.519-0.081-1.094-0.6-1.281s-1.094 0.081-1.281 0.6c-0.563 1.563-1.569 2.894-2.9 3.85-1.356 0.975-2.962 1.494-4.644 1.494-4.413 0-8-3.588-8-8s3.588-8 8-8c2.138 0 4.15 0.831 5.656 2.344 0.006 0.006 0.012 0.012 0.019 0.019l2.794 2.631h-3.481c-0.55 0-1 0.45-1 1s0.45 1 1 1h5.994c0.025 0 0.050 0 0.069 0 0 0 0 0 0 0s0.006 0 0.006 0c0.1-0.006 0.194-0.031 0.288-0.063 0 0 0 0 0.006 0 0 0 0.006 0 0.006 0s0.006 0 0.006 0c0 0 0 0 0 0 0.119-0.050 0.231-0.119 0.325-0.219 0 0 0 0 0 0s0.006-0.006 0.006-0.006c0 0 0 0 0.006-0.006 0 0 0 0 0.006-0.006 0 0 0.006-0.006 0.006-0.006s0 0 0 0 0 0 0 0 0.006-0.006 0.006-0.006c0 0 0 0 0 0s0.006-0.006 0.006-0.006c0 0 0 0 0 0s0.006-0.006 0.006-0.006c0 0 0 0 0 0s0.006-0.006 0.006-0.006c0 0 0 0 0-0.006 0 0 0-0.006 0.006-0.006 0 0 0-0.006 0.006-0.006 0 0 0 0 0 0 0.063-0.075 0.106-0.15 0.144-0.231v0c0-0.006 0-0.006 0.006-0.012 0 0 0 0 0 0s0-0.006 0.006-0.006c0 0 0-0.006 0-0.006s0-0.006 0-0.006c0 0 0-0.006 0.006-0.006 0 0 0 0 0 0 0-0.006 0-0.006 0.006-0.012 0 0 0 0 0 0 0.031-0.094 0.056-0.188 0.063-0.294 0 0 0 0 0-0.006 0 0 0-0.006 0-0.006s0-0.006 0-0.006c0 0 0-0.006 0-0.006s0-0.006 0-0.006c0 0 0 0 0-0.006 0 0 0-0.006 0-0.006s0 0 0-0.006c0 0 0-0.006 0-0.006s0 0 0 0v-6.012z"></path>
</svg>
