<!-- Generated by IcoMoon.io -->
<svg version="1.1" xmlns="http://www.w3.org/2000/svg" width="24" height="24" viewBox="0 0 24 24">
<title>scissors</title>
<path d="M20.706 4.706c0.387-0.387 0.387-1.025 0-1.413s-1.025-0.387-1.413 0l-7.294 7.294-2.556-2.556c0.35-0.594 0.556-1.287 0.556-2.031 0-2.206-1.794-4-4-4s-4 1.794-4 4 1.794 4 4 4c0.744 0 1.437-0.2 2.031-0.556l2.556 2.556-2.556 2.556c-0.594-0.35-1.287-0.556-2.031-0.556-2.206 0-4 1.794-4 4s1.794 4 4 4 4-1.794 4-4c0-0.744-0.2-1.437-0.556-2.031l11.262-11.262zM4 6c0-1.1 0.9-2 2-2s2 0.9 2 2c0 0.537-0.213 1.031-0.563 1.387-0.006 0.006-0.019 0.019-0.025 0.025s-0.019 0.019-0.025 0.025c-0.363 0.35-0.85 0.563-1.388 0.563-1.1 0-2-0.9-2-2zM6 20c-1.1 0-2-0.9-2-2s0.9-2 2-2c0.537 0 1.031 0.213 1.387 0.563 0.006 0.006 0.019 0.019 0.025 0.025s0.019 0.019 0.025 0.025c0.35 0.363 0.563 0.85 0.563 1.387 0 1.1-0.9 2-2 2z"></path>
<path d="M15.175 13.775c-0.394-0.387-1.025-0.387-1.413 0-0.387 0.394-0.387 1.025 0 1.413l5.531 5.519c0.194 0.194 0.45 0.294 0.706 0.294s0.513-0.1 0.706-0.294c0.387-0.394 0.387-1.025 0-1.413l-5.531-5.519z"></path>
</svg>
