<!-- Generated by IcoMoon.io -->
<svg version="1.1" xmlns="http://www.w3.org/2000/svg" width="24" height="24" viewBox="0 0 24 24">
<title>share</title>
<path d="M18 15c-1.106 0-2.112 0.45-2.838 1.181l-5.313-3.094c0.1-0.344 0.15-0.712 0.15-1.087s-0.050-0.744-0.15-1.087l5.313-3.1c0.725 0.731 1.731 1.188 2.838 1.188 2.206 0 4-1.794 4-4s-1.794-4-4-4-4 1.794-4 4c0 0.375 0.050 0.744 0.15 1.088l-5.313 3.1c-0.725-0.731-1.731-1.188-2.838-1.188-2.206 0-4 1.794-4 4s1.794 4 4 4c1.113 0 2.112-0.456 2.844-1.188l5.313 3.094c-0.1 0.35-0.15 0.712-0.15 1.094 0 2.206 1.794 4 4 4s4-1.794 4-4-1.8-4-4.006-4zM18 3c1.1 0 2 0.9 2 2s-0.9 2-2 2c-0.719 0-1.35-0.381-1.706-0.956-0.006-0.012-0.012-0.025-0.019-0.038s-0.019-0.025-0.025-0.037c-0.156-0.288-0.25-0.619-0.25-0.969 0-1.1 0.9-2 2-2zM6 14c-1.1 0-2-0.9-2-2s0.9-2 2-2c0.719 0 1.35 0.381 1.706 0.956 0.006 0.012 0.012 0.025 0.019 0.038s0.019 0.025 0.025 0.037c0.156 0.288 0.25 0.619 0.25 0.969s-0.094 0.681-0.25 0.969c-0.006 0.012-0.019 0.025-0.025 0.038s-0.012 0.025-0.019 0.037c-0.356 0.575-0.987 0.956-1.706 0.956zM18 21c-1.1 0-2-0.9-2-2 0-0.325 0.081-0.638 0.219-0.906 0.025-0.031 0.044-0.063 0.069-0.1 0.019-0.031 0.038-0.069 0.050-0.1 0.356-0.537 0.969-0.894 1.662-0.894 1.1 0 2 0.9 2 2s-0.9 2-2 2z"></path>
</svg>
