<!-- Generated by IcoMoon.io -->
<svg version="1.1" xmlns="http://www.w3.org/2000/svg" width="24" height="24" viewBox="0 0 24 24">
<title>skip-forward</title>
<path d="M16.556 11.169l-12-8c-0.306-0.206-0.7-0.225-1.025-0.050-0.331 0.175-0.531 0.513-0.531 0.881v16c0 0.369 0.2 0.706 0.531 0.881 0.15 0.081 0.312 0.119 0.469 0.119 0.194 0 0.387-0.056 0.556-0.169l12-8c0.281-0.188 0.444-0.5 0.444-0.831s-0.169-0.644-0.444-0.831zM5 18.131v-12.263l9.2 6.131-9.2 6.131z"></path>
<path d="M20 3c-0.55 0-1 0.45-1 1v16c0 0.55 0.45 1 1 1s1-0.45 1-1v-16c0-0.55-0.45-1-1-1z"></path>
</svg>
