<!-- Generated by IcoMoon.io -->
<svg version="1.1" xmlns="http://www.w3.org/2000/svg" width="24" height="24" viewBox="0 0 24 24">
<title>slash</title>
<path d="M19.837 19.713c1.956-1.987 3.162-4.713 3.162-7.713 0-6.063-4.938-11-11-11-3 0-5.725 1.206-7.713 3.162-0.025 0.019-0.044 0.037-0.069 0.063-0.019 0.019-0.044 0.044-0.063 0.069-1.95 1.981-3.156 4.706-3.156 7.706 0 6.063 4.938 11 11 11 3 0 5.725-1.206 7.713-3.162 0.025-0.019 0.044-0.038 0.069-0.063 0.019-0.019 0.037-0.044 0.056-0.063zM21 12c0 2.119-0.738 4.075-1.969 5.613l-12.644-12.644c1.538-1.231 3.494-1.969 5.613-1.969 4.962 0 9 4.038 9 9zM3 12c0-2.119 0.738-4.075 1.969-5.613l12.644 12.644c-1.538 1.231-3.494 1.969-5.613 1.969-4.962 0-9-4.038-9-9z"></path>
</svg>
