<!-- Generated by IcoMoon.io -->
<svg version="1.1" xmlns="http://www.w3.org/2000/svg" width="24" height="24" viewBox="0 0 24 24">
<title>sunrise</title>
<path d="M12 12c-3.306 0-6 2.694-6 6 0 0.55 0.45 1 1 1s1-0.45 1-1c0-2.206 1.794-4 4-4s4 1.794 4 4c0 0.55 0.45 1 1 1s1-0.45 1-1c0-3.306-2.694-6-6-6z"></path>
<path d="M4.931 12.35c0.194 0.194 0.45 0.294 0.706 0.294s0.513-0.1 0.706-0.294c0.387-0.387 0.387-1.025 0-1.413l-1.419-1.419c-0.387-0.387-1.025-0.387-1.413 0s-0.387 1.025 0 1.413l1.419 1.419z"></path>
<path d="M1 19h2c0.55 0 1-0.45 1-1s-0.45-1-1-1h-2c-0.55 0-1 0.45-1 1s0.45 1 1 1z"></path>
<path d="M20 18c0 0.55 0.45 1 1 1h2c0.55 0 1-0.45 1-1s-0.45-1-1-1h-2c-0.55 0-1 0.45-1 1z"></path>
<path d="M18.363 12.638c0.256 0 0.513-0.1 0.706-0.294l1.419-1.419c0.387-0.387 0.387-1.025 0-1.413s-1.025-0.387-1.413 0l-1.419 1.419c-0.387 0.387-0.387 1.025 0 1.413 0.194 0.2 0.45 0.294 0.706 0.294z"></path>
<path d="M23 21h-22c-0.55 0-1 0.45-1 1s0.45 1 1 1h22c0.55 0 1-0.45 1-1s-0.45-1-1-1z"></path>
<path d="M8.706 6.706l2.294-2.294v4.587c0 0.55 0.45 1 1 1s1-0.45 1-1v-4.587l2.294 2.294c0.194 0.194 0.45 0.294 0.706 0.294s0.513-0.1 0.706-0.294c0.387-0.387 0.387-1.025 0-1.413l-4-4c-0.012-0.012-0.025-0.025-0.038-0.038 0 0 0 0-0.006 0 0 0-0.006-0.006-0.006-0.006s-0.006 0-0.006-0.006c0 0 0 0-0.006 0 0 0-0.006-0.006-0.006-0.006s0 0 0 0c-0.075-0.069-0.162-0.119-0.256-0.156 0 0 0 0 0 0s-0.006 0-0.006 0c0 0 0 0-0.006 0 0 0 0 0-0.006 0-0.094-0.038-0.194-0.063-0.3-0.069 0 0 0 0 0 0s-0.006 0-0.006 0c0 0-0.006 0-0.006 0s-0.006 0-0.006 0c0 0-0.006 0-0.006 0s0 0-0.006 0c-0.025 0-0.050 0-0.075 0 0 0 0 0-0.006 0 0 0-0.006 0-0.006 0s-0.006 0-0.006 0c0 0-0.006 0-0.006 0s-0.006 0-0.006 0c0 0 0 0 0 0-0.1 0.006-0.2 0.031-0.294 0.069 0 0 0 0 0 0s-0.006 0-0.006 0c0 0-0.006 0-0.006 0s0 0 0 0c-0.1 0.038-0.188 0.094-0.275 0.169 0 0 0 0 0 0s-0.006 0.006-0.006 0.006c0 0 0 0 0 0s-0.006 0.006-0.006 0.006c0 0-0.006 0.006-0.006 0.006s0 0 0 0c-0.012 0.006-0.019 0.019-0.031 0.031l-4 4c-0.387 0.387-0.387 1.025 0 1.413s1.025 0.387 1.413-0.006z"></path>
</svg>
