<!-- Generated by IcoMoon.io -->
<svg version="1.1" xmlns="http://www.w3.org/2000/svg" width="24" height="24" viewBox="0 0 24 24">
<title>target</title>
<path d="M12 1c-6.063 0-11 4.938-11 11s4.938 11 11 11 11-4.938 11-11-4.938-11-11-11zM12 21c-4.962 0-9-4.038-9-9s4.038-9 9-9c4.962 0 9 4.038 9 9s-4.038 9-9 9z"></path>
<path d="M12 5c-3.863 0-7 3.138-7 7s3.138 7 7 7 7-3.138 7-7-3.138-7-7-7zM12 17c-2.756 0-5-2.244-5-5s2.244-5 5-5 5 2.244 5 5-2.244 5-5 5z"></path>
<path d="M12 9c-1.656 0-3 1.344-3 3s1.344 3 3 3c1.656 0 3-1.344 3-3s-1.344-3-3-3zM12 13c-0.55 0-1-0.45-1-1s0.45-1 1-1 1 0.45 1 1-0.45 1-1 1z"></path>
</svg>
