<!-- Generated by IcoMoon.io -->
<svg version="1.1" xmlns="http://www.w3.org/2000/svg" width="24" height="24" viewBox="0 0 24 24">
<title>triangle</title>
<path d="M23.037 17.487c0 0-0.006-0.006-0.006-0.006l-8.463-14.138c0-0.006-0.006-0.006-0.006-0.012-0.556-0.9-1.512-1.437-2.562-1.437s-2.006 0.537-2.556 1.431c-0.006 0.006-0.012 0.012-0.012 0.025l-8.469 14.138c0 0 0 0.006-0.006 0.006-0.262 0.45-0.406 0.975-0.406 1.506 0 1.638 1.331 2.981 2.963 3 0.006 0 0.006 0 0.012 0h16.944c0.006 0 0.006 0 0.012 0 1.638-0.019 2.969-1.362 2.969-3 0-0.531-0.144-1.056-0.412-1.512zM20.463 20h-16.925c-0.544-0.006-0.981-0.456-0.981-1 0-0.175 0.044-0.344 0.131-0.494l8.463-14.131c0 0 0.006-0.006 0.006-0.006 0.188-0.294 0.5-0.469 0.85-0.469s0.669 0.181 0.856 0.481l8.45 14.119c0.087 0.15 0.131 0.325 0.131 0.5 0.006 0.544-0.438 0.994-0.981 1z"></path>
</svg>
