<!-- Generated by IcoMoon.io -->
<svg version="1.1" xmlns="http://www.w3.org/2000/svg" width="32" height="32" viewBox="0 0 32 32">
<title>twitter</title>
<path d="M28.308 9.135c-0.904 0.404-1.88 0.673-2.899 0.793 1.043-0.625 1.841-1.615 2.221-2.793-0.976 0.577-2.058 1-3.207 1.226-0.923-0.981-2.236-1.591-3.688-1.591-2.788 0-5.048 2.26-5.048 5.048 0 0.394 0.043 0.779 0.13 1.149-4.197-0.212-7.918-2.221-10.409-5.279-0.433 0.745-0.683 1.615-0.683 2.538 0 1.75 0.889 3.298 2.245 4.202-0.827-0.024-1.606-0.255-2.288-0.63 0 0.019 0 0.043 0 0.063 0 2.447 1.74 4.49 4.053 4.952-0.423 0.115-0.87 0.178-1.332 0.178-0.327 0-0.639-0.034-0.952-0.091 0.644 2.005 2.51 3.466 4.716 3.51-1.731 1.356-3.904 2.163-6.274 2.163-0.409 0-0.808-0.024-1.207-0.072 2.24 1.438 4.894 2.269 7.745 2.269 9.288 0 14.37-7.697 14.37-14.37 0-0.221-0.005-0.438-0.014-0.654 0.986-0.707 1.841-1.596 2.519-2.611z"></path>
</svg>
