<!-- Generated by IcoMoon.io -->
<svg version="1.1" xmlns="http://www.w3.org/2000/svg" width="24" height="24" viewBox="0 0 24 24">
<title>umbrella</title>
<path d="M23.994 11.9c-0.294-2.981-1.669-5.738-3.881-7.75-2.219-2.031-5.1-3.15-8.112-3.15s-5.894 1.119-8.112 3.144c-2.206 2.013-3.588 4.75-3.875 7.713-0.025 0.281 0.063 0.562 0.256 0.769 0.188 0.206 0.456 0.331 0.738 0.331l10 0.019v6.025c0 2.206 1.794 4 4 4s4-1.794 4-4c0-0.55-0.45-1-1-1s-1 0.45-1 1c0 1.1-0.9 2-2 2s-2-0.9-2-2v-6.019l10 0.019c0.281 0 0.55-0.119 0.738-0.325 0.188-0.213 0.281-0.494 0.25-0.775zM2.169 10.956c0.431-2.044 1.5-3.906 3.063-5.337 1.856-1.688 4.256-2.619 6.769-2.619s4.919 0.931 6.769 2.625c1.569 1.431 2.631 3.312 3.069 5.375l-19.669-0.044z"></path>
</svg>
