<!-- Generated by IcoMoon.io -->
<svg version="1.1" xmlns="http://www.w3.org/2000/svg" width="24" height="24" viewBox="0 0 24 24">
<title>user-minus</title>
<path d="M16.863 15.594c-1.844-1.031-4.281-1.594-6.862-1.594s-5.019 0.563-6.863 1.594c-2.025 1.125-3.138 2.688-3.138 4.406v1c0 0.55 0.45 1 1 1s1-0.45 1-1v-1c0-0.944 0.769-1.913 2.112-2.663 1.55-0.862 3.638-1.338 5.888-1.338s4.338 0.475 5.887 1.338c1.344 0.75 2.112 1.719 2.112 2.663v1c0 0.55 0.45 1 1 1s1-0.45 1-1v-1c0-1.719-1.113-3.281-3.138-4.406z"></path>
<path d="M10.044 11.956c2.756 0 5-2.244 5-5 0-0.25-0.019-0.5-0.050-0.725v-0.006c0-0.012 0-0.019-0.006-0.031-0.162-1.056-0.65-2.019-1.406-2.775s-1.719-1.244-2.775-1.406c-0.25-0.037-0.506-0.056-0.762-0.056-2.756 0-5 2.244-5 5s2.244 5 5 5zM10.044 3.956c0.156 0 0.306 0.012 0.456 0.038 1.275 0.194 2.306 1.219 2.506 2.494v0.006c0 0.012 0 0.019 0.006 0.031 0.019 0.131 0.031 0.281 0.031 0.431 0 1.656-1.344 3-3 3s-3-1.344-3-3 1.344-3 3-3z"></path>
<path d="M23 10h-6c-0.55 0-1 0.45-1 1s0.45 1 1 1h6c0.55 0 1-0.45 1-1s-0.45-1-1-1z"></path>
</svg>
