<!-- Generated by IcoMoon.io -->
<svg version="1.1" xmlns="http://www.w3.org/2000/svg" width="24" height="24" viewBox="0 0 24 24">
<title>video</title>
<path d="M23.456 6.113c-0.331-0.169-0.731-0.144-1.038 0.075l-5.419 3.869v-3.056c0-1.656-1.344-3-3-3h-11c-1.656 0-3 1.344-3 3v10c0 1.656 1.344 3 3 3h11c1.656 0 3-1.344 3-3v-3.056l5.419 3.869c0.175 0.125 0.375 0.188 0.581 0.188 0.156 0 0.312-0.037 0.456-0.112 0.331-0.169 0.544-0.513 0.544-0.888v-10c0-0.375-0.206-0.719-0.544-0.888zM15 17c0 0.55-0.45 1-1 1h-11c-0.55 0-1-0.45-1-1v-10c0-0.55 0.45-1 1-1h11c0.55 0 1 0.45 1 1v10zM22 15.056l-4.281-3.056 4.281-3.056v6.113z"></path>
</svg>
