<!-- Generated by IcoMoon.io -->
<svg version="1.1" xmlns="http://www.w3.org/2000/svg" width="24" height="24" viewBox="0 0 24 24">
<title>wind</title>
<path d="M2 9h9.006c1.656 0 3-1.344 3-3s-1.344-3-3-3c-0.806 0-1.563 0.312-2.125 0.888-0.387 0.394-0.387 1.025 0.006 1.413s1.025 0.387 1.413-0.006c0.188-0.188 0.444-0.294 0.706-0.294 0.55 0 1 0.45 1 1s-0.45 1-1 1h-9.006c-0.55 0-1 0.45-1 1s0.45 1 1 1z"></path>
<path d="M14.006 15h-12.006c-0.55 0-1 0.45-1 1s0.45 1 1 1h12.006c0.55 0 1 0.45 1 1s-0.45 1-1 1c-0.269 0-0.519-0.106-0.706-0.294-0.387-0.394-1.025-0.394-1.413-0.006-0.394 0.387-0.394 1.025-0.006 1.413 0.569 0.569 1.325 0.888 2.125 0.888 1.656 0 3-1.344 3-3s-1.344-3-3-3z"></path>
<path d="M19.494 6c-0.931 0-1.812 0.363-2.469 1.025-0.394 0.387-0.394 1.025 0 1.413 0.387 0.394 1.025 0.394 1.413 0 0.281-0.281 0.656-0.438 1.056-0.438 0.825 0 1.5 0.675 1.5 1.5s-0.669 1.5-1.494 1.5h-17.5c-0.55 0-1 0.45-1 1s0.45 1 1 1h17.5c1.925-0.006 3.494-1.575 3.494-3.5 0-1.931-1.569-3.5-3.5-3.5z"></path>
</svg>
