<!-- Generated by IcoMoon.io -->
<svg version="1.1" xmlns="http://www.w3.org/2000/svg" width="24" height="24" viewBox="0 0 24 24">
<title>zoom-out</title>
<path d="M21.706 20.294l-3.675-3.675c1.231-1.538 1.969-3.494 1.969-5.613 0-4.962-4.038-9-9-9-4.962-0.006-9 4.031-9 8.994s4.038 9 9 9c2.119 0 4.075-0.738 5.613-1.969l3.675 3.675c0.194 0.194 0.45 0.294 0.706 0.294s0.513-0.1 0.706-0.294c0.4-0.387 0.4-1.025 0.006-1.413zM4 11c0-3.862 3.138-7 7-7s7 3.138 7 7c0 1.894-0.756 3.612-1.981 4.875-0.025 0.025-0.056 0.044-0.081 0.069s-0.050 0.050-0.069 0.081c-1.263 1.225-2.981 1.981-4.875 1.981-3.856-0.006-6.994-3.144-6.994-7.006z"></path>
<path d="M14 10h-6c-0.55 0-1 0.45-1 1s0.45 1 1 1h6c0.55 0 1-0.45 1-1s-0.45-1-1-1z"></path>
</svg>
