<svg width="305" height="262" viewBox="0 0 305 262" xmlns="http://www.w3.org/2000/svg"><title>ill-framework</title><g fill="none" fill-rule="evenodd"><circle cx="130" cy="130" r="130" opacity=".1" transform="translate(9 2)" fill-opacity=".5" fill="#1489C9"/><g transform="translate(60)"><path d="M.5 68.5V62c0-27.8 22.9-50.5 51-50.5s51 22.7 51 50.5v6.5H.5zm84.7-16c-4.3-14.8-18-25-33.7-25-15.7 0-29.4 10.2-33.7 25h67.4z" fill="#FFF"/><path d="M51.5 12C79.4 12 102 34.4 102 62v6H1v-6c0-27.6 22.6-50 50.5-50zM17.2 53h68.6c-4-15-17.9-26-34.3-26S21.2 38 17.2 53zm34.3-42C23.1 11 0 33.9 0 62v7h103v-7c0-28.1-23.1-51-51.5-51zm-33 41c4.4-14.2 17.8-24 33-24s28.5 9.8 33 24h-66z" fill="#1489C9"/><path fill="#1489C9" d="M1 61h4v1H1zm51-49v4h-1v-4z"/><path fill="#86D0EA" d="M32.357 15.716l1.6 3.666-.916.4-1.6-3.666zM5.32 41.612l3.725 1.46-.366.932-3.723-1.461zm64.84-26.583l-1.461 3.724-.931-.366 1.46-3.723zm27.797 25.864l-3.666 1.6-.4-.916 3.666-1.6z"/><path fill="#1489C9" d="M98 61h4v1h-4zM16.69 25.55l2.828 2.829-.707.707-2.829-2.828zm70.57.826l-2.828 2.829-.707-.707 2.829-2.829z"/><path d="M51.5 12C79.4 12 102 34.4 102 62v6H1v-6c0-27.6 22.6-50 50.5-50zM17.2 53h68.6c-4-15-17.9-26-34.3-26S21.2 38 17.2 53zm34.3-42C23.1 11 0 33.9 0 62v7h103v-7c0-28.1-23.1-51-51.5-51zm-33 41c4.4-14.2 17.8-24 33-24s28.5 9.8 33 24h-66z" fill="#1489C9"/><circle fill="#86D0EA" cx="4" cy="51" r="1"/><circle fill="#86D0EA" cx="12" cy="34" r="1"/><circle fill="#86D0EA" cx="25" cy="22" r="1"/><circle fill="#86D0EA" cx="42" cy="15" r="1"/><circle fill="#86D0EA" cx="61" cy="15" r="1"/><circle fill="#86D0EA" cx="78" cy="22" r="1"/><circle fill="#86D0EA" cx="91" cy="34" r="1"/><circle fill="#86D0EA" cx="99" cy="51" r="1"/><path d="M57 12c0-6.1-4.9-11-11-11v61.5c0 3 2.5 5.5 5.5 5.5s5.5-2.5 5.5-5.5V12z" opacity=".75" fill="#FFF"/><path d="M46 1c6.1 0 11 4.9 11 11v50.5c0 3-2.5 5.5-5.5 5.5S46 65.5 46 62.5V1zm0-1h-1v63c.3 3.4 3.1 6 6.5 6 3.6 0 6.5-2.9 6.5-6.5V12c0-6.6-5.4-12-12-12z" fill="#1489C9"/><g transform="translate(48 58)"><circle fill="#FFF" cx="3.5" cy="3.5" r="3"/><path d="M3.5 1C4.9 1 6 2.1 6 3.5S4.9 6 3.5 6 1 4.9 1 3.5 2.1 1 3.5 1zm0-1C1.6 0 0 1.6 0 3.5S1.6 7 3.5 7 7 5.4 7 3.5 5.4 0 3.5 0z" fill="#1489C9"/></g><path d="M82.8 22.8c-.5 6-1.8 11.7-3.8 17.1 3.1 3.8 5.5 8.2 6.8 13.1H72.3c-3.8 5.7-8.4 10.8-13.7 15H102v-6c0-15.9-7.5-30.1-19.2-39.2z" opacity=".1" fill="#1489C9"/></g><path fill="#FFF" d="M25.5 214.5h144v21h-144z"/><path d="M169 215v20H26v-20h143zm1-1H25v22h145v-22z" fill="#1489C9"/><path d="M169 235H85l37-20h47z" opacity=".1" fill="#1489C9"/><path fill="#1489C9" d="M31 215h1v5h-1z"/><path fill="#86D0EA" d="M37 215h1v3h-1zm12 0h1v3h-1zm12 0h1v3h-1zm12 0h1v3h-1zm12 0h1v3h-1zm12 0h1v3h-1zm12 0h1v3h-1zm12 0h1v3h-1zm12 0h1v3h-1zm12 0h1v3h-1zm12 0h1v3h-1z"/><path fill="#1489C9" d="M43 215h1v5h-1zm12 0h1v5h-1zm12 0h1v5h-1zm12 0h1v5h-1zm12 0h1v5h-1zm12 0h1v5h-1zm12 0h1v5h-1zm12 0h1v5h-1zm12 0h1v5h-1zm12 0h1v5h-1zm12 0h1v5h-1zm-13 11h1v5h-1zm2 0h1v5h-1zm-50 0v1h2v4h1v-5zm-34 0v2h-1v-2h-1v3h2v2h1v-5zm-13 0v1h1v1h-1v1h1v1h-1v1h2v-5zm-24 0h1v5h-1zm12.5 0H43v1h1v1h-1v3h2v-1h-1v-1h1v-3zm118.5 0h1v5h-1zm3 0h-1v1h1v1h-1v3h2v-1h-1v-1h1v-3zm-84 1v-1h-2v3h1v1h-1v1h2v-3h-1v-1z"/><path d="M115.3 227h1v1h-1zm0 2h1v1h-1z"/><path d="M114 226v5h3v-5h-3zm2.3 4h-1v-1h1v1zm0-2h-1v-1h1v1z" fill="#1489C9"/><path d="M127.4 227h1v1h-1z"/><path d="M126 226v3h2v1h-2v1h3v-5h-3zm2.4 2h-1v-1h1v1z" fill="#1489C9"/><path d="M140 228v2h1v-3h-1z"/><path fill="#1489C9" d="M137 226h1v5h-1zm2 0v5h3v-5h-3zm2 2v2h-1v-3h1v1z"/><path d="M91.2 229h1v1h-1z"/><path d="M92.2 227h.8v-1h-3v5h3v-3h-2v-1h1.2zm0 2v1h-1v-1h1z" fill="#1489C9"/><path d="M169 215v20H26v-20h143zm1-1H25v22h145v-22z" fill="#1489C9"/><g transform="translate(0 113)"><path fill="#FFF" d="M1.5 69.1V27.5h5v41.6L4 76.6z"/><path d="M6 28v41l-2 6-2-6V28h4zm1-1H1v42.2l.1.2 2 6 .9 2.8.9-2.8 2-6 .1-.2V27z" fill="#1489C9"/><path fill="#FFF" d="M1.5 27.5h5v41h-5z"/><path d="M6 28v40H2V28h4zm1-1H1v42h6V27z" fill="#1489C9"/><path d="M4 28h2v40H4z" opacity=".1" fill="#1489C9"/><path fill="#1489C9" d="M43.632 71.115l.94-.342 1.368 3.759-.94.342z"/><path fill="#FFF" d="M21.936 15.759l3.758-1.368 20.173 55.442-3.76 1.368z"/><path d="M25.4 15l19.8 54.5-2.8 1L22.6 16l2.8-1zm.6-1.3l-.9.3-2.8 1-.9.3.3.9 19.8 54.5.3.9.9-.3 2.8-1 .9-.3-.3-.9-19.8-54.5-.3-.9z" fill="#1489C9"/><path d="M43.632 71.115l.94-.342 1.368 3.759-.94.342zM25.4 15l-2.8 1 8.3 23-.8-11z" opacity=".1" fill="#1489C9"/><path d="M25.4 15l19.8 54.5-2.8 1L22.6 16l2.8-1zm.6-1.3l-.9.3-2.8 1-.9.3.3.9 19.8 54.5.3.9.9-.3 2.8-1 .9-.3-.3-.9-19.8-54.5-.3-.9z" fill="#1489C9"/><path fill="#86D0EA" d="M21.5.5h2v6h-2z"/><path d="M23 1v5h-1V1h1zm1-1h-3v7h3V0z" fill="#1489C9"/><path fill="#FFF" d="M0 54v-5h6.5l12.4-34.4 3.7 1.5L8.3 54z"/><path d="M19.2 15l2.8 1L8 53H1v-4h5.8l12.4-34zm-.6-1.3l-.3.9L6.1 48H0v6h8.7l.2-.6 14-37 .4-.9-1-.3-2.8-1-.9-.5z" fill="#1489C9"/><path d="M22 16l-2.8-1-3.3 9 1 6z" opacity=".1" fill="#1489C9"/><path d="M20.7 22l-6.1-10.9c-.3-.5-.3-1.2 0-1.8.9-1.7 4.5-3.7 7.9-3.7 3.4 0 6.9 1.9 7.9 3.6.3.6.3 1.4 0 1.9L24.3 22h-3.6z" fill="#FFF"/><path d="M22.5 6c4.1 0 8.5 3 7.5 4.6L24 21h-3l-6-10.4C14 9 18.4 6 22.5 6zm0-1c-3.7 0-7.3 2.1-8.3 3.9-.6 1-.3 1.8 0 2.2l6 10.4.3.5h4.2l.3-.5 6-10.4c.2-.3.5-1.1 0-2.2C29.8 7.1 26.2 5 22.5 5z" fill="#1489C9"/><path d="M26 6.6V7c0 4.8-2.6 9-6.6 11.3L21 21h3l6-10.4c.7-1.2-1.3-3-4-4z" opacity=".1" fill="#1489C9"/><circle fill="#86D0EA" cx="20" cy="12" r="1"/><circle fill="#86D0EA" cx="25" cy="12" r="1"/><path d="M22.5 6c4.1 0 8.5 3 7.5 4.6L24 21h-3l-6-10.4C14 9 18.4 6 22.5 6zm0-1c-3.7 0-7.3 2.1-8.3 3.9-.6 1-.3 1.8 0 2.2l6 10.4.3.5h4.2l.3-.5 6-10.4c.2-.3.5-1.1 0-2.2C29.8 7.1 26.2 5 22.5 5zM3 73l3-2-2 5.5z" fill="#1489C9"/><path d="M4 30v16" fill="#FFF"/><path d="M4.5 46.5c-.3 0-.5-.2-.5-.5V30c0-.3.2-.5.5-.5s.5.2.5.5v16c0 .3-.2.5-.5.5z" fill="#86D0EA"/><path d="M4 56v10" fill="#FFF"/><path d="M4.5 66.5c-.3 0-.5-.2-.5-.5V56c0-.3.2-.5.5-.5s.5.2.5.5v10c0 .3-.2.5-.5.5z" fill="#86D0EA"/></g><path d="M213.5 203.5v-89.7l89.7 89.7h-89.7zm51.1-16l-35.1-35.1v35.1h35.1z" fill="#FFF"/><path d="M214 115l88 88h-88v-88zm15 73h36.8L229 151.2V188zm-16-75.4V204h91.4l-1.7-1.7-88-88-1.7-1.7zm17 74.4v-33.4l33.4 33.4H230z" fill="#1489C9"/><path d="M256.7 157.7c-.5 6-1.9 11.8-4 17.2l13 13h-19.9c-3.9 5.7-8.7 10.8-14.3 15H302l-45.3-45.2z" opacity=".1" fill="#1489C9"/><path d="M214 115l88 88h-88v-88zm15 73h36.8L229 151.2V188zm-16-75.4V204h91.4l-1.7-1.7-88-88-1.7-1.7zm17 74.4v-33.4l33.4 33.4H230z" fill="#1489C9"/><path fill="#86D0EA" d="M286 203h-1v-3h1zm-12 0h-1v-3h1zm-12 0h-1v-3h1zm-12 0h-1v-3h1zm-12 0h-1v-3h1zm-12 0h-1v-3h1z"/><path fill="#1489C9" d="M292 203h-1v-5h1zm-12 0h-1v-5h1zm-12 0h-1v-5h1zm-12 0h-1v-5h1zm-12 0h-1v-5h1zm-12 0h-1v-5h1zm-12 0h-1v-3h1z"/><path fill="#86D0EA" d="M214 192v-1h3v1zm0-12v-1h3v1zm0-12v-1h3v1zm0-12v-1h3v1zm0-12v-1h3v1zm0-12v-1h3v1z"/><path fill="#1489C9" d="M214 198v-1h3v1zm0-12v-1h5v1zm0-12v-1h5v1zm0-12v-1h5v1zm0-12v-1h5v1zm0-12v-1h5v1zm0-12v-1h5v1z"/><path fill="#FFF" d="M105.5 79.5h97v124h-97z"/><path d="M202 80v123h-96V80h96zm1-1h-98v125h98V79z" fill="#1489C9"/><path d="M202 203h-64l51-123h13z" opacity=".1" fill="#1489C9"/><path d="M202 80v123h-96V80h96zm1-1h-98v125h98V79z" fill="#1489C9"/><path d="M101.5 94.5c-1.1 0-2-.9-2-2s.9-2 2-2h8c1.1 0 2 .9 2 2s-.9 2-2 2h-8z" fill="#FFF"/><path d="M109.5 91c.8 0 1.5.7 1.5 1.5s-.7 1.5-1.5 1.5h-8c-.8 0-1.5-.7-1.5-1.5s.7-1.5 1.5-1.5h8zm0-1h-8c-1.4 0-2.5 1.1-2.5 2.5s1.1 2.5 2.5 2.5h8c1.4 0 2.5-1.1 2.5-2.5s-1.1-2.5-2.5-2.5z" fill="#1489C9"/><path d="M101.5 108.5c-1.1 0-2-.9-2-2s.9-2 2-2h8c1.1 0 2 .9 2 2s-.9 2-2 2h-8z" fill="#FFF"/><path d="M109.5 105c.8 0 1.5.7 1.5 1.5s-.7 1.5-1.5 1.5h-8c-.8 0-1.5-.7-1.5-1.5s.7-1.5 1.5-1.5h8zm0-1h-8c-1.4 0-2.5 1.1-2.5 2.5s1.1 2.5 2.5 2.5h8c1.4 0 2.5-1.1 2.5-2.5s-1.1-2.5-2.5-2.5z" fill="#1489C9"/><path d="M101.5 122.5c-1.1 0-2-.9-2-2s.9-2 2-2h8c1.1 0 2 .9 2 2s-.9 2-2 2h-8z" fill="#FFF"/><path d="M109.5 119c.8 0 1.5.7 1.5 1.5s-.7 1.5-1.5 1.5h-8c-.8 0-1.5-.7-1.5-1.5s.7-1.5 1.5-1.5h8zm0-1h-8c-1.4 0-2.5 1.1-2.5 2.5s1.1 2.5 2.5 2.5h8c1.4 0 2.5-1.1 2.5-2.5s-1.1-2.5-2.5-2.5z" fill="#1489C9"/><path d="M101.5 136.5c-1.1 0-2-.9-2-2s.9-2 2-2h8c1.1 0 2 .9 2 2s-.9 2-2 2h-8z" fill="#FFF"/><path d="M109.5 133c.8 0 1.5.7 1.5 1.5s-.7 1.5-1.5 1.5h-8c-.8 0-1.5-.7-1.5-1.5s.7-1.5 1.5-1.5h8zm0-1h-8c-1.4 0-2.5 1.1-2.5 2.5s1.1 2.5 2.5 2.5h8c1.4 0 2.5-1.1 2.5-2.5s-1.1-2.5-2.5-2.5z" fill="#1489C9"/><path d="M101.5 150.5c-1.1 0-2-.9-2-2s.9-2 2-2h8c1.1 0 2 .9 2 2s-.9 2-2 2h-8z" fill="#FFF"/><path d="M109.5 147c.8 0 1.5.7 1.5 1.5s-.7 1.5-1.5 1.5h-8c-.8 0-1.5-.7-1.5-1.5s.7-1.5 1.5-1.5h8zm0-1h-8c-1.4 0-2.5 1.1-2.5 2.5s1.1 2.5 2.5 2.5h8c1.4 0 2.5-1.1 2.5-2.5s-1.1-2.5-2.5-2.5z" fill="#1489C9"/><path d="M101.5 164.5c-1.1 0-2-.9-2-2s.9-2 2-2h8c1.1 0 2 .9 2 2s-.9 2-2 2h-8z" fill="#FFF"/><path d="M109.5 161c.8 0 1.5.7 1.5 1.5s-.7 1.5-1.5 1.5h-8c-.8 0-1.5-.7-1.5-1.5s.7-1.5 1.5-1.5h8zm0-1h-8c-1.4 0-2.5 1.1-2.5 2.5s1.1 2.5 2.5 2.5h8c1.4 0 2.5-1.1 2.5-2.5s-1.1-2.5-2.5-2.5z" fill="#1489C9"/><path d="M101.5 178.5c-1.1 0-2-.9-2-2s.9-2 2-2h8c1.1 0 2 .9 2 2s-.9 2-2 2h-8z" fill="#FFF"/><path d="M109.5 175c.8 0 1.5.7 1.5 1.5s-.7 1.5-1.5 1.5h-8c-.8 0-1.5-.7-1.5-1.5s.7-1.5 1.5-1.5h8zm0-1h-8c-1.4 0-2.5 1.1-2.5 2.5s1.1 2.5 2.5 2.5h8c1.4 0 2.5-1.1 2.5-2.5s-1.1-2.5-2.5-2.5z" fill="#1489C9"/><path d="M101.5 192.5c-1.1 0-2-.9-2-2s.9-2 2-2h8c1.1 0 2 .9 2 2s-.9 2-2 2h-8z" fill="#FFF"/><path d="M109.5 189c.8 0 1.5.7 1.5 1.5s-.7 1.5-1.5 1.5h-8c-.8 0-1.5-.7-1.5-1.5s.7-1.5 1.5-1.5h8zm0-1h-8c-1.4 0-2.5 1.1-2.5 2.5s1.1 2.5 2.5 2.5h8c1.4 0 2.5-1.1 2.5-2.5s-1.1-2.5-2.5-2.5z" fill="#1489C9"/><path d="M119 200V83" fill="#FFF"/><path d="M119.5 200.5c-.3 0-.5-.2-.5-.5V83c0-.3.2-.5.5-.5s.5.2.5.5v117c0 .3-.2.5-.5.5zM193 87h-2c-.3 0-.5.2-.5.5s.2.5.5.5h2v1c0 .3.2.5.5.5s.5-.2.5-.5v-1c0-.3-.2-.5-.5-.5 0-.3-.2-.5-.5-.5zm-5 0h-2c-.3 0-.5.2-.5.5s.2.5.5.5h2c.3 0 .5-.2.5-.5s-.2-.5-.5-.5zm-5 0h-2c-.3 0-.5.2-.5.5s.2.5.5.5h2c.3 0 .5-.2.5-.5s-.2-.5-.5-.5zm-5 0h-2c-.3 0-.5.2-.5.5s.2.5.5.5h2c.3 0 .5-.2.5-.5s-.2-.5-.5-.5zm-5 0h-2c-.3 0-.5.2-.5.5s.2.5.5.5h2c.3 0 .5-.2.5-.5s-.2-.5-.5-.5zm-5 0h-2c-.3 0-.5.2-.5.5s.2.5.5.5h2c.3 0 .5-.2.5-.5s-.2-.5-.5-.5zm-5 0h-2c-.3 0-.5.2-.5.5s.2.5.5.5h2c.3 0 .5-.2.5-.5s-.2-.5-.5-.5zm-5 0h-2c-.3 0-.5.2-.5.5s.2.5.5.5h2c.3 0 .5-.2.5-.5s-.2-.5-.5-.5zm-5 0h-2c-.3 0-.5.2-.5.5s.2.5.5.5h2c.3 0 .5-.2.5-.5s-.2-.5-.5-.5zm-5 0h-2c-.3 0-.5.2-.5.5s.2.5.5.5h2c.3 0 .5-.2.5-.5s-.2-.5-.5-.5zm-5 0h-2c-.3 0-.5.2-.5.5s.2.5.5.5h2c.3 0 .5-.2.5-.5s-.2-.5-.5-.5zm-5 0h-2c-.3 0-.5.2-.5.5s.2.5.5.5h2c.3 0 .5-.2.5-.5s-.2-.5-.5-.5zm-5 0h-2c-.3 0-.5.2-.5.5s.2.5.5.5h2c.3 0 .5-.2.5-.5s-.2-.5-.5-.5zm-4.5 1.5c-.3 0-.5.2-.5.5v2c0 .3.2.5.5.5s.5-.2.5-.5v-2c0-.3-.2-.5-.5-.5zm0 5c-.3 0-.5.2-.5.5v2c0 .3.2.5.5.5s.5-.2.5-.5v-2c0-.3-.2-.5-.5-.5zm0 5c-.3 0-.5.2-.5.5v2c0 .3.2.5.5.5s.5-.2.5-.5v-2c0-.3-.2-.5-.5-.5zm4.5 3.5h-2c-.3 0-.5.2-.5.5s.2.5.5.5h2c.3 0 .5-.2.5-.5s-.2-.5-.5-.5zm5 0h-2c-.3 0-.5.2-.5.5s.2.5.5.5h2c.3 0 .5-.2.5-.5s-.2-.5-.5-.5zm5 0h-2c-.3 0-.5.2-.5.5s.2.5.5.5h2c.3 0 .5-.2.5-.5s-.2-.5-.5-.5zm5 0h-2c-.3 0-.5.2-.5.5s.2.5.5.5h2c.3 0 .5-.2.5-.5s-.2-.5-.5-.5zm5 0h-2c-.3 0-.5.2-.5.5s.2.5.5.5h2c.3 0 .5-.2.5-.5s-.2-.5-.5-.5zm5 0h-2c-.3 0-.5.2-.5.5s.2.5.5.5h2c.3 0 .5-.2.5-.5s-.2-.5-.5-.5zm5 0h-2c-.3 0-.5.2-.5.5s.2.5.5.5h2c.3 0 .5-.2.5-.5s-.2-.5-.5-.5zm5 0h-2c-.3 0-.5.2-.5.5s.2.5.5.5h2c.3 0 .5-.2.5-.5s-.2-.5-.5-.5zm5 0h-2c-.3 0-.5.2-.5.5s.2.5.5.5h2c.3 0 .5-.2.5-.5s-.2-.5-.5-.5zm5 0h-2c-.3 0-.5.2-.5.5s.2.5.5.5h2c.3 0 .5-.2.5-.5s-.2-.5-.5-.5zm5 0h-2c-.3 0-.5.2-.5.5s.2.5.5.5h2c.3 0 .5-.2.5-.5s-.2-.5-.5-.5zm5 0h-2c-.3 0-.5.2-.5.5s.2.5.5.5h2c.3 0 .5-.2.5-.5s-.2-.5-.5-.5zm5 0h-2c-.3 0-.5.2-.5.5s.2.5.5.5h2c.3 0 .5-.2.5-.5s-.2-.5-.5-.5zm.5-5.5c-.3 0-.5.2-.5.5v2c0 .3.2.5.5.5s.5-.2.5-.5v-2c0-.3-.2-.5-.5-.5zm0-5c-.3 0-.5.2-.5.5v2c0 .3.2.5.5.5s.5-.2.5-.5v-2c0-.3-.2-.5-.5-.5zM193 106h-2c-.3 0-.5.2-.5.5s.2.5.5.5h2v2c0 .3.2.5.5.5s.5-.2.5-.5v-2c0-.3-.2-.5-.5-.5 0-.3-.2-.5-.5-.5zm-5 0h-2c-.3 0-.5.2-.5.5s.2.5.5.5h2c.3 0 .5-.2.5-.5s-.2-.5-.5-.5zm-5 0h-2c-.3 0-.5.2-.5.5s.2.5.5.5h2c.3 0 .5-.2.5-.5s-.2-.5-.5-.5zm-5 0h-2c-.3 0-.5.2-.5.5s.2.5.5.5h2c.3 0 .5-.2.5-.5s-.2-.5-.5-.5zm-5 0h-2c-.3 0-.5.2-.5.5s.2.5.5.5h2c.3 0 .5-.2.5-.5s-.2-.5-.5-.5zm-5 0h-2c-.3 0-.5.2-.5.5s.2.5.5.5h2c.3 0 .5-.2.5-.5s-.2-.5-.5-.5zm-5.5.5c-.3 0-.5.2-.5.5v2c0 .3.2.5.5.5s.5-.2.5-.5v-2c0-.3-.2-.5-.5-.5zm0 5c-.3 0-.5.2-.5.5v2c0 .3.2.5.5.5s.5-.2.5-.5v-2c0-.3-.2-.5-.5-.5zm0 5c-.3 0-.5.2-.5.5v2c0 .3.2.5.5.5s.5-.2.5-.5v-2c0-.3-.2-.5-.5-.5zm0 5c-.3 0-.5.2-.5.5v2c0 .3.2.5.5.5s.5-.2.5-.5v-2c0-.3-.2-.5-.5-.5zm0 5c-.3 0-.5.2-.5.5v1c0 .6.4 1 1 1h1c.3 0 .5-.2.5-.5s-.2-.5-.5-.5h-1v-1c0-.3-.2-.5-.5-.5zm6.5 1.5h-2c-.3 0-.5.2-.5.5s.2.5.5.5h2c.3 0 .5-.2.5-.5s-.2-.5-.5-.5zm5 0h-2c-.3 0-.5.2-.5.5s.2.5.5.5h2c.3 0 .5-.2.5-.5s-.2-.5-.5-.5zm5 0h-2c-.3 0-.5.2-.5.5s.2.5.5.5h2c.3 0 .5-.2.5-.5s-.2-.5-.5-.5zm5 0h-2c-.3 0-.5.2-.5.5s.2.5.5.5h2c.3 0 .5-.2.5-.5s-.2-.5-.5-.5zm5 0h-2c-.3 0-.5.2-.5.5s.2.5.5.5h2c.3 0 .5-.2.5-.5s-.2-.5-.5-.5zm4.5-1.5c-.3 0-.5.2-.5.5v1h-1c-.3 0-.5.2-.5.5s.2.5.5.5h1c.6 0 1-.4 1-1v-1c0-.3-.2-.5-.5-.5zm0-5c-.3 0-.5.2-.5.5v2c0 .3.2.5.5.5s.5-.2.5-.5v-2c0-.3-.2-.5-.5-.5zm0-5c-.3 0-.5.2-.5.5v2c0 .3.2.5.5.5s.5-.2.5-.5v-2c0-.3-.2-.5-.5-.5zm0-5c-.3 0-.5.2-.5.5v2c0 .3.2.5.5.5s.5-.2.5-.5v-2c0-.3-.2-.5-.5-.5zM158 106h-2c-.3 0-.5.2-.5.5s.2.5.5.5h2c.3 0 .5-.2.5-.5s-.2-.5-.5-.5zm-5 0h-2c-.3 0-.5.2-.5.5s.2.5.5.5h2c.3 0 .5-.2.5-.5s-.2-.5-.5-.5zm-5 0h-2c-.3 0-.5.2-.5.5s.2.5.5.5h2c.3 0 .5-.2.5-.5s-.2-.5-.5-.5zm-5 0h-2c-.3 0-.5.2-.5.5s.2.5.5.5h2c.3 0 .5-.2.5-.5s-.2-.5-.5-.5zm-5 0h-2c-.3 0-.5.2-.5.5s.2.5.5.5h2c.3 0 .5-.2.5-.5s-.2-.5-.5-.5zm-5 0h-2c-.3 0-.5.2-.5.5s.2.5.5.5h2c.3 0 .5-.2.5-.5s-.2-.5-.5-.5zm-4.5 1.5c-.3 0-.5.2-.5.5v2c0 .3.2.5.5.5s.5-.2.5-.5v-2c0-.3-.2-.5-.5-.5zm0 5c-.3 0-.5.2-.5.5v2c0 .3.2.5.5.5s.5-.2.5-.5v-2c0-.3-.2-.5-.5-.5zm0 5c-.3 0-.5.2-.5.5v2c0 .3.2.5.5.5s.5-.2.5-.5v-2c0-.3-.2-.5-.5-.5zm0 5c-.3 0-.5.2-.5.5v2c0 .3.2.5.5.5s.5-.2.5-.5v-2c0-.3-.2-.5-.5-.5zm0 5c-.3 0-.5.2-.5.5v2c0 .3.2.5.5.5s.5-.2.5-.5v-2c0-.3-.2-.5-.5-.5zm0 5c-.3 0-.5.2-.5.5v2c0 .3.2.5.5.5s.5-.2.5-.5v-2c0-.3-.2-.5-.5-.5zm0 5c-.3 0-.5.2-.5.5v2c0 .3.2.5.5.5s.5-.2.5-.5v-2c0-.3-.2-.5-.5-.5zm0 5c-.3 0-.5.2-.5.5v2c0 .3.2.5.5.5s.5-.2.5-.5v-2c0-.3-.2-.5-.5-.5zm0 5c-.3 0-.5.2-.5.5v2c0 .3.2.5.5.5s.5-.2.5-.5v-2c0-.3-.2-.5-.5-.5zm0 5c-.3 0-.5.2-.5.5v2c0 .3.2.5.5.5s.5-.2.5-.5v-2c0-.3-.2-.5-.5-.5zm0 5c-.3 0-.5.2-.5.5v2c0 .3.2.5.5.5s.5-.2.5-.5v-2c0-.3-.2-.5-.5-.5zm0 5c-.3 0-.5.2-.5.5v2c0 .3.2.5.5.5s.5-.2.5-.5v-2c0-.3-.2-.5-.5-.5zm0 5c-.3 0-.5.2-.5.5v2c0 .3.2.5.5.5s.5-.2.5-.5v-2c0-.3-.2-.5-.5-.5zm0 5c-.3 0-.5.2-.5.5v2c0 .3.2.5.5.5s.5-.2.5-.5v-2c0-.3-.2-.5-.5-.5zm0 5c-.3 0-.5.2-.5.5v2c0 .3.2.5.5.5s.5-.2.5-.5v-2c0-.3-.2-.5-.5-.5zm0 5c-.3 0-.5.2-.5.5v2c0 .3.2.5.5.5s.5-.2.5-.5v-2c0-.3-.2-.5-.5-.5zm0 5c-.3 0-.5.2-.5.5v2c0 .3.2.5.5.5s.5-.2.5-.5v-2c0-.3-.2-.5-.5-.5zm2.5 5.5h-2c-.3 0-.5.2-.5.5s.2.5.5.5h2c.3 0 .5-.2.5-.5s-.2-.5-.5-.5zm5 0h-2c-.3 0-.5.2-.5.5s.2.5.5.5h2c.3 0 .5-.2.5-.5s-.2-.5-.5-.5zm5 0h-2c-.3 0-.5.2-.5.5s.2.5.5.5h2c.3 0 .5-.2.5-.5s-.2-.5-.5-.5zm5 0h-2c-.3 0-.5.2-.5.5s.2.5.5.5h2c.3 0 .5-.2.5-.5s-.2-.5-.5-.5zm5 0h-2c-.3 0-.5.2-.5.5s.2.5.5.5h2c.3 0 .5-.2.5-.5s-.2-.5-.5-.5zm5 0h-2c-.3 0-.5.2-.5.5s.2.5.5.5h2c.3 0 .5-.2.5-.5s-.2-.5-.5-.5zm2.5-3.5c-.3 0-.5.2-.5.5v2c0 .3.2.5.5.5s.5-.2.5-.5v-2c0-.3-.2-.5-.5-.5zm0-5c-.3 0-.5.2-.5.5v2c0 .3.2.5.5.5s.5-.2.5-.5v-2c0-.3-.2-.5-.5-.5zm0-5c-.3 0-.5.2-.5.5v2c0 .3.2.5.5.5s.5-.2.5-.5v-2c0-.3-.2-.5-.5-.5zm0-5c-.3 0-.5.2-.5.5v2c0 .3.2.5.5.5s.5-.2.5-.5v-2c0-.3-.2-.5-.5-.5zm0-5c-.3 0-.5.2-.5.5v2c0 .3.2.5.5.5s.5-.2.5-.5v-2c0-.3-.2-.5-.5-.5zm0-5c-.3 0-.5.2-.5.5v2c0 .3.2.5.5.5s.5-.2.5-.5v-2c0-.3-.2-.5-.5-.5zm0-5c-.3 0-.5.2-.5.5v2c0 .3.2.5.5.5s.5-.2.5-.5v-2c0-.3-.2-.5-.5-.5zm0-5c-.3 0-.5.2-.5.5v2c0 .3.2.5.5.5s.5-.2.5-.5v-2c0-.3-.2-.5-.5-.5zm0-5c-.3 0-.5.2-.5.5v2c0 .3.2.5.5.5s.5-.2.5-.5v-2c0-.3-.2-.5-.5-.5zm0-5c-.3 0-.5.2-.5.5v2c0 .3.2.5.5.5s.5-.2.5-.5v-2c0-.3-.2-.5-.5-.5zm0-5c-.3 0-.5.2-.5.5v2c0 .3.2.5.5.5s.5-.2.5-.5v-2c0-.3-.2-.5-.5-.5zm0-5c-.3 0-.5.2-.5.5v2c0 .3.2.5.5.5s.5-.2.5-.5v-2c0-.3-.2-.5-.5-.5zm0-5c-.3 0-.5.2-.5.5v2c0 .3.2.5.5.5s.5-.2.5-.5v-2c0-.3-.2-.5-.5-.5zm0-5c-.3 0-.5.2-.5.5v2c0 .3.2.5.5.5s.5-.2.5-.5v-2c0-.3-.2-.5-.5-.5zm0-5c-.3 0-.5.2-.5.5v2c0 .3.2.5.5.5s.5-.2.5-.5v-2c0-.3-.2-.5-.5-.5zm0-5c-.3 0-.5.2-.5.5v2c0 .3.2.5.5.5s.5-.2.5-.5v-2c0-.3-.2-.5-.5-.5zm0-5c-.3 0-.5.2-.5.5v2c0 .3.2.5.5.5s.5-.2.5-.5v-2c0-.3-.2-.5-.5-.5zM193 132h-2c-.3 0-.5.2-.5.5s.2.5.5.5h2v2c0 .3.2.5.5.5s.5-.2.5-.5v-2c0-.3-.2-.5-.5-.5 0-.3-.2-.5-.5-.5zm-5 0h-2c-.3 0-.5.2-.5.5s.2.5.5.5h2c.3 0 .5-.2.5-.5s-.2-.5-.5-.5zm-5 0h-2c-.3 0-.5.2-.5.5s.2.5.5.5h2c.3 0 .5-.2.5-.5s-.2-.5-.5-.5zm-5 0h-2c-.3 0-.5.2-.5.5s.2.5.5.5h2c.3 0 .5-.2.5-.5s-.2-.5-.5-.5zm-5 0h-2c-.3 0-.5.2-.5.5s.2.5.5.5h2c.3 0 .5-.2.5-.5s-.2-.5-.5-.5zm-5 0h-2c-.3 0-.5.2-.5.5s.2.5.5.5h2c.3 0 .5-.2.5-.5s-.2-.5-.5-.5zm-5.5.5c-.3 0-.5.2-.5.5v2c0 .3.2.5.5.5s.5-.2.5-.5v-2c0-.3-.2-.5-.5-.5zm0 5c-.3 0-.5.2-.5.5v2c0 .3.2.5.5.5s.5-.2.5-.5v-2c0-.3-.2-.5-.5-.5zm0 5c-.3 0-.5.2-.5.5v2c0 .3.2.5.5.5s.5-.2.5-.5v-2c0-.3-.2-.5-.5-.5zm0 5c-.3 0-.5.2-.5.5v2c0 .3.2.5.5.5s.5-.2.5-.5v-2c0-.3-.2-.5-.5-.5zm0 5c-.3 0-.5.2-.5.5v1c0 .6.4 1 1 1h1c.3 0 .5-.2.5-.5s-.2-.5-.5-.5h-1v-1c0-.3-.2-.5-.5-.5zm6.5 1.5h-2c-.3 0-.5.2-.5.5s.2.5.5.5h2c.3 0 .5-.2.5-.5s-.2-.5-.5-.5zm5 0h-2c-.3 0-.5.2-.5.5s.2.5.5.5h2c.3 0 .5-.2.5-.5s-.2-.5-.5-.5zm5 0h-2c-.3 0-.5.2-.5.5s.2.5.5.5h2c.3 0 .5-.2.5-.5s-.2-.5-.5-.5zm5 0h-2c-.3 0-.5.2-.5.5s.2.5.5.5h2c.3 0 .5-.2.5-.5s-.2-.5-.5-.5zm5 0h-2c-.3 0-.5.2-.5.5s.2.5.5.5h2c.3 0 .5-.2.5-.5s-.2-.5-.5-.5zm4.5-1.5c-.3 0-.5.2-.5.5v1h-1c-.3 0-.5.2-.5.5s.2.5.5.5h1c.6 0 1-.4 1-1v-1c0-.3-.2-.5-.5-.5zm0-5c-.3 0-.5.2-.5.5v2c0 .3.2.5.5.5s.5-.2.5-.5v-2c0-.3-.2-.5-.5-.5zm0-5c-.3 0-.5.2-.5.5v2c0 .3.2.5.5.5s.5-.2.5-.5v-2c0-.3-.2-.5-.5-.5zm0-5c-.3 0-.5.2-.5.5v2c0 .3.2.5.5.5s.5-.2.5-.5v-2c0-.3-.2-.5-.5-.5zm0 22.5h-31c-.3 0-.5-.2-.5-.5s.2-.5.5-.5h31c.3 0 .5.2.5.5s-.2.5-.5.5zm0 3h-31c-.3 0-.5-.2-.5-.5s.2-.5.5-.5h31c.3 0 .5.2.5.5s-.2.5-.5.5zm0 3h-31c-.3 0-.5-.2-.5-.5s.2-.5.5-.5h31c.3 0 .5.2.5.5s-.2.5-.5.5zm-8 3h-23c-.3 0-.5-.2-.5-.5s.2-.5.5-.5h23c.3 0 .5.2.5.5s-.2.5-.5.5zm8 7h-31c-.3 0-.5-.2-.5-.5s.2-.5.5-.5h31c.3 0 .5.2.5.5s-.2.5-.5.5zm0 3h-31c-.3 0-.5-.2-.5-.5s.2-.5.5-.5h31c.3 0 .5.2.5.5s-.2.5-.5.5zm0 3h-31c-.3 0-.5-.2-.5-.5s.2-.5.5-.5h31c.3 0 .5.2.5.5s-.2.5-.5.5zm-18 3h-13c-.3 0-.5-.2-.5-.5s.2-.5.5-.5h13c.3 0 .5.2.5.5s-.2.5-.5.5z" fill="#86D0EA"/><path d="M109.5 91H107v3h2.5c.8 0 1.5-.7 1.5-1.5s-.7-1.5-1.5-1.5zm0 14H107v3h2.5c.8 0 1.5-.7 1.5-1.5s-.7-1.5-1.5-1.5zm0 14H107v3h2.5c.8 0 1.5-.7 1.5-1.5s-.7-1.5-1.5-1.5zm0 14H107v3h2.5c.8 0 1.5-.7 1.5-1.5s-.7-1.5-1.5-1.5zm0 14H107v3h2.5c.8 0 1.5-.7 1.5-1.5s-.7-1.5-1.5-1.5zm0 14H107v3h2.5c.8 0 1.5-.7 1.5-1.5s-.7-1.5-1.5-1.5zm0 14H107v3h2.5c.8 0 1.5-.7 1.5-1.5s-.7-1.5-1.5-1.5zm0 14H107v3h2.5c.8 0 1.5-.7 1.5-1.5s-.7-1.5-1.5-1.5z" opacity=".1" fill="#1489C9"/><path d="M82 124h1" fill="#FFF"/><path fill="#1489C9" d="M82 123h1v1h-1z"/><path d="M84.5 138.5c-.6 0-1-.4-1-1v-15c0-.6.4-1 1-1s1 .4 1 1v15c0 .6-.4 1-1 1z" fill="#FFF"/><path d="M84.5 122c.3 0 .5.2.5.5v15c0 .3-.2.5-.5.5s-.5-.2-.5-.5v-15c0-.3.2-.5.5-.5zm0-1c-.8 0-1.5.7-1.5 1.5v15c0 .8.7 1.5 1.5 1.5s1.5-.7 1.5-1.5v-15c0-.8-.7-1.5-1.5-1.5zm-6 67c-.3 0-.5-.2-.5-.5v-2c0-.3.2-.5.5-.5s.5.2.5.5v2c0 .3-.2.5-.5.5z" fill="#1489C9"/><path d="M78.5 119.5c-.6 0-1-.4-1-1v-3c0-.6.4-1 1-1s1 .4 1 1v3c0 .6-.4 1-1 1z" fill="#FFF"/><path d="M78.5 115c.3 0 .5.2.5.5v3c0 .3-.2.5-.5.5s-.5-.2-.5-.5v-3c0-.3.2-.5.5-.5zm0-1c-.8 0-1.5.7-1.5 1.5v3c0 .8.7 1.5 1.5 1.5s1.5-.7 1.5-1.5v-3c0-.8-.7-1.5-1.5-1.5z" fill="#1489C9"/><path d="M78 185.5c-1.7 0-2.5-4.7-2.5-5.5v-59c0-1.4 1.1-2.5 2.5-2.5h1c1.4 0 2.5 1.1 2.5 2.5v59c0 .8-.8 5.5-2.5 5.5h-1z" fill="#FFF"/><path d="M79 119c1.1 0 2 .9 2 2v59c0 1.1-.9 5-2 5h-1c-1.1 0-2-3.9-2-5v-59c0-1.1.9-2 2-2h1zm0-1h-1c-1.7 0-3 1.3-3 3v59c0 .7.3 2.1.6 3.2.4 1.2 1.1 2.8 2.4 2.8h1c1.3 0 2-1.6 2.4-2.8.4-1.1.6-2.5.6-3.2v-59c0-1.7-1.3-3-3-3z" fill="#1489C9"/><path d="M79 185v-66c1.1 0 2 .9 2 2v59c0 1.1-.9 5-2 5z" opacity=".1" fill="#1489C9"/><path fill="#1489C9" d="M76 179h5v1h-5zm0-52h5v1h-5z"/><path d="M79 119c1.1 0 2 .9 2 2v59c0 1.1-.9 5-2 5h-1c-1.1 0-2-3.9-2-5v-59c0-1.1.9-2 2-2h1zm0-1h-1c-1.7 0-3 1.3-3 3v59c0 .7.3 2.1.6 3.2.4 1.2 1.1 2.8 2.4 2.8h1c1.3 0 2-1.6 2.4-2.8.4-1.1.6-2.5.6-3.2v-59c0-1.7-1.3-3-3-3z" fill="#1489C9"/><path fill="#FFF" d="M62.5 177.1v-60.6h5v60.6L65 188.3z"/><path d="M67 117v60l-2 9-2-9v-60h4zm1-1h-6v61.2l2 9 1 4.4 1-4.4 2-9V116z" fill="#1489C9"/><path fill="#1489C9" d="M63 175h4v1h-4zm5-52h-6c-.3 0-.5-.2-.5-.5s.2-.5.5-.5h6c.3 0 .5.2.5.5s-.2.5-.5.5zm0 2h-6c-.3 0-.5-.2-.5-.5s.2-.5.5-.5h6c.3 0 .5.2.5.5s-.2.5-.5.5zm0 2h-6c-.3 0-.5-.2-.5-.5s.2-.5.5-.5h6c.3 0 .5.2.5.5s-.2.5-.5.5zm0 2h-6c-.3 0-.5-.2-.5-.5s.2-.5.5-.5h6c.3 0 .5.2.5.5s-.2.5-.5.5zm-5 51l3 2-1 4.5z"/><path d="M65.5 173.5c-.3 0-.5-.2-.5-.5v-29c0-.3.2-.5.5-.5s.5.2.5.5v29c0 .3-.2.5-.5.5zm0-31c-.3 0-.5-.2-.5-.5v-11c0-.3.2-.5.5-.5s.5.2.5.5v11c0 .3-.2.5-.5.5z" fill="#86D0EA"/><path d="M63 116h4v6h-4z" opacity=".1" fill="#1489C9"/><path d="M65 116h2v6h-2z" opacity=".1" fill="#1489C9"/><path d="M61 108.5c-1.4 0-2.5-1.1-2.5-2.5v-7c0-1.4 1.1-2.5 2.5-2.5h22c1.4 0 2.5 1.1 2.5 2.5v7c0 1.4-1.1 2.5-2.5 2.5H61z" fill="#FFF"/><path d="M83 97c1.1 0 2 .9 2 2v7c0 1.1-.9 2-2 2H61c-1.1 0-2-.9-2-2v-7c0-1.1.9-2 2-2h22zm0-1H61c-1.7 0-3 1.3-3 3v7c0 1.7 1.3 3 3 3h22c1.7 0 3-1.3 3-3v-7c0-1.7-1.3-3-3-3z" fill="#1489C9"/><path d="M83 97h-4c1.1 0 2 .9 2 2v7c0 1.1-.9 2-2 2h4c1.1 0 2-.9 2-2v-7c0-1.1-.9-2-2-2z" opacity=".1" fill="#1489C9"/><path d="M83 97c1.1 0 2 .9 2 2v7c0 1.1-.9 2-2 2H61c-1.1 0-2-.9-2-2v-7c0-1.1.9-2 2-2h22zm0-1H61c-1.7 0-3 1.3-3 3v7c0 1.7 1.3 3 3 3h22c1.7 0 3-1.3 3-3v-7c0-1.7-1.3-3-3-3z" fill="#1489C9"/><path d="M75.5 102h-13c-.3 0-.5-.2-.5-.5s.2-.5.5-.5h13c.3 0 .5.2.5.5s-.2.5-.5.5zm-6 2h-7c-.3 0-.5-.2-.5-.5s.2-.5.5-.5h7c.3 0 .5.2.5.5s-.2.5-.5.5z" fill="#86D0EA"/></g></svg>