<svg width="372" height="260" viewBox="0 0 372 260" xmlns="http://www.w3.org/2000/svg"><title>ill-flexible</title><g fill="none" fill-rule="evenodd"><circle cx="130" cy="130" r="130" opacity=".1" transform="translate(88)" fill-opacity=".5" fill="#1489C9"/><g transform="translate(116 48)"><path d="M5 131.5c-2.5 0-4.5-2-4.5-4.5V5C.5 2.5 2.5.5 5 .5h192c2.5 0 4.5 2 4.5 4.5v122c0 2.5-2 4.5-4.5 4.5H5z" fill="#FFF"/><path d="M197 1c2.2 0 4 1.8 4 4v122c0 2.2-1.8 4-4 4H5c-2.2 0-4-1.8-4-4V5c0-2.2 1.8-4 4-4h192zm0-1H5C2.2 0 0 2.2 0 5v122c0 2.8 2.2 5 5 5h192c2.8 0 5-2.2 5-5V5c0-2.8-2.2-5-5-5z" fill="#1489C9"/><path fill="#1489C9" d="M1 110h200v1H1z"/><g transform="translate(96 116)"><circle fill="#FFF" cx="5" cy="5" r="4.5"/><path d="M5 1c2.2 0 4 1.8 4 4S7.2 9 5 9 1 7.2 1 5s1.8-4 4-4zm0-1C2.2 0 0 2.2 0 5s2.2 5 5 5 5-2.2 5-5-2.2-5-5-5z" fill="#1489C9"/></g><path d="M5 1C2.8 1 1 2.8 1 5v105h149.4L114 1H5z" opacity=".1" fill="#1489C9"/><path d="M192 7H10c-1.6 0-3 1.4-3 3v91c0 1.6 1.4 3 3 3h182c1.6 0 3-1.4 3-3V10c0-1.6-1.4-3-3-3z" opacity=".1" fill="#1489C9"/><path fill="#FFF" d="M75.4 157.5l3.2-26h44.8l3.2 26z"/><path d="M123 132l3 25H76l3-25h44zm.9-1H78.1l-.1.9-3 25-.1 1.1h52.2l-.1-1.1-3-25-.1-.9z" fill="#1489C9"/><path d="M77.9 141l1.1-9h44l1 9z" opacity=".1" fill="#1489C9"/><path d="M64 158.5c-.8 0-1.5-.7-1.5-1.5v-2c0-.8.7-1.5 1.5-1.5h74c.8 0 1.5.7 1.5 1.5v2c0 .8-.7 1.5-1.5 1.5H64z" fill="#FFF"/><path d="M138 154c.5 0 1 .5 1 1v2c0 .5-.5 1-1 1H64c-.6 0-1-.5-1-1v-2c0-.5.4-1 1-1h74zm0-1H64c-1.1 0-2 .9-2 2v2c0 1.1.9 2 2 2h74c1.1 0 2-.9 2-2v-2c0-1.1-.9-2-2-2z" fill="#1489C9"/><path d="M98 123.5c0-3 2.5-5.5 5.5-5.5h.1c-.7-.6-1.6-1-2.6-1-2.2 0-4 1.8-4 4 0 1 .4 1.9 1 2.6v-.1z" opacity=".1" fill="#1489C9"/><circle fill="#1489C9" cx="101" cy="4" r="1"/></g><path d="M272 207.5c-1.9 0-3.5-1.6-3.5-3.5v-90c0-1.9 1.6-3.5 3.5-3.5h64c1.9 0 3.5 1.6 3.5 3.5v90c0 1.9-1.6 3.5-3.5 3.5h-64z" fill="#FFF"/><path d="M336 111c1.6 0 3 1.4 3 3v90c0 1.6-1.4 3-3 3h-64c-1.6 0-3-1.4-3-3v-90c0-1.6 1.4-3 3-3h64zm0-1h-64c-2.2 0-4 1.8-4 4v90c0 2.2 1.8 4 4 4h64c2.2 0 4-1.8 4-4v-90c0-2.2-1.8-4-4-4z" fill="#1489C9"/><path d="M292.4 111H272c-1.7 0-3 1.3-3 3v90c0 1.6 1.3 3 3 3h52.7l-32.3-96z" opacity=".1" fill="#1489C9"/><circle fill="#1489C9" cx="304" cy="203" r="2"/><path d="M306.5 114h-5c-.3 0-.5-.2-.5-.5s.2-.5.5-.5h5c.3 0 .5.2.5.5s-.2.5-.5.5z" fill="#1489C9"/><circle fill="#1489C9" cx="299.5" cy="113.5" r=".5"/><g transform="translate(0 114)"><path d="M17 85.5c-1.9 0-3.5-1.6-3.5-3.5V4c0-1.9 1.6-3.5 3.5-3.5h130c1.9 0 3.5 1.6 3.5 3.5v78c0 1.9-1.6 3.5-3.5 3.5H17z" fill="#FFF"/><path d="M147 1c1.6 0 3 1.4 3 3v78c0 1.6-1.4 3-3 3H17c-1.7 0-3-1.4-3-3V4c0-1.6 1.3-3 3-3h130zm0-1H17c-2.2 0-4 1.8-4 4v78c0 2.2 1.8 4 4 4h130c2.2 0 4-1.8 4-4V4c0-2.2-1.8-4-4-4z" fill="#1489C9"/><path d="M147 81V6c0-.6-.4-1-1-1H18c-.6 0-1 .4-1 1v75c0 .5.4 1 1 1h128c.6 0 1-.5 1-1z" opacity=".1" fill="#1489C9"/><path d="M4 92.5C2.1 92.5.5 90.9.5 89v-3.5h163V89c0 1.9-1.6 3.5-3.5 3.5H4z" fill="#FFF"/><path d="M163 86v3c0 1.7-1.3 3-3 3H4c-1.7 0-3-1.3-3-3v-3h162zm1-1H0v4c0 2.2 1.8 4 4 4h156c2.2 0 4-1.8 4-4v-4z" fill="#1489C9"/><path d="M99 88H65c-.6 0-1-.4-1-1v-1h36v1c0 .6-.4 1-1 1z" fill="#86D0EA"/><circle fill="#1489C9" cx="82" cy="3" r="1"/><path d="M91.1 1H17c-1.7 0-3 1.3-3 3v78c0 1.6 1.3 3 3 3h102.4L91.1 1z" opacity=".1" fill="#1489C9"/></g><g transform="translate(350 168)"><path d="M3 39.5C1.6 39.5.5 38.4.5 37V3C.5 1.6 1.6.5 3 .5h16c1.4 0 2.5 1.1 2.5 2.5v34c0 1.4-1.1 2.5-2.5 2.5H3z" fill="#FFF"/><path d="M19 1c1.1 0 2 .9 2 2v34c0 1.1-.9 2-2 2H3c-1.1 0-2-.9-2-2V3c0-1.1.9-2 2-2h16zm0-1H3C1.3 0 0 1.3 0 3v34c0 1.7 1.3 3 3 3h16c1.7 0 3-1.3 3-3V3c0-1.7-1.3-3-3-3z" fill="#1489C9"/><path d="M9.9 1H3c-1.1 0-2 .9-2 2v34c0 1.1.9 2 2 2h16c1.1 0 2-.9 2-2v-3.2L9.9 1z" opacity=".1" fill="#1489C9"/><path d="M13.5 3h-5c-.3 0-.5-.2-.5-.5s.2-.5.5-.5h5c.3 0 .5.2.5.5s-.2.5-.5.5z" fill="#1489C9"/><circle fill="#1489C9" cx="6.5" cy="2.5" r=".5"/><path d="M1 4h20v29H1z" opacity=".1" fill="#1489C9"/><circle fill="#1489C9" cx="11" cy="36" r="2"/></g><path d="M274 116h60v83h-60z" opacity=".1" fill="#1489C9"/></g></svg>