<svg width="356" height="261" viewBox="0 0 356 261" xmlns="http://www.w3.org/2000/svg"><title>ill-library</title><g fill="none" fill-rule="evenodd"><circle cx="130.5" cy="130.5" r="130.5" opacity=".05" transform="translate(47)" fill="#1489C9"/><path d="M70.5 185.5c-1.7 0-3-1.3-3-3v-7c0-1.7 1.3-3 3-3h1c1.7 0 3 1.3 3 3v7c0 1.7-1.3 3-3 3h-1z" fill="#E8F4FA"/><path d="M71.5 173c1.4 0 2.5 1.1 2.5 2.5v7c0 1.4-1.1 2.5-2.5 2.5h-1c-1.4 0-2.5-1.1-2.5-2.5v-7c0-1.4 1.1-2.5 2.5-2.5h1zm0-1h-1c-1.9 0-3.5 1.6-3.5 3.5v7c0 1.9 1.6 3.5 3.5 3.5h1c1.9 0 3.5-1.6 3.5-3.5v-7c0-1.9-1.6-3.5-3.5-3.5z" fill="#1489C9"/><path d="M284.5 185.5c-1.7 0-3-1.3-3-3v-7c0-1.7 1.3-3 3-3h1c1.7 0 3 1.3 3 3v7c0 1.7-1.3 3-3 3h-1z" fill="#E8F4FA"/><path d="M285.5 173c1.4 0 2.5 1.1 2.5 2.5v7c0 1.4-1.1 2.5-2.5 2.5h-1c-1.4 0-2.5-1.1-2.5-2.5v-7c0-1.4 1.1-2.5 2.5-2.5h1zm0-1h-1c-1.9 0-3.5 1.6-3.5 3.5v7c0 1.9 1.6 3.5 3.5 3.5h1c1.9 0 3.5-1.6 3.5-3.5v-7c0-1.9-1.6-3.5-3.5-3.5z" fill="#1489C9"/><path d="M71.5 173c1.4 0 2.5 1.1 2.5 2.5v7c0 1.4-1.1 2.5-2.5 2.5h-1c-1.4 0-2.5-1.1-2.5-2.5v-7c0-1.4 1.1-2.5 2.5-2.5h1zm0-1h-1c-1.9 0-3.5 1.6-3.5 3.5v7c0 1.9 1.6 3.5 3.5 3.5h1c1.9 0 3.5-1.6 3.5-3.5v-7c0-1.9-1.6-3.5-3.5-3.5zm214 1c1.4 0 2.5 1.1 2.5 2.5v7c0 1.4-1.1 2.5-2.5 2.5h-1c-1.4 0-2.5-1.1-2.5-2.5v-7c0-1.4 1.1-2.5 2.5-2.5h1zm0-1h-1c-1.9 0-3.5 1.6-3.5 3.5v7c0 1.9 1.6 3.5 3.5 3.5h1c1.9 0 3.5-1.6 3.5-3.5v-7c0-1.9-1.6-3.5-3.5-3.5z" fill="#1489C9"/><path d="M22 169.5c-.3 0-.5-.2-.5-.5v-.4c0-4.9 4-8.9 8.9-8.9h6.5v-.4c0-1.6.9-3 2.4-3.7-1-2-1.5-4.2-1.5-6.5 0-8.3 6.8-15.1 15.1-15.1 1.5 0 3 .2 4.4.7.3-1.9 2-3.3 4-3.3h.4V124c0-4.8 3.8-8.5 8.9-8.5h.4c.3 0 .5.2.5.5v53c0 .3-.2.5-.5.5H22zm30.9-27.4c-3.9 0-7 3.2-7 7 0 3.9 3.2 7 7 7s7-3.2 7-7c0-3.9-3.2-7-7-7z" fill="#FFF"/><path d="M71 116v53H22v-.4c0-4.6 3.8-8.4 8.4-8.4h7.1c-.1-.3-.1-.6-.1-.9 0-1.6 1.1-3 2.6-3.4-1.1-2-1.7-4.3-1.7-6.8 0-8.1 6.5-14.6 14.6-14.6 1.7 0 3.3.3 4.9.9 0-1.9 1.6-3.5 3.5-3.5.3 0 .6.1.9.1v-8c0-4.6 3.8-8 8.4-8h.4zm-18.1 40.6c4.2 0 7.5-3.4 7.5-7.5 0-4.2-3.4-7.5-7.5-7.5-4.2 0-7.5 3.4-7.5 7.5-.1 4.1 3.3 7.5 7.5 7.5zM71 115h-.4c-5.4 0-9.4 3.9-9.4 9v6.9c-2 0-3.7 1.4-4.2 3.2-1.3-.4-2.7-.6-4.1-.6-8.6 0-15.6 7-15.6 15.6 0 2.2.5 4.3 1.3 6.3-1.3.8-2.2 2.2-2.2 3.8h-6c-5.2 0-9.4 4.2-9.4 9.4v.5c0 .5.5.9 1 .9h49.1c.6 0 1-.4 1-1v-53c-.1-.6-.5-1-1.1-1zm-18.1 40.6c-3.6 0-6.5-2.9-6.5-6.5s2.9-6.5 6.5-6.5 6.5 2.9 6.5 6.5-2.9 6.5-6.5 6.5z" fill="#1489C9"/><path d="M308.7 157.5c-5.1 0-9.2-4.1-9.2-9.2v-29.7c0-5.1 4.1-9.2 9.2-9.2h1.7c5.1 0 9.2 4.1 9.2 9.2v29.7c0 5.1-4.1 9.2-9.2 9.2h-1.7z" fill="#FFF"/><path d="M310.3 110c4.8 0 8.7 3.9 8.7 8.7v29.7c0 4.8-3.9 8.7-8.7 8.7h-1.7c-4.8 0-8.7-3.9-8.7-8.7v-29.7c0-4.8 3.9-8.7 8.7-8.7h1.7zm0-1h-1.7c-5.3 0-9.7 4.3-9.7 9.7v29.7c0 5.3 4.3 9.7 9.7 9.7h1.7c5.3 0 9.7-4.3 9.7-9.7v-29.7c0-5.4-4.3-9.7-9.7-9.7z" fill="#1489C9"/><path d="M310.3 157v-47c4.8 0 8.7 3.9 8.7 8.7v29.7c0 4.7-3.9 8.6-8.7 8.6z" opacity=".1" fill="#1489C9"/><path d="M309 113v4" fill="#FFF"/><path d="M309.5 117.5c-.3 0-.5-.2-.5-.5v-4c0-.3.2-.5.5-.5s.5.2.5.5v4c0 .3-.2.5-.5.5z" fill="#86D0EA"/><path d="M309 120v4" fill="#FFF"/><path d="M309.5 124.5c-.3 0-.5-.2-.5-.5v-4c0-.3.2-.5.5-.5s.5.2.5.5v4c0 .3-.2.5-.5.5z" fill="#86D0EA"/><path d="M309 127v4" fill="#FFF"/><path d="M309.5 131.5c-.3 0-.5-.2-.5-.5v-4c0-.3.2-.5.5-.5s.5.2.5.5v4c0 .3-.2.5-.5.5z" fill="#86D0EA"/><path d="M309 134v4" fill="#FFF"/><path d="M309.5 138.5c-.3 0-.5-.2-.5-.5v-4c0-.3.2-.5.5-.5s.5.2.5.5v4c0 .3-.2.5-.5.5z" fill="#86D0EA"/><path d="M304 115v4" fill="#FFF"/><path d="M304.5 119.5c-.3 0-.5-.2-.5-.5v-4c0-.3.2-.5.5-.5s.5.2.5.5v4c0 .3-.2.5-.5.5z" fill="#86D0EA"/><path d="M304 122v4" fill="#FFF"/><path d="M304.5 126.5c-.3 0-.5-.2-.5-.5v-4c0-.3.2-.5.5-.5s.5.2.5.5v4c0 .3-.2.5-.5.5z" fill="#86D0EA"/><path d="M304 129v4" fill="#FFF"/><path d="M304.5 133.5c-.3 0-.5-.2-.5-.5v-4c0-.3.2-.5.5-.5s.5.2.5.5v4c0 .3-.2.5-.5.5z" fill="#86D0EA"/><path d="M304 136v4" fill="#FFF"/><path d="M304.5 140.5c-.3 0-.5-.2-.5-.5v-4c0-.3.2-.5.5-.5s.5.2.5.5v4c0 .3-.2.5-.5.5z" fill="#86D0EA"/><path d="M314 115v4" fill="#FFF"/><path d="M314.5 119.5c-.3 0-.5-.2-.5-.5v-4c0-.3.2-.5.5-.5s.5.2.5.5v4c0 .3-.2.5-.5.5z" fill="#86D0EA"/><path d="M314 122v4" fill="#FFF"/><path d="M314.5 126.5c-.3 0-.5-.2-.5-.5v-4c0-.3.2-.5.5-.5s.5.2.5.5v4c0 .3-.2.5-.5.5z" fill="#86D0EA"/><path d="M314 129v4" fill="#FFF"/><path d="M314.5 133.5c-.3 0-.5-.2-.5-.5v-4c0-.3.2-.5.5-.5s.5.2.5.5v4c0 .3-.2.5-.5.5z" fill="#86D0EA"/><path d="M314 136v4" fill="#FFF"/><path d="M314.5 140.5c-.3 0-.5-.2-.5-.5v-4c0-.3.2-.5.5-.5s.5.2.5.5v4c0 .3-.2.5-.5.5z" fill="#86D0EA"/><path d="M310.3 110c4.8 0 8.7 3.9 8.7 8.7v29.7c0 4.8-3.9 8.7-8.7 8.7h-1.7c-4.8 0-8.7-3.9-8.7-8.7v-29.7c0-4.8 3.9-8.7 8.7-8.7h1.7zm0-1h-1.7c-5.3 0-9.7 4.3-9.7 9.7v29.7c0 5.3 4.3 9.7 9.7 9.7h1.7c5.3 0 9.7-4.3 9.7-9.7v-29.7c0-5.4-4.3-9.7-9.7-9.7z" fill="#1489C9"/><path d="M317.7 157.5c-5.1 0-9.2-4.1-9.2-9.2v-17.7c0-5.1 4.1-9.2 9.2-9.2h1.7c5.1 0 9.2 4.1 9.2 9.2v17.7c0 5.1-4.1 9.2-9.2 9.2h-1.7z" fill="#FFF"/><path d="M319.3 122c4.8 0 8.7 3.9 8.7 8.7v17.7c0 4.8-3.9 8.7-8.7 8.7h-1.7c-4.8 0-8.7-3.9-8.7-8.7v-17.7c0-4.8 3.9-8.7 8.7-8.7h1.7zm0-1h-1.7c-5.3 0-9.7 4.3-9.7 9.7v17.7c0 5.3 4.3 9.7 9.7 9.7h1.7c5.3 0 9.7-4.3 9.7-9.7v-17.7c0-5.4-4.3-9.7-9.7-9.7z" fill="#1489C9"/><path d="M319.3 157v-35c4.8 0 8.7 3.9 8.7 8.7v17.7c0 4.7-3.9 8.6-8.7 8.6z" opacity=".1" fill="#1489C9"/><path d="M318 126v4" fill="#FFF"/><path d="M318.5 130.5c-.3 0-.5-.2-.5-.5v-4c0-.3.2-.5.5-.5s.5.2.5.5v4c0 .3-.2.5-.5.5z" fill="#86D0EA"/><path d="M318 133v4" fill="#FFF"/><path d="M318.5 137.5c-.3 0-.5-.2-.5-.5v-4c0-.3.2-.5.5-.5s.5.2.5.5v4c0 .3-.2.5-.5.5z" fill="#86D0EA"/><path d="M318 140v4" fill="#FFF"/><path d="M318.5 144.5c-.3 0-.5-.2-.5-.5v-4c0-.3.2-.5.5-.5s.5.2.5.5v4c0 .3-.2.5-.5.5z" fill="#86D0EA"/><path d="M318 147v4" fill="#FFF"/><path d="M318.5 151.5c-.3 0-.5-.2-.5-.5v-4c0-.3.2-.5.5-.5s.5.2.5.5v4c0 .3-.2.5-.5.5z" fill="#86D0EA"/><path d="M313 128v4" fill="#FFF"/><path d="M313.5 132.5c-.3 0-.5-.2-.5-.5v-4c0-.3.2-.5.5-.5s.5.2.5.5v4c0 .3-.2.5-.5.5z" fill="#86D0EA"/><path d="M313 135v4" fill="#FFF"/><path d="M313.5 139.5c-.3 0-.5-.2-.5-.5v-4c0-.3.2-.5.5-.5s.5.2.5.5v4c0 .3-.2.5-.5.5z" fill="#86D0EA"/><path d="M313 142v4" fill="#FFF"/><path d="M313.5 146.5c-.3 0-.5-.2-.5-.5v-4c0-.3.2-.5.5-.5s.5.2.5.5v4c0 .3-.2.5-.5.5z" fill="#86D0EA"/><path d="M313 149v4" fill="#FFF"/><path d="M313.5 153.5c-.3 0-.5-.2-.5-.5v-4c0-.3.2-.5.5-.5s.5.2.5.5v4c0 .3-.2.5-.5.5z" fill="#86D0EA"/><path d="M323 128v4" fill="#FFF"/><path d="M323.5 132.5c-.3 0-.5-.2-.5-.5v-4c0-.3.2-.5.5-.5s.5.2.5.5v4c0 .3-.2.5-.5.5z" fill="#86D0EA"/><path d="M323 135v4" fill="#FFF"/><path d="M323.5 139.5c-.3 0-.5-.2-.5-.5v-4c0-.3.2-.5.5-.5s.5.2.5.5v4c0 .3-.2.5-.5.5z" fill="#86D0EA"/><path d="M323 142v4" fill="#FFF"/><path d="M323.5 146.5c-.3 0-.5-.2-.5-.5v-4c0-.3.2-.5.5-.5s.5.2.5.5v4c0 .3-.2.5-.5.5z" fill="#86D0EA"/><path d="M323 149v4" fill="#FFF"/><path d="M323.5 153.5c-.3 0-.5-.2-.5-.5v-4c0-.3.2-.5.5-.5s.5.2.5.5v4c0 .3-.2.5-.5.5z" fill="#86D0EA"/><path d="M319.3 122c4.8 0 8.7 3.9 8.7 8.7v17.7c0 4.8-3.9 8.7-8.7 8.7h-1.7c-4.8 0-8.7-3.9-8.7-8.7v-17.7c0-4.8 3.9-8.7 8.7-8.7h1.7zm0-1h-1.7c-5.3 0-9.7 4.3-9.7 9.7v17.7c0 5.3 4.3 9.7 9.7 9.7h1.7c5.3 0 9.7-4.3 9.7-9.7v-17.7c0-5.4-4.3-9.7-9.7-9.7z" fill="#1489C9"/><path d="M299 169.5c-.2 0-.4-.1-.5-.3l-9-27c-.1-.2 0-.3.1-.5.1-.1.2-.2.4-.2h48c.2 0 .3.1.4.2.1.1.1.3.1.5l-9 27c-.1.2-.3.3-.5.3h-30z" fill="#FFF"/><path d="M338 142l-9 27h-30l-9-27h48zm0-1h-48c-.3 0-.6.2-.8.4-.2.3-.2.6-.1.9l9 27c.1.4.5.7.9.7h30c.4 0 .8-.3.9-.7l9-27c.1-.3.1-.6-.1-.9-.2-.2-.5-.4-.8-.4z" fill="#1489C9"/><path fill="#E8F4FA" d="M338 142h-16l-5 27h12z"/><path fill="#FFF" d="M113.5 74.5h22v95h-22z"/><path d="M135 75v94h-21V75h21zm1-1h-23v96h23V74z" fill="#1489C9"/><path d="M135.9 170H125V74h11l-.1 96z" opacity=".1" fill="#1489C9"/><path d="M114 85h21" fill="#FFF"/><path fill="#1489C9" d="M114 84h21v1h-21z"/><path d="M114 162h21" fill="#FFF"/><path fill="#1489C9" d="M114 161h21v1h-21z"/><path d="M135 75v94h-21V75h21zm1-1h-23v96h23V74z" fill="#1489C9"/><path fill="#FFF" d="M71.5 76.5h22v93h-22z"/><path d="M93 77v92H72V77h21zm1-1H71v94h23V76z" fill="#1489C9"/><path d="M72 86h21" fill="#FFF"/><path fill="#1489C9" d="M72 85h21v1H72z"/><path d="M72 105h21" fill="#FFF"/><path fill="#1489C9" d="M72 104h21v1H72z"/><path d="M72 163h21" fill="#FFF"/><path fill="#1489C9" d="M72 162h21v1H72z"/><path d="M93.8 170H83V76h10.8c.1 0 .2.1.2.1v93.8s-.1.1-.2.1z" opacity=".1" fill="#1489C9"/><path d="M93 77v92H72V77h21zm1-1H71v94h23V76z" fill="#1489C9"/><path fill="#FFF" d="M93.5 81.5h20v88h-20z"/><path d="M113 82v87H94V82h19zm1-1H93v89h21V81z" fill="#1489C9"/><path d="M94 114h19" fill="#FFF"/><path fill="#1489C9" d="M94 113h19v1H94z"/><path d="M94 133h19" fill="#FFF"/><path fill="#1489C9" d="M94 132h19v1H94z"/><g transform="translate(98 89)"><circle fill="#FFF" cx="5.5" cy="5.5" r="4.5"/><path d="M5.5 10.5c-2.8 0-5-2.2-5-5s2.2-5 5-5 5 2.2 5 5-2.2 5-5 5zm0-9c-2.2 0-4 1.8-4 4s1.8 4 4 4 4-1.8 4-4-1.8-4-4-4z" fill="#1489C9"/></g><path d="M113.9 170H104V81h9.9s.1 0 .1.1l-.1 88.9z" opacity=".1" fill="#1489C9"/><path d="M113 82v87H94V82h19zm1-1H93v89h21V81z" fill="#1489C9"/><path d="M103.5 99.5c-2.8 0-5-2.2-5-5s2.2-5 5-5 5 2.2 5 5-2.2 5-5 5zm0-9c-2.2 0-4 1.8-4 4s1.8 4 4 4 4-1.8 4-4-1.8-4-4-4z" fill="#1489C9"/><path d="M94 82h19v31H94z" opacity=".1" fill="#1489C9"/><path fill="#FFF" d="M185.5 89.5h21v80h-21z"/><path d="M206 90v79h-20V90h20zm1-1h-22v81h22V89z" fill="#1489C9"/><path d="M197 89h10v81h-10z" opacity=".1" fill="#1489C9"/><path d="M206 90v79h-20V90h20zm1-1h-22v81h22V89z" fill="#1489C9"/><path fill="#FFF" d="M192.5 100h7v7h-7z"/><path d="M199 100.5v6h-6v-6h6zm1-1h-8v8h8v-8z" fill="#1489C9"/><path d="M186 122h20" fill="#FFF"/><path fill="#1489C9" d="M186 121h20v1h-20z"/><path d="M186 131h20" fill="#FFF"/><path fill="#1489C9" d="M186 130h20v1h-20zm152 12l-9 27h-30l-9-27h48zm0-1h-48c-.3 0-.6.2-.8.4-.2.3-.2.6-.1.9l9 27c.1.4.5.7.9.7h30c.4 0 .8-.3.9-.7l9-27c.1-.3.1-.6-.1-.9-.2-.2-.5-.4-.8-.4z"/><path fill="#FFF" d="M141.037 163.628l25.78-89.354 21.137 6.098-25.78 89.355z"/><path d="M167.2 74.9l20.2 5.8-25.5 88.4-20.2-5.8 25.5-88.4zm-.7-1.2L140.4 164l22.1 6.4 26.1-90.3-22.1-6.4z" fill="#1489C9"/><path d="M143.015 156.986l15.988-55.96 20.96 5.99-15.987 55.958z" opacity=".1" fill="#1489C9"/><path d="M159.6 169.5L175 76.1l10.7 3.1c1.6.5 2.5 2.1 2.1 3.7l-24.4 84.6c-.5 1.5-2.2 2.5-3.8 2z" opacity=".1" fill="#1489C9"/><path d="M164.8 83.1l20.2 5.8" fill="#FFF"/><path fill="#1489C9" d="M164.694 83.544l.277-.96 20.177 5.82-.277.962z"/><path d="M159.5 101.3l20.2 5.8" fill="#FFF"/><path fill="#1489C9" d="M159.365 101.816l.277-.96 20.177 5.82-.277.961z"/><path d="M143.5 157l20.1 5.9" fill="#FFF"/><path fill="#1489C9" d="M143.38 157.487l.277-.96 20.177 5.82-.278.962z"/><path d="M167.2 74.9l20.2 5.8-25.5 88.4-20.2-5.8 25.5-88.4zm-.7-1.2L140.4 164l22.1 6.4 26.1-90.3-22.1-6.4z" fill="#1489C9"/><path fill="#FFF" d="M.5 169.5h355v7H.5z"/><path d="M355 170v6H1v-6h354zm1-1H0v8h356v-8z" fill="#1489C9"/><path d="M220 127.5c-5.8 0-10.5-4.7-10.5-10.5s4.7-10.5 10.5-10.5h58.5v21H220z" fill="#FFF"/><path d="M278 107v20h-58c-5.5 0-10-4.5-10-10s4.5-10 10-10h58zm1-1h-59c-6.1 0-11 4.9-11 11s4.9 11 11 11h59v-22zm0 0h3v1h-3zm0 21h3v1h-3z" fill="#1489C9"/><path d="M274 111h-24c-.3 0-.5-.2-.5-.5s.2-.5.5-.5h24c.3 0 .5.2.5.5s-.2.5-.5.5zm0 3h-16c-.3 0-.5-.2-.5-.5s.2-.5.5-.5h16c.3 0 .5.2.5.5s-.2.5-.5.5zm-40 0h-16c-.3 0-.5-.2-.5-.5s.2-.5.5-.5h16c.3 0 .5.2.5.5s-.2.5-.5.5zm40 3h-8c-.3 0-.5-.2-.5-.5s.2-.5.5-.5h8c.3 0 .5.2.5.5s-.2.5-.5.5z" fill="#86D0EA"/><path d="M271.9 107l-20 20H278v-20z" opacity=".1" fill="#1489C9"/><path d="M213.5 169.5v-21H272c5.8 0 10.5 4.7 10.5 10.5s-4.7 10.5-10.5 10.5h-58.5z" fill="#FFF"/><path d="M272 149c5.5 0 10 4.5 10 10s-4.5 10-10 10h-58v-20h58zm0-1h-59v22h59c6.1 0 11-4.9 11-11s-4.9-11-11-11zm-59 22h-3v-1h3zm0-21h-3v-1h3z" fill="#1489C9"/><path d="M242 166h-24c-.3 0-.5-.2-.5-.5s.2-.5.5-.5h24c.3 0 .5.2.5.5s-.2.5-.5.5zm-8-12h-16c-.3 0-.5-.2-.5-.5s.2-.5.5-.5h16c.3 0 .5.2.5.5s-.2.5-.5.5zm40 9h-16c-.3 0-.5-.2-.5-.5s.2-.5.5-.5h16c.3 0 .5.2.5.5s-.2.5-.5.5zm-48-6h-8c-.3 0-.5-.2-.5-.5s.2-.5.5-.5h8c.3 0 .5.2.5.5s-.2.5-.5.5z" fill="#86D0EA"/><path d="M275.1 149.5L255.6 169H272c5.5 0 10-4.5 10-10 0-4.4-2.9-8.2-6.9-9.5z" opacity=".1" fill="#1489C9"/><path d="M225 148.5c-5.8 0-10.5-4.7-10.5-10.5s4.7-10.5 10.5-10.5h58.5v21H225z" fill="#FFF"/><path d="M283 128v20h-58c-5.5 0-10-4.5-10-10s4.5-10 10-10h58zm1-1h-59c-6.1 0-11 4.9-11 11s4.9 11 11 11h59v-22zm0 0h3v1h-3zm0 21h3v1h-3z" fill="#1489C9"/><path d="M279 145h-24c-.3 0-.5-.2-.5-.5s.2-.5.5-.5h24c.3 0 .5.2.5.5s-.2.5-.5.5zm0-10h-16c-.3 0-.5-.2-.5-.5s.2-.5.5-.5h16c.3 0 .5.2.5.5s-.2.5-.5.5zm-40 0h-16c-.3 0-.5-.2-.5-.5s.2-.5.5-.5h16c.3 0 .5.2.5.5s-.2.5-.5.5zm40 7h-8c-.3 0-.5-.2-.5-.5s.2-.5.5-.5h8c.3 0 .5.2.5.5s-.2.5-.5.5z" fill="#86D0EA"/><path d="M258.4 148H283v-20h-4.6z" opacity=".1" fill="#1489C9"/><path fill="#1489C9" d="M230 139l-4-3-4 3v-26h8z"/><path d="M70.6 116c-2.1 0-4 .7-5.6 1.9V169h6v-53h-.4zM72 77h21v8H72zm0 28h21v57H72zm22 28h19v36H94zm20-48h21v76h-21zm72 46h20v38h-20zm0-41h20v31h-20zm-1-1l-21-6 3-9 21 6z" opacity=".1" fill="#1489C9"/><path d="M82.5 132c-.3 0-.5-.2-.5-.5v-23c0-.3.2-.5.5-.5s.5.2.5.5v23c0 .3-.2.5-.5.5zm0 9c-.3 0-.5-.2-.5-.5v-6c0-.3.2-.5.5-.5s.5.2.5.5v6c0 .3-.2.5-.5.5zm21 19c-.3 0-.5-.2-.5-.5v-9c0-.3.2-.5.5-.5s.5.2.5.5v9c0 .3-.2.5-.5.5zm0 5c-.3 0-.5-.2-.5-.5v-2c0-.3.2-.5.5-.5s.5.2.5.5v2c0 .3-.2.5-.5.5zm93-28c-.3 0-.5-.2-.5-.5v-2c0-.3.2-.5.5-.5s.5.2.5.5v2c0 .3-.2.5-.5.5zm0 11c-.3 0-.5-.2-.5-.5v-8c0-.3.2-.5.5-.5s.5.2.5.5v8c0 .3-.2.5-.5.5zm-93-40c-.3 0-.5-.2-.5-.5v-5c0-.3.2-.5.5-.5s.5.2.5.5v5c0 .3-.2.5-.5.5zm21-9c-.3 0-.5-.2-.5-.5v-9c0-.3.2-.5.5-.5s.5.2.5.5v9c0 .3-.2.5-.5.5zm0 58c-.3 0-.5-.2-.5-.5v-11c0-.3.2-.5.5-.5s.5.2.5.5v11c0 .3-.2.5-.5.5z" fill="#86D0EA"/><path d="M51.9 169H71v-19.1z" opacity=".1" fill="#1489C9"/></g></svg>