<svg xmlns="http://www.w3.org/2000/svg" width="32" height="32" viewBox="0 0 32 32" class="icon icon-github" fill="currentColor"><title>github</title><path d="M16 2.387c-7.708 0-13.958 6.249-13.958 13.958 0 6.167 3.999 11.399 9.545 13.244.697.129.954-.303.954-.671 0-.333-.013-1.432-.019-2.599-3.883.844-4.703-1.647-4.703-1.647-.635-1.613-1.55-2.042-1.55-2.042-1.266-.866.096-.849.096-.849 1.401.098 2.139 1.438 2.139 1.438 1.245 2.134 3.265 1.517 4.062 1.16.125-.902.487-1.518.886-1.866-3.1-.353-6.359-1.55-6.359-6.898 0-1.524.545-2.769 1.438-3.746-.145-.352-.623-1.771.135-3.694 0 0 1.172-.375 3.839 1.431a13.415 13.415 0 0 1 3.494-.47c1.186.005 2.381.16 3.496.47 2.664-1.806 3.834-1.431 3.834-1.431.76 1.923.282 3.342.137 3.694.895.977 1.436 2.223 1.436 3.746 0 5.361-3.265 6.541-6.373 6.887.501.433.947 1.282.947 2.585 0 1.868-.016 3.371-.016 3.83 0 .372.251.807.959.67 5.543-1.848 9.537-7.078 9.537-13.243 0-7.709-6.249-13.958-13.957-13.958z"/></svg>
