<svg xmlns="http://www.w3.org/2000/svg" width="32" height="32" viewBox="0 0 32 32" class="icon icon-dribbble" fill="currentColor"><title>dribbble</title><path d="M16 30C8.278 30 2 23.722 2 16S8.278 2 16 2s14 6.278 14 14-6.278 14-14 14zm11.807-12.086c-.41-.131-3.702-1.11-7.448-.509 1.564 4.298 2.198 7.798 2.324 8.526 2.68-1.816 4.594-4.687 5.124-8.017zm-7.137 9.111c-.18-1.05-.87-4.703-2.548-9.067-.027.011-.055.016-.077.027-6.748 2.352-9.171 7.027-9.384 7.465A11.907 11.907 0 0 0 16 27.977c1.657 0 3.238-.339 4.67-.952zM7.113 24.012c.273-.465 3.555-5.895 9.718-7.891.153-.049.312-.098.47-.142a43.166 43.166 0 0 0-.968-2.029c-5.966 1.788-11.763 1.712-12.288 1.706-.005.12-.005.241-.005.366 0 3.068 1.165 5.873 3.073 7.99zM4.297 13.566c.536.005 5.463.027 11.058-1.455a75.582 75.582 0 0 0-4.435-6.918c-3.347 1.58-5.852 4.665-6.623 8.373zM13.2 4.39a64.192 64.192 0 0 1 4.463 7c4.255-1.591 6.054-4.014 6.267-4.32A11.898 11.898 0 0 0 16 4.057c-.963.005-1.903.12-2.8.334zm12.059 4.069c-.252.339-2.259 2.909-6.677 4.714.279.569.547 1.148.793 1.734.087.208.175.41.257.618 3.981-.498 7.935.301 8.329.383a11.917 11.917 0 0 0-2.702-7.448z"/></svg>
