<svg xmlns="http://www.w3.org/2000/svg" width="32" height="32" viewBox="0 0 32 32" class="icon icon-twitter" fill="currentColor"><title>twitter</title><path d="M28.308 9.135a9.952 9.952 0 0 1-2.899.793 5.08 5.08 0 0 0 2.221-2.793c-.976.577-2.058 1-3.207 1.226a5.05 5.05 0 0 0-3.688-1.591 5.048 5.048 0 0 0-4.918 6.197A14.336 14.336 0 0 1 5.408 7.688a5.044 5.044 0 0 0-.683 2.538c0 1.75.889 3.298 2.245 4.202a5.05 5.05 0 0 1-2.288-.63v.063a5.05 5.05 0 0 0 4.053 4.952 5.074 5.074 0 0 1-2.284.087 5.067 5.067 0 0 0 4.716 3.51 10.128 10.128 0 0 1-7.481 2.091 14.278 14.278 0 0 0 7.745 2.269c9.288 0 14.37-7.697 14.37-14.37 0-.221-.005-.438-.014-.654a10.156 10.156 0 0 0 2.519-2.611z"/></svg>
