<svg version="1.1" style="display: none;">
  <defs>
    
    <!-- BaseWeb Logos -->
    <g id="logo-baseweb-large">
      <title>BaseWeb</title>
      <g>
      	<path d="M257.657,92.15l-20.687-9.465l20.688-9.465c1.423-0.651,2.343-2.083,2.343-3.648
      		c0-1.565-0.92-2.997-2.343-3.648l-26.319-12.039V30.238c0-0.581-0.149-1.175-0.442-1.767c-0.036-0.087-0.065-0.15-0.1-0.214
      		c-0.275-0.474-0.638-0.877-1.089-1.212c-0.048-0.054-0.116-0.118-0.204-0.176c-0.079-0.053-0.157-0.088-0.223-0.112
      		c-0.069-0.049-0.166-0.115-0.293-0.171L171.671,0.364C171.144,0.123,170.582,0,170.002,0s-1.142,0.123-1.669,0.364l-57.327,26.225
      		c-0.12,0.054-0.216,0.119-0.286,0.169c-0.067,0.024-0.147,0.061-0.228,0.115c-0.087,0.058-0.154,0.123-0.201,0.176
      		c-0.465,0.348-0.821,0.746-1.078,1.198c-0.035,0.059-0.068,0.13-0.098,0.202c-0.302,0.614-0.451,1.208-0.451,1.789v23.646
      		L82.343,65.924C80.919,66.576,80,68.008,80,69.573c0,1.564,0.919,2.996,2.342,3.648l20.688,9.464l-20.688,9.463
      		C80.92,92.799,80,94.231,80,95.796c0,1.565,0.92,2.997,2.343,3.648l57.327,26.225c0.525,0.241,1.086,0.363,1.669,0.363
      		s1.144-0.122,1.67-0.364l26.99-12.348l26.997,12.349c0.525,0.241,1.086,0.363,1.669,0.363s1.144-0.122,1.67-0.364l57.324-26.223
      		c1.423-0.652,2.343-2.084,2.343-3.648C260,94.232,259.08,92.8,257.657,92.15z M246.346,69.571l-15.007,6.866V62.706L246.346,69.571
      		z M116.687,80.109V36.485l49.304,22.552v43.626L116.687,80.109z M141.338,38.938l-19.019-8.7l47.683-21.814l19.018,8.7
      		L141.338,38.938z M223.315,36.485v43.624l-49.302,22.554V59.037L223.315,36.485z M198.666,21.537l19.019,8.7l-20.493,9.374h-0.039
      		l-0.185,0.1l-26.968,12.336l-7.324-3.352l-11.689-5.347L198.666,21.537z M227.327,87.096l19.019,8.702l-47.682,21.812l-19.019-8.7
      		L227.327,87.096z M160.355,108.908l-19.017,8.702L93.654,95.796l19.021-8.7L160.355,108.908z M108.663,62.706v13.731l-15.009-6.865
      		L108.663,62.706z"/>
      </g>
      <g>
      	<path d="M0.222,151.995c0-2.585,1.994-4.579,4.578-4.579h18.611c5.909,0,10.561,1.625,13.516,4.579
      		c2.29,2.289,3.471,5.095,3.471,8.567v0.147c0,6.204-3.545,9.528-7.385,11.522c6.056,2.067,10.266,5.539,10.266,12.556v0.147
      		c0,9.232-7.607,14.18-19.128,14.18H4.801c-2.584,0-4.578-1.994-4.578-4.579V151.995z M21.566,169.203
      		c5.835,0,9.749-2.29,9.749-7.016v-0.148c0-4.062-3.249-6.573-9.084-6.573H9.159v13.737H21.566z M24.225,191.063
      		c6.203,0,9.97-2.437,9.97-7.091v-0.147c0-4.357-3.472-6.942-10.635-6.942H9.159v14.18H24.225z"/>
      	<path d="M49.92,187.887v-0.147c0-8.42,6.574-12.556,16.1-12.556c4.358,0,7.46,0.665,10.488,1.625v-0.96
      		c0-5.539-3.398-8.494-9.675-8.494c-3.398,0-6.204,0.591-8.641,1.552c-0.518,0.147-0.961,0.221-1.403,0.221
      		c-2.068,0-3.767-1.625-3.767-3.693c0-1.625,1.108-3.028,2.437-3.545c3.693-1.403,7.46-2.29,12.556-2.29
      		c5.835,0,10.193,1.552,12.925,4.357c2.88,2.807,4.21,6.942,4.21,12.039v19.202c0,2.437-1.92,4.284-4.358,4.284
      		c-2.584,0-4.357-1.773-4.357-3.767v-1.476c-2.658,3.175-6.721,5.686-12.703,5.686C56.42,199.926,49.92,195.716,49.92,187.887z
      		 M76.656,185.081v-2.658c-2.29-0.886-5.318-1.551-8.862-1.551c-5.76,0-9.158,2.437-9.158,6.499v0.148
      		c0,3.766,3.323,5.908,7.607,5.908C72.151,193.426,76.656,190.03,76.656,185.081z"/>
      	<path d="M94.377,195.199c-0.961-0.517-1.699-1.625-1.699-3.102c0-1.994,1.551-3.619,3.619-3.619
      		c0.738,0,1.403,0.221,1.92,0.517c3.767,2.511,7.681,3.767,11.226,3.767c3.84,0,6.056-1.625,6.056-4.21v-0.147
      		c0-3.029-4.136-4.063-8.715-5.466c-5.76-1.625-12.186-3.988-12.186-11.448v-0.147c0-7.386,6.13-11.89,13.885-11.89
      		c4.136,0,8.494,1.181,12.26,3.175c1.256,0.665,2.141,1.847,2.141,3.398c0,2.068-1.625,3.619-3.692,3.619
      		c-0.739,0-1.182-0.147-1.773-0.443c-3.176-1.626-6.425-2.659-9.158-2.659c-3.472,0-5.465,1.625-5.465,3.84v0.148
      		c0,2.88,4.209,4.062,8.788,5.539c5.687,1.772,12.112,4.357,12.112,11.374v0.147c0,8.198-6.351,12.26-14.476,12.26
      		C104.273,199.852,98.882,198.301,94.377,195.199z"/>
      	<path d="M150.725,200c-11.3,0-20.015-8.198-20.015-20.236v-0.148c0-11.152,7.902-20.31,19.054-20.31
      		c12.408,0,18.538,10.193,18.538,19.202c0,2.511-1.921,4.284-4.21,4.284h-24.446c0.96,6.351,5.465,9.896,11.225,9.896
      		c3.767,0,6.721-1.329,9.232-3.398c0.665-0.517,1.256-0.812,2.29-0.812c1.994,0,3.545,1.552,3.545,3.619
      		c0,1.108-0.517,2.068-1.182,2.732C161.212,198.006,156.781,200,150.725,200z M159.587,176.883
      		c-0.591-5.76-3.989-10.266-9.897-10.266c-5.465,0-9.305,4.21-10.118,10.266H159.587z"/>
      	<path d="M175.313,153.25c-0.221-0.517-0.37-1.182-0.37-1.772c0-2.512,2.143-4.431,4.654-4.431
      		c2.216,0,3.914,1.402,4.504,3.323l11.891,35.524l11.669-35.377c0.738-2.143,2.289-3.619,4.578-3.619h0.665
      		c2.29,0,3.914,1.476,4.578,3.619l11.669,35.377l11.891-35.598c0.664-1.847,2.216-3.249,4.431-3.249
      		c2.437,0,4.504,1.919,4.504,4.357c0,0.591-0.221,1.329-0.443,1.846l-15.288,42.836c-0.812,2.29-2.511,3.766-4.727,3.766h-0.886
      		c-2.216,0-3.84-1.403-4.653-3.766l-11.522-33.752l-11.521,33.752c-0.812,2.363-2.511,3.766-4.727,3.766h-0.886
      		c-2.216,0-3.84-1.403-4.727-3.766L175.313,153.25z"/>
      	<path d="M272.722,200c-11.3,0-20.015-8.198-20.015-20.236v-0.148c0-11.152,7.902-20.31,19.054-20.31
      		c12.407,0,18.537,10.193,18.537,19.202c0,2.511-1.92,4.284-4.21,4.284h-24.446c0.961,6.351,5.466,9.896,11.226,9.896
      		c3.766,0,6.721-1.329,9.232-3.398c0.664-0.517,1.255-0.812,2.29-0.812c1.993,0,3.545,1.552,3.545,3.619
      		c0,1.108-0.517,2.068-1.182,2.732C283.209,198.006,278.778,200,272.722,200z M281.585,176.883
      		c-0.591-5.76-3.989-10.266-9.897-10.266c-5.465,0-9.305,4.21-10.118,10.266H281.585z"/>
      	<path d="M299.453,149.262c0-2.512,1.92-4.432,4.431-4.432c2.511,0,4.505,1.92,4.505,4.432v17.355
      		c2.88-4.063,6.942-7.312,13.294-7.312c9.158,0,18.095,7.238,18.095,20.236v0.148c0,12.924-8.862,20.236-18.095,20.236
      		c-6.5,0-10.561-3.249-13.294-6.868v1.994c0,2.437-1.994,4.431-4.505,4.431c-2.437,0-4.431-1.994-4.431-4.431V149.262z
      		 M330.693,179.69v-0.148c0-7.533-5.095-12.481-11.151-12.481c-6.057,0-11.375,5.022-11.375,12.481v0.148
      		c0,7.459,5.318,12.481,11.375,12.481C325.672,192.171,330.693,187.37,330.693,179.69z"/>
      </g>
    </g>
    
    <g id="logo-baseweb-small">
      <g>
      	<polygon points="27.867,15.577 27.867,7.094 18.28,11.479 18.28,19.962 	"/>
      	<polygon points="8.229,5.88 11.927,7.571 21.198,3.33 17.5,1.638 	"/>
      	<polygon points="17.5,10.12 22.744,7.722 22.78,7.702 22.787,7.702 26.772,5.88 23.074,4.188 13.803,8.429 
      		16.076,9.469 	"/>
      	<polygon points="32.345,13.528 29.427,12.193 29.427,14.863 	"/>
      	<polygon points="7.134,7.094 7.134,15.577 16.72,19.962 16.72,11.479 	"/>
      	<polygon points="5.573,12.193 2.655,13.528 5.573,14.863 	"/>
      	<polygon points="2.655,18.627 11.927,22.869 15.625,21.177 6.353,16.935 	"/>
      	<polygon points="32.345,18.627 28.647,16.935 19.375,21.177 23.073,22.869 	"/>
      	<path d="M34.544,17.918l-4.023-1.84l4.023-1.84C34.821,14.111,35,13.832,35,13.528c0-0.304-0.179-0.583-0.456-0.709
      		l-5.118-2.341V5.88c0-0.113-0.029-0.228-0.086-0.344c-0.007-0.017-0.013-0.029-0.019-0.042c-0.053-0.092-0.124-0.17-0.212-0.236
      		c-0.009-0.01-0.023-0.023-0.04-0.034c-0.015-0.01-0.03-0.017-0.043-0.022c-0.013-0.01-0.032-0.022-0.057-0.033L17.825,0.071
      		C17.722,0.024,17.613,0,17.5,0s-0.222,0.024-0.325,0.071L6.029,5.17c-0.023,0.01-0.042,0.023-0.056,0.033
      		C5.96,5.208,5.945,5.215,5.929,5.225C5.912,5.237,5.899,5.249,5.89,5.26c-0.09,0.068-0.16,0.145-0.21,0.233
      		C5.673,5.504,5.667,5.518,5.661,5.532C5.602,5.651,5.573,5.767,5.573,5.88v4.598l-5.118,2.341C0.179,12.945,0,13.224,0,13.528
      		c0,0.304,0.179,0.583,0.455,0.709l4.023,1.84l-4.023,1.84C0.179,18.044,0,18.323,0,18.627c0,0.304,0.179,0.583,0.456,0.709
      		l11.147,5.099c0.102,0.047,0.211,0.071,0.324,0.071c0.113,0,0.222-0.024,0.325-0.071l5.248-2.401l5.249,2.401
      		c0.102,0.047,0.211,0.071,0.324,0.071c0.113,0,0.222-0.024,0.325-0.071l11.146-5.099C34.821,19.21,35,18.932,35,18.627
      		C35,18.323,34.821,18.044,34.544,17.918z M32.345,13.528l-2.918,1.335v-2.67L32.345,13.528z M7.134,15.577V7.094l9.587,4.385v8.483
      		L7.134,15.577z M11.927,7.571L8.229,5.88L17.5,1.638l3.698,1.692L11.927,7.571z M27.867,7.094v8.482l-9.586,4.385v-8.483
      		L27.867,7.094z M23.074,4.188l3.698,1.692l-3.985,1.823H22.78l-0.036,0.02L17.5,10.12l-1.424-0.652l-2.273-1.04L23.074,4.188z
      		 M28.647,16.935l3.698,1.692l-9.272,4.241l-3.698-1.692L28.647,16.935z M15.625,21.177l-3.698,1.692l-9.272-4.242l3.698-1.692
      		L15.625,21.177z M5.573,12.193v2.67l-2.918-1.335L5.573,12.193z"/>
      </g>
      <g>
      	<path d="M42.577,8.713c0-0.533,0.411-0.944,0.944-0.944h3.837c1.218,0,2.177,0.335,2.786,0.944
      		c0.472,0.472,0.715,1.05,0.715,1.766v0.03c0,1.279-0.731,1.964-1.522,2.375c1.248,0.426,2.116,1.142,2.116,2.588v0.03
      		c0,1.903-1.568,2.923-3.943,2.923h-3.989c-0.533,0-0.944-0.411-0.944-0.944V8.713z M46.977,12.261c1.203,0,2.01-0.472,2.01-1.446
      		v-0.031c0-0.837-0.67-1.355-1.873-1.355h-2.695v2.832H46.977z M47.525,16.767c1.279,0,2.055-0.502,2.055-1.462v-0.03
      		c0-0.898-0.716-1.431-2.193-1.431h-2.969v2.923H47.525z"/>
      	<path d="M52.822,16.112v-0.03c0-1.736,1.355-2.588,3.319-2.588c0.898,0,1.538,0.137,2.162,0.335v-0.198
      		c0-1.142-0.7-1.751-1.994-1.751c-0.7,0-1.279,0.122-1.781,0.32c-0.107,0.03-0.198,0.046-0.289,0.046
      		c-0.426,0-0.777-0.335-0.777-0.761c0-0.335,0.228-0.624,0.502-0.731c0.761-0.289,1.538-0.472,2.588-0.472
      		c1.203,0,2.101,0.32,2.665,0.898c0.594,0.579,0.868,1.431,0.868,2.482v3.959c0,0.502-0.396,0.883-0.898,0.883
      		c-0.533,0-0.898-0.365-0.898-0.777v-0.304c-0.548,0.655-1.386,1.172-2.619,1.172C54.162,18.594,52.822,17.726,52.822,16.112z
      		 M58.334,15.534v-0.548c-0.472-0.183-1.096-0.32-1.827-0.32c-1.188,0-1.888,0.502-1.888,1.34v0.031
      		c0,0.776,0.685,1.218,1.568,1.218C57.405,17.254,58.334,16.554,58.334,15.534z"/>
      	<path d="M61.987,17.62c-0.198-0.107-0.35-0.335-0.35-0.639c0-0.411,0.32-0.746,0.746-0.746
      		c0.152,0,0.289,0.046,0.396,0.107c0.777,0.518,1.583,0.777,2.314,0.777c0.792,0,1.248-0.335,1.248-0.868v-0.03
      		c0-0.624-0.853-0.838-1.797-1.127c-1.188-0.335-2.512-0.822-2.512-2.36v-0.03c0-1.523,1.264-2.451,2.862-2.451
      		c0.853,0,1.751,0.243,2.527,0.655c0.259,0.137,0.441,0.381,0.441,0.7c0,0.426-0.335,0.746-0.761,0.746
      		c-0.152,0-0.244-0.03-0.365-0.091c-0.655-0.335-1.325-0.548-1.888-0.548c-0.716,0-1.127,0.335-1.127,0.792v0.031
      		c0,0.594,0.868,0.837,1.812,1.142c1.172,0.365,2.497,0.898,2.497,2.345v0.03c0,1.69-1.309,2.527-2.984,2.527
      		C64.027,18.579,62.916,18.259,61.987,17.62z"/>
      	<path d="M73.604,18.61c-2.33,0-4.126-1.69-4.126-4.172v-0.031c0-2.299,1.629-4.187,3.928-4.187
      		c2.558,0,3.822,2.101,3.822,3.959c0,0.518-0.396,0.883-0.868,0.883h-5.04c0.198,1.309,1.127,2.04,2.314,2.04
      		c0.777,0,1.386-0.274,1.903-0.7c0.137-0.107,0.259-0.167,0.472-0.167c0.411,0,0.731,0.32,0.731,0.746
      		c0,0.228-0.107,0.426-0.244,0.563C75.765,18.198,74.852,18.61,73.604,18.61z M75.431,13.844c-0.122-1.188-0.822-2.116-2.04-2.116
      		c-1.127,0-1.918,0.868-2.086,2.116H75.431z"/>
      	<path d="M78.672,8.972c-0.046-0.107-0.076-0.244-0.076-0.365c0-0.518,0.442-0.914,0.959-0.914
      		c0.457,0,0.807,0.289,0.929,0.685l2.451,7.323l2.406-7.293c0.152-0.442,0.472-0.746,0.944-0.746h0.137
      		c0.472,0,0.807,0.304,0.944,0.746l2.406,7.293l2.451-7.339c0.137-0.381,0.457-0.67,0.914-0.67c0.502,0,0.929,0.396,0.929,0.898
      		c0,0.122-0.046,0.274-0.091,0.381l-3.152,8.831c-0.167,0.472-0.518,0.776-0.974,0.776h-0.183c-0.457,0-0.792-0.289-0.959-0.776
      		l-2.375-6.958l-2.375,6.958c-0.167,0.487-0.518,0.776-0.974,0.776h-0.183c-0.457,0-0.792-0.289-0.974-0.776L78.672,8.972z"/>
      	<path d="M98.753,18.61c-2.33,0-4.126-1.69-4.126-4.172v-0.031c0-2.299,1.629-4.187,3.928-4.187
      		c2.558,0,3.821,2.101,3.821,3.959c0,0.518-0.396,0.883-0.868,0.883h-5.04c0.198,1.309,1.127,2.04,2.314,2.04
      		c0.776,0,1.386-0.274,1.903-0.7c0.137-0.107,0.259-0.167,0.472-0.167c0.411,0,0.731,0.32,0.731,0.746
      		c0,0.228-0.107,0.426-0.244,0.563C100.915,18.198,100.002,18.61,98.753,18.61z M100.58,13.844c-0.122-1.188-0.822-2.116-2.04-2.116
      		c-1.127,0-1.918,0.868-2.086,2.116H100.58z"/>
      	<path d="M104.264,8.15c0-0.518,0.396-0.914,0.914-0.914c0.518,0,0.929,0.396,0.929,0.914v3.578
      		c0.594-0.838,1.431-1.507,2.741-1.507c1.888,0,3.73,1.492,3.73,4.172v0.031c0,2.664-1.827,4.172-3.73,4.172
      		c-1.34,0-2.177-0.67-2.741-1.416v0.411c0,0.502-0.411,0.914-0.929,0.914c-0.502,0-0.914-0.411-0.914-0.914V8.15z M110.704,14.423
      		v-0.031c0-1.553-1.05-2.573-2.299-2.573c-1.249,0-2.345,1.035-2.345,2.573v0.031c0,1.538,1.096,2.573,2.345,2.573
      		C109.669,16.996,110.704,16.006,110.704,14.423z"/>
      </g>
    </g>
    
  </defs>
</svg>