<?xml version="1.0" encoding="utf-8"?>
<!-- Generator: Adobe Illustrator 18.0.0, SVG Export Plug-In . SVG Version: 6.00 Build 0)  -->
<!DOCTYPE svg PUBLIC "-//W3C//DTD SVG 1.1//EN" "http://www.w3.org/Graphics/SVG/1.1/DTD/svg11.dtd">
<svg version="1.1" id="Layer_1" xmlns="http://www.w3.org/2000/svg" xmlns:xlink="http://www.w3.org/1999/xlink" x="0px" y="0px"
	 viewBox="0 0 140 30" enable-background="new 0 0 140 30" xml:space="preserve">
<g>
	<path fill="#303030" d="M42.1,22.2l-5.4-2.5l5.4-2.5c0.3-0.1,0.4-0.4,0.4-0.7c0-0.3-0.2-0.6-0.4-0.7l-6.4-3V7.1
		c0-0.1,0-0.2-0.1-0.3c0,0,0,0,0,0c-0.1-0.1-0.1-0.2-0.2-0.2c0,0,0,0,0,0c0,0,0,0,0,0c0,0,0,0-0.1,0L21.6,0.1C21.4,0,21.2,0,21,0.1
		L7.3,6.4c0,0,0,0-0.1,0c0,0,0,0,0,0c0,0,0,0,0,0C7.1,6.5,7,6.6,7,6.7c0,0,0,0,0,0c0,0.1-0.1,0.2-0.1,0.3v5.9l-6.4,3
		C0.2,16,0,16.3,0,16.6c0,0.3,0.2,0.6,0.4,0.7l5.4,2.5l-5.4,2.5C0.2,22.4,0,22.6,0,22.9c0,0.3,0.2,0.6,0.4,0.7l13.7,6.3
		c0.1,0,0.2,0.1,0.3,0.1c0.1,0,0.2,0,0.3-0.1l6.5-3l6.5,3c0.1,0,0.2,0.1,0.3,0.1c0.1,0,0.2,0,0.3-0.1l13.7-6.3
		c0.3-0.1,0.4-0.4,0.4-0.7C42.6,22.6,42.4,22.4,42.1,22.2z M28.1,28.4L23,26.1L35,20.6l5.1,2.4L28.1,28.4z M34.2,8.2v11L22,24.9v-11
		L34.2,8.2z M33.2,7.1l-5.4,2.5c0,0,0,0,0,0l-6.5,3l-1.8-0.9l-3.2-1.5l11.9-5.5L33.2,7.1z M35.7,14.6l4.4,2l-4.4,2V14.6z M14.4,9.4
		L9.3,7.1l11.9-5.5l5.1,2.4L14.4,9.4z M20.5,13.9v11L8.3,19.3v-11L20.5,13.9z M6.8,18.6l-4.4-2l4.4-2V18.6z M7.6,20.6l11.9,5.5
		l-5.1,2.4L2.5,22.9L7.6,20.6z"/>
	<g>
		<path fill="#303030" d="M61.4,15.8c1-0.5,2.1-1.5,2.1-3.3v0c0-0.9-0.3-1.7-0.9-2.4c-0.9-0.9-2.2-1.3-3.8-1.3h-5.3
			c-0.5,0-0.9,0.4-0.9,0.9v12.8c0,0.5,0.4,0.9,0.9,0.9h5.5c3.2,0,5.3-1.5,5.3-4v0C64.3,17.7,63.3,16.5,61.4,15.8z M61.7,12.7
			c0,1.6-1.2,2.5-3.2,2.5h-4.1v-4.8h4.3C60.6,10.4,61.7,11.3,61.7,12.7L61.7,12.7z M54.4,16.8h4.4c2.4,0,3.7,0.8,3.7,2.4v0
			c0,1.5-1.3,2.5-3.4,2.5h-4.7V16.8z"/>
		<path fill="#303030" d="M70.7,12.4c-1.3,0-2.3,0.2-3.5,0.7c-0.2,0.1-0.5,0.4-0.5,0.7c0,0.4,0.4,0.8,0.8,0.8c0.1,0,0.2,0,0.3-0.1
			c0.9-0.4,1.8-0.6,2.7-0.6c2,0,3.1,1,3.1,2.8v0.3c-0.8-0.2-1.8-0.4-3.2-0.4c-2.9,0-4.6,1.3-4.6,3.5v0c0,2.2,2,3.4,4,3.4
			c1.9,0,3.1-0.9,3.7-1.7v0.7c0,0.5,0.4,0.8,0.8,0.8c0.5,0,0.8-0.4,0.8-0.9v-5.8c0-1.4-0.4-2.4-1.1-3.2
			C73.4,12.8,72.2,12.4,70.7,12.4z M70.2,22.2c-1.2,0-2.6-0.6-2.6-2v0c0-1.3,1.1-2.1,3-2.1c1,0,2,0.1,3,0.4v1
			C73.7,21,72.2,22.2,70.2,22.2z"/>
		<path fill="#303030" d="M82,17.2L82,17.2c-1.4-0.4-2.7-0.8-2.7-1.8v0c0-0.9,0.8-1.5,2-1.5c0.8,0,1.8,0.3,2.7,0.8
			c0.1,0,0.2,0.1,0.4,0.1c0.4,0,0.8-0.3,0.8-0.8c0-0.3-0.2-0.6-0.4-0.7c-1.1-0.6-2.3-0.9-3.4-0.9c-2.2,0-3.7,1.3-3.7,3.1v0
			c0,2.1,2.1,2.7,3.5,3.1c1.4,0.4,2.6,0.8,2.6,1.8v0c0,1-0.8,1.6-2.1,1.6c-1.1,0-2.2-0.4-3.3-1.1c-0.1-0.1-0.3-0.1-0.4-0.1
			c-0.4,0-0.8,0.3-0.8,0.8c0,0.3,0.2,0.5,0.3,0.6c1.2,0.8,2.7,1.4,4.1,1.4c2.3,0,3.8-1.3,3.8-3.3v0C85.5,18.4,83.8,17.7,82,17.2z"/>
		<path fill="#303030" d="M92.3,12.3c-2.9,0-5.1,2.5-5.1,5.6v0c0,3.2,2.3,5.6,5.3,5.6c1.6,0,2.9-0.5,4-1.6c0.2-0.2,0.3-0.4,0.3-0.6
			c0-0.4-0.3-0.8-0.8-0.8c-0.2,0-0.4,0.1-0.5,0.2c-0.9,0.8-1.9,1.2-3,1.2c-1.9,0-3.4-1.4-3.6-3.4h7.5c0.5,0,0.8-0.4,0.8-0.8
			C97.3,15.1,95.6,12.3,92.3,12.3z M92.3,13.9c2.2,0,3.1,1.8,3.3,3.5h-6.6C89.2,15.3,90.5,13.9,92.3,13.9z"/>
		<path fill="#303030" d="M117.4,9.9c0-0.1,0.1-0.2,0.1-0.3c0-0.5-0.4-0.9-0.9-0.9c-0.4,0-0.7,0.3-0.9,0.7l-3.9,11.3l-3.7-11.3
			c-0.1-0.4-0.5-0.7-0.9-0.7h-0.1c-0.4,0-0.7,0.2-0.9,0.7l-3.7,11.3L98.8,9.4c-0.1-0.4-0.5-0.7-0.9-0.7c-0.5,0-0.9,0.4-0.9,0.9
			c0,0.1,0,0.3,0.1,0.4l4.6,12.8c0.2,0.5,0.5,0.8,0.9,0.8h0.1c0.4,0,0.7-0.3,0.9-0.8l3.6-10.9l3.6,10.9c0.2,0.5,0.5,0.8,0.9,0.8h0.1
			c0.4,0,0.7-0.3,0.9-0.8L117.4,9.9L117.4,9.9z"/>
		<path fill="#303030" d="M122.2,12.3c-2.9,0-5.1,2.5-5.1,5.6v0c0,3.2,2.3,5.6,5.3,5.6c1.6,0,2.9-0.5,4-1.6c0.2-0.2,0.3-0.4,0.3-0.6
			c0-0.4-0.3-0.8-0.8-0.8c-0.2,0-0.4,0.1-0.5,0.2c-0.9,0.8-1.9,1.2-3,1.2c-1.9,0-3.4-1.4-3.6-3.4h7.5c0.5,0,0.8-0.4,0.8-0.8
			C127.2,15.1,125.5,12.3,122.2,12.3z M122.2,13.9c2.2,0,3.1,1.8,3.3,3.5h-6.6C119.1,15.3,120.4,13.9,122.2,13.9z"/>
		<path fill="#303030" d="M134.9,12.3c-1.6,0-2.9,0.7-4,2.2V9c0-0.5-0.4-0.9-0.9-0.9c-0.5,0-0.9,0.4-0.9,0.9v13.7
			c0,0.5,0.4,0.9,0.9,0.9c0.5,0,0.9-0.4,0.9-0.9v-1.1c1,1.4,2.4,2.1,4,2.1c2.5,0,5.1-2,5.1-5.6v0C140,14.3,137.4,12.3,134.9,12.3z
			 M134.6,13.9c2.1,0,3.6,1.7,3.6,4v0c0,2.4-1.5,4-3.6,4c-1.8,0-3.7-1.5-3.7-4v0C130.9,16,132.3,13.9,134.6,13.9z"/>
	</g>
</g>
</svg>
