<?xml version="1.0" encoding="utf-8"?>
<!-- Generator: Adobe Illustrator 18.0.0, SVG Export Plug-In . SVG Version: 6.00 Build 0)  -->
<!DOCTYPE svg PUBLIC "-//W3C//DTD SVG 1.1//EN" "http://www.w3.org/Graphics/SVG/1.1/DTD/svg11.dtd">
<svg version="1.1" id="Layer_1" xmlns="http://www.w3.org/2000/svg" xmlns:xlink="http://www.w3.org/1999/xlink" x="0px" y="0px"
	 viewBox="0 0 20 20" enable-background="new 0 0 20 20" xml:space="preserve">
<g>
	<path fill="#303030" d="M5,3v13h10V3H5z M14,15H6V4h8V15z"/>
	<path fill="#303030" d="M7.5,6h5C12.8,6,13,5.8,13,5.5S12.8,5,12.5,5h-5C7.2,5,7,5.2,7,5.5S7.2,6,7.5,6z"/>
	<path fill="#303030" d="M7.5,8h5C12.8,8,13,7.8,13,7.5S12.8,7,12.5,7h-5C7.2,7,7,7.2,7,7.5S7.2,8,7.5,8z"/>
	<path fill="#303030" d="M7.5,10h2C9.8,10,10,9.8,10,9.5S9.8,9,9.5,9h-2C7.2,9,7,9.2,7,9.5S7.2,10,7.5,10z"/>
</g>
</svg>
