<?xml version="1.0" encoding="utf-8"?>
<!-- Generator: Adobe Illustrator 18.0.0, SVG Export Plug-In . SVG Version: 6.00 Build 0)  -->
<!DOCTYPE svg PUBLIC "-//W3C//DTD SVG 1.1//EN" "http://www.w3.org/Graphics/SVG/1.1/DTD/svg11.dtd">
<svg version="1.1" id="Layer_1" xmlns="http://www.w3.org/2000/svg" xmlns:xlink="http://www.w3.org/1999/xlink" x="0px" y="0px"
	 viewBox="0 0 240 145" enable-background="new 0 0 240 145" xml:space="preserve">
<g>
	<path fill="#FFFFFF" d="M177.3,60.5l-14.8-6.8l14.8-6.8c0.7-0.3,1.2-1,1.2-1.8c0-0.8-0.5-1.5-1.2-1.8l-17.6-8.1V19.3
		c0-0.3-0.1-0.6-0.2-0.9c0,0,0-0.1-0.1-0.1c-0.1-0.3-0.3-0.5-0.6-0.6c0,0,0,0-0.1-0.1c0,0-0.1,0-0.1,0c-0.1,0-0.1-0.1-0.2-0.1
		L120.8,0.2c-0.5-0.2-1.1-0.2-1.7,0L81.5,17.4c-0.1,0-0.1,0.1-0.2,0.1c0,0-0.1,0-0.1,0c0,0,0,0-0.1,0.1c-0.2,0.2-0.4,0.4-0.6,0.6
		c0,0,0,0.1-0.1,0.1c-0.1,0.3-0.2,0.6-0.2,0.9v15.9l-17.6,8.1c-0.7,0.3-1.2,1-1.2,1.8c0,0.8,0.5,1.5,1.2,1.8l14.8,6.8l-14.8,6.8
		c-0.7,0.3-1.2,1-1.2,1.8s0.5,1.5,1.2,1.8l37.6,17.2c0.3,0.1,0.6,0.2,0.8,0.2c0.3,0,0.6-0.1,0.8-0.2l18-8.2l18,8.2
		c0.3,0.1,0.6,0.2,0.8,0.2c0.3,0,0.6-0.1,0.8-0.2l37.6-17.2c0.7-0.3,1.2-1,1.2-1.8C178.4,61.6,178,60.9,177.3,60.5z M138.8,77.4
		l-14-6.4l32.8-15l14,6.4L138.8,77.4z M155.6,22.4v30.1L122,67.9V37.8L155.6,22.4z M152.8,19.3L138,26.1c0,0,0,0,0,0l-18,8.2
		l-5.1-2.3l-8.9-4.1l32.8-15L152.8,19.3z M159.6,39.7l12,5.5l-12,5.5V39.7z M101.2,25.7l-14-6.4l32.8-15l14,6.4L101.2,25.7z
		 M118,37.8v30.1L84.4,52.5V22.4L118,37.8z M80.4,50.6l-12-5.5l12-5.5V50.6z M82.4,56l32.8,15l-14,6.4l-32.8-15L82.4,56z"/>
	<g>
		<path fill="#FFFFFF" d="M24.1,123.7c2.8-1.4,5.8-4,5.8-9.1v-0.1c0-2.5-0.9-4.7-2.6-6.5c-2.4-2.3-6-3.5-10.4-3.5H2.4
			c-1.3,0-2.4,1.1-2.4,2.5v34.8c0,1.3,1.1,2.5,2.4,2.5h15.2c8.9,0,14.5-4.2,14.5-11v-0.1C32.1,128.7,29.4,125.5,24.1,123.7z
			 M25,115.3c0,4.2-3.3,6.8-8.8,6.8H4.8V109h11.7c5.3,0,8.4,2.3,8.4,6.2V115.3z M4.8,126.5H17c6.6,0,10.2,2.3,10.2,6.5v0.1
			c0,4.2-3.6,6.8-9.4,6.8H4.8V126.5z"/>
		<path fill="#FFFFFF" d="M49.8,114.4c-3.4,0-6.4,0.6-9.6,2c-0.7,0.3-1.3,1-1.3,2c0,1.1,1,2.1,2.1,2.1c0.3,0,0.6-0.1,0.9-0.2
			c2.4-1.1,4.8-1.6,7.4-1.6c5.4,0,8.4,2.7,8.4,7.7v0.7c-2.2-0.6-4.8-1.2-8.7-1.2c-7.9,0-12.6,3.6-12.6,9.6v0.1c0,6.1,5.6,9.3,11,9.3
			c5.2,0,8.4-2.4,10.2-4.6v2c0,1.3,1,2.3,2.3,2.3c1.3,0,2.3-1,2.3-2.4v-15.9c0-3.7-1-6.6-3-8.6C57.1,115.5,53.9,114.4,49.8,114.4z
			 M48.3,141.1c-3.4,0-7-1.7-7-5.5v-0.1c0-3.6,3.1-5.8,8.2-5.8c2.8,0,5.5,0.4,8.3,1.2v2.6C57.8,137.8,53.7,141.1,48.3,141.1z"/>
		<path fill="#FFFFFF" d="M80.8,127.3l-0.1,0c-3.7-1.1-7.2-2.2-7.2-4.7v-0.1c0-2.3,2.2-4,5.4-4c2.3,0,4.9,0.8,7.5,2.2
			c0.2,0.1,0.6,0.3,1.1,0.3c1.2,0,2.1-0.9,2.1-2.1c0-0.8-0.4-1.6-1.2-2c-2.9-1.6-6.3-2.5-9.4-2.5c-5.9,0-10.1,3.5-10.1,8.5v0.1
			c0,5.6,5.6,7.2,9.8,8.4c3.9,1.1,7.1,2.2,7.1,4.9v0.1c0,2.6-2.3,4.4-5.8,4.4c-3,0-6.1-1-9-3c-0.3-0.2-0.7-0.4-1.2-0.4
			c-1.2,0-2.1,0.9-2.1,2.1c0,0.8,0.5,1.5,0.9,1.8c3.2,2.3,7.4,3.7,11.3,3.7c6.3,0,10.5-3.6,10.5-8.9v-0.1
			C90.3,130.6,85.6,128.7,80.8,127.3z"/>
		<path fill="#FFFFFF" d="M109,114.2c-7.9,0-14.1,6.7-14.1,15.3v0.1c0,8.7,6.3,15.3,14.7,15.3c4.5,0,7.9-1.4,11.1-4.4
			c0.5-0.4,0.8-1,0.8-1.6c0-1.2-1-2.1-2.1-2.1c-0.6,0-1.1,0.3-1.4,0.6c-2.4,2.2-5.1,3.3-8.2,3.3c-5.3,0-9.3-3.7-9.9-9.4h20.7
			c1.2,0,2.3-1,2.3-2.3C122.7,121.7,118,114.2,109,114.2z M108.9,118.3c5.9,0,8.5,4.8,9,9.4H99.8
			C100.4,122.2,104.1,118.3,108.9,118.3z"/>
		<path fill="#FFFFFF" d="M177.9,107.7c0.1-0.3,0.2-0.6,0.2-1c0-1.3-1.2-2.4-2.5-2.4c-1.1,0-1.9,0.7-2.3,1.9l-10.6,30.7l-10-30.7
			c-0.4-1.2-1.3-1.9-2.4-1.9h-0.3c-1.2,0-2,0.7-2.4,1.9l-10,30.7l-10.6-30.6c-0.4-1.2-1.4-2-2.5-2c-1.3,0-2.5,1.2-2.5,2.5
			c0,0.4,0.1,0.7,0.2,1.1l12.5,34.9c0.4,1.3,1.3,2.1,2.5,2.1h0.3c1.1,0,2.1-0.8,2.5-2.1l9.9-29.5l10,29.5c0.5,1.3,1.4,2.1,2.5,2.1
			h0.3c1.1,0,2.1-0.8,2.5-2.1l12.5-34.9L177.9,107.7z"/>
		<path fill="#FFFFFF" d="M191.1,114.2c-7.9,0-14.1,6.7-14.1,15.3v0.1c0,8.7,6.3,15.3,14.7,15.3c4.5,0,7.9-1.4,11.1-4.4
			c0.5-0.4,0.8-1,0.8-1.6c0-1.2-1-2.1-2.1-2.1c-0.6,0-1.1,0.3-1.4,0.6c-2.4,2.2-5.1,3.3-8.2,3.3c-5.3,0-9.3-3.7-9.9-9.4h20.7
			c1.2,0,2.3-1,2.3-2.3C204.8,121.7,200.1,114.2,191.1,114.2z M191,118.3c5.9,0,8.5,4.8,9,9.4h-18.1
			C182.5,122.2,186.3,118.3,191,118.3z"/>
		<path fill="#FFFFFF" d="M225.9,114.2c-4.4,0-8,1.9-10.9,5.9V105c0-1.4-1.1-2.4-2.4-2.4c-1.3,0-2.4,1.1-2.4,2.4v37.2
			c0,1.3,1.1,2.4,2.4,2.4c1.3,0,2.4-1.1,2.4-2.4v-2.9c2.8,3.8,6.5,5.7,10.9,5.7c6.8,0,14.1-5.4,14.1-15.3v-0.1
			C240,119.6,232.8,114.2,225.9,114.2z M225.1,118.6c5.8,0,10,4.6,10,11v0.1c0,6.4-4.1,10.9-10,10.9c-5,0-10.2-4.1-10.2-11v-0.1
			C214.9,124.2,218.8,118.6,225.1,118.6z"/>
	</g>
</g>
</svg>
