<?xml version="1.0" encoding="utf-8"?>
<!-- Generator: Adobe Illustrator 18.0.0, SVG Export Plug-In . SVG Version: 6.00 Build 0)  -->
<!DOCTYPE svg PUBLIC "-//W3C//DTD SVG 1.1//EN" "http://www.w3.org/Graphics/SVG/1.1/DTD/svg11.dtd">
<svg version="1.1" id="Layer_1" xmlns="http://www.w3.org/2000/svg" xmlns:xlink="http://www.w3.org/1999/xlink" x="0px" y="0px"
	 viewBox="0 0 187 40" enable-background="new 0 0 187 40" xml:space="preserve">
<g>
	<path fill="#303030" d="M56.3,29.7l-7.2-3.3l7.2-3.3c0.3-0.2,0.6-0.5,0.6-0.9c0-0.4-0.2-0.7-0.6-0.9l-8.6-4V9.4
		c0-0.2,0-0.3-0.1-0.4c0,0,0,0,0-0.1c-0.1-0.1-0.2-0.2-0.3-0.3c0,0,0,0,0,0c0,0,0,0,0,0c0,0-0.1,0-0.1-0.1L28.8,0.1
		C28.6,0,28.3,0,28,0.1L9.7,8.5c0,0-0.1,0-0.1,0.1c0,0,0,0,0,0c0,0,0,0,0,0C9.5,8.7,9.4,8.8,9.3,8.9c0,0,0,0,0,0.1
		C9.2,9.1,9.1,9.3,9.1,9.4v7.8l-8.6,4C0.2,21.4,0,21.7,0,22.1c0,0.4,0.2,0.7,0.6,0.9l7.2,3.3l-7.2,3.3C0.2,29.8,0,30.2,0,30.6
		c0,0.4,0.2,0.7,0.6,0.9l18.3,8.4C19,40,19.1,40,19.3,40c0.1,0,0.3,0,0.4-0.1l8.7-4l8.7,4c0.1,0.1,0.3,0.1,0.4,0.1
		c0.1,0,0.3,0,0.4-0.1l18.3-8.4c0.3-0.2,0.6-0.5,0.6-0.9C56.8,30.2,56.6,29.8,56.3,29.7z M37.6,37.9l-6.8-3.1l15.9-7.4l6.8,3.1
		L37.6,37.9z M45.7,11v14.7l-16.3,7.5V18.5L45.7,11z M44.4,9.4l-7.2,3.3c0,0,0,0,0,0l-8.7,4L26,15.7l-4.3-2l15.9-7.4L44.4,9.4z
		 M47.7,19.4l5.8,2.7l-5.8,2.7V19.4z M19.3,12.6l-6.8-3.1l15.9-7.4l6.8,3.1L19.3,12.6z M27.4,18.5v14.7l-16.3-7.5V11L27.4,18.5z
		 M9.1,24.8l-5.8-2.7l5.8-2.7V24.8z M10.1,27.4l15.9,7.4l-6.8,3.1L3.3,30.6L10.1,27.4z"/>
	<g>
		<path fill="#303030" d="M82,21.1c1.3-0.7,2.8-2,2.8-4.4v-0.1c0-1.2-0.4-2.3-1.3-3.2c-1.2-1.1-2.9-1.7-5.1-1.7h-7.1
			c-0.6,0-1.2,0.6-1.2,1.2v17c0,0.7,0.5,1.2,1.2,1.2h7.4c4.3,0,7-2.1,7-5.4v-0.1C85.9,23.6,84.6,22,82,21.1z M82.4,17
			c0,2.1-1.6,3.3-4.3,3.3h-5.5v-6.4h5.7C80.9,13.9,82.4,15,82.4,17L82.4,17z M72.6,22.5h5.9c3.2,0,5,1.1,5,3.2v0.1
			c0,2-1.8,3.3-4.6,3.3h-6.3V22.5z"/>
		<path fill="#303030" d="M94.5,16.6c-1.7,0-3.1,0.3-4.6,1c-0.3,0.1-0.6,0.5-0.6,1c0,0.6,0.5,1,1,1c0.1,0,0.3,0,0.4-0.1
			c1.2-0.5,2.4-0.8,3.6-0.8c2.6,0,4.1,1.3,4.1,3.8v0.3c-1.1-0.3-2.3-0.6-4.2-0.6c-3.8,0-6.1,1.8-6.1,4.7V27c0,3,2.7,4.5,5.4,4.5
			c2.5,0,4.1-1.2,5-2.2v1c0,0.6,0.5,1.1,1.1,1.1s1.1-0.5,1.1-1.2v-7.8c0-1.8-0.5-3.2-1.5-4.2C98.1,17.1,96.5,16.6,94.5,16.6z
			 M93.8,29.6c-1.7,0-3.4-0.9-3.4-2.7v-0.1c0-1.8,1.5-2.8,4-2.8c1.4,0,2.7,0.2,4,0.6v1.3C98.4,28,96.4,29.6,93.8,29.6z"/>
		<path fill="#303030" d="M109.6,22.9L109.6,22.9c-1.8-0.6-3.5-1.1-3.5-2.3v-0.1c0-1.1,1.1-1.9,2.6-1.9c1.1,0,2.4,0.4,3.6,1.1
			c0.1,0,0.3,0.1,0.5,0.1c0.6,0,1-0.5,1-1c0-0.4-0.2-0.8-0.6-1c-1.4-0.8-3.1-1.2-4.5-1.2c-2.9,0-4.9,1.7-4.9,4.2v0.1
			c0,2.8,2.7,3.6,4.7,4.1c1.9,0.5,3.4,1.1,3.4,2.4v0.1c0,1.3-1.1,2.1-2.8,2.1c-1.5,0-3-0.5-4.4-1.5c-0.1-0.1-0.4-0.2-0.6-0.2
			c-0.6,0-1,0.5-1,1c0,0.4,0.2,0.7,0.4,0.9c1.6,1.1,3.6,1.8,5.5,1.8c3.1,0,5.1-1.8,5.1-4.4v-0.1C114.2,24.5,111.9,23.6,109.6,22.9z"
			/>
		<path fill="#303030" d="M123.3,16.5c-3.9,0-6.9,3.3-6.9,7.5V24c0,4.3,3.1,7.5,7.1,7.5c2.2,0,3.8-0.7,5.4-2.2
			c0.2-0.2,0.4-0.5,0.4-0.8c0-0.6-0.5-1-1-1c-0.3,0-0.5,0.2-0.7,0.3c-1.2,1.1-2.5,1.6-4,1.6c-2.6,0-4.5-1.8-4.8-4.6h10.1
			c0.6,0,1.1-0.5,1.1-1.1C130,20.1,127.7,16.5,123.3,16.5z M123.3,18.5c2.9,0,4.1,2.4,4.4,4.6h-8.8
			C119.1,20.4,120.9,18.5,123.3,18.5z"/>
		<path fill="#303030" d="M156.8,13.2c0.1-0.1,0.1-0.3,0.1-0.5c0-0.6-0.6-1.2-1.2-1.2c-0.5,0-0.9,0.3-1.1,0.9l-5.2,15l-4.9-15
			c-0.2-0.6-0.6-0.9-1.2-0.9h-0.1c-0.6,0-1,0.3-1.2,0.9l-4.9,15l-5.1-15c-0.2-0.6-0.7-1-1.2-1c-0.7,0-1.2,0.6-1.2,1.2
			c0,0.2,0.1,0.4,0.1,0.5l6.1,17.1c0.2,0.7,0.6,1,1.2,1h0.2c0.6,0,1-0.4,1.2-1l4.8-14.5l4.9,14.5c0.2,0.6,0.7,1,1.2,1h0.2
			c0.6,0,1-0.4,1.2-1L156.8,13.2L156.8,13.2z"/>
		<path fill="#303030" d="M163.2,16.5c-3.9,0-6.9,3.3-6.9,7.5V24c0,4.3,3.1,7.5,7.1,7.5c2.2,0,3.8-0.7,5.4-2.2
			c0.2-0.2,0.4-0.5,0.4-0.8c0-0.6-0.5-1-1-1c-0.3,0-0.5,0.2-0.7,0.3c-1.2,1.1-2.5,1.6-4,1.6c-2.6,0-4.5-1.8-4.8-4.6h10.1
			c0.6,0,1.1-0.5,1.1-1.1C169.9,20.1,167.6,16.5,163.2,16.5z M163.2,18.5c2.9,0,4.1,2.4,4.4,4.6h-8.8
			C159.1,20.4,160.9,18.5,163.2,18.5z"/>
		<path fill="#303030" d="M180.2,16.5c-2.1,0-3.9,1-5.3,2.9V12c0-0.7-0.5-1.2-1.2-1.2c-0.6,0-1.1,0.5-1.1,1.2v18.2
			c0,0.7,0.5,1.2,1.2,1.2c0.6,0,1.1-0.5,1.1-1.2v-1.4c1.4,1.8,3.1,2.8,5.3,2.8c3.3,0,6.8-2.6,6.8-7.5v-0.1
			C187,19.1,183.5,16.5,180.2,16.5z M179.8,18.6c2.8,0,4.8,2.3,4.8,5.4V24c0,3.2-2,5.4-4.8,5.4c-2.4,0-5-2-5-5.4v-0.1
			C174.8,21.4,176.7,18.6,179.8,18.6z"/>
	</g>
</g>
</svg>
