<svg xmlns="http://www.w3.org/2000/svg" viewBox="0 0 240 145"><path d="M177.3 60.5l-14.8-6.8 14.8-6.8c.7-.3 1.2-1 1.2-1.8s-.5-1.5-1.2-1.8l-17.6-8.1V19.3c0-.3-.1-.6-.2-.9 0 0 0-.1-.1-.1-.1-.3-.3-.5-.6-.6l-.1-.1h-.1c-.1 0-.1-.1-.2-.1L120.8.2c-.5-.2-1.1-.2-1.7 0L81.5 17.4c-.1 0-.1.1-.2.1h-.1l-.1.1-.6.6s0 .1-.1.1c-.1.3-.2.6-.2.9v15.9l-17.6 8.1c-.7.3-1.2 1-1.2 1.8s.5 1.5 1.2 1.8l14.8 6.8-14.8 6.8c-.7.3-1.2 1-1.2 1.8s.5 1.5 1.2 1.8l37.6 17.2c.3.1.6.2.8.2.3 0 .6-.1.8-.2l18-8.2 18 8.2c.3.1.6.2.8.2.3 0 .6-.1.8-.2L177 64c.7-.3 1.2-1 1.2-1.8.2-.6-.2-1.3-.9-1.7zm-38.5 16.9l-14-6.4 32.8-15 14 6.4-32.8 15zm16.8-55v30.1L122 67.9V37.8l33.6-15.4zm-2.8-3.1L138 26.1l-18 8.2-5.1-2.3-8.9-4.1 32.8-15 14 6.4zm6.8 20.4l12 5.5-12 5.5v-11zm-58.4-14l-14-6.4 32.8-15 14 6.4-32.8 15zM118 37.8v30.1L84.4 52.5V22.4L118 37.8zM80.4 50.6l-12-5.5 12-5.5v11zm2 5.4l32.8 15-14 6.4-32.8-15 14-6.4zm-58.3 67.7c2.8-1.4 5.8-4 5.8-9.1v-.1c0-2.5-.9-4.7-2.6-6.5-2.4-2.3-6-3.5-10.4-3.5H2.4c-1.3 0-2.4 1.1-2.4 2.5v34.8c0 1.3 1.1 2.5 2.4 2.5h15.2c8.9 0 14.5-4.2 14.5-11v-.1c0-4.5-2.7-7.7-8-9.5zm.9-8.4c0 4.2-3.3 6.8-8.8 6.8H4.8V109h11.7c5.3 0 8.4 2.3 8.4 6.2v.1zM4.8 126.5H17c6.6 0 10.2 2.3 10.2 6.5v.1c0 4.2-3.6 6.8-9.4 6.8h-13v-13.4zm45-12.1c-3.4 0-6.4.6-9.6 2-.7.3-1.3 1-1.3 2 0 1.1 1 2.1 2.1 2.1.3 0 .6-.1.9-.2 2.4-1.1 4.8-1.6 7.4-1.6 5.4 0 8.4 2.7 8.4 7.7v.7c-2.2-.6-4.8-1.2-8.7-1.2-7.9 0-12.6 3.6-12.6 9.6v.1c0 6.1 5.6 9.3 11 9.3 5.2 0 8.4-2.4 10.2-4.6v2c0 1.3 1 2.3 2.3 2.3 1.3 0 2.3-1 2.3-2.4v-15.9c0-3.7-1-6.6-3-8.6-2.1-2.2-5.3-3.3-9.4-3.3zm-1.5 26.7c-3.4 0-7-1.7-7-5.5v-.1c0-3.6 3.1-5.8 8.2-5.8 2.8 0 5.5.4 8.3 1.2v2.6c0 4.3-4.1 7.6-9.5 7.6zm32.5-13.8h-.1c-3.7-1.1-7.2-2.2-7.2-4.7v-.1c0-2.3 2.2-4 5.4-4 2.3 0 4.9.8 7.5 2.2.2.1.6.3 1.1.3 1.2 0 2.1-.9 2.1-2.1 0-.8-.4-1.6-1.2-2-2.9-1.6-6.3-2.5-9.4-2.5-5.9 0-10.1 3.5-10.1 8.5v.1c0 5.6 5.6 7.2 9.8 8.4 3.9 1.1 7.1 2.2 7.1 4.9v.1c0 2.6-2.3 4.4-5.8 4.4-3 0-6.1-1-9-3-.3-.2-.7-.4-1.2-.4-1.2 0-2.1.9-2.1 2.1 0 .8.5 1.5.9 1.8 3.2 2.3 7.4 3.7 11.3 3.7 6.3 0 10.5-3.6 10.5-8.9v-.1c-.1-5.4-4.8-7.3-9.6-8.7zm28.2-13.1c-7.9 0-14.1 6.7-14.1 15.3v.1c0 8.7 6.3 15.3 14.7 15.3 4.5 0 7.9-1.4 11.1-4.4.5-.4.8-1 .8-1.6 0-1.2-1-2.1-2.1-2.1-.6 0-1.1.3-1.4.6-2.4 2.2-5.1 3.3-8.2 3.3-5.3 0-9.3-3.7-9.9-9.4h20.7c1.2 0 2.3-1 2.3-2.3-.2-7.3-4.9-14.8-13.9-14.8zm-.1 4.1c5.9 0 8.5 4.8 9 9.4H99.8c.6-5.5 4.3-9.4 9.1-9.4zm69-10.6c.1-.3.2-.6.2-1 0-1.3-1.2-2.4-2.5-2.4-1.1 0-1.9.7-2.3 1.9l-10.6 30.7-10-30.7c-.4-1.2-1.3-1.9-2.4-1.9h-.3c-1.2 0-2 .7-2.4 1.9l-10 30.7-10.6-30.6c-.4-1.2-1.4-2-2.5-2-1.3 0-2.5 1.2-2.5 2.5 0 .4.1.7.2 1.1l12.5 34.9c.4 1.3 1.3 2.1 2.5 2.1h.3c1.1 0 2.1-.8 2.5-2.1l9.9-29.5 10 29.5c.5 1.3 1.4 2.1 2.5 2.1h.3c1.1 0 2.1-.8 2.5-2.1l12.5-34.9.2-.2zm13.2 6.5c-7.9 0-14.1 6.7-14.1 15.3v.1c0 8.7 6.3 15.3 14.7 15.3 4.5 0 7.9-1.4 11.1-4.4.5-.4.8-1 .8-1.6 0-1.2-1-2.1-2.1-2.1-.6 0-1.1.3-1.4.6-2.4 2.2-5.1 3.3-8.2 3.3-5.3 0-9.3-3.7-9.9-9.4h20.7c1.2 0 2.3-1 2.3-2.3-.2-7.3-4.9-14.8-13.9-14.8zm-.1 4.1c5.9 0 8.5 4.8 9 9.4h-18.1c.6-5.5 4.4-9.4 9.1-9.4zm34.9-4.1c-4.4 0-8 1.9-10.9 5.9V105c0-1.4-1.1-2.4-2.4-2.4-1.3 0-2.4 1.1-2.4 2.4v37.2c0 1.3 1.1 2.4 2.4 2.4 1.3 0 2.4-1.1 2.4-2.4v-2.9c2.8 3.8 6.5 5.7 10.9 5.7 6.8 0 14.1-5.4 14.1-15.3v-.1c0-10-7.2-15.4-14.1-15.4zm-.8 4.4c5.8 0 10 4.6 10 11v.1c0 6.4-4.1 10.9-10 10.9-5 0-10.2-4.1-10.2-11v-.1c0-5.3 3.9-10.9 10.2-10.9z" fill="#FFF"/></svg>