<?xml version="1.0" encoding="UTF-8" standalone="no"?>
<svg width="356px" height="261px" viewBox="0 0 356 261" version="1.1" xmlns="http://www.w3.org/2000/svg" xmlns:xlink="http://www.w3.org/1999/xlink">
    <!-- Generator: Sketch 40.3 (33839) - http://www.bohemiancoding.com/sketch -->
    <title>ill-library</title>
    <desc>Created with Sketch.</desc>
    <defs></defs>
    <g id="Home" stroke="none" stroke-width="1" fill="none" fill-rule="evenodd">
        <g id="ill-library" transform="translate(-72.000000, -120.000000)">
            <g id="Untitled-1" transform="translate(72.000000, 120.000000)">
                <g id="Layer_1">
                    <g id="Group" opacity="0.05" transform="translate(47.000000, 0.000000)" fill="#1489C9">
                        <circle id="Oval" cx="130.5" cy="130.5" r="130.5"></circle>
                    </g>
                    <g id="Group" transform="translate(67.000000, 172.000000)">
                        <g id="Shape">
                            <path d="M3.5,13.5 C1.8,13.5 0.5,12.2 0.5,10.5 L0.5,3.5 C0.5,1.8 1.8,0.5 3.5,0.5 L4.5,0.5 C6.2,0.5 7.5,1.8 7.5,3.5 L7.5,10.5 C7.5,12.2 6.2,13.5 4.5,13.5 L3.5,13.5 L3.5,13.5 Z" fill="#E8F4FA"></path>
                            <path d="M4.5,1 C5.9,1 7,2.1 7,3.5 L7,10.5 C7,11.9 5.9,13 4.5,13 L3.5,13 C2.1,13 1,11.9 1,10.5 L1,3.5 C1,2.1 2.1,1 3.5,1 L4.5,1 L4.5,1 Z M4.5,0 L3.5,0 C1.6,0 0,1.6 0,3.5 L0,10.5 C0,12.4 1.6,14 3.5,14 L4.5,14 C6.4,14 8,12.4 8,10.5 L8,3.5 C8,1.6 6.4,0 4.5,0 L4.5,0 L4.5,0 Z" fill="#1489C9"></path>
                        </g>
                        <g transform="translate(214.000000, 0.000000)" id="Shape">
                            <path d="M3.5,13.5 C1.8,13.5 0.5,12.2 0.5,10.5 L0.5,3.5 C0.5,1.8 1.8,0.5 3.5,0.5 L4.5,0.5 C6.2,0.5 7.5,1.8 7.5,3.5 L7.5,10.5 C7.5,12.2 6.2,13.5 4.5,13.5 L3.5,13.5 L3.5,13.5 Z" fill="#E8F4FA"></path>
                            <path d="M4.5,1 C5.9,1 7,2.1 7,3.5 L7,10.5 C7,11.9 5.9,13 4.5,13 L3.5,13 C2.1,13 1,11.9 1,10.5 L1,3.5 C1,2.1 2.1,1 3.5,1 L4.5,1 L4.5,1 Z M4.5,0 L3.5,0 C1.6,0 0,1.6 0,3.5 L0,10.5 C0,12.4 1.6,14 3.5,14 L4.5,14 C6.4,14 8,12.4 8,10.5 L8,3.5 C8,1.6 6.4,0 4.5,0 L4.5,0 L4.5,0 Z" fill="#1489C9"></path>
                        </g>
                    </g>
                    <g id="Group" transform="translate(67.000000, 172.000000)" fill="#1489C9">
                        <path d="M4.5,1 C5.9,1 7,2.1 7,3.5 L7,10.5 C7,11.9 5.9,13 4.5,13 L3.5,13 C2.1,13 1,11.9 1,10.5 L1,3.5 C1,2.1 2.1,1 3.5,1 L4.5,1 L4.5,1 Z M4.5,0 L3.5,0 C1.6,0 0,1.6 0,3.5 L0,10.5 C0,12.4 1.6,14 3.5,14 L4.5,14 C6.4,14 8,12.4 8,10.5 L8,3.5 C8,1.6 6.4,0 4.5,0 L4.5,0 L4.5,0 Z" id="Shape"></path>
                        <path d="M218.5,1 C219.9,1 221,2.1 221,3.5 L221,10.5 C221,11.9 219.9,13 218.5,13 L217.5,13 C216.1,13 215,11.9 215,10.5 L215,3.5 C215,2.1 216.1,1 217.5,1 L218.5,1 L218.5,1 Z M218.5,0 L217.5,0 C215.6,0 214,1.6 214,3.5 L214,10.5 C214,12.4 215.6,14 217.5,14 L218.5,14 C220.4,14 222,12.4 222,10.5 L222,3.5 C222,1.6 220.4,0 218.5,0 L218.5,0 L218.5,0 Z" id="Shape"></path>
                    </g>
                    <g id="Group" transform="translate(21.000000, 115.000000)">
                        <path d="M1,54.5 C0.7,54.5 0.5,54.3 0.5,54 L0.5,53.6 C0.5,48.7 4.5,44.7 9.4,44.7 L15.9,44.7 L15.9,44.3 C15.9,42.7 16.8,41.3 18.3,40.6 C17.3,38.6 16.8,36.4 16.8,34.1 C16.8,25.8 23.6,19 31.9,19 C33.4,19 34.9,19.2 36.3,19.7 C36.6,17.8 38.3,16.4 40.3,16.4 L40.7,16.4 L40.7,9 C40.7,4.2 44.5,0.5 49.6,0.5 L50,0.5 C50.3,0.5 50.5,0.7 50.5,1 L50.5,54 C50.5,54.3 50.3,54.5 50,54.5 L1,54.5 L1,54.5 Z M31.9,27.1 C28,27.1 24.9,30.3 24.9,34.1 C24.9,38 28.1,41.1 31.9,41.1 C35.7,41.1 38.9,37.9 38.9,34.1 C38.9,30.2 35.7,27.1 31.9,27.1 L31.9,27.1 Z" id="Shape" fill="#FFFFFF"></path>
                        <path d="M50,1 L50,22.1 L50,33.6 L50,45.1 L50,54 L41.1,54 L33.1,54 L18,54 L1,54 L1,53.6 C1,49 4.8,45.2 9.4,45.2 L16.5,45.2 C16.4,44.9 16.4,44.6 16.4,44.3 C16.4,42.7 17.5,41.3 19,40.9 C17.9,38.9 17.3,36.6 17.3,34.1 C17.3,26 23.8,19.5 31.9,19.5 C33.6,19.5 35.2,19.8 36.8,20.4 C36.8,18.5 38.4,16.9 40.3,16.9 C40.6,16.9 40.9,17 41.2,17 L41.2,9 C41.2,4.4 45,1 49.6,1 L50,1 L50,1 Z M31.9,41.6 C36.1,41.6 39.4,38.2 39.4,34.1 C39.4,29.9 36,26.6 31.9,26.6 C27.7,26.6 24.4,30 24.4,34.1 C24.3,38.2 27.7,41.6 31.9,41.6 L31.9,41.6 Z M50,0 L49.6,0 C44.2,0 40.2,3.9 40.2,9 L40.2,15.9 C38.2,15.9 36.5,17.3 36,19.1 C34.7,18.7 33.3,18.5 31.9,18.5 C23.3,18.5 16.3,25.5 16.3,34.1 C16.3,36.3 16.8,38.4 17.6,40.4 C16.3,41.2 15.4,42.6 15.4,44.2 L9.4,44.2 C4.2,44.2 0,48.4 0,53.6 C0,53.6 0,53.6 0,53.7 L0,54.1 C0,54.6 0.5,55 1,55 L18.1,55 L33.2,55 L41.2,55 L50.1,55 C50.7,55 51.1,54.6 51.1,54 L51.1,45.1 L51.1,33.6 L51.1,22.1 L51.1,1 C51,0.4 50.6,0 50,0 L50,0 L50,0 Z M31.9,40.6 C28.3,40.6 25.4,37.7 25.4,34.1 C25.4,30.5 28.3,27.6 31.9,27.6 C35.5,27.6 38.4,30.5 38.4,34.1 C38.4,37.7 35.5,40.6 31.9,40.6 L31.9,40.6 L31.9,40.6 Z" id="Shape" fill="#1489C9"></path>
                    </g>
                    <g id="Group" transform="translate(298.000000, 109.000000)">
                        <g id="Shape">
                            <path d="M10.7,48.5 C5.6,48.5 1.5,44.4 1.5,39.3 L1.5,9.6 C1.5,4.5 5.6,0.4 10.7,0.4 L12.4,0.4 C17.5,0.4 21.6,4.5 21.6,9.6 L21.6,39.3 C21.6,44.4 17.5,48.5 12.4,48.5 L10.7,48.5 L10.7,48.5 Z" fill="#FFFFFF"></path>
                            <path d="M12.3,1 C17.1,1 21,4.9 21,9.7 L21,39.4 C21,44.2 17.1,48.1 12.3,48.1 L10.6,48.1 C5.8,48.1 1.9,44.2 1.9,39.4 L1.9,9.7 C1.9,4.9 5.8,1 10.6,1 L12.3,1 L12.3,1 Z M12.3,0 L10.6,0 C5.3,0 0.9,4.3 0.9,9.7 L0.9,39.4 C0.9,44.7 5.2,49.1 10.6,49.1 L12.3,49.1 C17.6,49.1 22,44.8 22,39.4 L22,9.7 C22,4.3 17.7,0 12.3,0 L12.3,0 L12.3,0 Z" fill="#1489C9"></path>
                        </g>
                        <g opacity="0.1" transform="translate(12.000000, 1.000000)" id="Shape" fill="#1489C9">
                            <path d="M0.3,47 L0.3,0 C5.1,0 9,3.9 9,8.7 L9,38.4 C9,43.1 5.1,47 0.3,47 L0.3,47 Z"></path>
                        </g>
                        <g transform="translate(11.000000, 3.000000)" id="Shape">
                            <path d="M0,1 L0,5" fill="#FFFFFF"></path>
                            <path d="M0.5,5.5 C0.2,5.5 0,5.3 0,5 L0,1 C0,0.7 0.2,0.5 0.5,0.5 C0.8,0.5 1,0.7 1,1 L1,5 C1,5.3 0.8,5.5 0.5,5.5 L0.5,5.5 Z" fill="#86D0EA"></path>
                        </g>
                        <g transform="translate(11.000000, 10.000000)" id="Shape">
                            <path d="M0,1 L0,5" fill="#FFFFFF"></path>
                            <path d="M0.5,5.5 C0.2,5.5 0,5.3 0,5 L0,1 C0,0.7 0.2,0.5 0.5,0.5 C0.8,0.5 1,0.7 1,1 L1,5 C1,5.3 0.8,5.5 0.5,5.5 L0.5,5.5 Z" fill="#86D0EA"></path>
                        </g>
                        <g transform="translate(11.000000, 17.000000)" id="Shape">
                            <path d="M0,1 L0,5" fill="#FFFFFF"></path>
                            <path d="M0.5,5.5 C0.2,5.5 0,5.3 0,5 L0,1 C0,0.7 0.2,0.5 0.5,0.5 C0.8,0.5 1,0.7 1,1 L1,5 C1,5.3 0.8,5.5 0.5,5.5 L0.5,5.5 Z" fill="#86D0EA"></path>
                        </g>
                        <g transform="translate(11.000000, 24.000000)" id="Shape">
                            <path d="M0,1 L0,5" fill="#FFFFFF"></path>
                            <path d="M0.5,5.5 C0.2,5.5 0,5.3 0,5 L0,1 C0,0.7 0.2,0.5 0.5,0.5 C0.8,0.5 1,0.7 1,1 L1,5 C1,5.3 0.8,5.5 0.5,5.5 L0.5,5.5 Z" fill="#86D0EA"></path>
                        </g>
                        <g transform="translate(6.000000, 5.000000)" id="Shape">
                            <path d="M0,1 L0,5" fill="#FFFFFF"></path>
                            <path d="M0.5,5.5 C0.2,5.5 0,5.3 0,5 L0,1 C0,0.7 0.2,0.5 0.5,0.5 C0.8,0.5 1,0.7 1,1 L1,5 C1,5.3 0.8,5.5 0.5,5.5 L0.5,5.5 Z" fill="#86D0EA"></path>
                        </g>
                        <g transform="translate(6.000000, 12.000000)" id="Shape">
                            <path d="M0,1 L0,5" fill="#FFFFFF"></path>
                            <path d="M0.5,5.5 C0.2,5.5 0,5.3 0,5 L0,1 C0,0.7 0.2,0.5 0.5,0.5 C0.8,0.5 1,0.7 1,1 L1,5 C1,5.3 0.8,5.5 0.5,5.5 L0.5,5.5 Z" fill="#86D0EA"></path>
                        </g>
                        <g transform="translate(6.000000, 19.000000)" id="Shape">
                            <path d="M0,1 L0,5" fill="#FFFFFF"></path>
                            <path d="M0.5,5.5 C0.2,5.5 0,5.3 0,5 L0,1 C0,0.7 0.2,0.5 0.5,0.5 C0.8,0.5 1,0.7 1,1 L1,5 C1,5.3 0.8,5.5 0.5,5.5 L0.5,5.5 Z" fill="#86D0EA"></path>
                        </g>
                        <g transform="translate(6.000000, 26.000000)" id="Shape">
                            <path d="M0,1 L0,5" fill="#FFFFFF"></path>
                            <path d="M0.5,5.5 C0.2,5.5 0,5.3 0,5 L0,1 C0,0.7 0.2,0.5 0.5,0.5 C0.8,0.5 1,0.7 1,1 L1,5 C1,5.3 0.8,5.5 0.5,5.5 L0.5,5.5 Z" fill="#86D0EA"></path>
                        </g>
                        <g transform="translate(16.000000, 5.000000)" id="Shape">
                            <path d="M0,1 L0,5" fill="#FFFFFF"></path>
                            <path d="M0.5,5.5 C0.2,5.5 0,5.3 0,5 L0,1 C0,0.7 0.2,0.5 0.5,0.5 C0.8,0.5 1,0.7 1,1 L1,5 C1,5.3 0.8,5.5 0.5,5.5 L0.5,5.5 Z" fill="#86D0EA"></path>
                        </g>
                        <g transform="translate(16.000000, 12.000000)" id="Shape">
                            <path d="M0,1 L0,5" fill="#FFFFFF"></path>
                            <path d="M0.5,5.5 C0.2,5.5 0,5.3 0,5 L0,1 C0,0.7 0.2,0.5 0.5,0.5 C0.8,0.5 1,0.7 1,1 L1,5 C1,5.3 0.8,5.5 0.5,5.5 L0.5,5.5 Z" fill="#86D0EA"></path>
                        </g>
                        <g transform="translate(16.000000, 19.000000)" id="Shape">
                            <path d="M0,1 L0,5" fill="#FFFFFF"></path>
                            <path d="M0.5,5.5 C0.2,5.5 0,5.3 0,5 L0,1 C0,0.7 0.2,0.5 0.5,0.5 C0.8,0.5 1,0.7 1,1 L1,5 C1,5.3 0.8,5.5 0.5,5.5 L0.5,5.5 Z" fill="#86D0EA"></path>
                        </g>
                        <g transform="translate(16.000000, 26.000000)" id="Shape">
                            <path d="M0,1 L0,5" fill="#FFFFFF"></path>
                            <path d="M0.5,5.5 C0.2,5.5 0,5.3 0,5 L0,1 C0,0.7 0.2,0.5 0.5,0.5 C0.8,0.5 1,0.7 1,1 L1,5 C1,5.3 0.8,5.5 0.5,5.5 L0.5,5.5 Z" fill="#86D0EA"></path>
                        </g>
                        <path d="M12.3,1 C17.1,1 21,4.9 21,9.7 L21,39.4 C21,44.2 17.1,48.1 12.3,48.1 L10.6,48.1 C5.8,48.1 1.9,44.2 1.9,39.4 L1.9,9.7 C1.9,4.9 5.8,1 10.6,1 L12.3,1 L12.3,1 Z M12.3,0 L10.6,0 C5.3,0 0.9,4.3 0.9,9.7 L0.9,39.4 C0.9,44.7 5.2,49.1 10.6,49.1 L12.3,49.1 C17.6,49.1 22,44.8 22,39.4 L22,9.7 C22,4.3 17.7,0 12.3,0 L12.3,0 L12.3,0 Z" id="Shape" fill="#1489C9"></path>
                        <g transform="translate(9.000000, 12.000000)" id="Shape">
                            <path d="M10.7,36.5 C5.6,36.5 1.5,32.4 1.5,27.3 L1.5,9.6 C1.5,4.5 5.6,0.4 10.7,0.4 L12.4,0.4 C17.5,0.4 21.6,4.5 21.6,9.6 L21.6,27.3 C21.6,32.4 17.5,36.5 12.4,36.5 L10.7,36.5 L10.7,36.5 Z" fill="#FFFFFF"></path>
                            <path d="M12.3,1 C17.1,1 21,4.9 21,9.7 L21,27.4 C21,32.2 17.1,36.1 12.3,36.1 L10.6,36.1 C5.8,36.1 1.9,32.2 1.9,27.4 L1.9,9.7 C1.9,4.9 5.8,1 10.6,1 L12.3,1 L12.3,1 Z M12.3,0 L10.6,0 C5.3,0 0.9,4.3 0.9,9.7 L0.9,27.4 C0.9,32.7 5.2,37.1 10.6,37.1 L12.3,37.1 C17.6,37.1 22,32.8 22,27.4 L22,9.7 C22,4.3 17.7,0 12.3,0 L12.3,0 L12.3,0 Z" fill="#1489C9"></path>
                        </g>
                        <g opacity="0.1" transform="translate(21.000000, 13.000000)" id="Shape" fill="#1489C9">
                            <path d="M0.3,35 L0.3,0 C5.1,0 9,3.9 9,8.7 L9,26.4 C9,31.1 5.1,35 0.3,35 L0.3,35 Z"></path>
                        </g>
                        <g transform="translate(20.000000, 16.000000)" id="Shape">
                            <path d="M0,1 L0,5" fill="#FFFFFF"></path>
                            <path d="M0.5,5.5 C0.2,5.5 0,5.3 0,5 L0,1 C0,0.7 0.2,0.5 0.5,0.5 C0.8,0.5 1,0.7 1,1 L1,5 C1,5.3 0.8,5.5 0.5,5.5 L0.5,5.5 Z" fill="#86D0EA"></path>
                        </g>
                        <g transform="translate(20.000000, 23.000000)" id="Shape">
                            <path d="M0,1 L0,5" fill="#FFFFFF"></path>
                            <path d="M0.5,5.5 C0.2,5.5 0,5.3 0,5 L0,1 C0,0.7 0.2,0.5 0.5,0.5 C0.8,0.5 1,0.7 1,1 L1,5 C1,5.3 0.8,5.5 0.5,5.5 L0.5,5.5 Z" fill="#86D0EA"></path>
                        </g>
                        <g transform="translate(20.000000, 30.000000)" id="Shape">
                            <path d="M0,1 L0,5" fill="#FFFFFF"></path>
                            <path d="M0.5,5.5 C0.2,5.5 0,5.3 0,5 L0,1 C0,0.7 0.2,0.5 0.5,0.5 C0.8,0.5 1,0.7 1,1 L1,5 C1,5.3 0.8,5.5 0.5,5.5 L0.5,5.5 Z" fill="#86D0EA"></path>
                        </g>
                        <g transform="translate(20.000000, 37.000000)" id="Shape">
                            <path d="M0,1 L0,5" fill="#FFFFFF"></path>
                            <path d="M0.5,5.5 C0.2,5.5 0,5.3 0,5 L0,1 C0,0.7 0.2,0.5 0.5,0.5 C0.8,0.5 1,0.7 1,1 L1,5 C1,5.3 0.8,5.5 0.5,5.5 L0.5,5.5 Z" fill="#86D0EA"></path>
                        </g>
                        <g transform="translate(15.000000, 18.000000)" id="Shape">
                            <path d="M0,1 L0,5" fill="#FFFFFF"></path>
                            <path d="M0.5,5.5 C0.2,5.5 0,5.3 0,5 L0,1 C0,0.7 0.2,0.5 0.5,0.5 C0.8,0.5 1,0.7 1,1 L1,5 C1,5.3 0.8,5.5 0.5,5.5 L0.5,5.5 Z" fill="#86D0EA"></path>
                        </g>
                        <g transform="translate(15.000000, 25.000000)" id="Shape">
                            <path d="M0,1 L0,5" fill="#FFFFFF"></path>
                            <path d="M0.5,5.5 C0.2,5.5 0,5.3 0,5 L0,1 C0,0.7 0.2,0.5 0.5,0.5 C0.8,0.5 1,0.7 1,1 L1,5 C1,5.3 0.8,5.5 0.5,5.5 L0.5,5.5 Z" fill="#86D0EA"></path>
                        </g>
                        <g transform="translate(15.000000, 32.000000)" id="Shape">
                            <path d="M0,1 L0,5" fill="#FFFFFF"></path>
                            <path d="M0.5,5.5 C0.2,5.5 0,5.3 0,5 L0,1 C0,0.7 0.2,0.5 0.5,0.5 C0.8,0.5 1,0.7 1,1 L1,5 C1,5.3 0.8,5.5 0.5,5.5 L0.5,5.5 Z" fill="#86D0EA"></path>
                        </g>
                        <g transform="translate(15.000000, 39.000000)" id="Shape">
                            <path d="M0,1 L0,5" fill="#FFFFFF"></path>
                            <path d="M0.5,5.5 C0.2,5.5 0,5.3 0,5 L0,1 C0,0.7 0.2,0.5 0.5,0.5 C0.8,0.5 1,0.7 1,1 L1,5 C1,5.3 0.8,5.5 0.5,5.5 L0.5,5.5 Z" fill="#86D0EA"></path>
                        </g>
                        <g transform="translate(25.000000, 18.000000)" id="Shape">
                            <path d="M0,1 L0,5" fill="#FFFFFF"></path>
                            <path d="M0.5,5.5 C0.2,5.5 0,5.3 0,5 L0,1 C0,0.7 0.2,0.5 0.5,0.5 C0.8,0.5 1,0.7 1,1 L1,5 C1,5.3 0.8,5.5 0.5,5.5 L0.5,5.5 Z" fill="#86D0EA"></path>
                        </g>
                        <g transform="translate(25.000000, 25.000000)" id="Shape">
                            <path d="M0,1 L0,5" fill="#FFFFFF"></path>
                            <path d="M0.5,5.5 C0.2,5.5 0,5.3 0,5 L0,1 C0,0.7 0.2,0.5 0.5,0.5 C0.8,0.5 1,0.7 1,1 L1,5 C1,5.3 0.8,5.5 0.5,5.5 L0.5,5.5 Z" fill="#86D0EA"></path>
                        </g>
                        <g transform="translate(25.000000, 32.000000)" id="Shape">
                            <path d="M0,1 L0,5" fill="#FFFFFF"></path>
                            <path d="M0.5,5.5 C0.2,5.5 0,5.3 0,5 L0,1 C0,0.7 0.2,0.5 0.5,0.5 C0.8,0.5 1,0.7 1,1 L1,5 C1,5.3 0.8,5.5 0.5,5.5 L0.5,5.5 Z" fill="#86D0EA"></path>
                        </g>
                        <g transform="translate(25.000000, 39.000000)" id="Shape">
                            <path d="M0,1 L0,5" fill="#FFFFFF"></path>
                            <path d="M0.5,5.5 C0.2,5.5 0,5.3 0,5 L0,1 C0,0.7 0.2,0.5 0.5,0.5 C0.8,0.5 1,0.7 1,1 L1,5 C1,5.3 0.8,5.5 0.5,5.5 L0.5,5.5 Z" fill="#86D0EA"></path>
                        </g>
                        <path d="M21.3,13 C26.1,13 30,16.9 30,21.7 L30,39.4 C30,44.2 26.1,48.1 21.3,48.1 L19.6,48.1 C14.8,48.1 10.9,44.2 10.9,39.4 L10.9,21.7 C10.9,16.9 14.8,13 19.6,13 L21.3,13 L21.3,13 Z M21.3,12 L19.6,12 C14.3,12 9.9,16.3 9.9,21.7 L9.9,39.4 C9.9,44.7 14.2,49.1 19.6,49.1 L21.3,49.1 C26.6,49.1 31,44.8 31,39.4 L31,21.7 C31,16.3 26.7,12 21.3,12 L21.3,12 L21.3,12 Z" id="Shape" fill="#1489C9"></path>
                    </g>
                    <g id="Group" transform="translate(289.000000, 141.000000)">
                        <path d="M10,28.5 C9.8,28.5 9.6,28.4 9.5,28.2 L0.5,1.2 C0.4,1 0.5,0.9 0.6,0.7 C0.7,0.6 0.8,0.5 1,0.5 L49,0.5 C49.2,0.5 49.3,0.6 49.4,0.7 C49.5,0.8 49.5,1 49.5,1.2 L40.5,28.2 C40.4,28.4 40.2,28.5 40,28.5 L10,28.5 L10,28.5 Z" id="Shape" fill="#FFFFFF"></path>
                        <path d="M49,1 L40,28 L10,28 L1,1 L49,1 L49,1 Z M49,0 L1,0 C0.7,0 0.4,0.2 0.2,0.4 C3.10862447e-15,0.7 3.10862447e-15,1 0.1,1.3 L9.1,28.3 C9.2,28.7 9.6,29 10,29 L40,29 C40.4,29 40.8,28.7 40.9,28.3 L49.9,1.3 C50,1 50,0.7 49.8,0.4 C49.6,0.2 49.3,0 49,0 L49,0 L49,0 Z" id="Shape" fill="#1489C9"></path>
                    </g>
                    <polygon id="Shape" fill="#E8F4FA" points="338 142 322 142 317 169 329 169"></polygon>
                    <g id="Group" transform="translate(113.000000, 74.000000)">
                        <g>
                            <rect id="Rectangle-path" fill="#FFFFFF" x="0.5" y="0.5" width="22" height="95"></rect>
                            <path d="M22,1 L22,95 L1,95 L1,1 L22,1 L22,1 Z M23,0 L0,0 L0,96 L23,96 L23,0 L23,0 L23,0 Z" id="Shape" fill="#1489C9"></path>
                        </g>
                        <g opacity="0.1" transform="translate(12.000000, 0.000000)" id="Shape" fill="#1489C9">
                            <path d="M10.9,96 L0,96 L0,0 L10.9,0 L11,0 L10.9,96 L10.9,96 L10.9,96 Z"></path>
                        </g>
                        <g transform="translate(1.000000, 10.000000)">
                            <path d="M0,1 L21,1" id="Shape" fill="#FFFFFF"></path>
                            <rect id="Rectangle-path" fill="#1489C9" x="0" y="0" width="21" height="1"></rect>
                        </g>
                        <g transform="translate(1.000000, 87.000000)">
                            <path d="M0,1 L21,1" id="Shape" fill="#FFFFFF"></path>
                            <rect id="Rectangle-path" fill="#1489C9" x="0" y="0" width="21" height="1"></rect>
                        </g>
                        <path d="M22,1 L22,95 L1,95 L1,1 L22,1 L22,1 Z M23,0 L0,0 L0,96 L23,96 L23,0 L23,0 L23,0 Z" id="Shape" fill="#1489C9"></path>
                    </g>
                    <g id="Group" transform="translate(71.000000, 76.000000)">
                        <g>
                            <rect id="Rectangle-path" fill="#FFFFFF" x="0.5" y="0.5" width="22" height="93"></rect>
                            <path d="M22,1 L22,93 L1,93 L1,1 L22,1 L22,1 Z M23,0 L0,0 L0,94 L23,94 L23,0 L23,0 L23,0 Z" id="Shape" fill="#1489C9"></path>
                        </g>
                        <g transform="translate(1.000000, 9.000000)">
                            <path d="M0,1 L21,1" id="Shape" fill="#FFFFFF"></path>
                            <rect id="Rectangle-path" fill="#1489C9" x="0" y="0" width="21" height="1"></rect>
                        </g>
                        <g transform="translate(1.000000, 28.000000)">
                            <path d="M0,1 L21,1" id="Shape" fill="#FFFFFF"></path>
                            <rect id="Rectangle-path" fill="#1489C9" x="0" y="0" width="21" height="1"></rect>
                        </g>
                        <g transform="translate(1.000000, 86.000000)">
                            <path d="M0,1 L21,1" id="Shape" fill="#FFFFFF"></path>
                            <rect id="Rectangle-path" fill="#1489C9" x="0" y="0" width="21" height="1"></rect>
                        </g>
                        <g opacity="0.1" transform="translate(12.000000, 0.000000)" id="Shape" fill="#1489C9">
                            <path d="M10.8,94 L0,94 L0,0 L10.8,0 C10.9,0 11,0.1 11,0.1 L11,93.9 C11,93.9 10.9,94 10.8,94 L10.8,94 Z"></path>
                        </g>
                        <path d="M22,1 L22,93 L1,93 L1,1 L22,1 L22,1 Z M23,0 L0,0 L0,94 L23,94 L23,0 L23,0 L23,0 Z" id="Shape" fill="#1489C9"></path>
                    </g>
                    <g id="Group" transform="translate(93.000000, 81.000000)">
                        <g>
                            <rect id="Rectangle-path" fill="#FFFFFF" x="0.5" y="0.5" width="20" height="88"></rect>
                            <path d="M20,1 L20,88 L1,88 L1,1 L20,1 L20,1 Z M21,0 L0,0 L0,89 L21,89 L21,0 L21,0 L21,0 Z" id="Shape" fill="#1489C9"></path>
                        </g>
                        <g transform="translate(1.000000, 32.000000)">
                            <path d="M0,1 L19,1" id="Shape" fill="#FFFFFF"></path>
                            <rect id="Rectangle-path" fill="#1489C9" x="0" y="0" width="19" height="1"></rect>
                        </g>
                        <g transform="translate(1.000000, 51.000000)">
                            <path d="M0,1 L19,1" id="Shape" fill="#FFFFFF"></path>
                            <rect id="Rectangle-path" fill="#1489C9" x="0" y="0" width="19" height="1"></rect>
                        </g>
                        <g transform="translate(5.000000, 8.000000)">
                            <circle id="Oval" fill="#FFFFFF" cx="5.5" cy="5.5" r="4.5"></circle>
                            <path d="M5.5,10.5 C2.7,10.5 0.5,8.3 0.5,5.5 C0.5,2.7 2.7,0.5 5.5,0.5 C8.3,0.5 10.5,2.7 10.5,5.5 C10.5,8.3 8.3,10.5 5.5,10.5 L5.5,10.5 Z M5.5,1.5 C3.3,1.5 1.5,3.3 1.5,5.5 C1.5,7.7 3.3,9.5 5.5,9.5 C7.7,9.5 9.5,7.7 9.5,5.5 C9.5,3.3 7.7,1.5 5.5,1.5 L5.5,1.5 Z" id="Shape" fill="#1489C9"></path>
                        </g>
                        <g opacity="0.1" transform="translate(11.000000, 0.000000)" id="Shape" fill="#1489C9">
                            <path d="M9.9,89 L0,89 L0,0 L9.9,0 C9.9,0 10,0 10,0.1 L9.9,89 L9.9,89 L9.9,89 Z"></path>
                        </g>
                        <path d="M20,1 L20,88 L1,88 L1,1 L20,1 L20,1 Z M21,0 L0,0 L0,89 L21,89 L21,0 L21,0 L21,0 Z" id="Shape" fill="#1489C9"></path>
                        <path d="M10.5,18.5 C7.7,18.5 5.5,16.3 5.5,13.5 C5.5,10.7 7.7,8.5 10.5,8.5 C13.3,8.5 15.5,10.7 15.5,13.5 C15.5,16.3 13.3,18.5 10.5,18.5 L10.5,18.5 Z M10.5,9.5 C8.3,9.5 6.5,11.3 6.5,13.5 C6.5,15.7 8.3,17.5 10.5,17.5 C12.7,17.5 14.5,15.7 14.5,13.5 C14.5,11.3 12.7,9.5 10.5,9.5 L10.5,9.5 Z" id="Shape" fill="#1489C9"></path>
                    </g>
                    <g id="Group" opacity="0.1" transform="translate(94.000000, 82.000000)" fill="#1489C9">
                        <rect id="Rectangle-path" x="0" y="0" width="19" height="31"></rect>
                    </g>
                    <g id="Group" transform="translate(185.000000, 89.000000)">
                        <g>
                            <rect id="Rectangle-path" fill="#FFFFFF" x="0.5" y="0.5" width="21" height="80"></rect>
                            <path d="M21,1 L21,80 L1,80 L1,1 L21,1 L21,1 Z M22,0 L0,0 L0,81 L22,81 L22,0 L22,0 L22,0 Z" id="Shape" fill="#1489C9"></path>
                        </g>
                        <g opacity="0.1" transform="translate(12.000000, 0.000000)" id="Rectangle-path" fill="#1489C9">
                            <rect x="0" y="0" width="10" height="81"></rect>
                        </g>
                        <path d="M21,1 L21,80 L1,80 L1,1 L21,1 L21,1 Z M22,0 L0,0 L0,81 L22,81 L22,0 L22,0 L22,0 Z" id="Shape" fill="#1489C9"></path>
                        <g transform="translate(7.000000, 10.000000)">
                            <rect id="Rectangle-path" fill="#FFFFFF" x="0.5" y="1" width="7" height="7"></rect>
                            <path d="M7,1.5 L7,7.5 L1,7.5 L1,1.5 L7,1.5 L7,1.5 Z M8,0.5 L0,0.5 L0,8.5 L8,8.5 L8,0.5 L8,0.5 L8,0.5 Z" id="Shape" fill="#1489C9"></path>
                        </g>
                        <g transform="translate(1.000000, 32.000000)">
                            <path d="M0,1 L20,1" id="Shape" fill="#FFFFFF"></path>
                            <rect id="Rectangle-path" fill="#1489C9" x="0" y="0" width="20" height="1"></rect>
                        </g>
                        <g transform="translate(1.000000, 41.000000)">
                            <path d="M0,1 L20,1" id="Shape" fill="#FFFFFF"></path>
                            <rect id="Rectangle-path" fill="#1489C9" x="0" y="0" width="20" height="1"></rect>
                        </g>
                    </g>
                    <path d="M338,142 L329,169 L299,169 L290,142 L338,142 L338,142 Z M338,141 L290,141 C289.7,141 289.4,141.2 289.2,141.4 C289,141.7 289,142 289.1,142.3 L298.1,169.3 C298.2,169.7 298.6,170 299,170 L329,170 C329.4,170 329.8,169.7 329.9,169.3 L338.9,142.3 C339,142 339,141.7 338.8,141.4 C338.6,141.2 338.3,141 338,141 L338,141 L338,141 Z" id="Shape" fill="#1489C9"></path>
                    <g id="Group" transform="translate(140.000000, 73.000000)">
                        <g>
                            <rect id="Rectangle-path" fill="#FFFFFF" transform="translate(24.495900, 49.000100) rotate(-73.906643) translate(-24.495900, -49.000100) " x="-22.0035532" y="38.0002294" width="92.9989063" height="21.9997413"></rect>
                            <path d="M27.2,1.9 L47.4,7.7 L21.9,96.1 L1.7,90.3 L27.2,1.9 L27.2,1.9 Z M26.5,0.7 L0.4,91 L22.5,97.4 L48.6,7.1 L26.5,0.7 L26.5,0.7 L26.5,0.7 Z" id="Shape" fill="#1489C9"></path>
                        </g>
                        <g opacity="0.1" transform="translate(3.000000, 28.000000)" id="Rectangle-path" fill="#1489C9">
                            <rect transform="translate(18.489050, 31.000250) rotate(-74.055391) translate(-18.489050, -31.000250) " x="-10.610111" y="20.1005643" width="58.1983221" height="21.7993715"></rect>
                        </g>
                        <g opacity="0.1" transform="translate(19.000000, 3.000000)" id="Shape" fill="#1489C9">
                            <path d="M0.6,93.5 L16,0.1 L26.7,3.2 C28.3,3.7 29.2,5.3 28.8,6.9 L4.4,91.5 C3.9,93 2.2,94 0.6,93.5 L0.6,93.5 Z"></path>
                        </g>
                        <g transform="translate(24.000000, 9.000000)">
                            <path d="M0.8,1.1 L21,6.9" id="Shape" fill="#FFFFFF"></path>
                            <rect id="Rectangle-path" fill="#1489C9" transform="translate(10.921480, 3.974180) rotate(-73.906643) translate(-10.921480, -3.974180) " x="10.4214859" y="-6.52569652" width="0.99998824" height="20.999753"></rect>
                        </g>
                        <g transform="translate(19.000000, 27.000000)">
                            <path d="M0.5,1.3 L20.7,7.1" id="Shape" fill="#FFFFFF"></path>
                            <rect id="Rectangle-path" fill="#1489C9" transform="translate(10.592280, 4.246160) rotate(-73.906643) translate(-10.592280, -4.246160) " x="10.0922859" y="-6.25371652" width="0.99998824" height="20.999753"></rect>
                        </g>
                        <g transform="translate(3.000000, 83.000000)">
                            <path d="M0.5,1 L20.6,6.9" id="Shape" fill="#FFFFFF"></path>
                            <rect id="Rectangle-path" fill="#1489C9" transform="translate(10.606020, 3.917420) rotate(-73.906643) translate(-10.606020, -3.917420) " x="10.1060259" y="-6.58245652" width="0.99998824" height="20.999753"></rect>
                        </g>
                        <path d="M27.2,1.9 L47.4,7.7 L21.9,96.1 L1.7,90.3 L27.2,1.9 L27.2,1.9 Z M26.5,0.7 L0.4,91 L22.5,97.4 L48.6,7.1 L26.5,0.7 L26.5,0.7 L26.5,0.7 Z" id="Shape" fill="#1489C9"></path>
                    </g>
                    <g id="Group" transform="translate(0.000000, 169.000000)">
                        <rect id="Rectangle-path" fill="#FFFFFF" x="0.5" y="0.5" width="355" height="7"></rect>
                        <path d="M355,1 L355,7 L1,7 L1,1 L355,1 L355,1 Z M356,0 L0,0 L0,8 L356,8 L356,0 L356,0 L356,0 Z" id="Shape" fill="#1489C9"></path>
                    </g>
                    <g id="Group" transform="translate(209.000000, 106.000000)">
                        <g>
                            <g id="Shape">
                                <path d="M11,21.5 C5.2,21.5 0.5,16.8 0.5,11 C0.5,5.2 5.2,0.5 11,0.5 L69.5,0.5 L69.5,21.5 L11,21.5 L11,21.5 Z" fill="#FFFFFF"></path>
                                <path d="M69,1 L69,21 L11,21 C5.5,21 1,16.5 1,11 C1,5.5 5.5,1 11,1 L69,1 L69,1 Z M70,0 L69,0 L11,0 C4.9,0 0,4.9 0,11 C0,17.1 4.9,22 11,22 L69,22 L70,22 L70,21 L70,1 L70,0 L70,0 L70,0 Z" fill="#1489C9"></path>
                            </g>
                            <rect id="Rectangle-path" fill="#1489C9" x="70" y="0" width="3" height="1"></rect>
                            <rect id="Rectangle-path" fill="#1489C9" x="70" y="21" width="3" height="1"></rect>
                            <path d="M65,5 L41,5 C40.7,5 40.5,4.8 40.5,4.5 C40.5,4.2 40.7,4 41,4 L65,4 C65.3,4 65.5,4.2 65.5,4.5 C65.5,4.8 65.3,5 65,5 L65,5 Z" id="Shape" fill="#86D0EA"></path>
                            <path d="M65,8 L49,8 C48.7,8 48.5,7.8 48.5,7.5 C48.5,7.2 48.7,7 49,7 L65,7 C65.3,7 65.5,7.2 65.5,7.5 C65.5,7.8 65.3,8 65,8 L65,8 Z" id="Shape" fill="#86D0EA"></path>
                            <path d="M25,8 L9,8 C8.7,8 8.5,7.8 8.5,7.5 C8.5,7.2 8.7,7 9,7 L25,7 C25.3,7 25.5,7.2 25.5,7.5 C25.5,7.8 25.3,8 25,8 L25,8 Z" id="Shape" fill="#86D0EA"></path>
                            <path d="M65,11 L57,11 C56.7,11 56.5,10.8 56.5,10.5 C56.5,10.2 56.7,10 57,10 L65,10 C65.3,10 65.5,10.2 65.5,10.5 C65.5,10.8 65.3,11 65,11 L65,11 Z" id="Shape" fill="#86D0EA"></path>
                            <g opacity="0.1" transform="translate(42.000000, 1.000000)" id="Shape" fill="#1489C9">
                                <polygon points="20.9 0 0.9 20 27 20 27 0"></polygon>
                            </g>
                        </g>
                        <g transform="translate(1.000000, 42.000000)">
                            <g transform="translate(3.000000, 0.000000)" id="Shape">
                                <path d="M0.5,21.5 L0.5,0.5 L59,0.5 C64.8,0.5 69.5,5.2 69.5,11 C69.5,16.8 64.8,21.5 59,21.5 L0.5,21.5 L0.5,21.5 Z" fill="#FFFFFF"></path>
                                <path d="M59,1 C64.5,1 69,5.5 69,11 C69,16.5 64.5,21 59,21 L1,21 L1,1 L59,1 L59,1 Z M59,0 L1,0 L0,0 L0,1 L0,21 L0,22 L1,22 L59,22 C65.1,22 70,17.1 70,11 C70,4.9 65.1,0 59,0 L59,0 L59,0 Z" fill="#1489C9"></path>
                            </g>
                            <rect id="Rectangle-path" fill="#1489C9" transform="translate(1.500000, 21.500000) rotate(180.000000) translate(-1.500000, -21.500000) " x="5.68434189e-14" y="21" width="3" height="1"></rect>
                            <rect id="Rectangle-path" fill="#1489C9" transform="translate(1.500000, 0.500000) rotate(180.000000) translate(-1.500000, -0.500000) " x="5.68434189e-14" y="-5.68434189e-14" width="3" height="1"></rect>
                            <path d="M32,18 L8,18 C7.7,18 7.5,17.8 7.5,17.5 C7.5,17.2 7.7,17 8,17 L32,17 C32.3,17 32.5,17.2 32.5,17.5 C32.5,17.8 32.3,18 32,18 L32,18 Z" id="Shape" fill="#86D0EA"></path>
                            <path d="M24,6 L8,6 C7.7,6 7.5,5.8 7.5,5.5 C7.5,5.2 7.7,5 8,5 L24,5 C24.3,5 24.5,5.2 24.5,5.5 C24.5,5.8 24.3,6 24,6 L24,6 Z" id="Shape" fill="#86D0EA"></path>
                            <path d="M64,15 L48,15 C47.7,15 47.5,14.8 47.5,14.5 C47.5,14.2 47.7,14 48,14 L64,14 C64.3,14 64.5,14.2 64.5,14.5 C64.5,14.8 64.3,15 64,15 L64,15 Z" id="Shape" fill="#86D0EA"></path>
                            <path d="M16,9 L8,9 C7.7,9 7.5,8.8 7.5,8.5 C7.5,8.2 7.7,8 8,8 L16,8 C16.3,8 16.5,8.2 16.5,8.5 C16.5,8.8 16.3,9 16,9 L16,9 Z" id="Shape" fill="#86D0EA"></path>
                            <g opacity="0.1" transform="translate(45.000000, 1.000000)" id="Shape" fill="#1489C9">
                                <path d="M20.1,0.5 L0.6,20 L17,20 C22.5,20 27,15.5 27,10 C27,5.6 24.1,1.8 20.1,0.5 L20.1,0.5 Z"></path>
                            </g>
                        </g>
                        <g transform="translate(5.000000, 21.000000)">
                            <g id="Shape">
                                <path d="M11,21.5 C5.2,21.5 0.5,16.8 0.5,11 C0.5,5.2 5.2,0.5 11,0.5 L69.5,0.5 L69.5,21.5 L11,21.5 L11,21.5 Z" fill="#FFFFFF"></path>
                                <path d="M69,1 L69,21 L11,21 C5.5,21 1,16.5 1,11 C1,5.5 5.5,1 11,1 L69,1 L69,1 Z M70,0 L69,0 L11,0 C4.9,0 0,4.9 0,11 C0,17.1 4.9,22 11,22 L69,22 L70,22 L70,21 L70,1 L70,0 L70,0 L70,0 Z" fill="#1489C9"></path>
                            </g>
                            <rect id="Rectangle-path" fill="#1489C9" x="70" y="0" width="3" height="1"></rect>
                            <rect id="Rectangle-path" fill="#1489C9" x="70" y="21" width="3" height="1"></rect>
                            <path d="M65,18 L41,18 C40.7,18 40.5,17.8 40.5,17.5 C40.5,17.2 40.7,17 41,17 L65,17 C65.3,17 65.5,17.2 65.5,17.5 C65.5,17.8 65.3,18 65,18 L65,18 Z" id="Shape" fill="#86D0EA"></path>
                            <path d="M65,8 L49,8 C48.7,8 48.5,7.8 48.5,7.5 C48.5,7.2 48.7,7 49,7 L65,7 C65.3,7 65.5,7.2 65.5,7.5 C65.5,7.8 65.3,8 65,8 L65,8 Z" id="Shape" fill="#86D0EA"></path>
                            <path d="M25,8 L9,8 C8.7,8 8.5,7.8 8.5,7.5 C8.5,7.2 8.7,7 9,7 L25,7 C25.3,7 25.5,7.2 25.5,7.5 C25.5,7.8 25.3,8 25,8 L25,8 Z" id="Shape" fill="#86D0EA"></path>
                            <path d="M65,15 L57,15 C56.7,15 56.5,14.8 56.5,14.5 C56.5,14.2 56.7,14 57,14 L65,14 C65.3,14 65.5,14.2 65.5,14.5 C65.5,14.8 65.3,15 65,15 L65,15 Z" id="Shape" fill="#86D0EA"></path>
                            <g opacity="0.1" transform="translate(44.000000, 1.000000)" id="Shape" fill="#1489C9">
                                <polygon points="0.4 20 25 20 25 0 20.4 0"></polygon>
                            </g>
                        </g>
                        <polygon id="Shape" fill="#1489C9" points="21 33 17 30 13 33 13 7 21 7"></polygon>
                    </g>
                    <g id="Group" opacity="0.1" transform="translate(65.000000, 116.000000)" fill="#1489C9">
                        <path d="M5.6,0 C3.5,0 1.6,0.7 0,1.9 L0,53 L6,53 L6,44.1 L6,32.6 L6,21.1 L6,0 L5.6,0 L5.6,0 Z" id="Shape"></path>
                    </g>
                    <g id="Group" opacity="0.1" transform="translate(72.000000, 77.000000)" fill="#1489C9">
                        <rect id="Rectangle-path" x="0" y="0" width="21" height="8"></rect>
                    </g>
                    <g id="Group" opacity="0.1" transform="translate(72.000000, 105.000000)" fill="#1489C9">
                        <rect id="Rectangle-path" x="0" y="0" width="21" height="57"></rect>
                    </g>
                    <g id="Group" opacity="0.1" transform="translate(94.000000, 133.000000)" fill="#1489C9">
                        <rect id="Rectangle-path" x="0" y="0" width="19" height="36"></rect>
                    </g>
                    <g id="Group" opacity="0.1" transform="translate(114.000000, 85.000000)" fill="#1489C9">
                        <rect id="Rectangle-path" x="0" y="0" width="21" height="76"></rect>
                    </g>
                    <g id="Group" opacity="0.1" transform="translate(186.000000, 131.000000)" fill="#1489C9">
                        <rect id="Rectangle-path" x="0" y="0" width="20" height="38"></rect>
                    </g>
                    <g id="Group" opacity="0.1" transform="translate(186.000000, 90.000000)" fill="#1489C9">
                        <rect id="Rectangle-path" x="0" y="0" width="20" height="31"></rect>
                    </g>
                    <g id="Group" opacity="0.1" transform="translate(164.000000, 74.000000)" fill="#1489C9">
                        <polygon id="Shape" points="21 15 0 9 3 0 24 6"></polygon>
                    </g>
                    <path d="M82.5,132 L82.5,132 C82.2,132 82,131.8 82,131.5 L82,108.5 C82,108.2 82.2,108 82.5,108 L82.5,108 C82.8,108 83,108.2 83,108.5 L83,131.5 C83,131.8 82.8,132 82.5,132 L82.5,132 Z" id="Shape" fill="#86D0EA"></path>
                    <path d="M82.5,141 L82.5,141 C82.2,141 82,140.8 82,140.5 L82,134.5 C82,134.2 82.2,134 82.5,134 L82.5,134 C82.8,134 83,134.2 83,134.5 L83,140.5 C83,140.8 82.8,141 82.5,141 L82.5,141 Z" id="Shape" fill="#86D0EA"></path>
                    <path d="M103.5,160 L103.5,160 C103.2,160 103,159.8 103,159.5 L103,150.5 C103,150.2 103.2,150 103.5,150 L103.5,150 C103.8,150 104,150.2 104,150.5 L104,159.5 C104,159.8 103.8,160 103.5,160 L103.5,160 Z" id="Shape" fill="#86D0EA"></path>
                    <path d="M103.5,165 L103.5,165 C103.2,165 103,164.8 103,164.5 L103,162.5 C103,162.2 103.2,162 103.5,162 L103.5,162 C103.8,162 104,162.2 104,162.5 L104,164.5 C104,164.8 103.8,165 103.5,165 L103.5,165 Z" id="Shape" fill="#86D0EA"></path>
                    <path d="M196.5,137 L196.5,137 C196.2,137 196,136.8 196,136.5 L196,134.5 C196,134.2 196.2,134 196.5,134 L196.5,134 C196.8,134 197,134.2 197,134.5 L197,136.5 C197,136.8 196.8,137 196.5,137 L196.5,137 Z" id="Shape" fill="#86D0EA"></path>
                    <path d="M196.5,148 L196.5,148 C196.2,148 196,147.8 196,147.5 L196,139.5 C196,139.2 196.2,139 196.5,139 L196.5,139 C196.8,139 197,139.2 197,139.5 L197,147.5 C197,147.8 196.8,148 196.5,148 L196.5,148 Z" id="Shape" fill="#86D0EA"></path>
                    <path d="M103.5,108 L103.5,108 C103.2,108 103,107.8 103,107.5 L103,102.5 C103,102.2 103.2,102 103.5,102 L103.5,102 C103.8,102 104,102.2 104,102.5 L104,107.5 C104,107.8 103.8,108 103.5,108 L103.5,108 Z" id="Shape" fill="#86D0EA"></path>
                    <path d="M124.5,99 L124.5,99 C124.2,99 124,98.8 124,98.5 L124,89.5 C124,89.2 124.2,89 124.5,89 L124.5,89 C124.8,89 125,89.2 125,89.5 L125,98.5 C125,98.8 124.8,99 124.5,99 L124.5,99 Z" id="Shape" fill="#86D0EA"></path>
                    <path d="M124.5,157 L124.5,157 C124.2,157 124,156.8 124,156.5 L124,145.5 C124,145.2 124.2,145 124.5,145 L124.5,145 C124.8,145 125,145.2 125,145.5 L125,156.5 C125,156.8 124.8,157 124.5,157 L124.5,157 Z" id="Shape" fill="#86D0EA"></path>
                    <g id="Group" opacity="0.1" transform="translate(51.000000, 149.000000)" fill="#1489C9">
                        <polygon id="Shape" points="0.9 20 3.2 20 11.1 20 20 20 20 11.1 20 0.9"></polygon>
                    </g>
                </g>
            </g>
        </g>
    </g>
</svg>