<?xml version="1.0" encoding="UTF-8" standalone="no"?>
<svg width="305px" height="262px" viewBox="0 0 305 262" version="1.1" xmlns="http://www.w3.org/2000/svg" xmlns:xlink="http://www.w3.org/1999/xlink">
    <!-- Generator: Sketch 40.3 (33839) - http://www.bohemiancoding.com/sketch -->
    <title>ill-framework</title>
    <desc>Created with Sketch.</desc>
    <defs></defs>
    <g id="Home" stroke="none" stroke-width="1" fill="none" fill-rule="evenodd">
        <g id="ill-framework" transform="translate(-111.000000, -118.000000)">
            <g id="Library-Framework" transform="translate(111.000000, 118.000000)">
                <g id="Group" opacity="0.1" transform="translate(9.000000, 2.000000)" fill-opacity="0.5" fill="#1489C9">
                    <circle id="Oval" cx="130" cy="130" r="130"></circle>
                </g>
                <g id="Group" transform="translate(60.000000, 0.000000)">
                    <g transform="translate(0.000000, 11.000000)" id="Shape">
                        <path d="M0.5,57.5 L0.5,51 C0.5,23.2 23.4,0.5 51.5,0.5 C79.6,0.5 102.5,23.2 102.5,51 L102.5,57.5 L0.5,57.5 L0.5,57.5 Z M85.2,41.5 C80.9,26.7 67.2,16.5 51.5,16.5 C35.8,16.5 22.1,26.7 17.8,41.5 L85.2,41.5 L85.2,41.5 Z" fill="#FFFFFF"></path>
                        <path d="M51.5,1 C79.4,1 102,23.4 102,51 L102,57 L1,57 L1,51 C1,23.4 23.6,1 51.5,1 L51.5,1 Z M17.2,42 L85.8,42 C81.8,27 67.9,16 51.5,16 C35.1,16 21.2,27 17.2,42 L17.2,42 Z M51.5,0 C23.1,0 0,22.9 0,51 L0,57 L0,58 L1,58 L102,58 L103,58 L103,57 L103,51 C103,22.9 79.9,0 51.5,0 L51.5,0 L51.5,0 Z M18.5,41 C22.9,26.8 36.3,17 51.5,17 C66.7,17 80,26.8 84.5,41 L18.5,41 L18.5,41 L18.5,41 Z" fill="#1489C9"></path>
                    </g>
                    <rect id="Rectangle-path" fill="#1489C9" x="1" y="61" width="4" height="1"></rect>
                    <rect id="Rectangle-path" fill="#1489C9" transform="translate(51.500000, 14.000000) rotate(90.000000) translate(-51.500000, -14.000000) " x="49.5" y="13.5" width="4" height="1"></rect>
                    <rect id="Rectangle-path" fill="#86D0EA" transform="translate(32.698750, 17.749350) rotate(66.421475) translate(-32.698750, -17.749350) " x="30.6987778" y="17.2493569" width="3.9999445" height="0.999986125"></rect>
                    <rect id="Rectangle-path" fill="#86D0EA" transform="translate(7.000240, 42.808120) rotate(21.420500) translate(-7.000240, -42.808120) " x="5.00029415" y="42.3081335" width="3.9998917" height="0.999972925"></rect>
                    <rect id="Rectangle-path" fill="#86D0EA" transform="translate(68.963890, 16.707970) rotate(111.420500) translate(-68.963890, -16.707970) " x="66.9639442" y="16.2079835" width="3.9998917" height="0.999972925"></rect>
                    <rect id="Rectangle-path" fill="#86D0EA" transform="translate(95.924100, 41.235550) rotate(156.421475) translate(-95.924100, -41.235550) " x="93.9241278" y="40.7355569" width="3.9999445" height="0.999986125"></rect>
                    <rect id="Rectangle-path" fill="#1489C9" x="98" y="61" width="4" height="1"></rect>
                    <rect id="Rectangle-path" fill="#1489C9" transform="translate(17.749650, 27.318410) rotate(45.000000) translate(-17.749650, -27.318410) " x="15.7496692" y="26.8184148" width="3.99996164" height="0.99999041"></rect>
                    <rect id="Rectangle-path" fill="#1489C9" transform="translate(85.493520, 27.436800) rotate(135.000000) translate(-85.493520, -27.436800) " x="83.4935392" y="26.9368048" width="3.99996164" height="0.99999041"></rect>
                    <path d="M51.5,12 C79.4,12 102,34.4 102,62 L102,68 L1,68 L1,62 C1,34.4 23.6,12 51.5,12 L51.5,12 Z M17.2,53 L85.8,53 C81.8,38 67.9,27 51.5,27 C35.1,27 21.2,38 17.2,53 L17.2,53 Z M51.5,11 C23.1,11 0,33.9 0,62 L0,68 L0,69 L1,69 L102,69 L103,69 L103,68 L103,62 C103,33.9 79.9,11 51.5,11 L51.5,11 L51.5,11 Z M18.5,52 C22.9,37.8 36.3,28 51.5,28 C66.7,28 80,37.8 84.5,52 L18.5,52 L18.5,52 L18.5,52 Z" id="Shape" fill="#1489C9"></path>
                    <circle id="Oval" fill="#86D0EA" cx="4" cy="51" r="1"></circle>
                    <circle id="Oval" fill="#86D0EA" cx="12" cy="34" r="1"></circle>
                    <circle id="Oval" fill="#86D0EA" cx="25" cy="22" r="1"></circle>
                    <circle id="Oval" fill="#86D0EA" cx="42" cy="15" r="1"></circle>
                    <circle id="Oval" fill="#86D0EA" cx="61" cy="15" r="1"></circle>
                    <circle id="Oval" fill="#86D0EA" cx="78" cy="22" r="1"></circle>
                    <circle id="Oval" fill="#86D0EA" cx="91" cy="34" r="1"></circle>
                    <circle id="Oval" fill="#86D0EA" cx="99" cy="51" r="1"></circle>
                    <g opacity="0.75" transform="translate(46.000000, 1.000000)" id="Shape" fill="#FFFFFF">
                        <g>
                            <path d="M11,11 C11,4.9 6.1,0 0,0 L0,11 L0,61 L0,61 L0,61.5 C0,64.5 2.5,67 5.5,67 C8.5,67 11,64.5 11,61.5 L11,61 L11,61 L11,11 L11,11 Z"></path>
                        </g>
                    </g>
                    <path d="M46,1 C52.1,1 57,5.9 57,12 L57,62 L57,62 L57,62.5 C57,65.5 54.5,68 51.5,68 C48.5,68 46,65.5 46,62.5 L46,62 L46,62 L46,12 L46,1 L46,1 Z M46,0 L45,0 L45,1 L45,12 L45,62 L45,63 L45,63 C45.3,66.4 48.1,69 51.5,69 C55.1,69 58,66.1 58,62.5 L58,62.2 L58,62 L58,12 C58,5.4 52.6,0 46,0 L46,0 L46,0 Z" id="Shape" fill="#1489C9"></path>
                    <g transform="translate(48.000000, 58.000000)">
                        <circle id="Oval" fill="#FFFFFF" cx="3.5" cy="3.5" r="3"></circle>
                        <path d="M3.5,1 C4.9,1 6,2.1 6,3.5 C6,4.9 4.9,6 3.5,6 C2.1,6 1,4.9 1,3.5 C1,2.1 2.1,1 3.5,1 L3.5,1 Z M3.5,0 C1.6,0 0,1.6 0,3.5 C0,5.4 1.6,7 3.5,7 C5.4,7 7,5.4 7,3.5 C7,1.6 5.4,0 3.5,0 L3.5,0 L3.5,0 Z" id="Shape" fill="#1489C9"></path>
                    </g>
                    <g opacity="0.1" transform="translate(58.000000, 22.000000)" id="Shape" fill="#1489C9">
                        <path d="M24.8,0.8 C24.3,6.8 23,12.5 21,17.9 C24.1,21.7 26.5,26.1 27.8,31 L14.3,31 C10.5,36.7 5.9,41.8 0.6,46 L44,46 L44,40 C44,24.1 36.5,9.9 24.8,0.8 L24.8,0.8 Z"></path>
                    </g>
                </g>
                <g id="Group" transform="translate(25.000000, 214.000000)">
                    <g>
                        <rect id="Rectangle-path" fill="#FFFFFF" x="0.5" y="0.5" width="144" height="21"></rect>
                        <path d="M144,1 L144,21 L1,21 L1,1 L144,1 L144,1 Z M145,0 L144,0 L1,0 L0,0 L0,1 L0,21 L0,22 L1,22 L144,22 L145,22 L145,21 L145,1 L145,0 L145,0 L145,0 Z" id="Shape" fill="#1489C9"></path>
                    </g>
                    <g opacity="0.1" transform="translate(60.000000, 1.000000)" id="Shape" fill="#1489C9">
                        <polygon points="84 20 0 20 37 0 84 0"></polygon>
                    </g>
                    <rect id="Rectangle-path" fill="#1489C9" x="6" y="1" width="1" height="5"></rect>
                    <rect id="Rectangle-path" fill="#86D0EA" x="12" y="1" width="1" height="3"></rect>
                    <rect id="Rectangle-path" fill="#86D0EA" x="24" y="1" width="1" height="3"></rect>
                    <rect id="Rectangle-path" fill="#86D0EA" x="36" y="1" width="1" height="3"></rect>
                    <rect id="Rectangle-path" fill="#86D0EA" x="48" y="1" width="1" height="3"></rect>
                    <rect id="Rectangle-path" fill="#86D0EA" x="60" y="1" width="1" height="3"></rect>
                    <rect id="Rectangle-path" fill="#86D0EA" x="72" y="1" width="1" height="3"></rect>
                    <rect id="Rectangle-path" fill="#86D0EA" x="84" y="1" width="1" height="3"></rect>
                    <rect id="Rectangle-path" fill="#86D0EA" x="96" y="1" width="1" height="3"></rect>
                    <rect id="Rectangle-path" fill="#86D0EA" x="108" y="1" width="1" height="3"></rect>
                    <rect id="Rectangle-path" fill="#86D0EA" x="120" y="1" width="1" height="3"></rect>
                    <rect id="Rectangle-path" fill="#86D0EA" x="132" y="1" width="1" height="3"></rect>
                    <rect id="Rectangle-path" fill="#1489C9" x="18" y="1" width="1" height="5"></rect>
                    <rect id="Rectangle-path" fill="#1489C9" x="30" y="1" width="1" height="5"></rect>
                    <rect id="Rectangle-path" fill="#1489C9" x="42" y="1" width="1" height="5"></rect>
                    <rect id="Rectangle-path" fill="#1489C9" x="54" y="1" width="1" height="5"></rect>
                    <rect id="Rectangle-path" fill="#1489C9" x="66" y="1" width="1" height="5"></rect>
                    <rect id="Rectangle-path" fill="#1489C9" x="78" y="1" width="1" height="5"></rect>
                    <rect id="Rectangle-path" fill="#1489C9" x="90" y="1" width="1" height="5"></rect>
                    <rect id="Rectangle-path" fill="#1489C9" x="102" y="1" width="1" height="5"></rect>
                    <rect id="Rectangle-path" fill="#1489C9" x="114" y="1" width="1" height="5"></rect>
                    <rect id="Rectangle-path" fill="#1489C9" x="126" y="1" width="1" height="5"></rect>
                    <rect id="Rectangle-path" fill="#1489C9" x="138" y="1" width="1" height="5"></rect>
                    <g transform="translate(125.000000, 12.000000)" id="Rectangle-path" fill="#1489C9">
                        <rect x="0" y="0" width="1" height="5"></rect>
                        <rect x="2" y="0" width="1" height="5"></rect>
                    </g>
                    <polygon id="Shape" fill="#1489C9" points="77 12 77 13 79 13 79 17 80 17 80 13 80 12"></polygon>
                    <polygon id="Shape" fill="#1489C9" points="43 12 43 14 42 14 42 12 41 12 41 15 42.1 15 43 15 43 17 44 17 44 12"></polygon>
                    <polygon id="Shape" fill="#1489C9" points="30 12 30 13 31 13 31 14 30 14 30 15 31 15 31 16 30 16 30 17 30.6 17 32 17 32 13 32 12"></polygon>
                    <rect id="Rectangle-path" fill="#1489C9" x="6" y="12" width="1" height="5"></rect>
                    <polygon id="Shape" fill="#1489C9" points="18.5 12 18 12 18 13 19 13 19 14 18 14 18 15 18 16 18 17 18.5 17 20 17 20 16 19 16 19 15 20 15 20 14 20 13 20 12"></polygon>
                    <g transform="translate(137.000000, 12.000000)" fill="#1489C9">
                        <rect id="Rectangle-path" x="0" y="0" width="1" height="5"></rect>
                        <polygon id="Shape" points="3 0 2 0 2 1 3 1 3 2 2 2 2 3 2 4 2 5 3 5 4 5 4 4 3 4 3 3 4 3 4 2 4 1 4 0"></polygon>
                    </g>
                    <polygon id="Shape" fill="#1489C9" points="56 13 56 12 54.7 12 54 12 54 13 54 14 54 15 55 15 55 16 54 16 54 17 54.7 17 56 17 56 16 56 15 56 14 55 14 55 13"></polygon>
                    <g transform="translate(89.000000, 12.000000)">
                        <rect id="Rectangle-path" x="1.3" y="1" width="1" height="1"></rect>
                        <rect id="Rectangle-path" x="1.3" y="3" width="1" height="1"></rect>
                        <path d="M0,0 L0,1 L0,2 L0,3 L0,4 L0,5 L3,5 L3,4 L3,3 L3,2 L3,1 L3,0 L0,0 L0,0 Z M2.3,4 L1.3,4 L1.3,3 L2.3,3 L2.3,4 L2.3,4 Z M2.3,2 L1.3,2 L1.3,1 L2.3,1 L2.3,2 L2.3,2 Z" id="Shape" fill="#1489C9"></path>
                    </g>
                    <g transform="translate(101.000000, 12.000000)">
                        <rect id="Rectangle-path" x="1.4" y="1" width="1" height="1"></rect>
                        <path d="M0,0 L0,1 L0,2 L0,3 L2,3 L2,4 L0,4 L0,5 L3,5 L3,4 L3,3 L3,2 L3,1 L3,0 L0,0 L0,0 Z M2.4,2 L1.4,2 L1.4,1 L2.4,1 L2.4,2 L2.4,2 Z" id="Shape" fill="#1489C9"></path>
                    </g>
                    <g transform="translate(112.000000, 12.000000)">
                        <polygon id="Shape" points="3 2 3 3 3 4 4 4 4 3 4 2 4 1 3 1"></polygon>
                        <rect id="Rectangle-path" fill="#1489C9" x="0" y="0" width="1" height="5"></rect>
                        <path d="M2,0 L2,1 L2,2 L2,3 L2,4 L2,5 L5,5 L5,4 L5,3 L5,2 L5,1 L5,0 L2,0 L2,0 Z M4,2 L4,3 L4,4 L3,4 L3,3 L3,2 L3,1 L4,1 L4,2 L4,2 Z" id="Shape" fill="#1489C9"></path>
                    </g>
                    <g transform="translate(65.000000, 12.000000)">
                        <rect id="Rectangle-path" x="1.2" y="3" width="1" height="1"></rect>
                        <path d="M2.2,1 L3,1 L3,0 L2.2,0 L1.2,0 L0,0 L0,1 L0,2 L0,3 L0,4 L0,5 L1.2,5 L2.2,5 L3,5 L3,4 L3,3 L3,2 L2.2,2 L1,2 L1,1 L2.2,1 L2.2,1 Z M2.2,3 L2.2,4 L1.2,4 L1.2,3 L2.2,3 L2.2,3 Z" id="Shape" fill="#1489C9"></path>
                    </g>
                    <path d="M144,1 L144,21 L1,21 L1,1 L144,1 L144,1 Z M145,0 L144,0 L1,0 L0,0 L0,1 L0,21 L0,22 L1,22 L144,22 L145,22 L145,21 L145,1 L145,0 L145,0 L145,0 Z" id="Shape" fill="#1489C9"></path>
                </g>
                <g id="Group" transform="translate(0.000000, 113.000000)">
                    <g transform="translate(1.000000, 27.000000)" id="Shape">
                        <polygon fill="#FFFFFF" points="0.5 42.1 0.5 0.5 5.5 0.5 5.5 42.1 3 49.6"></polygon>
                        <path d="M5,1 L5,42 L3,48 L1,42 L1,1 L5,1 L5,1 Z M6,0 L5,0 L1,0 L0,0 L0,1 L0,42 L0,42.2 L0.1,42.4 L2.1,48.4 L3,51.2 L3.9,48.4 L5.9,42.4 L6,42.2 L6,42 L6,1 L6,0 L6,0 L6,0 Z" fill="#1489C9"></path>
                    </g>
                    <g transform="translate(1.000000, 27.000000)">
                        <rect id="Rectangle-path" fill="#FFFFFF" x="0.5" y="0.5" width="5" height="41"></rect>
                        <path d="M5,1 L5,41 L1,41 L1,1 L5,1 L5,1 Z M6,0 L5,0 L1,0 L0,0 L0,1 L0,41 L0,42 L1,42 L5,42 L6,42 L6,41 L6,1 L6,0 L6,0 L6,0 Z" id="Shape" fill="#1489C9"></path>
                    </g>
                    <g opacity="0.1" transform="translate(4.000000, 28.000000)" id="Rectangle-path" fill="#1489C9">
                        <rect x="0" y="0" width="2" height="40"></rect>
                    </g>
                    <g transform="translate(21.000000, 13.000000)">
                        <rect id="Rectangle-path" fill="#1489C9" transform="translate(23.786260, 59.823360) rotate(-19.998771) translate(-23.786260, -59.823360) " x="23.28626" y="57.8233599" width="1.00000004" height="4.00000018"></rect>
                        <g>
                            <rect id="Rectangle-path" fill="#FFFFFF" transform="translate(12.900650, 29.795850) rotate(-19.993387) translate(-12.900650, -29.795850) " x="10.9007183" y="0.296857442" width="3.9998634" height="58.9979851"></rect>
                            <path d="M4.4,2 L24.2,56.5 L21.4,57.5 L1.6,3 L4.4,2 L4.4,2 Z M5,0.7 L4.1,1 L1.3,2 L0.4,2.3 L0.7,3.2 L20.5,57.7 L20.8,58.6 L21.7,58.3 L24.5,57.3 L25.4,57 L25.1,56.1 L5.3,1.6 L5,0.7 L5,0.7 L5,0.7 Z" id="Shape" fill="#1489C9"></path>
                        </g>
                    </g>
                    <g opacity="0.1" transform="translate(22.000000, 15.000000)" fill="#1489C9">
                        <g transform="translate(21.000000, 55.000000)" id="Rectangle-path">
                            <rect transform="translate(1.786260, 2.823360) rotate(-19.998771) translate(-1.786260, -2.823360) " x="1.28625998" y="0.82335991" width="1.00000004" height="4.00000018"></rect>
                        </g>
                        <g id="Shape">
                            <polygon points="3.4 0 0.6 1 8.9 24 8.1 13"></polygon>
                        </g>
                    </g>
                    <path d="M25.4,15 L45.2,69.5 L42.4,70.5 L22.6,16 L25.4,15 L25.4,15 Z M26,13.7 L25.1,14 L22.3,15 L21.4,15.3 L21.7,16.2 L41.5,70.7 L41.8,71.6 L42.7,71.3 L45.5,70.3 L46.4,70 L46.1,69.1 L26.3,14.6 L26,13.7 L26,13.7 L26,13.7 Z" id="Shape" fill="#1489C9"></path>
                    <g transform="translate(21.000000, 0.000000)">
                        <rect id="Rectangle-path" fill="#86D0EA" x="0.5" y="0.5" width="2" height="6"></rect>
                        <path d="M2,1 L2,6 L1,6 L1,1 L2,1 L2,1 Z M3,0 L2,0 L1,0 L0,0 L0,1 L0,6 L0,7 L1,7 L2,7 L3,7 L3,6 L3,1 L3,0 L3,0 L3,0 Z" id="Shape" fill="#1489C9"></path>
                    </g>
                    <g transform="translate(0.000000, 13.000000)" id="Shape">
                        <polygon fill="#FFFFFF" points="0 41 0 36 6.5 36 18.9 1.6 22.6 3.1 8.3 41"></polygon>
                        <path d="M19.2,2 L22,3 L8,40 L1,40 L1,36 L6.8,36 L19.2,2 L19.2,2 Z M18.6,0.7 L18.3,1.6 L6.1,35 L1,35 L0,35 L0,36 L0,40 L0,41 L1,41 L8,41 L8.7,41 L8.9,40.4 L22.9,3.4 L23.3,2.5 L22.3,2.2 L19.5,1.2 L18.6,0.7 L18.6,0.7 L18.6,0.7 Z" fill="#1489C9"></path>
                    </g>
                    <g opacity="0.1" transform="translate(15.000000, 15.000000)" id="Shape" fill="#1489C9">
                        <polygon points="7 1 4.2 0 0.9 9 1.9 15"></polygon>
                    </g>
                    <g transform="translate(13.000000, 5.000000)" id="Shape">
                        <path d="M7.7,17 L1.6,6.1 C1.3,5.6 1.3,4.9 1.6,4.3 C2.5,2.6 6.1,0.6 9.5,0.6 C12.9,0.6 16.4,2.5 17.4,4.2 C17.7,4.8 17.7,5.6 17.4,6.1 L11.3,17 L7.7,17 L7.7,17 Z" fill="#FFFFFF"></path>
                        <path d="M9.5,1 C13.6,1 18,4 17,5.6 L11,16 L8,16 L2,5.6 C1,4 5.4,1 9.5,1 L9.5,1 Z M9.5,0 C5.8,0 2.2,2.1 1.2,3.9 C0.6,4.9 0.9,5.7 1.2,6.1 L7.2,16.5 L7.5,17 L8.1,17 L11.1,17 L11.7,17 L12,16.5 L18,6.1 C18.2,5.8 18.5,5 18,3.9 C16.8,2.1 13.2,0 9.5,0 L9.5,0 L9.5,0 Z" fill="#1489C9"></path>
                    </g>
                    <g opacity="0.1" transform="translate(19.000000, 6.000000)" id="Shape" fill="#1489C9">
                        <g>
                            <path d="M7,0.6 L7,1 C7,5.8 4.4,10 0.4,12.3 L2,15 L5,15 L11,4.6 C11.7,3.4 9.7,1.6 7,0.6 L7,0.6 Z"></path>
                        </g>
                    </g>
                    <circle id="Oval" fill="#86D0EA" cx="20" cy="12" r="1"></circle>
                    <circle id="Oval" fill="#86D0EA" cx="25" cy="12" r="1"></circle>
                    <path d="M22.5,6 C26.6,6 31,9 30,10.6 L24,21 L21,21 L15,10.6 C14,9 18.4,6 22.5,6 L22.5,6 Z M22.5,5 C18.8,5 15.2,7.1 14.2,8.9 C13.6,9.9 13.9,10.7 14.2,11.1 L20.2,21.5 L20.5,22 L21.1,22 L24.1,22 L24.7,22 L25,21.5 L31,11.1 C31.2,10.8 31.5,10 31,8.9 C29.8,7.1 26.2,5 22.5,5 L22.5,5 L22.5,5 Z" id="Shape" fill="#1489C9"></path>
                    <polygon id="Shape" fill="#1489C9" points="3 73 6 71 4 76.5"></polygon>
                    <g transform="translate(4.000000, 29.000000)" id="Shape">
                        <path d="M0,1 L0,17" fill="#FFFFFF"></path>
                        <path d="M0.5,17.5 C0.2,17.5 0,17.3 0,17 L0,1 C0,0.7 0.2,0.5 0.5,0.5 C0.8,0.5 1,0.7 1,1 L1,17 C1,17.3 0.8,17.5 0.5,17.5 L0.5,17.5 Z" fill="#86D0EA"></path>
                    </g>
                    <g transform="translate(4.000000, 55.000000)" id="Shape">
                        <path d="M0,1 L0,11" fill="#FFFFFF"></path>
                        <path d="M0.5,11.5 C0.2,11.5 0,11.3 0,11 L0,1 C0,0.7 0.2,0.5 0.5,0.5 C0.8,0.5 1,0.7 1,1 L1,11 C1,11.3 0.8,11.5 0.5,11.5 L0.5,11.5 Z" fill="#86D0EA"></path>
                    </g>
                </g>
                <g id="Group" transform="translate(213.000000, 112.000000)">
                    <g id="Shape">
                        <path d="M0.5,91.5 L0.5,1.8 L90.2,91.5 L0.5,91.5 L0.5,91.5 Z M51.6,75.5 L16.5,40.4 L16.5,75.5 L51.6,75.5 L51.6,75.5 Z" fill="#FFFFFF"></path>
                        <path d="M1,3 L89,91 L1,91 L1,3 L1,3 Z M16,76 L52.8,76 L16,39.2 L16,76 L16,76 Z M0,0.6 L0,3 L0,91 L0,92 L1,92 L89,92 L91.4,92 L89.7,90.3 L1.7,2.3 L0,0.6 L0,0.6 L0,0.6 Z M17,75 L17,41.6 L50.4,75 L17,75 L17,75 L17,75 Z" fill="#1489C9"></path>
                    </g>
                    <g opacity="0.1" transform="translate(18.000000, 45.000000)" id="Shape" fill="#1489C9">
                        <path d="M25.7,0.7 C25.2,6.7 23.8,12.5 21.7,17.9 L34.7,30.9 L14.8,30.9 C10.9,36.6 6.1,41.7 0.5,45.9 L71,45.9 L25.7,0.7 L25.7,0.7 Z"></path>
                    </g>
                    <path d="M1,3 L89,91 L1,91 L1,3 L1,3 Z M16,76 L52.8,76 L16,39.2 L16,76 L16,76 Z M0,0.6 L0,3 L0,91 L0,92 L1,92 L89,92 L91.4,92 L89.7,90.3 L1.7,2.3 L0,0.6 L0,0.6 L0,0.6 Z M17,75 L17,41.6 L50.4,75 L17,75 L17,75 L17,75 Z" id="Shape" fill="#1489C9"></path>
                    <g transform="translate(6.000000, 86.000000)" id="Rectangle-path">
                        <rect fill="#86D0EA" transform="translate(66.500000, 3.500000) rotate(180.000000) translate(-66.500000, -3.500000) " x="66" y="2" width="1" height="3"></rect>
                        <rect fill="#86D0EA" transform="translate(54.500000, 3.500000) rotate(180.000000) translate(-54.500000, -3.500000) " x="54" y="2" width="1" height="3"></rect>
                        <rect fill="#86D0EA" transform="translate(42.500000, 3.500000) rotate(180.000000) translate(-42.500000, -3.500000) " x="42" y="2" width="1" height="3"></rect>
                        <rect fill="#86D0EA" transform="translate(30.500000, 3.500000) rotate(180.000000) translate(-30.500000, -3.500000) " x="30" y="2" width="1" height="3"></rect>
                        <rect fill="#86D0EA" transform="translate(18.500000, 3.500000) rotate(180.000000) translate(-18.500000, -3.500000) " x="18" y="2" width="1" height="3"></rect>
                        <rect fill="#86D0EA" transform="translate(6.500000, 3.500000) rotate(180.000000) translate(-6.500000, -3.500000) " x="6" y="2" width="1" height="3"></rect>
                        <rect fill="#1489C9" transform="translate(72.500000, 2.500000) rotate(180.000000) translate(-72.500000, -2.500000) " x="72" y="-5.68434189e-14" width="1" height="5"></rect>
                        <rect fill="#1489C9" transform="translate(60.500000, 2.500000) rotate(180.000000) translate(-60.500000, -2.500000) " x="60" y="-5.68434189e-14" width="1" height="5"></rect>
                        <rect fill="#1489C9" transform="translate(48.500000, 2.500000) rotate(180.000000) translate(-48.500000, -2.500000) " x="48" y="-5.68434189e-14" width="1" height="5"></rect>
                        <rect fill="#1489C9" transform="translate(36.500000, 2.500000) rotate(180.000000) translate(-36.500000, -2.500000) " x="36" y="-5.68434189e-14" width="1" height="5"></rect>
                        <rect fill="#1489C9" transform="translate(24.500000, 2.500000) rotate(180.000000) translate(-24.500000, -2.500000) " x="24" y="-5.68434189e-14" width="1" height="5"></rect>
                        <rect fill="#1489C9" transform="translate(12.500000, 2.500000) rotate(180.000000) translate(-12.500000, -2.500000) " x="12" y="-5.68434189e-14" width="1" height="5"></rect>
                        <rect fill="#1489C9" transform="translate(0.500000, 3.500000) rotate(180.000000) translate(-0.500000, -3.500000) " x="5.68434189e-14" y="2" width="1" height="3"></rect>
                    </g>
                    <g transform="translate(1.000000, 13.000000)" id="Rectangle-path">
                        <rect fill="#86D0EA" transform="translate(1.500000, 66.500000) rotate(-90.000000) translate(-1.500000, -66.500000) " x="1" y="65" width="1" height="3"></rect>
                        <rect fill="#86D0EA" transform="translate(1.500000, 54.500000) rotate(-90.000000) translate(-1.500000, -54.500000) " x="1" y="53" width="1" height="3"></rect>
                        <rect fill="#86D0EA" transform="translate(1.500000, 42.500000) rotate(-90.000000) translate(-1.500000, -42.500000) " x="1" y="41" width="1" height="3"></rect>
                        <rect fill="#86D0EA" transform="translate(1.500000, 30.500000) rotate(-90.000000) translate(-1.500000, -30.500000) " x="1" y="29" width="1" height="3"></rect>
                        <rect fill="#86D0EA" transform="translate(1.500000, 18.500000) rotate(-90.000000) translate(-1.500000, -18.500000) " x="1" y="17" width="1" height="3"></rect>
                        <rect fill="#86D0EA" transform="translate(1.500000, 6.500000) rotate(-90.000000) translate(-1.500000, -6.500000) " x="1" y="5" width="1" height="3"></rect>
                        <rect fill="#1489C9" transform="translate(1.500000, 72.500000) rotate(-90.000000) translate(-1.500000, -72.500000) " x="1" y="71" width="1" height="3"></rect>
                        <rect fill="#1489C9" transform="translate(2.500000, 60.500000) rotate(-90.000000) translate(-2.500000, -60.500000) " x="2" y="58" width="1" height="5"></rect>
                        <rect fill="#1489C9" transform="translate(2.500000, 48.500000) rotate(-90.000000) translate(-2.500000, -48.500000) " x="2" y="46" width="1" height="5"></rect>
                        <rect fill="#1489C9" transform="translate(2.500000, 36.500000) rotate(-90.000000) translate(-2.500000, -36.500000) " x="2" y="34" width="1" height="5"></rect>
                        <rect fill="#1489C9" transform="translate(2.500000, 24.500000) rotate(-90.000000) translate(-2.500000, -24.500000) " x="2" y="22" width="1" height="5"></rect>
                        <rect fill="#1489C9" transform="translate(2.500000, 12.500000) rotate(-90.000000) translate(-2.500000, -12.500000) " x="2" y="10" width="1" height="5"></rect>
                        <rect fill="#1489C9" transform="translate(2.500000, 0.500000) rotate(-90.000000) translate(-2.500000, -0.500000) " x="2" y="-2" width="1" height="5"></rect>
                    </g>
                </g>
                <g id="Group" transform="translate(99.000000, 79.000000)">
                    <g transform="translate(6.000000, 0.000000)">
                        <rect id="Rectangle-path" fill="#FFFFFF" x="0.5" y="0.5" width="97" height="124"></rect>
                        <path d="M97,1 L97,124 L1,124 L1,1 L97,1 L97,1 Z M98,0 L97,0 L1,0 L0,0 L0,1 L0,124 L0,125 L1,125 L97,125 L98,125 L98,124 L98,1 L98,0 L98,0 L98,0 Z" id="Shape" fill="#1489C9"></path>
                    </g>
                    <g opacity="0.1" transform="translate(39.000000, 1.000000)" id="Shape" fill="#1489C9">
                        <polygon points="64 123 0 123 51 0 64 0"></polygon>
                    </g>
                    <path d="M103,1 L103,124 L7,124 L7,1 L103,1 L103,1 Z M104,0 L103,0 L7,0 L6,0 L6,1 L6,124 L6,125 L7,125 L103,125 L104,125 L104,124 L104,1 L104,0 L104,0 L104,0 Z" id="Shape" fill="#1489C9"></path>
                    <g transform="translate(0.000000, 11.000000)" id="Shape">
                        <g>
                            <path d="M2.5,4.5 C1.4,4.5 0.5,3.6 0.5,2.5 C0.5,1.4 1.4,0.5 2.5,0.5 L10.5,0.5 C11.6,0.5 12.5,1.4 12.5,2.5 C12.5,3.6 11.6,4.5 10.5,4.5 L2.5,4.5 L2.5,4.5 Z" fill="#FFFFFF"></path>
                            <path d="M10.5,1 C11.3,1 12,1.7 12,2.5 C12,3.3 11.3,4 10.5,4 L2.5,4 C1.7,4 1,3.3 1,2.5 C1,1.7 1.7,1 2.5,1 L10.5,1 L10.5,1 Z M10.5,0 L2.5,0 C1.1,0 0,1.1 0,2.5 C0,3.9 1.1,5 2.5,5 L10.5,5 C11.9,5 13,3.9 13,2.5 C13,1.1 11.9,0 10.5,0 L10.5,0 L10.5,0 Z" fill="#1489C9"></path>
                        </g>
                        <g transform="translate(0.000000, 14.000000)">
                            <path d="M2.5,4.5 C1.4,4.5 0.5,3.6 0.5,2.5 C0.5,1.4 1.4,0.5 2.5,0.5 L10.5,0.5 C11.6,0.5 12.5,1.4 12.5,2.5 C12.5,3.6 11.6,4.5 10.5,4.5 L2.5,4.5 L2.5,4.5 Z" fill="#FFFFFF"></path>
                            <path d="M10.5,1 C11.3,1 12,1.7 12,2.5 C12,3.3 11.3,4 10.5,4 L2.5,4 C1.7,4 1,3.3 1,2.5 C1,1.7 1.7,1 2.5,1 L10.5,1 L10.5,1 Z M10.5,0 L2.5,0 C1.1,0 0,1.1 0,2.5 C0,3.9 1.1,5 2.5,5 L10.5,5 C11.9,5 13,3.9 13,2.5 C13,1.1 11.9,0 10.5,0 L10.5,0 L10.5,0 Z" fill="#1489C9"></path>
                        </g>
                        <g transform="translate(0.000000, 28.000000)">
                            <path d="M2.5,4.5 C1.4,4.5 0.5,3.6 0.5,2.5 C0.5,1.4 1.4,0.5 2.5,0.5 L10.5,0.5 C11.6,0.5 12.5,1.4 12.5,2.5 C12.5,3.6 11.6,4.5 10.5,4.5 L2.5,4.5 L2.5,4.5 Z" fill="#FFFFFF"></path>
                            <path d="M10.5,1 C11.3,1 12,1.7 12,2.5 C12,3.3 11.3,4 10.5,4 L2.5,4 C1.7,4 1,3.3 1,2.5 C1,1.7 1.7,1 2.5,1 L10.5,1 L10.5,1 Z M10.5,0 L2.5,0 C1.1,0 0,1.1 0,2.5 C0,3.9 1.1,5 2.5,5 L10.5,5 C11.9,5 13,3.9 13,2.5 C13,1.1 11.9,0 10.5,0 L10.5,0 L10.5,0 Z" fill="#1489C9"></path>
                        </g>
                        <g transform="translate(0.000000, 42.000000)">
                            <path d="M2.5,4.5 C1.4,4.5 0.5,3.6 0.5,2.5 C0.5,1.4 1.4,0.5 2.5,0.5 L10.5,0.5 C11.6,0.5 12.5,1.4 12.5,2.5 C12.5,3.6 11.6,4.5 10.5,4.5 L2.5,4.5 L2.5,4.5 Z" fill="#FFFFFF"></path>
                            <path d="M10.5,1 C11.3,1 12,1.7 12,2.5 C12,3.3 11.3,4 10.5,4 L2.5,4 C1.7,4 1,3.3 1,2.5 C1,1.7 1.7,1 2.5,1 L10.5,1 L10.5,1 Z M10.5,0 L2.5,0 C1.1,0 0,1.1 0,2.5 C0,3.9 1.1,5 2.5,5 L10.5,5 C11.9,5 13,3.9 13,2.5 C13,1.1 11.9,0 10.5,0 L10.5,0 L10.5,0 Z" fill="#1489C9"></path>
                        </g>
                        <g transform="translate(0.000000, 56.000000)">
                            <path d="M2.5,4.5 C1.4,4.5 0.5,3.6 0.5,2.5 C0.5,1.4 1.4,0.5 2.5,0.5 L10.5,0.5 C11.6,0.5 12.5,1.4 12.5,2.5 C12.5,3.6 11.6,4.5 10.5,4.5 L2.5,4.5 L2.5,4.5 Z" fill="#FFFFFF"></path>
                            <path d="M10.5,1 C11.3,1 12,1.7 12,2.5 C12,3.3 11.3,4 10.5,4 L2.5,4 C1.7,4 1,3.3 1,2.5 C1,1.7 1.7,1 2.5,1 L10.5,1 L10.5,1 Z M10.5,0 L2.5,0 C1.1,0 0,1.1 0,2.5 C0,3.9 1.1,5 2.5,5 L10.5,5 C11.9,5 13,3.9 13,2.5 C13,1.1 11.9,0 10.5,0 L10.5,0 L10.5,0 Z" fill="#1489C9"></path>
                        </g>
                        <g transform="translate(0.000000, 70.000000)">
                            <path d="M2.5,4.5 C1.4,4.5 0.5,3.6 0.5,2.5 C0.5,1.4 1.4,0.5 2.5,0.5 L10.5,0.5 C11.6,0.5 12.5,1.4 12.5,2.5 C12.5,3.6 11.6,4.5 10.5,4.5 L2.5,4.5 L2.5,4.5 Z" fill="#FFFFFF"></path>
                            <path d="M10.5,1 C11.3,1 12,1.7 12,2.5 C12,3.3 11.3,4 10.5,4 L2.5,4 C1.7,4 1,3.3 1,2.5 C1,1.7 1.7,1 2.5,1 L10.5,1 L10.5,1 Z M10.5,0 L2.5,0 C1.1,0 0,1.1 0,2.5 C0,3.9 1.1,5 2.5,5 L10.5,5 C11.9,5 13,3.9 13,2.5 C13,1.1 11.9,0 10.5,0 L10.5,0 L10.5,0 Z" fill="#1489C9"></path>
                        </g>
                        <g transform="translate(0.000000, 84.000000)">
                            <path d="M2.5,4.5 C1.4,4.5 0.5,3.6 0.5,2.5 C0.5,1.4 1.4,0.5 2.5,0.5 L10.5,0.5 C11.6,0.5 12.5,1.4 12.5,2.5 C12.5,3.6 11.6,4.5 10.5,4.5 L2.5,4.5 L2.5,4.5 Z" fill="#FFFFFF"></path>
                            <path d="M10.5,1 C11.3,1 12,1.7 12,2.5 C12,3.3 11.3,4 10.5,4 L2.5,4 C1.7,4 1,3.3 1,2.5 C1,1.7 1.7,1 2.5,1 L10.5,1 L10.5,1 Z M10.5,0 L2.5,0 C1.1,0 0,1.1 0,2.5 C0,3.9 1.1,5 2.5,5 L10.5,5 C11.9,5 13,3.9 13,2.5 C13,1.1 11.9,0 10.5,0 L10.5,0 L10.5,0 Z" fill="#1489C9"></path>
                        </g>
                        <g transform="translate(0.000000, 98.000000)">
                            <path d="M2.5,4.5 C1.4,4.5 0.5,3.6 0.5,2.5 C0.5,1.4 1.4,0.5 2.5,0.5 L10.5,0.5 C11.6,0.5 12.5,1.4 12.5,2.5 C12.5,3.6 11.6,4.5 10.5,4.5 L2.5,4.5 L2.5,4.5 Z" fill="#FFFFFF"></path>
                            <path d="M10.5,1 C11.3,1 12,1.7 12,2.5 C12,3.3 11.3,4 10.5,4 L2.5,4 C1.7,4 1,3.3 1,2.5 C1,1.7 1.7,1 2.5,1 L10.5,1 L10.5,1 Z M10.5,0 L2.5,0 C1.1,0 0,1.1 0,2.5 C0,3.9 1.1,5 2.5,5 L10.5,5 C11.9,5 13,3.9 13,2.5 C13,1.1 11.9,0 10.5,0 L10.5,0 L10.5,0 Z" fill="#1489C9"></path>
                        </g>
                    </g>
                    <g transform="translate(20.000000, 3.000000)" id="Shape">
                        <path d="M0,118 L0,1" fill="#FFFFFF"></path>
                        <path d="M0.5,118.5 C0.2,118.5 0,118.3 0,118 L0,1 C0,0.7 0.2,0.5 0.5,0.5 C0.8,0.5 1,0.7 1,1 L1,118 C1,118.3 0.8,118.5 0.5,118.5 L0.5,118.5 Z" fill="#86D0EA"></path>
                    </g>
                    <path d="M94,8 L92,8 C91.7,8 91.5,8.2 91.5,8.5 C91.5,8.8 91.7,9 92,9 L94,9 L94,9 L94,10 C94,10.3 94.2,10.5 94.5,10.5 C94.8,10.5 95,10.3 95,10 L95,9 C95,8.7 94.8,8.5 94.5,8.5 L94.5,8.5 C94.5,8.2 94.3,8 94,8 L94,8 L94,8 Z M89,8 L87,8 C86.7,8 86.5,8.2 86.5,8.5 C86.5,8.8 86.7,9 87,9 L89,9 C89.3,9 89.5,8.8 89.5,8.5 C89.5,8.2 89.3,8 89,8 L89,8 L89,8 Z M84,8 L82,8 C81.7,8 81.5,8.2 81.5,8.5 C81.5,8.8 81.7,9 82,9 L84,9 C84.3,9 84.5,8.8 84.5,8.5 C84.5,8.2 84.3,8 84,8 L84,8 L84,8 Z M79,8 L77,8 C76.7,8 76.5,8.2 76.5,8.5 C76.5,8.8 76.7,9 77,9 L79,9 C79.3,9 79.5,8.8 79.5,8.5 C79.5,8.2 79.3,8 79,8 L79,8 L79,8 Z M74,8 L72,8 C71.7,8 71.5,8.2 71.5,8.5 C71.5,8.8 71.7,9 72,9 L74,9 C74.3,9 74.5,8.8 74.5,8.5 C74.5,8.2 74.3,8 74,8 L74,8 L74,8 Z M69,8 L67,8 C66.7,8 66.5,8.2 66.5,8.5 C66.5,8.8 66.7,9 67,9 L69,9 C69.3,9 69.5,8.8 69.5,8.5 C69.5,8.2 69.3,8 69,8 L69,8 L69,8 Z M64,8 L62,8 C61.7,8 61.5,8.2 61.5,8.5 C61.5,8.8 61.7,9 62,9 L64,9 C64.3,9 64.5,8.8 64.5,8.5 C64.5,8.2 64.3,8 64,8 L64,8 L64,8 Z M59,8 L57,8 C56.7,8 56.5,8.2 56.5,8.5 C56.5,8.8 56.7,9 57,9 L59,9 C59.3,9 59.5,8.8 59.5,8.5 C59.5,8.2 59.3,8 59,8 L59,8 L59,8 Z M54,8 L52,8 C51.7,8 51.5,8.2 51.5,8.5 C51.5,8.8 51.7,9 52,9 L54,9 C54.3,9 54.5,8.8 54.5,8.5 C54.5,8.2 54.3,8 54,8 L54,8 L54,8 Z M49,8 L47,8 C46.7,8 46.5,8.2 46.5,8.5 C46.5,8.8 46.7,9 47,9 L49,9 C49.3,9 49.5,8.8 49.5,8.5 C49.5,8.2 49.3,8 49,8 L49,8 L49,8 Z M44,8 L42,8 C41.7,8 41.5,8.2 41.5,8.5 C41.5,8.8 41.7,9 42,9 L44,9 C44.3,9 44.5,8.8 44.5,8.5 C44.5,8.2 44.3,8 44,8 L44,8 L44,8 Z M39,8 L37,8 C36.7,8 36.5,8.2 36.5,8.5 C36.5,8.8 36.7,9 37,9 L39,9 C39.3,9 39.5,8.8 39.5,8.5 C39.5,8.2 39.3,8 39,8 L39,8 L39,8 Z M34,8 L32,8 C31.7,8 31.5,8.2 31.5,8.5 C31.5,8.8 31.7,9 32,9 L34,9 C34.3,9 34.5,8.8 34.5,8.5 C34.5,8.2 34.3,8 34,8 L34,8 L34,8 Z M29.5,9.5 C29.2,9.5 29,9.7 29,10 L29,12 C29,12.3 29.2,12.5 29.5,12.5 C29.8,12.5 30,12.3 30,12 L30,10 C30,9.7 29.8,9.5 29.5,9.5 L29.5,9.5 L29.5,9.5 Z M29.5,14.5 C29.2,14.5 29,14.7 29,15 L29,17 C29,17.3 29.2,17.5 29.5,17.5 C29.8,17.5 30,17.3 30,17 L30,15 C30,14.7 29.8,14.5 29.5,14.5 L29.5,14.5 L29.5,14.5 Z M29.5,19.5 C29.2,19.5 29,19.7 29,20 L29,22 C29,22.3 29.2,22.5 29.5,22.5 C29.8,22.5 30,22.3 30,22 L30,20 C30,19.7 29.8,19.5 29.5,19.5 L29.5,19.5 L29.5,19.5 Z M34,23 L32,23 C31.7,23 31.5,23.2 31.5,23.5 C31.5,23.8 31.7,24 32,24 L34,24 C34.3,24 34.5,23.8 34.5,23.5 C34.5,23.2 34.3,23 34,23 L34,23 L34,23 Z M39,23 L37,23 C36.7,23 36.5,23.2 36.5,23.5 C36.5,23.8 36.7,24 37,24 L39,24 C39.3,24 39.5,23.8 39.5,23.5 C39.5,23.2 39.3,23 39,23 L39,23 L39,23 Z M44,23 L42,23 C41.7,23 41.5,23.2 41.5,23.5 C41.5,23.8 41.7,24 42,24 L44,24 C44.3,24 44.5,23.8 44.5,23.5 C44.5,23.2 44.3,23 44,23 L44,23 L44,23 Z M49,23 L47,23 C46.7,23 46.5,23.2 46.5,23.5 C46.5,23.8 46.7,24 47,24 L49,24 C49.3,24 49.5,23.8 49.5,23.5 C49.5,23.2 49.3,23 49,23 L49,23 L49,23 Z M54,23 L52,23 C51.7,23 51.5,23.2 51.5,23.5 C51.5,23.8 51.7,24 52,24 L54,24 C54.3,24 54.5,23.8 54.5,23.5 C54.5,23.2 54.3,23 54,23 L54,23 L54,23 Z M59,23 L57,23 C56.7,23 56.5,23.2 56.5,23.5 C56.5,23.8 56.7,24 57,24 L59,24 C59.3,24 59.5,23.8 59.5,23.5 C59.5,23.2 59.3,23 59,23 L59,23 L59,23 Z M64,23 L62,23 C61.7,23 61.5,23.2 61.5,23.5 C61.5,23.8 61.7,24 62,24 L64,24 C64.3,24 64.5,23.8 64.5,23.5 C64.5,23.2 64.3,23 64,23 L64,23 L64,23 Z M69,23 L67,23 C66.7,23 66.5,23.2 66.5,23.5 C66.5,23.8 66.7,24 67,24 L69,24 C69.3,24 69.5,23.8 69.5,23.5 C69.5,23.2 69.3,23 69,23 L69,23 L69,23 Z M74,23 L72,23 C71.7,23 71.5,23.2 71.5,23.5 C71.5,23.8 71.7,24 72,24 L74,24 C74.3,24 74.5,23.8 74.5,23.5 C74.5,23.2 74.3,23 74,23 L74,23 L74,23 Z M79,23 L77,23 C76.7,23 76.5,23.2 76.5,23.5 C76.5,23.8 76.7,24 77,24 L79,24 C79.3,24 79.5,23.8 79.5,23.5 C79.5,23.2 79.3,23 79,23 L79,23 L79,23 Z M84,23 L82,23 C81.7,23 81.5,23.2 81.5,23.5 C81.5,23.8 81.7,24 82,24 L84,24 C84.3,24 84.5,23.8 84.5,23.5 C84.5,23.2 84.3,23 84,23 L84,23 L84,23 Z M89,23 L87,23 C86.7,23 86.5,23.2 86.5,23.5 C86.5,23.8 86.7,24 87,24 L89,24 C89.3,24 89.5,23.8 89.5,23.5 C89.5,23.2 89.3,23 89,23 L89,23 L89,23 Z M94,23 L92,23 C91.7,23 91.5,23.2 91.5,23.5 C91.5,23.8 91.7,24 92,24 L94,24 C94.3,24 94.5,23.8 94.5,23.5 C94.5,23.2 94.3,23 94,23 L94,23 L94,23 Z M94.5,17.5 C94.2,17.5 94,17.7 94,18 L94,20 C94,20.3 94.2,20.5 94.5,20.5 C94.8,20.5 95,20.3 95,20 L95,18 C95,17.7 94.8,17.5 94.5,17.5 L94.5,17.5 L94.5,17.5 Z M94.5,12.5 C94.2,12.5 94,12.7 94,13 L94,15 C94,15.3 94.2,15.5 94.5,15.5 C94.8,15.5 95,15.3 95,15 L95,13 C95,12.7 94.8,12.5 94.5,12.5 L94.5,12.5 L94.5,12.5 Z" id="Shape" fill="#86D0EA"></path>
                    <path d="M94,27 L92,27 C91.7,27 91.5,27.2 91.5,27.5 C91.5,27.8 91.7,28 92,28 L94,28 L94,28 L94,30 C94,30.3 94.2,30.5 94.5,30.5 C94.8,30.5 95,30.3 95,30 L95,28 C95,27.7 94.8,27.5 94.5,27.5 L94.5,27.5 C94.5,27.2 94.3,27 94,27 L94,27 L94,27 Z M89,27 L87,27 C86.7,27 86.5,27.2 86.5,27.5 C86.5,27.8 86.7,28 87,28 L89,28 C89.3,28 89.5,27.8 89.5,27.5 C89.5,27.2 89.3,27 89,27 L89,27 L89,27 Z M84,27 L82,27 C81.7,27 81.5,27.2 81.5,27.5 C81.5,27.8 81.7,28 82,28 L84,28 C84.3,28 84.5,27.8 84.5,27.5 C84.5,27.2 84.3,27 84,27 L84,27 L84,27 Z M79,27 L77,27 C76.7,27 76.5,27.2 76.5,27.5 C76.5,27.8 76.7,28 77,28 L79,28 C79.3,28 79.5,27.8 79.5,27.5 C79.5,27.2 79.3,27 79,27 L79,27 L79,27 Z M74,27 L72,27 C71.7,27 71.5,27.2 71.5,27.5 C71.5,27.8 71.7,28 72,28 L74,28 C74.3,28 74.5,27.8 74.5,27.5 C74.5,27.2 74.3,27 74,27 L74,27 L74,27 Z M69,27 L67,27 C66.7,27 66.5,27.2 66.5,27.5 C66.5,27.8 66.7,28 67,28 L69,28 C69.3,28 69.5,27.8 69.5,27.5 C69.5,27.2 69.3,27 69,27 L69,27 L69,27 Z M63.5,27.5 C63.2,27.5 63,27.7 63,28 L63,30 C63,30.3 63.2,30.5 63.5,30.5 C63.8,30.5 64,30.3 64,30 L64,28 L64,28 L64,28 C64,27.7 63.8,27.5 63.5,27.5 L63.5,27.5 L63.5,27.5 Z M63.5,32.5 C63.2,32.5 63,32.7 63,33 L63,35 C63,35.3 63.2,35.5 63.5,35.5 C63.8,35.5 64,35.3 64,35 L64,33 C64,32.7 63.8,32.5 63.5,32.5 L63.5,32.5 L63.5,32.5 Z M63.5,37.5 C63.2,37.5 63,37.7 63,38 L63,40 C63,40.3 63.2,40.5 63.5,40.5 C63.8,40.5 64,40.3 64,40 L64,38 C64,37.7 63.8,37.5 63.5,37.5 L63.5,37.5 L63.5,37.5 Z M63.5,42.5 C63.2,42.5 63,42.7 63,43 L63,45 C63,45.3 63.2,45.5 63.5,45.5 C63.8,45.5 64,45.3 64,45 L64,43 C64,42.7 63.8,42.5 63.5,42.5 L63.5,42.5 L63.5,42.5 Z M63.5,47.5 C63.2,47.5 63,47.7 63,48 L63,49 C63,49.6 63.4,50 64,50 L65,50 C65.3,50 65.5,49.8 65.5,49.5 C65.5,49.2 65.3,49 65,49 L64,49 L64,48 C64,47.7 63.8,47.5 63.5,47.5 L63.5,47.5 L63.5,47.5 Z M70,49 L68,49 C67.7,49 67.5,49.2 67.5,49.5 C67.5,49.8 67.7,50 68,50 L70,50 C70.3,50 70.5,49.8 70.5,49.5 C70.5,49.2 70.3,49 70,49 L70,49 L70,49 Z M75,49 L73,49 C72.7,49 72.5,49.2 72.5,49.5 C72.5,49.8 72.7,50 73,50 L75,50 C75.3,50 75.5,49.8 75.5,49.5 C75.5,49.2 75.3,49 75,49 L75,49 L75,49 Z M80,49 L78,49 C77.7,49 77.5,49.2 77.5,49.5 C77.5,49.8 77.7,50 78,50 L80,50 C80.3,50 80.5,49.8 80.5,49.5 C80.5,49.2 80.3,49 80,49 L80,49 L80,49 Z M85,49 L83,49 C82.7,49 82.5,49.2 82.5,49.5 C82.5,49.8 82.7,50 83,50 L85,50 C85.3,50 85.5,49.8 85.5,49.5 C85.5,49.2 85.3,49 85,49 L85,49 L85,49 Z M90,49 L88,49 C87.7,49 87.5,49.2 87.5,49.5 C87.5,49.8 87.7,50 88,50 L90,50 C90.3,50 90.5,49.8 90.5,49.5 C90.5,49.2 90.3,49 90,49 L90,49 L90,49 Z M94.5,47.5 C94.2,47.5 94,47.7 94,48 L94,49 L94,49 L94,49 L93,49 C92.7,49 92.5,49.2 92.5,49.5 C92.5,49.8 92.7,50 93,50 L94,50 C94.6,50 95,49.6 95,49 L95,48 C95,47.7 94.8,47.5 94.5,47.5 L94.5,47.5 L94.5,47.5 Z M94.5,42.5 C94.2,42.5 94,42.7 94,43 L94,45 C94,45.3 94.2,45.5 94.5,45.5 C94.8,45.5 95,45.3 95,45 L95,43 C95,42.7 94.8,42.5 94.5,42.5 L94.5,42.5 L94.5,42.5 Z M94.5,37.5 C94.2,37.5 94,37.7 94,38 L94,40 C94,40.3 94.2,40.5 94.5,40.5 C94.8,40.5 95,40.3 95,40 L95,38 C95,37.7 94.8,37.5 94.5,37.5 L94.5,37.5 L94.5,37.5 Z M94.5,32.5 C94.2,32.5 94,32.7 94,33 L94,35 C94,35.3 94.2,35.5 94.5,35.5 C94.8,35.5 95,35.3 95,35 L95,33 C95,32.7 94.8,32.5 94.5,32.5 L94.5,32.5 L94.5,32.5 Z" id="Shape" fill="#86D0EA"></path>
                    <path d="M59,27 L57,27 C56.7,27 56.5,27.2 56.5,27.5 C56.5,27.8 56.7,28 57,28 L59,28 C59.3,28 59.5,27.8 59.5,27.5 C59.5,27.2 59.3,27 59,27 L59,27 L59,27 Z M54,27 L52,27 C51.7,27 51.5,27.2 51.5,27.5 C51.5,27.8 51.7,28 52,28 L54,28 C54.3,28 54.5,27.8 54.5,27.5 C54.5,27.2 54.3,27 54,27 L54,27 L54,27 Z M49,27 L47,27 C46.7,27 46.5,27.2 46.5,27.5 C46.5,27.8 46.7,28 47,28 L49,28 C49.3,28 49.5,27.8 49.5,27.5 C49.5,27.2 49.3,27 49,27 L49,27 L49,27 Z M44,27 L42,27 C41.7,27 41.5,27.2 41.5,27.5 C41.5,27.8 41.7,28 42,28 L44,28 C44.3,28 44.5,27.8 44.5,27.5 C44.5,27.2 44.3,27 44,27 L44,27 L44,27 Z M39,27 L37,27 C36.7,27 36.5,27.2 36.5,27.5 C36.5,27.8 36.7,28 37,28 L39,28 C39.3,28 39.5,27.8 39.5,27.5 C39.5,27.2 39.3,27 39,27 L39,27 L39,27 Z M34,27 L32,27 C31.7,27 31.5,27.2 31.5,27.5 C31.5,27.8 31.7,28 32,28 L34,28 C34.3,28 34.5,27.8 34.5,27.5 C34.5,27.2 34.3,27 34,27 L34,27 L34,27 Z M29.5,28.5 C29.2,28.5 29,28.7 29,29 L29,31 C29,31.3 29.2,31.5 29.5,31.5 C29.8,31.5 30,31.3 30,31 L30,29 C30,28.7 29.8,28.5 29.5,28.5 L29.5,28.5 L29.5,28.5 Z M29.5,33.5 C29.2,33.5 29,33.7 29,34 L29,36 C29,36.3 29.2,36.5 29.5,36.5 C29.8,36.5 30,36.3 30,36 L30,34 C30,33.7 29.8,33.5 29.5,33.5 L29.5,33.5 L29.5,33.5 Z M29.5,38.5 C29.2,38.5 29,38.7 29,39 L29,41 C29,41.3 29.2,41.5 29.5,41.5 C29.8,41.5 30,41.3 30,41 L30,39 C30,38.7 29.8,38.5 29.5,38.5 L29.5,38.5 L29.5,38.5 Z M29.5,43.5 C29.2,43.5 29,43.7 29,44 L29,46 C29,46.3 29.2,46.5 29.5,46.5 C29.8,46.5 30,46.3 30,46 L30,44 C30,43.7 29.8,43.5 29.5,43.5 L29.5,43.5 L29.5,43.5 Z M29.5,48.5 C29.2,48.5 29,48.7 29,49 L29,51 C29,51.3 29.2,51.5 29.5,51.5 C29.8,51.5 30,51.3 30,51 L30,49 C30,48.7 29.8,48.5 29.5,48.5 L29.5,48.5 L29.5,48.5 Z M29.5,53.5 C29.2,53.5 29,53.7 29,54 L29,56 C29,56.3 29.2,56.5 29.5,56.5 C29.8,56.5 30,56.3 30,56 L30,54 C30,53.7 29.8,53.5 29.5,53.5 L29.5,53.5 L29.5,53.5 Z M29.5,58.5 C29.2,58.5 29,58.7 29,59 L29,61 C29,61.3 29.2,61.5 29.5,61.5 C29.8,61.5 30,61.3 30,61 L30,59 C30,58.7 29.8,58.5 29.5,58.5 L29.5,58.5 L29.5,58.5 Z M29.5,63.5 C29.2,63.5 29,63.7 29,64 L29,66 C29,66.3 29.2,66.5 29.5,66.5 C29.8,66.5 30,66.3 30,66 L30,64 C30,63.7 29.8,63.5 29.5,63.5 L29.5,63.5 L29.5,63.5 Z M29.5,68.5 C29.2,68.5 29,68.7 29,69 L29,71 C29,71.3 29.2,71.5 29.5,71.5 C29.8,71.5 30,71.3 30,71 L30,69 C30,68.7 29.8,68.5 29.5,68.5 L29.5,68.5 L29.5,68.5 Z M29.5,73.5 C29.2,73.5 29,73.7 29,74 L29,76 C29,76.3 29.2,76.5 29.5,76.5 C29.8,76.5 30,76.3 30,76 L30,74 C30,73.7 29.8,73.5 29.5,73.5 L29.5,73.5 L29.5,73.5 Z M29.5,78.5 C29.2,78.5 29,78.7 29,79 L29,81 C29,81.3 29.2,81.5 29.5,81.5 C29.8,81.5 30,81.3 30,81 L30,79 C30,78.7 29.8,78.5 29.5,78.5 L29.5,78.5 L29.5,78.5 Z M29.5,83.5 C29.2,83.5 29,83.7 29,84 L29,86 C29,86.3 29.2,86.5 29.5,86.5 C29.8,86.5 30,86.3 30,86 L30,84 C30,83.7 29.8,83.5 29.5,83.5 L29.5,83.5 L29.5,83.5 Z M29.5,88.5 C29.2,88.5 29,88.7 29,89 L29,91 C29,91.3 29.2,91.5 29.5,91.5 C29.8,91.5 30,91.3 30,91 L30,89 C30,88.7 29.8,88.5 29.5,88.5 L29.5,88.5 L29.5,88.5 Z M29.5,93.5 C29.2,93.5 29,93.7 29,94 L29,96 C29,96.3 29.2,96.5 29.5,96.5 C29.8,96.5 30,96.3 30,96 L30,94 C30,93.7 29.8,93.5 29.5,93.5 L29.5,93.5 L29.5,93.5 Z M29.5,98.5 C29.2,98.5 29,98.7 29,99 L29,101 C29,101.3 29.2,101.5 29.5,101.5 C29.8,101.5 30,101.3 30,101 L30,99 C30,98.7 29.8,98.5 29.5,98.5 L29.5,98.5 L29.5,98.5 Z M29.5,103.5 C29.2,103.5 29,103.7 29,104 L29,106 C29,106.3 29.2,106.5 29.5,106.5 C29.8,106.5 30,106.3 30,106 L30,104 C30,103.7 29.8,103.5 29.5,103.5 L29.5,103.5 L29.5,103.5 Z M29.5,108.5 C29.2,108.5 29,108.7 29,109 L29,111 C29,111.3 29.2,111.5 29.5,111.5 C29.8,111.5 30,111.3 30,111 L30,109 C30,108.7 29.8,108.5 29.5,108.5 L29.5,108.5 L29.5,108.5 Z M32,114 L30,114 L30,114 C29.7,114 29.5,114.2 29.5,114.5 C29.5,114.8 29.7,115 30,115 L32,115 C32.3,115 32.5,114.8 32.5,114.5 C32.5,114.2 32.3,114 32,114 L32,114 L32,114 Z M37,114 L35,114 C34.7,114 34.5,114.2 34.5,114.5 C34.5,114.8 34.7,115 35,115 L37,115 C37.3,115 37.5,114.8 37.5,114.5 C37.5,114.2 37.3,114 37,114 L37,114 L37,114 Z M42,114 L40,114 C39.7,114 39.5,114.2 39.5,114.5 C39.5,114.8 39.7,115 40,115 L42,115 C42.3,115 42.5,114.8 42.5,114.5 C42.5,114.2 42.3,114 42,114 L42,114 L42,114 Z M47,114 L45,114 C44.7,114 44.5,114.2 44.5,114.5 C44.5,114.8 44.7,115 45,115 L47,115 C47.3,115 47.5,114.8 47.5,114.5 C47.5,114.2 47.3,114 47,114 L47,114 L47,114 Z M52,114 L50,114 C49.7,114 49.5,114.2 49.5,114.5 C49.5,114.8 49.7,115 50,115 L52,115 C52.3,115 52.5,114.8 52.5,114.5 C52.5,114.2 52.3,114 52,114 L52,114 L52,114 Z M57,114 L55,114 C54.7,114 54.5,114.2 54.5,114.5 C54.5,114.8 54.7,115 55,115 L57,115 C57.3,115 57.5,114.8 57.5,114.5 C57.5,114.2 57.3,114 57,114 L57,114 L57,114 Z M59.5,110.5 C59.2,110.5 59,110.7 59,111 L59,113 C59,113.3 59.2,113.5 59.5,113.5 C59.8,113.5 60,113.3 60,113 L60,111 C60,110.7 59.8,110.5 59.5,110.5 L59.5,110.5 L59.5,110.5 Z M59.5,105.5 C59.2,105.5 59,105.7 59,106 L59,108 C59,108.3 59.2,108.5 59.5,108.5 C59.8,108.5 60,108.3 60,108 L60,106 C60,105.7 59.8,105.5 59.5,105.5 L59.5,105.5 L59.5,105.5 Z M59.5,100.5 C59.2,100.5 59,100.7 59,101 L59,103 C59,103.3 59.2,103.5 59.5,103.5 C59.8,103.5 60,103.3 60,103 L60,101 C60,100.7 59.8,100.5 59.5,100.5 L59.5,100.5 L59.5,100.5 Z M59.5,95.5 C59.2,95.5 59,95.7 59,96 L59,98 C59,98.3 59.2,98.5 59.5,98.5 C59.8,98.5 60,98.3 60,98 L60,96 C60,95.7 59.8,95.5 59.5,95.5 L59.5,95.5 L59.5,95.5 Z M59.5,90.5 C59.2,90.5 59,90.7 59,91 L59,93 C59,93.3 59.2,93.5 59.5,93.5 C59.8,93.5 60,93.3 60,93 L60,91 C60,90.7 59.8,90.5 59.5,90.5 L59.5,90.5 L59.5,90.5 Z M59.5,85.5 C59.2,85.5 59,85.7 59,86 L59,88 C59,88.3 59.2,88.5 59.5,88.5 C59.8,88.5 60,88.3 60,88 L60,86 C60,85.7 59.8,85.5 59.5,85.5 L59.5,85.5 L59.5,85.5 Z M59.5,80.5 C59.2,80.5 59,80.7 59,81 L59,83 C59,83.3 59.2,83.5 59.5,83.5 C59.8,83.5 60,83.3 60,83 L60,81 C60,80.7 59.8,80.5 59.5,80.5 L59.5,80.5 L59.5,80.5 Z M59.5,75.5 C59.2,75.5 59,75.7 59,76 L59,78 C59,78.3 59.2,78.5 59.5,78.5 C59.8,78.5 60,78.3 60,78 L60,76 C60,75.7 59.8,75.5 59.5,75.5 L59.5,75.5 L59.5,75.5 Z M59.5,70.5 C59.2,70.5 59,70.7 59,71 L59,73 C59,73.3 59.2,73.5 59.5,73.5 C59.8,73.5 60,73.3 60,73 L60,71 C60,70.7 59.8,70.5 59.5,70.5 L59.5,70.5 L59.5,70.5 Z M59.5,65.5 C59.2,65.5 59,65.7 59,66 L59,68 C59,68.3 59.2,68.5 59.5,68.5 C59.8,68.5 60,68.3 60,68 L60,66 C60,65.7 59.8,65.5 59.5,65.5 L59.5,65.5 L59.5,65.5 Z M59.5,60.5 C59.2,60.5 59,60.7 59,61 L59,63 C59,63.3 59.2,63.5 59.5,63.5 C59.8,63.5 60,63.3 60,63 L60,61 C60,60.7 59.8,60.5 59.5,60.5 L59.5,60.5 L59.5,60.5 Z M59.5,55.5 C59.2,55.5 59,55.7 59,56 L59,58 C59,58.3 59.2,58.5 59.5,58.5 C59.8,58.5 60,58.3 60,58 L60,56 C60,55.7 59.8,55.5 59.5,55.5 L59.5,55.5 L59.5,55.5 Z M59.5,50.5 C59.2,50.5 59,50.7 59,51 L59,53 C59,53.3 59.2,53.5 59.5,53.5 C59.8,53.5 60,53.3 60,53 L60,51 C60,50.7 59.8,50.5 59.5,50.5 L59.5,50.5 L59.5,50.5 Z M59.5,45.5 C59.2,45.5 59,45.7 59,46 L59,48 C59,48.3 59.2,48.5 59.5,48.5 C59.8,48.5 60,48.3 60,48 L60,46 C60,45.7 59.8,45.5 59.5,45.5 L59.5,45.5 L59.5,45.5 Z M59.5,40.5 C59.2,40.5 59,40.7 59,41 L59,43 C59,43.3 59.2,43.5 59.5,43.5 C59.8,43.5 60,43.3 60,43 L60,41 C60,40.7 59.8,40.5 59.5,40.5 L59.5,40.5 L59.5,40.5 Z M59.5,35.5 C59.2,35.5 59,35.7 59,36 L59,38 C59,38.3 59.2,38.5 59.5,38.5 C59.8,38.5 60,38.3 60,38 L60,36 C60,35.7 59.8,35.5 59.5,35.5 L59.5,35.5 L59.5,35.5 Z M59.5,30.5 C59.2,30.5 59,30.7 59,31 L59,33 C59,33.3 59.2,33.5 59.5,33.5 C59.8,33.5 60,33.3 60,33 L60,31 C60,30.7 59.8,30.5 59.5,30.5 L59.5,30.5 L59.5,30.5 Z" id="Shape" fill="#86D0EA"></path>
                    <path d="M94,53 L92,53 C91.7,53 91.5,53.2 91.5,53.5 C91.5,53.8 91.7,54 92,54 L94,54 L94,54 L94,56 C94,56.3 94.2,56.5 94.5,56.5 C94.8,56.5 95,56.3 95,56 L95,54 C95,53.7 94.8,53.5 94.5,53.5 L94.5,53.5 C94.5,53.2 94.3,53 94,53 L94,53 L94,53 Z M89,53 L87,53 C86.7,53 86.5,53.2 86.5,53.5 C86.5,53.8 86.7,54 87,54 L89,54 C89.3,54 89.5,53.8 89.5,53.5 C89.5,53.2 89.3,53 89,53 L89,53 L89,53 Z M84,53 L82,53 C81.7,53 81.5,53.2 81.5,53.5 C81.5,53.8 81.7,54 82,54 L84,54 C84.3,54 84.5,53.8 84.5,53.5 C84.5,53.2 84.3,53 84,53 L84,53 L84,53 Z M79,53 L77,53 C76.7,53 76.5,53.2 76.5,53.5 C76.5,53.8 76.7,54 77,54 L79,54 C79.3,54 79.5,53.8 79.5,53.5 C79.5,53.2 79.3,53 79,53 L79,53 L79,53 Z M74,53 L72,53 C71.7,53 71.5,53.2 71.5,53.5 C71.5,53.8 71.7,54 72,54 L74,54 C74.3,54 74.5,53.8 74.5,53.5 C74.5,53.2 74.3,53 74,53 L74,53 L74,53 Z M69,53 L67,53 C66.7,53 66.5,53.2 66.5,53.5 C66.5,53.8 66.7,54 67,54 L69,54 C69.3,54 69.5,53.8 69.5,53.5 C69.5,53.2 69.3,53 69,53 L69,53 L69,53 Z M63.5,53.5 C63.2,53.5 63,53.7 63,54 L63,56 C63,56.3 63.2,56.5 63.5,56.5 C63.8,56.5 64,56.3 64,56 L64,54 L64,54 L64,54 C64,53.7 63.8,53.5 63.5,53.5 L63.5,53.5 L63.5,53.5 Z M63.5,58.5 C63.2,58.5 63,58.7 63,59 L63,61 C63,61.3 63.2,61.5 63.5,61.5 C63.8,61.5 64,61.3 64,61 L64,59 C64,58.7 63.8,58.5 63.5,58.5 L63.5,58.5 L63.5,58.5 Z M63.5,63.5 C63.2,63.5 63,63.7 63,64 L63,66 C63,66.3 63.2,66.5 63.5,66.5 C63.8,66.5 64,66.3 64,66 L64,64 C64,63.7 63.8,63.5 63.5,63.5 L63.5,63.5 L63.5,63.5 Z M63.5,68.5 C63.2,68.5 63,68.7 63,69 L63,71 C63,71.3 63.2,71.5 63.5,71.5 C63.8,71.5 64,71.3 64,71 L64,69 C64,68.7 63.8,68.5 63.5,68.5 L63.5,68.5 L63.5,68.5 Z M63.5,73.5 C63.2,73.5 63,73.7 63,74 L63,75 C63,75.6 63.4,76 64,76 L65,76 C65.3,76 65.5,75.8 65.5,75.5 C65.5,75.2 65.3,75 65,75 L64,75 L64,74 C64,73.7 63.8,73.5 63.5,73.5 L63.5,73.5 L63.5,73.5 Z M70,75 L68,75 C67.7,75 67.5,75.2 67.5,75.5 C67.5,75.8 67.7,76 68,76 L70,76 C70.3,76 70.5,75.8 70.5,75.5 C70.5,75.2 70.3,75 70,75 L70,75 L70,75 Z M75,75 L73,75 C72.7,75 72.5,75.2 72.5,75.5 C72.5,75.8 72.7,76 73,76 L75,76 C75.3,76 75.5,75.8 75.5,75.5 C75.5,75.2 75.3,75 75,75 L75,75 L75,75 Z M80,75 L78,75 C77.7,75 77.5,75.2 77.5,75.5 C77.5,75.8 77.7,76 78,76 L80,76 C80.3,76 80.5,75.8 80.5,75.5 C80.5,75.2 80.3,75 80,75 L80,75 L80,75 Z M85,75 L83,75 C82.7,75 82.5,75.2 82.5,75.5 C82.5,75.8 82.7,76 83,76 L85,76 C85.3,76 85.5,75.8 85.5,75.5 C85.5,75.2 85.3,75 85,75 L85,75 L85,75 Z M90,75 L88,75 C87.7,75 87.5,75.2 87.5,75.5 C87.5,75.8 87.7,76 88,76 L90,76 C90.3,76 90.5,75.8 90.5,75.5 C90.5,75.2 90.3,75 90,75 L90,75 L90,75 Z M94.5,73.5 C94.2,73.5 94,73.7 94,74 L94,75 L94,75 L94,75 L93,75 C92.7,75 92.5,75.2 92.5,75.5 C92.5,75.8 92.7,76 93,76 L94,76 C94.6,76 95,75.6 95,75 L95,74 C95,73.7 94.8,73.5 94.5,73.5 L94.5,73.5 L94.5,73.5 Z M94.5,68.5 C94.2,68.5 94,68.7 94,69 L94,71 C94,71.3 94.2,71.5 94.5,71.5 C94.8,71.5 95,71.3 95,71 L95,69 C95,68.7 94.8,68.5 94.5,68.5 L94.5,68.5 L94.5,68.5 Z M94.5,63.5 C94.2,63.5 94,63.7 94,64 L94,66 C94,66.3 94.2,66.5 94.5,66.5 C94.8,66.5 95,66.3 95,66 L95,64 C95,63.7 94.8,63.5 94.5,63.5 L94.5,63.5 L94.5,63.5 Z M94.5,58.5 C94.2,58.5 94,58.7 94,59 L94,61 C94,61.3 94.2,61.5 94.5,61.5 C94.8,61.5 95,61.3 95,61 L95,59 C95,58.7 94.8,58.5 94.5,58.5 L94.5,58.5 L94.5,58.5 Z" id="Shape" fill="#86D0EA"></path>
                    <path d="M94.5,81 L63.5,81 C63.2,81 63,80.8 63,80.5 L63,80.5 C63,80.2 63.2,80 63.5,80 L94.5,80 C94.8,80 95,80.2 95,80.5 L95,80.5 C95,80.8 94.8,81 94.5,81 L94.5,81 Z" id="Shape" fill="#86D0EA"></path>
                    <path d="M94.5,84 L63.5,84 C63.2,84 63,83.8 63,83.5 L63,83.5 C63,83.2 63.2,83 63.5,83 L94.5,83 C94.8,83 95,83.2 95,83.5 L95,83.5 C95,83.8 94.8,84 94.5,84 L94.5,84 Z" id="Shape" fill="#86D0EA"></path>
                    <path d="M94.5,87 L63.5,87 C63.2,87 63,86.8 63,86.5 L63,86.5 C63,86.2 63.2,86 63.5,86 L94.5,86 C94.8,86 95,86.2 95,86.5 L95,86.5 C95,86.8 94.8,87 94.5,87 L94.5,87 Z" id="Shape" fill="#86D0EA"></path>
                    <path d="M86.5,90 L63.5,90 C63.2,90 63,89.8 63,89.5 L63,89.5 C63,89.2 63.2,89 63.5,89 L86.5,89 C86.8,89 87,89.2 87,89.5 L87,89.5 C87,89.8 86.8,90 86.5,90 L86.5,90 Z" id="Shape" fill="#86D0EA"></path>
                    <path d="M94.5,97 L63.5,97 C63.2,97 63,96.8 63,96.5 L63,96.5 C63,96.2 63.2,96 63.5,96 L94.5,96 C94.8,96 95,96.2 95,96.5 L95,96.5 C95,96.8 94.8,97 94.5,97 L94.5,97 Z" id="Shape" fill="#86D0EA"></path>
                    <path d="M94.5,100 L63.5,100 C63.2,100 63,99.8 63,99.5 L63,99.5 C63,99.2 63.2,99 63.5,99 L94.5,99 C94.8,99 95,99.2 95,99.5 L95,99.5 C95,99.8 94.8,100 94.5,100 L94.5,100 Z" id="Shape" fill="#86D0EA"></path>
                    <path d="M94.5,103 L63.5,103 C63.2,103 63,102.8 63,102.5 L63,102.5 C63,102.2 63.2,102 63.5,102 L94.5,102 C94.8,102 95,102.2 95,102.5 L95,102.5 C95,102.8 94.8,103 94.5,103 L94.5,103 Z" id="Shape" fill="#86D0EA"></path>
                    <path d="M76.5,106 L63.5,106 C63.2,106 63,105.8 63,105.5 L63,105.5 C63,105.2 63.2,105 63.5,105 L76.5,105 C76.8,105 77,105.2 77,105.5 L77,105.5 C77,105.8 76.8,106 76.5,106 L76.5,106 Z" id="Shape" fill="#86D0EA"></path>
                    <g opacity="0.1" transform="translate(8.000000, 12.000000)" id="Shape" fill="#1489C9">
                        <path d="M2.5,0 L0,0 L0,3 L2.5,3 C3.3,3 4,2.3 4,1.5 C4,0.7 3.3,0 2.5,0 L2.5,0 Z"></path>
                    </g>
                    <g opacity="0.1" transform="translate(8.000000, 26.000000)" id="Shape" fill="#1489C9">
                        <path d="M2.5,0 L0,0 L0,3 L2.5,3 C3.3,3 4,2.3 4,1.5 C4,0.7 3.3,0 2.5,0 L2.5,0 Z"></path>
                    </g>
                    <g opacity="0.1" transform="translate(8.000000, 40.000000)" id="Shape" fill="#1489C9">
                        <path d="M2.5,0 L0,0 L0,3 L2.5,3 C3.3,3 4,2.3 4,1.5 C4,0.7 3.3,0 2.5,0 L2.5,0 Z"></path>
                    </g>
                    <g opacity="0.1" transform="translate(8.000000, 54.000000)" id="Shape" fill="#1489C9">
                        <path d="M2.5,0 L0,0 L0,3 L2.5,3 C3.3,3 4,2.3 4,1.5 C4,0.7 3.3,0 2.5,0 L2.5,0 Z"></path>
                    </g>
                    <g opacity="0.1" transform="translate(8.000000, 68.000000)" id="Shape" fill="#1489C9">
                        <path d="M2.5,0 L0,0 L0,3 L2.5,3 C3.3,3 4,2.3 4,1.5 C4,0.7 3.3,0 2.5,0 L2.5,0 Z"></path>
                    </g>
                    <g opacity="0.1" transform="translate(8.000000, 82.000000)" id="Shape" fill="#1489C9">
                        <path d="M2.5,0 L0,0 L0,3 L2.5,3 C3.3,3 4,2.3 4,1.5 C4,0.7 3.3,0 2.5,0 L2.5,0 Z"></path>
                    </g>
                    <g opacity="0.1" transform="translate(8.000000, 96.000000)" id="Shape" fill="#1489C9">
                        <path d="M2.5,0 L0,0 L0,3 L2.5,3 C3.3,3 4,2.3 4,1.5 C4,0.7 3.3,0 2.5,0 L2.5,0 Z"></path>
                    </g>
                    <g opacity="0.1" transform="translate(8.000000, 110.000000)" id="Shape" fill="#1489C9">
                        <path d="M2.5,0 L0,0 L0,3 L2.5,3 C3.3,3 4,2.3 4,1.5 C4,0.7 3.3,0 2.5,0 L2.5,0 Z"></path>
                    </g>
                </g>
                <g id="Group" transform="translate(75.000000, 114.000000)">
                    <g transform="translate(7.000000, 9.000000)">
                        <path d="M0,1 L1,1" id="Shape" fill="#FFFFFF"></path>
                        <rect id="Rectangle-path" fill="#1489C9" x="0" y="0" width="1" height="1"></rect>
                    </g>
                    <g transform="translate(8.000000, 7.000000)" id="Shape">
                        <path d="M1.5,17.5 C0.9,17.5 0.5,17.1 0.5,16.5 L0.5,1.5 C0.5,0.9 0.9,0.5 1.5,0.5 C2.1,0.5 2.5,0.9 2.5,1.5 L2.5,16.5 C2.5,17.1 2.1,17.5 1.5,17.5 L1.5,17.5 Z" fill="#FFFFFF"></path>
                        <path d="M1.5,1 C1.8,1 2,1.2 2,1.5 L2,16.5 C2,16.8 1.8,17 1.5,17 C1.2,17 1,16.8 1,16.5 L1,1.5 C1,1.2 1.2,1 1.5,1 L1.5,1 Z M1.5,0 C0.7,0 0,0.7 0,1.5 L0,16.5 C0,17.3 0.7,18 1.5,18 C2.3,18 3,17.3 3,16.5 L3,1.5 C3,0.7 2.3,0 1.5,0 L1.5,0 L1.5,0 Z" fill="#1489C9"></path>
                    </g>
                    <path d="M3.5,74 L3.5,74 C3.2,74 3,73.8 3,73.5 L3,71.5 C3,71.2 3.2,71 3.5,71 L3.5,71 C3.8,71 4,71.2 4,71.5 L4,73.5 C4,73.8 3.8,74 3.5,74 L3.5,74 Z" id="Shape" fill="#1489C9"></path>
                    <g transform="translate(2.000000, 0.000000)" id="Shape">
                        <path d="M1.5,5.5 C0.9,5.5 0.5,5.1 0.5,4.5 L0.5,1.5 C0.5,0.9 0.9,0.5 1.5,0.5 C2.1,0.5 2.5,0.9 2.5,1.5 L2.5,4.5 C2.5,5.1 2.1,5.5 1.5,5.5 L1.5,5.5 Z" fill="#FFFFFF"></path>
                        <path d="M1.5,1 C1.8,1 2,1.2 2,1.5 L2,4.5 C2,4.8 1.8,5 1.5,5 C1.2,5 1,4.8 1,4.5 L1,1.5 C1,1.2 1.2,1 1.5,1 L1.5,1 Z M1.5,0 C0.7,0 0,0.7 0,1.5 L0,4.5 C0,5.3 0.7,6 1.5,6 C2.3,6 3,5.3 3,4.5 L3,1.5 C3,0.7 2.3,0 1.5,0 L1.5,0 L1.5,0 Z" fill="#1489C9"></path>
                    </g>
                    <g transform="translate(0.000000, 4.000000)" id="Shape">
                        <path d="M3,67.5 C1.3,67.5 0.5,62.8 0.5,62 L0.5,3 C0.5,1.6 1.6,0.5 3,0.5 L4,0.5 C5.4,0.5 6.5,1.6 6.5,3 L6.5,62 C6.5,62.8 5.7,67.5 4,67.5 L3,67.5 L3,67.5 Z" fill="#FFFFFF"></path>
                        <path d="M4,1 C5.1,1 6,1.9 6,3 L6,62 C6,63.1 5.1,67 4,67 L3,67 C1.9,67 1,63.1 1,62 L1,3 C1,1.9 1.9,1 3,1 L4,1 L4,1 Z M4,0 L3,0 C1.3,0 0,1.3 0,3 L0,62 C0,62.7 0.3,64.1 0.6,65.2 C1,66.4 1.7,68 3,68 L4,68 C5.3,68 6,66.4 6.4,65.2 C6.8,64.1 7,62.7 7,62 L7,3 C7,1.3 5.7,0 4,0 L4,0 L4,0 Z" fill="#1489C9"></path>
                    </g>
                    <g opacity="0.1" transform="translate(4.000000, 5.000000)" id="Shape" fill="#1489C9">
                        <path d="M0,66 L0,0 C1.1,0 2,0.9 2,2 L2,61 C2,62.1 1.1,66 0,66 L0,66 Z"></path>
                    </g>
                    <rect id="Rectangle-path" fill="#1489C9" x="1" y="65" width="5" height="1"></rect>
                    <rect id="Rectangle-path" fill="#1489C9" x="1" y="13" width="5" height="1"></rect>
                    <path d="M4,5 C5.1,5 6,5.9 6,7 L6,66 C6,67.1 5.1,71 4,71 L3,71 C1.9,71 1,67.1 1,66 L1,7 C1,5.9 1.9,5 3,5 L4,5 L4,5 Z M4,4 L3,4 C1.3,4 0,5.3 0,7 L0,66 C0,66.7 0.3,68.1 0.6,69.2 C1,70.4 1.7,72 3,72 L4,72 C5.3,72 6,70.4 6.4,69.2 C6.8,68.1 7,66.7 7,66 L7,7 C7,5.3 5.7,4 4,4 L4,4 L4,4 Z" id="Shape" fill="#1489C9"></path>
                </g>
                <g id="Group" transform="translate(61.000000, 116.000000)">
                    <g transform="translate(1.000000, 0.000000)" id="Shape">
                        <polygon fill="#FFFFFF" points="0.5 61.1 0.5 0.5 5.5 0.5 5.5 61.1 3 72.3"></polygon>
                        <path d="M5,1 L5,61 L3,70 L1,61 L1,1 L5,1 L5,1 Z M6,0 L5,0 L1,0 L0,0 L0,1 L0,61 L0,61.1 L0,61.2 L2,70.2 L3,74.6 L4,70.2 L6,61.2 L6,61.1 L6,61 L6,1 L6,0 L6,0 L6,0 Z" fill="#1489C9"></path>
                    </g>
                    <rect id="Rectangle-path" fill="#1489C9" x="2" y="59" width="4" height="1"></rect>
                    <path d="M7,7 L1,7 C0.7,7 0.5,6.8 0.5,6.5 C0.5,6.2 0.7,6 1,6 L7,6 C7.3,6 7.5,6.2 7.5,6.5 C7.5,6.8 7.3,7 7,7 L7,7 Z" id="Shape" fill="#1489C9"></path>
                    <path d="M7,9 L1,9 C0.7,9 0.5,8.8 0.5,8.5 C0.5,8.2 0.7,8 1,8 L7,8 C7.3,8 7.5,8.2 7.5,8.5 C7.5,8.8 7.3,9 7,9 L7,9 Z" id="Shape" fill="#1489C9"></path>
                    <path d="M7,11 L1,11 C0.7,11 0.5,10.8 0.5,10.5 C0.5,10.2 0.7,10 1,10 L7,10 C7.3,10 7.5,10.2 7.5,10.5 C7.5,10.8 7.3,11 7,11 L7,11 Z" id="Shape" fill="#1489C9"></path>
                    <path d="M7,13 L1,13 C0.7,13 0.5,12.8 0.5,12.5 C0.5,12.2 0.7,12 1,12 L7,12 C7.3,12 7.5,12.2 7.5,12.5 C7.5,12.8 7.3,13 7,13 L7,13 Z" id="Shape" fill="#1489C9"></path>
                    <polygon id="Shape" fill="#1489C9" points="2 64 5 66 4 70.5"></polygon>
                    <path d="M4.5,57.5 C4.2,57.5 4,57.3 4,57 L4,28 C4,27.7 4.2,27.5 4.5,27.5 C4.8,27.5 5,27.7 5,28 L5,57 C5,57.3 4.8,57.5 4.5,57.5 L4.5,57.5 Z" id="Shape" fill="#86D0EA"></path>
                    <path d="M4.5,26.5 C4.2,26.5 4,26.3 4,26 L4,15 C4,14.7 4.2,14.5 4.5,14.5 C4.8,14.5 5,14.7 5,15 L5,26 C5,26.3 4.8,26.5 4.5,26.5 L4.5,26.5 Z" id="Shape" fill="#86D0EA"></path>
                    <g opacity="0.1" transform="translate(2.000000, 0.000000)" id="Rectangle-path" fill="#1489C9">
                        <rect x="0" y="0" width="4" height="6"></rect>
                    </g>
                    <g opacity="0.1" transform="translate(4.000000, 0.000000)" id="Rectangle-path" fill="#1489C9">
                        <rect x="0" y="0" width="2" height="6"></rect>
                    </g>
                </g>
                <g id="Group" transform="translate(58.000000, 96.000000)">
                    <g id="Shape">
                        <g>
                            <path d="M3,12.5 C1.6,12.5 0.5,11.4 0.5,10 L0.5,3 C0.5,1.6 1.6,0.5 3,0.5 L25,0.5 C26.4,0.5 27.5,1.6 27.5,3 L27.5,10 C27.5,11.4 26.4,12.5 25,12.5 L3,12.5 L3,12.5 Z" fill="#FFFFFF"></path>
                            <path d="M25,1 C26.1,1 27,1.9 27,3 L27,10 C27,11.1 26.1,12 25,12 L3,12 C1.9,12 1,11.1 1,10 L1,3 C1,1.9 1.9,1 3,1 L25,1 L25,1 Z M25,0 L3,0 C1.3,0 0,1.3 0,3 L0,10 C0,11.7 1.3,13 3,13 L25,13 C26.7,13 28,11.7 28,10 L28,3 C28,1.3 26.7,0 25,0 L25,0 L25,0 Z" fill="#1489C9"></path>
                        </g>
                        <g opacity="0.1" transform="translate(21.000000, 1.000000)" fill="#1489C9">
                            <path d="M4,0 L0,0 C1.1,0 2,0.9 2,2 L2,9 C2,10.1 1.1,11 0,11 L4,11 C5.1,11 6,10.1 6,9 L6,2 C6,0.9 5.1,0 4,0 L4,0 Z"></path>
                        </g>
                        <path d="M25,1 C26.1,1 27,1.9 27,3 L27,10 C27,11.1 26.1,12 25,12 L3,12 C1.9,12 1,11.1 1,10 L1,3 C1,1.9 1.9,1 3,1 L25,1 L25,1 Z M25,0 L3,0 C1.3,0 0,1.3 0,3 L0,10 C0,11.7 1.3,13 3,13 L25,13 C26.7,13 28,11.7 28,10 L28,3 C28,1.3 26.7,0 25,0 L25,0 L25,0 Z" fill="#1489C9"></path>
                    </g>
                    <path d="M17.5,6 L4.5,6 C4.2,6 4,5.8 4,5.5 L4,5.5 C4,5.2 4.2,5 4.5,5 L17.5,5 C17.8,5 18,5.2 18,5.5 L18,5.5 C18,5.8 17.8,6 17.5,6 L17.5,6 Z" id="Shape" fill="#86D0EA"></path>
                    <path d="M11.5,8 L4.5,8 C4.2,8 4,7.8 4,7.5 L4,7.5 C4,7.2 4.2,7 4.5,7 L11.5,7 C11.8,7 12,7.2 12,7.5 L12,7.5 C12,7.8 11.8,8 11.5,8 L11.5,8 Z" id="Shape" fill="#86D0EA"></path>
                </g>
            </g>
        </g>
    </g>
</svg>