<?xml version="1.0" encoding="UTF-8" standalone="no"?>
<svg width="356px" height="261px" viewBox="0 0 356 261" version="1.1" xmlns="http://www.w3.org/2000/svg" xmlns:xlink="http://www.w3.org/1999/xlink">
    <!-- Generator: Sketch 40.3 (33839) - http://www.bohemiancoding.com/sketch -->
    <title>Illustration - Library</title>
    <desc>Created with Sketch.</desc>
    <defs>
        <linearGradient x1="0%" y1="50%" x2="99.796334%" y2="50%" id="linearGradient-1">
            <stop stop-color="#1489C9" stop-opacity="0" offset="0%"></stop>
            <stop stop-color="#1489C9" stop-opacity="0.1" offset="100%"></stop>
        </linearGradient>
    </defs>
    <g id="Home" stroke="none" stroke-width="1" fill="none" fill-rule="evenodd">
        <g id="Illustration---Library" transform="translate(-72.000000, -120.000000)">
            <g id="Library-Illustration" transform="translate(72.000000, 120.000000)">
                <g id="Group" opacity="0.1" transform="translate(47.000000, 0.000000)" fill="#1489C9">
                    <circle id="Oval" cx="130.5" cy="130.5" r="130.5"></circle>
                </g>
                <g id="Group" transform="translate(67.000000, 172.000000)">
                    <g id="Shape">
                        <path d="M3.5,13.5 C1.8,13.5 0.5,12.2 0.5,10.5 L0.5,3.5 C0.5,1.8 1.8,0.5 3.5,0.5 L4.5,0.5 C6.2,0.5 7.5,1.8 7.5,3.5 L7.5,10.5 C7.5,12.2 6.2,13.5 4.5,13.5 L3.5,13.5 L3.5,13.5 Z" fill="#E8F4FA"></path>
                        <path d="M4.5,1 C5.9,1 7,2.1 7,3.5 L7,10.5 C7,11.9 5.9,13 4.5,13 L3.5,13 C2.1,13 1,11.9 1,10.5 L1,3.5 C1,2.1 2.1,1 3.5,1 L4.5,1 L4.5,1 Z M4.5,0 L3.5,0 C1.6,0 0,1.6 0,3.5 L0,10.5 C0,12.4 1.6,14 3.5,14 L4.5,14 C6.4,14 8,12.4 8,10.5 L8,3.5 C8,1.6 6.4,0 4.5,0 L4.5,0 L4.5,0 Z" fill="#1489C9"></path>
                    </g>
                    <g transform="translate(214.000000, 0.000000)" id="Shape">
                        <path d="M3.5,13.5 C1.8,13.5 0.5,12.2 0.5,10.5 L0.5,3.5 C0.5,1.8 1.8,0.5 3.5,0.5 L4.5,0.5 C6.2,0.5 7.5,1.8 7.5,3.5 L7.5,10.5 C7.5,12.2 6.2,13.5 4.5,13.5 L3.5,13.5 L3.5,13.5 Z" fill="#E8F4FA"></path>
                        <path d="M4.5,1 C5.9,1 7,2.1 7,3.5 L7,10.5 C7,11.9 5.9,13 4.5,13 L3.5,13 C2.1,13 1,11.9 1,10.5 L1,3.5 C1,2.1 2.1,1 3.5,1 L4.5,1 L4.5,1 Z M4.5,0 L3.5,0 C1.6,0 0,1.6 0,3.5 L0,10.5 C0,12.4 1.6,14 3.5,14 L4.5,14 C6.4,14 8,12.4 8,10.5 L8,3.5 C8,1.6 6.4,0 4.5,0 L4.5,0 L4.5,0 Z" fill="#1489C9"></path>
                    </g>
                </g>
                <g id="Group" transform="translate(67.000000, 172.000000)" fill="#1489C9">
                    <path d="M4.5,1 C5.9,1 7,2.1 7,3.5 L7,10.5 C7,11.9 5.9,13 4.5,13 L3.5,13 C2.1,13 1,11.9 1,10.5 L1,3.5 C1,2.1 2.1,1 3.5,1 L4.5,1 L4.5,1 Z M4.5,0 L3.5,0 C1.6,0 0,1.6 0,3.5 L0,10.5 C0,12.4 1.6,14 3.5,14 L4.5,14 C6.4,14 8,12.4 8,10.5 L8,3.5 C8,1.6 6.4,0 4.5,0 L4.5,0 L4.5,0 Z" id="Shape"></path>
                    <path d="M218.5,1 C219.9,1 221,2.1 221,3.5 L221,10.5 C221,11.9 219.9,13 218.5,13 L217.5,13 C216.1,13 215,11.9 215,10.5 L215,3.5 C215,2.1 216.1,1 217.5,1 L218.5,1 L218.5,1 Z M218.5,0 L217.5,0 C215.6,0 214,1.6 214,3.5 L214,10.5 C214,12.4 215.6,14 217.5,14 L218.5,14 C220.4,14 222,12.4 222,10.5 L222,3.5 C222,1.6 220.4,0 218.5,0 L218.5,0 L218.5,0 Z" id="Shape"></path>
                </g>
                <g id="Group" transform="translate(23.000000, 117.000000)">
                    <path d="M0.5,52.5 C0.5,48.2 4.1,44.6 8.4,44.6 L15.5,44.6 C15.7,44.6 15.8,44.5 15.9,44.4 C16,44.3 16,44.1 16,44 C15.9,43.7 15.9,43.5 15.9,43.2 C15.9,41.9 16.8,40.7 18.1,40.3 C18.2,40.3 18.4,40.2 18.4,40 C18.4,39.8 18.5,39.7 18.4,39.6 C17.3,37.6 16.8,35.3 16.8,33 C16.8,25.2 23.1,18.9 30.9,18.9 C32.5,18.9 34.1,19.2 35.6,19.7 L35.8,19.7 C35.9,19.7 36,19.7 36.1,19.6 C36.2,19.5 36.3,19.4 36.3,19.2 C36.3,17.5 37.7,16.2 39.3,16.2 C39.5,16.2 39.8,16.2 40.1,16.3 L40.2,16.3 C40.3,16.3 40.4,16.3 40.5,16.2 C40.6,16.1 40.7,16 40.7,15.8 L40.7,7.8 C40.7,3.6 44.1,0.4 48.6,0.3 L48.6,52.3 L0.5,52.3 L0.5,52.5 Z M30.9,25.1 C26.5,25.1 22.9,28.7 22.9,33.1 C22.9,37.5 26.5,41.1 30.9,41.1 C35.3,41.1 38.9,37.5 38.9,33.1 C38.9,28.7 35.3,25.1 30.9,25.1 L30.9,25.1 Z" id="Shape" fill="#FFFFFF"></path>
                    <path d="M48,1 L48,21.1 L48,32.6 L48,44.1 L48,52 L40.1,52 L32.1,52 L17,52 L1,52 C1.3,48.2 4.5,45.1 8.4,45.1 L15.5,45.1 C15.8,45.1 16.1,45 16.3,44.7 C16.5,44.4 16.6,44.1 16.5,43.8 C16.4,43.6 16.4,43.4 16.4,43.2 C16.4,42.1 17.2,41.1 18.2,40.8 C18.5,40.7 18.7,40.5 18.8,40.2 C18.9,39.9 18.9,39.6 18.8,39.3 C17.8,37.3 17.2,35.2 17.2,33 C17.2,25.5 23.3,19.4 30.8,19.4 C32.3,19.4 33.9,19.7 35.3,20.2 C35.4,20.2 35.5,20.3 35.6,20.3 C35.8,20.3 36,20.2 36.2,20.1 C36.5,19.9 36.6,19.6 36.6,19.3 C36.6,17.9 37.8,16.8 39.1,16.8 C39.3,16.8 39.5,16.8 39.7,16.9 L40,16.9 C40.2,16.9 40.4,16.8 40.6,16.7 C40.8,16.5 41,16.2 41,15.9 L41,7.9 C41.1,4.2 44.1,1.3 48,1 L48,1 Z M30.9,41.6 C35.6,41.6 39.4,37.8 39.4,33.1 C39.4,28.4 35.6,24.6 30.9,24.6 C26.2,24.6 22.4,28.4 22.4,33.1 C22.3,37.8 26.2,41.6 30.9,41.6 L30.9,41.6 Z M49,0 L48.6,0 C44,0 40.2,3.3 40.2,8 L40.2,16 C39.9,15.9 39.6,15.9 39.3,15.9 C37.4,15.9 35.8,17.5 35.8,19.4 C34.3,18.9 32.6,18.5 30.9,18.5 C22.8,18.5 16.3,25 16.3,33.1 C16.3,35.6 16.9,37.9 18,39.9 C16.5,40.3 15.4,41.7 15.4,43.3 C15.4,43.6 15.5,43.9 15.5,44.2 L8.4,44.2 C3.8,44.2 -1.42108547e-14,48 -1.42108547e-14,52.6 L-1.42108547e-14,53 L17.1,53 L32.2,53 L40.2,53 L49.1,53 L49.1,44.1 L49.1,32.6 L49.1,21.1 L49.1,0 L49,0 L49,0 Z M30.9,40.6 C26.7,40.6 23.4,37.2 23.4,33.1 C23.4,28.9 26.8,25.6 30.9,25.6 C35.1,25.6 38.4,29 38.4,33.1 C38.4,37.2 35,40.6 30.9,40.6 L30.9,40.6 L30.9,40.6 Z" id="Shape" fill="#1489C9"></path>
                </g>
                <path d="M71,118 L71,138.1 L71,149.6 L71,161.1 L71,169 L63.1,169 L55.1,169 L40,169 L24,169 C24.3,165.2 27.5,162.1 31.4,162.1 L38.5,162.1 C38.8,162.1 39.1,162 39.3,161.7 C39.5,161.4 39.6,161.1 39.5,160.8 C39.4,160.6 39.4,160.4 39.4,160.2 C39.4,159.1 40.2,158.1 41.2,157.8 C41.5,157.7 41.7,157.5 41.8,157.2 C41.9,156.9 41.9,156.6 41.8,156.3 C40.8,154.3 40.2,152.2 40.2,150 C40.2,142.5 46.3,136.4 53.8,136.4 C55.3,136.4 56.9,136.7 58.3,137.2 C58.4,137.2 58.5,137.3 58.6,137.3 C58.8,137.3 59,137.2 59.2,137.1 C59.5,136.9 59.6,136.6 59.6,136.3 C59.6,134.9 60.8,133.8 62.1,133.8 C62.3,133.8 62.5,133.8 62.7,133.9 L63,133.9 C63.2,133.9 63.4,133.8 63.6,133.7 C63.8,133.5 64,133.2 64,132.9 L64,124.9 C64.1,121.2 67.1,118.3 71,118 L71,118 Z M53.9,158.6 C58.6,158.6 62.4,154.8 62.4,150.1 C62.4,145.4 58.6,141.6 53.9,141.6 C49.2,141.6 45.4,145.4 45.4,150.1 C45.3,154.8 49.2,158.6 53.9,158.6 L53.9,158.6 Z M72,117 L71.6,117 C67,117 63.2,120.3 63.2,125 L63.2,133 C62.9,132.9 62.6,132.9 62.3,132.9 C60.4,132.9 58.8,134.5 58.8,136.4 C57.3,135.9 55.6,135.5 53.9,135.5 C45.8,135.5 39.3,142 39.3,150.1 C39.3,152.6 39.9,154.9 41,156.9 C39.5,157.3 38.4,158.7 38.4,160.3 C38.4,160.6 38.5,160.9 38.5,161.2 L31.4,161.2 C26.8,161.2 23,165 23,169.6 L23,170 L40.1,170 L55.2,170 L63.2,170 L72.1,170 L72.1,161.1 L72.1,149.6 L72.1,138.1 L72.1,117 L72,117 L72,117 Z M53.9,157.6 C49.7,157.6 46.4,154.2 46.4,150.1 C46.4,145.9 49.8,142.6 53.9,142.6 C58.1,142.6 61.4,146 61.4,150.1 C61.4,154.2 58,157.6 53.9,157.6 L53.9,157.6 L53.9,157.6 Z" id="Shape" fill="#1489C9"></path>
                <path d="M71.6,117 C70.3,117 69.1,117.3 68,117.7 L68,156 C68,161.5 63.5,166 58,166 L23.8,166 C23.3,167.1 23,168.2 23,169.5 L23,170 L40.1,170 L55.2,170 L63.2,170 L72.1,170 L72.1,161.1 L72.1,149.6 L72.1,138.1 L72.1,117 L71.6,117 L71.6,117 Z" id="Shape" fill="url(#linearGradient-1)"></path>
                <g id="Group" transform="translate(298.000000, 109.000000)">
                    <g id="Shape">
                        <path d="M10.7,48.5 C5.6,48.5 1.5,44.4 1.5,39.3 L1.5,9.6 C1.5,4.5 5.6,0.4 10.7,0.4 L12.4,0.4 C17.5,0.4 21.6,4.5 21.6,9.6 L21.6,39.3 C21.6,44.4 17.5,48.5 12.4,48.5 L10.7,48.5 L10.7,48.5 Z" fill="#FFFFFF"></path>
                        <path d="M12.3,1 C17.1,1 21,4.9 21,9.7 L21,39.4 C21,44.2 17.1,48.1 12.3,48.1 L10.6,48.1 C5.8,48.1 1.9,44.2 1.9,39.4 L1.9,9.7 C1.9,4.9 5.8,1 10.6,1 L12.3,1 L12.3,1 Z M12.3,0 L10.6,0 C5.3,0 0.9,4.3 0.9,9.7 L0.9,39.4 C0.9,44.7 5.2,49.1 10.6,49.1 L12.3,49.1 C17.6,49.1 22,44.8 22,39.4 L22,9.7 C22,4.3 17.7,0 12.3,0 L12.3,0 L12.3,0 Z" fill="#1489C9"></path>
                    </g>
                    <g opacity="0.1" transform="translate(12.000000, 1.000000)" id="Shape" fill="#1489C9">
                        <path d="M0.3,47 L0.3,0 C5.1,0 9,3.9 9,8.7 L9,38.4 C9,43.1 5.1,47 0.3,47 L0.3,47 Z"></path>
                    </g>
                    <g transform="translate(11.000000, 3.000000)" id="Shape">
                        <path d="M0,1 L0,5" fill="#FFFFFF"></path>
                        <path d="M0.5,5.5 C0.2,5.5 0,5.3 0,5 L0,1 C0,0.7 0.2,0.5 0.5,0.5 C0.8,0.5 1,0.7 1,1 L1,5 C1,5.3 0.8,5.5 0.5,5.5 L0.5,5.5 Z" fill="#86D0EA"></path>
                    </g>
                    <g transform="translate(11.000000, 10.000000)" id="Shape">
                        <path d="M0,1 L0,5" fill="#FFFFFF"></path>
                        <path d="M0.5,5.5 C0.2,5.5 0,5.3 0,5 L0,1 C0,0.7 0.2,0.5 0.5,0.5 C0.8,0.5 1,0.7 1,1 L1,5 C1,5.3 0.8,5.5 0.5,5.5 L0.5,5.5 Z" fill="#86D0EA"></path>
                    </g>
                    <g transform="translate(11.000000, 17.000000)" id="Shape">
                        <path d="M0,1 L0,5" fill="#FFFFFF"></path>
                        <path d="M0.5,5.5 C0.2,5.5 0,5.3 0,5 L0,1 C0,0.7 0.2,0.5 0.5,0.5 C0.8,0.5 1,0.7 1,1 L1,5 C1,5.3 0.8,5.5 0.5,5.5 L0.5,5.5 Z" fill="#86D0EA"></path>
                    </g>
                    <g transform="translate(11.000000, 24.000000)" id="Shape">
                        <path d="M0,1 L0,5" fill="#FFFFFF"></path>
                        <path d="M0.5,5.5 C0.2,5.5 0,5.3 0,5 L0,1 C0,0.7 0.2,0.5 0.5,0.5 C0.8,0.5 1,0.7 1,1 L1,5 C1,5.3 0.8,5.5 0.5,5.5 L0.5,5.5 Z" fill="#86D0EA"></path>
                    </g>
                    <g transform="translate(6.000000, 5.000000)" id="Shape">
                        <path d="M0,1 L0,5" fill="#FFFFFF"></path>
                        <path d="M0.5,5.5 C0.2,5.5 0,5.3 0,5 L0,1 C0,0.7 0.2,0.5 0.5,0.5 C0.8,0.5 1,0.7 1,1 L1,5 C1,5.3 0.8,5.5 0.5,5.5 L0.5,5.5 Z" fill="#86D0EA"></path>
                    </g>
                    <g transform="translate(6.000000, 12.000000)" id="Shape">
                        <path d="M0,1 L0,5" fill="#FFFFFF"></path>
                        <path d="M0.5,5.5 C0.2,5.5 0,5.3 0,5 L0,1 C0,0.7 0.2,0.5 0.5,0.5 C0.8,0.5 1,0.7 1,1 L1,5 C1,5.3 0.8,5.5 0.5,5.5 L0.5,5.5 Z" fill="#86D0EA"></path>
                    </g>
                    <g transform="translate(6.000000, 19.000000)" id="Shape">
                        <path d="M0,1 L0,5" fill="#FFFFFF"></path>
                        <path d="M0.5,5.5 C0.2,5.5 0,5.3 0,5 L0,1 C0,0.7 0.2,0.5 0.5,0.5 C0.8,0.5 1,0.7 1,1 L1,5 C1,5.3 0.8,5.5 0.5,5.5 L0.5,5.5 Z" fill="#86D0EA"></path>
                    </g>
                    <g transform="translate(6.000000, 26.000000)" id="Shape">
                        <path d="M0,1 L0,5" fill="#FFFFFF"></path>
                        <path d="M0.5,5.5 C0.2,5.5 0,5.3 0,5 L0,1 C0,0.7 0.2,0.5 0.5,0.5 C0.8,0.5 1,0.7 1,1 L1,5 C1,5.3 0.8,5.5 0.5,5.5 L0.5,5.5 Z" fill="#86D0EA"></path>
                    </g>
                    <g transform="translate(16.000000, 5.000000)" id="Shape">
                        <path d="M0,1 L0,5" fill="#FFFFFF"></path>
                        <path d="M0.5,5.5 C0.2,5.5 0,5.3 0,5 L0,1 C0,0.7 0.2,0.5 0.5,0.5 C0.8,0.5 1,0.7 1,1 L1,5 C1,5.3 0.8,5.5 0.5,5.5 L0.5,5.5 Z" fill="#86D0EA"></path>
                    </g>
                    <g transform="translate(16.000000, 12.000000)" id="Shape">
                        <path d="M0,1 L0,5" fill="#FFFFFF"></path>
                        <path d="M0.5,5.5 C0.2,5.5 0,5.3 0,5 L0,1 C0,0.7 0.2,0.5 0.5,0.5 C0.8,0.5 1,0.7 1,1 L1,5 C1,5.3 0.8,5.5 0.5,5.5 L0.5,5.5 Z" fill="#86D0EA"></path>
                    </g>
                    <g transform="translate(16.000000, 19.000000)" id="Shape">
                        <path d="M0,1 L0,5" fill="#FFFFFF"></path>
                        <path d="M0.5,5.5 C0.2,5.5 0,5.3 0,5 L0,1 C0,0.7 0.2,0.5 0.5,0.5 C0.8,0.5 1,0.7 1,1 L1,5 C1,5.3 0.8,5.5 0.5,5.5 L0.5,5.5 Z" fill="#86D0EA"></path>
                    </g>
                    <g transform="translate(16.000000, 26.000000)" id="Shape">
                        <path d="M0,1 L0,5" fill="#FFFFFF"></path>
                        <path d="M0.5,5.5 C0.2,5.5 0,5.3 0,5 L0,1 C0,0.7 0.2,0.5 0.5,0.5 C0.8,0.5 1,0.7 1,1 L1,5 C1,5.3 0.8,5.5 0.5,5.5 L0.5,5.5 Z" fill="#86D0EA"></path>
                    </g>
                    <path d="M12.3,1 C17.1,1 21,4.9 21,9.7 L21,39.4 C21,44.2 17.1,48.1 12.3,48.1 L10.6,48.1 C5.8,48.1 1.9,44.2 1.9,39.4 L1.9,9.7 C1.9,4.9 5.8,1 10.6,1 L12.3,1 L12.3,1 Z M12.3,0 L10.6,0 C5.3,0 0.9,4.3 0.9,9.7 L0.9,39.4 C0.9,44.7 5.2,49.1 10.6,49.1 L12.3,49.1 C17.6,49.1 22,44.8 22,39.4 L22,9.7 C22,4.3 17.7,0 12.3,0 L12.3,0 L12.3,0 Z" id="Shape" fill="#1489C9"></path>
                    <g transform="translate(9.000000, 12.000000)" id="Shape">
                        <path d="M10.7,36.5 C5.6,36.5 1.5,32.4 1.5,27.3 L1.5,9.6 C1.5,4.5 5.6,0.4 10.7,0.4 L12.4,0.4 C17.5,0.4 21.6,4.5 21.6,9.6 L21.6,27.3 C21.6,32.4 17.5,36.5 12.4,36.5 L10.7,36.5 L10.7,36.5 Z" fill="#FFFFFF"></path>
                        <path d="M12.3,1 C17.1,1 21,4.9 21,9.7 L21,27.4 C21,32.2 17.1,36.1 12.3,36.1 L10.6,36.1 C5.8,36.1 1.9,32.2 1.9,27.4 L1.9,9.7 C1.9,4.9 5.8,1 10.6,1 L12.3,1 L12.3,1 Z M12.3,0 L10.6,0 C5.3,0 0.9,4.3 0.9,9.7 L0.9,27.4 C0.9,32.7 5.2,37.1 10.6,37.1 L12.3,37.1 C17.6,37.1 22,32.8 22,27.4 L22,9.7 C22,4.3 17.7,0 12.3,0 L12.3,0 L12.3,0 Z" fill="#1489C9"></path>
                    </g>
                    <g opacity="0.1" transform="translate(21.000000, 13.000000)" id="Shape" fill="#1489C9">
                        <path d="M0.3,35 L0.3,0 C5.1,0 9,3.9 9,8.7 L9,26.4 C9,31.1 5.1,35 0.3,35 L0.3,35 Z"></path>
                    </g>
                    <g transform="translate(20.000000, 16.000000)" id="Shape">
                        <path d="M0,1 L0,5" fill="#FFFFFF"></path>
                        <path d="M0.5,5.5 C0.2,5.5 0,5.3 0,5 L0,1 C0,0.7 0.2,0.5 0.5,0.5 C0.8,0.5 1,0.7 1,1 L1,5 C1,5.3 0.8,5.5 0.5,5.5 L0.5,5.5 Z" fill="#86D0EA"></path>
                    </g>
                    <g transform="translate(20.000000, 23.000000)" id="Shape">
                        <path d="M0,1 L0,5" fill="#FFFFFF"></path>
                        <path d="M0.5,5.5 C0.2,5.5 0,5.3 0,5 L0,1 C0,0.7 0.2,0.5 0.5,0.5 C0.8,0.5 1,0.7 1,1 L1,5 C1,5.3 0.8,5.5 0.5,5.5 L0.5,5.5 Z" fill="#86D0EA"></path>
                    </g>
                    <g transform="translate(20.000000, 30.000000)" id="Shape">
                        <path d="M0,1 L0,5" fill="#FFFFFF"></path>
                        <path d="M0.5,5.5 C0.2,5.5 0,5.3 0,5 L0,1 C0,0.7 0.2,0.5 0.5,0.5 C0.8,0.5 1,0.7 1,1 L1,5 C1,5.3 0.8,5.5 0.5,5.5 L0.5,5.5 Z" fill="#86D0EA"></path>
                    </g>
                    <g transform="translate(20.000000, 37.000000)" id="Shape">
                        <path d="M0,1 L0,5" fill="#FFFFFF"></path>
                        <path d="M0.5,5.5 C0.2,5.5 0,5.3 0,5 L0,1 C0,0.7 0.2,0.5 0.5,0.5 C0.8,0.5 1,0.7 1,1 L1,5 C1,5.3 0.8,5.5 0.5,5.5 L0.5,5.5 Z" fill="#86D0EA"></path>
                    </g>
                    <g transform="translate(15.000000, 18.000000)" id="Shape">
                        <path d="M0,1 L0,5" fill="#FFFFFF"></path>
                        <path d="M0.5,5.5 C0.2,5.5 0,5.3 0,5 L0,1 C0,0.7 0.2,0.5 0.5,0.5 C0.8,0.5 1,0.7 1,1 L1,5 C1,5.3 0.8,5.5 0.5,5.5 L0.5,5.5 Z" fill="#86D0EA"></path>
                    </g>
                    <g transform="translate(15.000000, 25.000000)" id="Shape">
                        <path d="M0,1 L0,5" fill="#FFFFFF"></path>
                        <path d="M0.5,5.5 C0.2,5.5 0,5.3 0,5 L0,1 C0,0.7 0.2,0.5 0.5,0.5 C0.8,0.5 1,0.7 1,1 L1,5 C1,5.3 0.8,5.5 0.5,5.5 L0.5,5.5 Z" fill="#86D0EA"></path>
                    </g>
                    <g transform="translate(15.000000, 32.000000)" id="Shape">
                        <path d="M0,1 L0,5" fill="#FFFFFF"></path>
                        <path d="M0.5,5.5 C0.2,5.5 0,5.3 0,5 L0,1 C0,0.7 0.2,0.5 0.5,0.5 C0.8,0.5 1,0.7 1,1 L1,5 C1,5.3 0.8,5.5 0.5,5.5 L0.5,5.5 Z" fill="#86D0EA"></path>
                    </g>
                    <g transform="translate(15.000000, 39.000000)" id="Shape">
                        <path d="M0,1 L0,5" fill="#FFFFFF"></path>
                        <path d="M0.5,5.5 C0.2,5.5 0,5.3 0,5 L0,1 C0,0.7 0.2,0.5 0.5,0.5 C0.8,0.5 1,0.7 1,1 L1,5 C1,5.3 0.8,5.5 0.5,5.5 L0.5,5.5 Z" fill="#86D0EA"></path>
                    </g>
                    <g transform="translate(25.000000, 18.000000)" id="Shape">
                        <path d="M0,1 L0,5" fill="#FFFFFF"></path>
                        <path d="M0.5,5.5 C0.2,5.5 0,5.3 0,5 L0,1 C0,0.7 0.2,0.5 0.5,0.5 C0.8,0.5 1,0.7 1,1 L1,5 C1,5.3 0.8,5.5 0.5,5.5 L0.5,5.5 Z" fill="#86D0EA"></path>
                    </g>
                    <g transform="translate(25.000000, 25.000000)" id="Shape">
                        <path d="M0,1 L0,5" fill="#FFFFFF"></path>
                        <path d="M0.5,5.5 C0.2,5.5 0,5.3 0,5 L0,1 C0,0.7 0.2,0.5 0.5,0.5 C0.8,0.5 1,0.7 1,1 L1,5 C1,5.3 0.8,5.5 0.5,5.5 L0.5,5.5 Z" fill="#86D0EA"></path>
                    </g>
                    <g transform="translate(25.000000, 32.000000)" id="Shape">
                        <path d="M0,1 L0,5" fill="#FFFFFF"></path>
                        <path d="M0.5,5.5 C0.2,5.5 0,5.3 0,5 L0,1 C0,0.7 0.2,0.5 0.5,0.5 C0.8,0.5 1,0.7 1,1 L1,5 C1,5.3 0.8,5.5 0.5,5.5 L0.5,5.5 Z" fill="#86D0EA"></path>
                    </g>
                    <g transform="translate(25.000000, 39.000000)" id="Shape">
                        <path d="M0,1 L0,5" fill="#FFFFFF"></path>
                        <path d="M0.5,5.5 C0.2,5.5 0,5.3 0,5 L0,1 C0,0.7 0.2,0.5 0.5,0.5 C0.8,0.5 1,0.7 1,1 L1,5 C1,5.3 0.8,5.5 0.5,5.5 L0.5,5.5 Z" fill="#86D0EA"></path>
                    </g>
                    <path d="M21.3,13 C26.1,13 30,16.9 30,21.7 L30,39.4 C30,44.2 26.1,48.1 21.3,48.1 L19.6,48.1 C14.8,48.1 10.9,44.2 10.9,39.4 L10.9,21.7 C10.9,16.9 14.8,13 19.6,13 L21.3,13 L21.3,13 Z M21.3,12 L19.6,12 C14.3,12 9.9,16.3 9.9,21.7 L9.9,39.4 C9.9,44.7 14.2,49.1 19.6,49.1 L21.3,49.1 C26.6,49.1 31,44.8 31,39.4 L31,21.7 C31,16.3 26.7,12 21.3,12 L21.3,12 L21.3,12 Z" id="Shape" fill="#1489C9"></path>
                </g>
                <g id="Group" transform="translate(289.000000, 141.000000)">
                    <path d="M10,28.5 C9.8,28.5 9.6,28.4 9.5,28.2 L0.5,1.2 C0.4,1 0.5,0.9 0.6,0.7 C0.7,0.6 0.8,0.5 1,0.5 L49,0.5 C49.2,0.5 49.3,0.6 49.4,0.7 C49.5,0.8 49.5,1 49.5,1.2 L40.5,28.2 C40.4,28.4 40.2,28.5 40,28.5 L10,28.5 L10,28.5 Z" id="Shape" fill="#FFFFFF"></path>
                    <path d="M49,1 L40,28 L10,28 L1,1 L49,1 L49,1 Z M49,0 L1,0 C0.7,0 0.4,0.2 0.2,0.4 C3.10862447e-15,0.7 3.10862447e-15,1 0.1,1.3 L9.1,28.3 C9.2,28.7 9.6,29 10,29 L40,29 C40.4,29 40.8,28.7 40.9,28.3 L49.9,1.3 C50,1 50,0.7 49.8,0.4 C49.6,0.2 49.3,0 49,0 L49,0 L49,0 Z" id="Shape" fill="#1489C9"></path>
                </g>
                <polygon id="Shape" fill="#E8F4FA" points="338 142 322 142 317 169 329 169"></polygon>
                <g id="Group" transform="translate(113.000000, 74.000000)">
                    <g>
                        <rect id="Rectangle-path" fill="#FFFFFF" x="0.5" y="0.5" width="22" height="95"></rect>
                        <path d="M22,1 L22,95 L1,95 L1,1 L22,1 L22,1 Z M23,0 L0,0 L0,96 L23,96 L23,0 L23,0 L23,0 Z" id="Shape" fill="#1489C9"></path>
                    </g>
                    <g opacity="0.1" transform="translate(15.000000, 0.000000)" id="Shape" fill="#1489C9">
                        <path d="M5,96 L0,96 L0,0 L5,0 C6.6,0 8,1.4 8,3 L8,93 C8,94.6 6.6,96 5,96 L5,96 Z"></path>
                    </g>
                    <g transform="translate(1.000000, 10.000000)">
                        <path d="M0,1 L21,1" id="Shape" fill="#FFFFFF"></path>
                        <rect id="Rectangle-path" fill="#1489C9" x="0" y="0" width="21" height="1"></rect>
                    </g>
                    <g transform="translate(1.000000, 87.000000)">
                        <path d="M0,1 L21,1" id="Shape" fill="#FFFFFF"></path>
                        <rect id="Rectangle-path" fill="#1489C9" x="0" y="0" width="21" height="1"></rect>
                    </g>
                    <path d="M22,1 L22,95 L1,95 L1,1 L22,1 L22,1 Z M23,0 L0,0 L0,96 L23,96 L23,0 L23,0 L23,0 Z" id="Shape" fill="#1489C9"></path>
                </g>
                <g id="Group" transform="translate(71.000000, 76.000000)">
                    <g>
                        <rect id="Rectangle-path" fill="#FFFFFF" x="0.5" y="0.5" width="22" height="93"></rect>
                        <path d="M22,1 L22,93 L1,93 L1,1 L22,1 L22,1 Z M23,0 L0,0 L0,94 L23,94 L23,0 L23,0 L23,0 Z" id="Shape" fill="#1489C9"></path>
                    </g>
                    <g transform="translate(1.000000, 9.000000)">
                        <path d="M0,1 L21,1" id="Shape" fill="#FFFFFF"></path>
                        <rect id="Rectangle-path" fill="#1489C9" x="0" y="0" width="21" height="1"></rect>
                    </g>
                    <g transform="translate(1.000000, 28.000000)">
                        <path d="M0,1 L21,1" id="Shape" fill="#FFFFFF"></path>
                        <rect id="Rectangle-path" fill="#1489C9" x="0" y="0" width="21" height="1"></rect>
                    </g>
                    <g transform="translate(1.000000, 86.000000)">
                        <path d="M0,1 L21,1" id="Shape" fill="#FFFFFF"></path>
                        <rect id="Rectangle-path" fill="#1489C9" x="0" y="0" width="21" height="1"></rect>
                    </g>
                    <g opacity="0.1" transform="translate(17.000000, 0.000000)" id="Shape" fill="#1489C9">
                        <path d="M3,94 L0,94 L0,0 L3,0 C4.6,0 6,1.4 6,3 L6,91 C6,92.6 4.6,94 3,94 L3,94 Z"></path>
                    </g>
                    <path d="M22,1 L22,93 L1,93 L1,1 L22,1 L22,1 Z M23,0 L0,0 L0,94 L23,94 L23,0 L23,0 L23,0 Z" id="Shape" fill="#1489C9"></path>
                </g>
                <g id="Group" transform="translate(93.000000, 81.000000)">
                    <g>
                        <rect id="Rectangle-path" fill="#FFFFFF" x="0.5" y="0.5" width="20" height="88"></rect>
                        <path d="M20,1 L20,88 L1,88 L1,1 L20,1 L20,1 Z M21,0 L0,0 L0,89 L21,89 L21,0 L21,0 L21,0 Z" id="Shape" fill="#1489C9"></path>
                    </g>
                    <g opacity="0.1" transform="translate(15.000000, 0.000000)" id="Shape" fill="#1489C9">
                        <path d="M3,89 L0,89 L0,0 L3,0 C4.6,0 6,1.4 6,3 L6,86 C6,87.6 4.6,89 3,89 L3,89 Z"></path>
                    </g>
                    <g transform="translate(1.000000, 32.000000)">
                        <path d="M0,1 L19,1" id="Shape" fill="#FFFFFF"></path>
                        <rect id="Rectangle-path" fill="#1489C9" x="0" y="0" width="19" height="1"></rect>
                    </g>
                    <g transform="translate(1.000000, 51.000000)">
                        <path d="M0,1 L19,1" id="Shape" fill="#FFFFFF"></path>
                        <rect id="Rectangle-path" fill="#1489C9" x="0" y="0" width="19" height="1"></rect>
                    </g>
                    <g transform="translate(5.000000, 8.000000)">
                        <circle id="Oval" fill="#FFFFFF" cx="5.5" cy="5.5" r="4.5"></circle>
                        <path d="M5.5,10.5 C2.7,10.5 0.5,8.3 0.5,5.5 C0.5,2.7 2.7,0.5 5.5,0.5 C8.3,0.5 10.5,2.7 10.5,5.5 C10.5,8.3 8.3,10.5 5.5,10.5 L5.5,10.5 Z M5.5,1.5 C3.3,1.5 1.5,3.3 1.5,5.5 C1.5,7.7 3.3,9.5 5.5,9.5 C7.7,9.5 9.5,7.7 9.5,5.5 C9.5,3.3 7.7,1.5 5.5,1.5 L5.5,1.5 Z" id="Shape" fill="#1489C9"></path>
                    </g>
                    <g opacity="0.1" transform="translate(10.000000, 9.000000)" id="Shape" fill="#1489C9">
                        <path d="M5,4.5 C5,7 3,9 0.5,9 L0.5,0 C3,0 5,2 5,4.5 L5,4.5 Z"></path>
                    </g>
                    <path d="M20,1 L20,88 L1,88 L1,1 L20,1 L20,1 Z M21,0 L0,0 L0,89 L21,89 L21,0 L21,0 L21,0 Z" id="Shape" fill="#1489C9"></path>
                    <path d="M10.5,18.5 C7.7,18.5 5.5,16.3 5.5,13.5 C5.5,10.7 7.7,8.5 10.5,8.5 C13.3,8.5 15.5,10.7 15.5,13.5 C15.5,16.3 13.3,18.5 10.5,18.5 L10.5,18.5 Z M10.5,9.5 C8.3,9.5 6.5,11.3 6.5,13.5 C6.5,15.7 8.3,17.5 10.5,17.5 C12.7,17.5 14.5,15.7 14.5,13.5 C14.5,11.3 12.7,9.5 10.5,9.5 L10.5,9.5 Z" id="Shape" fill="#1489C9"></path>
                </g>
                <g id="Group" transform="translate(185.000000, 89.000000)">
                    <g>
                        <rect id="Rectangle-path" fill="#FFFFFF" x="0.5" y="0.5" width="21" height="80"></rect>
                        <path d="M21,1 L21,80 L1,80 L1,1 L21,1 L21,1 Z M22,0 L0,0 L0,81 L22,81 L22,0 L22,0 L22,0 Z" id="Shape" fill="#1489C9"></path>
                    </g>
                    <g opacity="0.1" transform="translate(14.000000, 0.000000)" id="Shape" fill="#1489C9">
                        <path d="M5,81 L0,81 L0,0 L5,0 C6.6,0 8,1.4 8,3 L8,78 C8,79.6 6.7,81 5,81 L5,81 Z"></path>
                    </g>
                    <path d="M21,1 L21,80 L1,80 L1,1 L21,1 L21,1 Z M22,0 L0,0 L0,81 L22,81 L22,0 L22,0 L22,0 Z" id="Shape" fill="#1489C9"></path>
                    <g transform="translate(7.000000, 10.000000)">
                        <rect id="Rectangle-path" fill="#FFFFFF" x="0.5" y="1" width="7" height="7"></rect>
                        <path d="M7,1.5 L7,7.5 L1,7.5 L1,1.5 L7,1.5 L7,1.5 Z M8,0.5 L0,0.5 L0,8.5 L8,8.5 L8,0.5 L8,0.5 L8,0.5 Z" id="Shape" fill="#1489C9"></path>
                    </g>
                    <g transform="translate(1.000000, 32.000000)">
                        <path d="M0,1 L20,1" id="Shape" fill="#FFFFFF"></path>
                        <rect id="Rectangle-path" fill="#1489C9" x="0" y="0" width="20" height="1"></rect>
                    </g>
                    <g transform="translate(1.000000, 41.000000)">
                        <path d="M0,1 L20,1" id="Shape" fill="#FFFFFF"></path>
                        <rect id="Rectangle-path" fill="#1489C9" x="0" y="0" width="20" height="1"></rect>
                    </g>
                </g>
                <path d="M338,142 L329,169 L299,169 L290,142 L338,142 L338,142 Z M338,141 L290,141 C289.7,141 289.4,141.2 289.2,141.4 C289,141.7 289,142 289.1,142.3 L298.1,169.3 C298.2,169.7 298.6,170 299,170 L329,170 C329.4,170 329.8,169.7 329.9,169.3 L338.9,142.3 C339,142 339,141.7 338.8,141.4 C338.6,141.2 338.3,141 338,141 L338,141 L338,141 Z" id="Shape" fill="#1489C9"></path>
                <g id="Group" transform="translate(210.000000, 106.000000)">
                    <g id="Shape">
                        <g transform="translate(7.000000, 5.000000)">
                            <path d="M1,11.5 C0.7,11.5 0.5,11.3 0.5,11 L0.5,1 C0.5,0.7 0.7,0.5 1,0.5 L58,0.5 C58.3,0.5 58.5,0.7 58.5,1 L58.5,11 C58.5,11.3 58.3,11.5 58,11.5 L1,11.5 L1,11.5 Z" fill="#FFFFFF"></path>
                            <path d="M58,1 L58,11 L1,11 L1,1 L58,1 L58,1 Z M58,0 L1,0 C0.4,0 0,0.4 0,1 L0,11 C0,11.6 0.4,12 1,12 L58,12 C58.6,12 59,11.6 59,11 L59,1 C59,0.4 58.6,0 58,0 L58,0 L58,0 Z" fill="#1489C9"></path>
                        </g>
                        <g>
                            <path d="M7,22 C3.4,22 0.5,17.4 0.5,11.5 C0.5,5.6 3.4,1 7,1 L68,1 L68,7 L12,7 C9.4,7 7.5,8.9 7.5,11.5 C7.5,14.1 9.4,16 12,16 L68,16 L68,22 L7,22 L7,22 Z" fill="#FFFFFF"></path>
                            <path d="M68,1 L68,6 L12,6 C9.1,6 7,8.1 7,11 C7,13.9 9.1,16 12,16 L68,16 L68,21 L7,21 C3.6,21 1,16.6 1,11 C1,5.4 3.6,1 7,1 L68,1 L68,1 Z M69,0 L7,0 C3,0 0,4.9 0,11 C0,17.1 3,22 7,22 L69,22 L69,15 L12,15 C9.5,15 8,13.2 8,11 C8,8.8 9.5,7 12,7 L69,7 L69,0 L69,0 L69,0 Z" fill="#1489C9"></path>
                        </g>
                        <g opacity="0.1" transform="translate(37.000000, 0.000000)" fill="#1489C9">
                            <g transform="translate(0.000000, 15.000000)">
                                <polygon points="0.4 7 32 7 32 0 7.4 0"></polygon>
                            </g>
                            <g transform="translate(15.000000, 0.000000)">
                                <polygon points="7.4 0 0.4 7 17 7 17 0"></polygon>
                            </g>
                        </g>
                        <path d="M68,1 L68,6 L12,6 C9.1,6 7,8.1 7,11 C7,13.9 9.1,16 12,16 L68,16 L68,21 L7,21 C3.6,21 1,16.6 1,11 C1,5.4 3.6,1 7,1 L68,1 L68,1 Z M69,0 L7,0 C3,0 0,4.9 0,11 C0,17.1 3,22 7,22 L69,22 L69,15 L12,15 C9.5,15 8,13.2 8,11 C8,8.8 9.5,7 12,7 L69,7 L69,0 L69,0 L69,0 Z" fill="#1489C9"></path>
                    </g>
                    <path d="M45,10 L13,10 C12.7,10 12.5,9.8 12.5,9.5 C12.5,9.2 12.7,9 13,9 L45,9 C45.3,9 45.5,9.2 45.5,9.5 C45.5,9.8 45.3,10 45,10 L45,10 Z" id="Shape" fill="#86D0EA"></path>
                    <path d="M65,10 L49,10 C48.7,10 48.5,9.8 48.5,9.5 C48.5,9.2 48.7,9 49,9 L65,9 C65.3,9 65.5,9.2 65.5,9.5 C65.5,9.8 65.3,10 65,10 L65,10 Z" id="Shape" fill="#86D0EA"></path>
                    <path d="M24,13 L13,13 C12.7,13 12.5,12.8 12.5,12.5 C12.5,12.2 12.7,12 13,12 L24,12 C24.3,12 24.5,12.2 24.5,12.5 C24.5,12.8 24.3,13 24,13 L24,13 Z" id="Shape" fill="#86D0EA"></path>
                    <path d="M54,13 L27,13 C26.7,13 26.5,12.8 26.5,12.5 C26.5,12.2 26.7,12 27,12 L54,12 C54.3,12 54.5,12.2 54.5,12.5 C54.5,12.8 54.3,13 54,13 L54,13 Z" id="Shape" fill="#86D0EA"></path>
                    <path d="M65,13 L57,13 C56.7,13 56.5,12.8 56.5,12.5 C56.5,12.2 56.7,12 57,12 L65,12 C65.3,12 65.5,12.2 65.5,12.5 C65.5,12.8 65.3,13 65,13 L65,13 Z" id="Shape" fill="#86D0EA"></path>
                    <path d="M65.5,15.5 C65.2,15.5 65,15.3 65,15 L65,7 C65,6.7 65.2,6.5 65.5,6.5 C65.8,6.5 66,6.7 66,7 L66,15 C66,15.3 65.8,15.5 65.5,15.5 L65.5,15.5 Z" id="Shape" fill="#1489C9"></path>
                </g>
                <g id="Group" transform="translate(216.000000, 127.000000)">
                    <g id="Shape">
                        <g transform="translate(7.000000, 5.000000)">
                            <path d="M1,11.5 C0.7,11.5 0.5,11.3 0.5,11 L0.5,1 C0.5,0.7 0.7,0.5 1,0.5 L58,0.5 C58.3,0.5 58.5,0.7 58.5,1 L58.5,11 C58.5,11.3 58.3,11.5 58,11.5 L1,11.5 L1,11.5 Z" fill="#FFFFFF"></path>
                            <path d="M58,1 L58,11 L1,11 L1,1 L58,1 L58,1 Z M58,0 L1,0 C0.4,0 0,0.4 0,1 L0,11 C0,11.6 0.4,12 1,12 L58,12 C58.6,12 59,11.6 59,11 L59,1 C59,0.4 58.6,0 58,0 L58,0 L58,0 Z" fill="#1489C9"></path>
                        </g>
                        <g>
                            <path d="M7,22 C3.4,22 0.5,17.4 0.5,11.5 C0.5,5.6 3.4,1 7,1 L68,1 L68,7 L12,7 C9.4,7 7.5,8.9 7.5,11.5 C7.5,14.1 9.4,16 12,16 L68,16 L68,22 L7,22 L7,22 Z" fill="#FFFFFF"></path>
                            <path d="M68,1 L68,6 L12,6 C9.1,6 7,8.1 7,11 C7,13.9 9.1,16 12,16 L68,16 L68,21 L7,21 C3.6,21 1,16.6 1,11 C1,5.4 3.6,1 7,1 L68,1 L68,1 Z M69,0 L7,0 C3,0 0,4.9 0,11 C0,17.1 3,22 7,22 L69,22 L69,15 L12,15 C9.5,15 8,13.2 8,11 C8,8.8 9.5,7 12,7 L69,7 L69,0 L69,0 L69,0 Z" fill="#1489C9"></path>
                        </g>
                        <g opacity="0.1" transform="translate(34.000000, 0.000000)" fill="#1489C9">
                            <g transform="translate(0.000000, 15.000000)">
                                <polygon points="0.2 7 35 7 35 0 7.2 0"></polygon>
                            </g>
                            <g transform="translate(15.000000, 0.000000)">
                                <polygon points="7.2 0 0.2 7 20 7 20 0"></polygon>
                            </g>
                        </g>
                        <path d="M68,1 L68,6 L12,6 C9.1,6 7,8.1 7,11 C7,13.9 9.1,16 12,16 L68,16 L68,21 L7,21 C3.6,21 1,16.6 1,11 C1,5.4 3.6,1 7,1 L68,1 L68,1 Z M69,0 L7,0 C3,0 0,4.9 0,11 C0,17.1 3,22 7,22 L69,22 L69,15 L12,15 C9.5,15 8,13.2 8,11 C8,8.8 9.5,7 12,7 L69,7 L69,0 L69,0 L69,0 Z" fill="#1489C9"></path>
                    </g>
                    <path d="M45,10 L13,10 C12.7,10 12.5,9.8 12.5,9.5 C12.5,9.2 12.7,9 13,9 L45,9 C45.3,9 45.5,9.2 45.5,9.5 C45.5,9.8 45.3,10 45,10 L45,10 Z" id="Shape" fill="#86D0EA"></path>
                    <path d="M65,10 L49,10 C48.7,10 48.5,9.8 48.5,9.5 C48.5,9.2 48.7,9 49,9 L65,9 C65.3,9 65.5,9.2 65.5,9.5 C65.5,9.8 65.3,10 65,10 L65,10 Z" id="Shape" fill="#86D0EA"></path>
                    <path d="M24,13 L13,13 C12.7,13 12.5,12.8 12.5,12.5 C12.5,12.2 12.7,12 13,12 L24,12 C24.3,12 24.5,12.2 24.5,12.5 C24.5,12.8 24.3,13 24,13 L24,13 Z" id="Shape" fill="#86D0EA"></path>
                    <path d="M54,13 L27,13 C26.7,13 26.5,12.8 26.5,12.5 C26.5,12.2 26.7,12 27,12 L54,12 C54.3,12 54.5,12.2 54.5,12.5 C54.5,12.8 54.3,13 54,13 L54,13 Z" id="Shape" fill="#86D0EA"></path>
                    <path d="M65,13 L57,13 C56.7,13 56.5,12.8 56.5,12.5 C56.5,12.2 56.7,12 57,12 L65,12 C65.3,12 65.5,12.2 65.5,12.5 C65.5,12.8 65.3,13 65,13 L65,13 Z" id="Shape" fill="#86D0EA"></path>
                    <path d="M65.5,15.5 C65.2,15.5 65,15.3 65,15 L65,7 C65,6.7 65.2,6.5 65.5,6.5 C65.8,6.5 66,6.7 66,7 L66,15 C66,15.3 65.8,15.5 65.5,15.5 L65.5,15.5 Z" id="Shape" fill="#1489C9"></path>
                </g>
                <g id="Group" transform="translate(211.000000, 148.000000)">
                    <g id="Shape">
                        <g transform="translate(3.000000, 5.000000)">
                            <path d="M1,11.5 C0.7,11.5 0.5,11.3 0.5,11 L0.5,1 C0.5,0.7 0.7,0.5 1,0.5 L58,0.5 C58.3,0.5 58.5,0.7 58.5,1 L58.5,11 C58.5,11.3 58.3,11.5 58,11.5 L1,11.5 L1,11.5 Z" fill="#FFFFFF"></path>
                            <path d="M58,1 L58,11 L1,11 L1,1 L58,1 L58,1 Z M58,0 L1,0 C0.4,0 0,0.4 0,1 L0,11 C0,11.6 0.4,12 1,12 L58,12 C58.6,12 59,11.6 59,11 L59,1 C59,0.4 58.6,0 58,0 L58,0 L58,0 Z" fill="#1489C9"></path>
                        </g>
                        <g>
                            <path d="M0,22 L0,16 L57,16 C59.6,16 61.5,14.1 61.5,11.5 C61.5,8.9 59.6,7 57,7 L0,7 L0,1 L62,1 C65.6,1 68.5,5.6 68.5,11.5 C68.5,17.4 65.6,22 62,22 L0,22 L0,22 Z" fill="#FFFFFF"></path>
                            <path d="M62,1 C65.4,1 68,5.4 68,11 C68,16.6 65.4,21 62,21 L1,21 L1,16 L57,16 C59.9,16 62,13.9 62,11 C62,8.1 59.9,6 57,6 L1,6 L1,1 L62,1 L62,1 Z M62,0 L0,0 L0,7 L57,7 C59.5,7 61,8.8 61,11 C61,13.2 59.5,15 57,15 L0,15 L0,22 L62,22 C66,22 69,17.1 69,11 C69,4.9 66,0 62,0 L62,0 L62,0 Z" fill="#1489C9"></path>
                        </g>
                        <g opacity="0.1" transform="translate(33.000000, 0.000000)" fill="#1489C9">
                            <path d="M29,0 L22.6,0 L15.6,7 L24,7 C26.5,7 28,8.8 28,11 C28,13.2 26.5,15 24,15 L7.6,15 L0.6,22 L29,22 C33,22 36,17.1 36,11 C36,4.9 33,0 29,0 L29,0 Z"></path>
                        </g>
                        <path d="M62,1 C65.4,1 68,5.4 68,11 C68,16.6 65.4,21 62,21 L1,21 L1,16 L57,16 C59.9,16 62,13.9 62,11 C62,8.1 59.9,6 57,6 L1,6 L1,1 L62,1 L62,1 Z M62,0 L0,0 L0,7 L57,7 C59.5,7 61,8.8 61,11 C61,13.2 59.5,15 57,15 L0,15 L0,22 L62,22 C66,22 69,17.1 69,11 C69,4.9 66,0 62,0 L62,0 L62,0 Z" fill="#1489C9"></path>
                    </g>
                    <path d="M56,13 L24,13 C23.7,13 23.5,12.8 23.5,12.5 C23.5,12.2 23.7,12 24,12 L56,12 C56.3,12 56.5,12.2 56.5,12.5 C56.5,12.8 56.3,13 56,13 L56,13 Z" id="Shape" fill="#86D0EA"></path>
                    <path d="M20,13 L4,13 C3.7,13 3.5,12.8 3.5,12.5 C3.5,12.2 3.7,12 4,12 L20,12 C20.3,12 20.5,12.2 20.5,12.5 C20.5,12.8 20.3,13 20,13 L20,13 Z" id="Shape" fill="#86D0EA"></path>
                    <path d="M56,10 L45,10 C44.7,10 44.5,9.8 44.5,9.5 C44.5,9.2 44.7,9 45,9 L56,9 C56.3,9 56.5,9.2 56.5,9.5 C56.5,9.8 56.3,10 56,10 L56,10 Z" id="Shape" fill="#86D0EA"></path>
                    <path d="M42,10 L15,10 C14.7,10 14.5,9.8 14.5,9.5 C14.5,9.2 14.7,9 15,9 L42,9 C42.3,9 42.5,9.2 42.5,9.5 C42.5,9.8 42.3,10 42,10 L42,10 Z" id="Shape" fill="#86D0EA"></path>
                    <path d="M12,10 L4,10 C3.7,10 3.5,9.8 3.5,9.5 C3.5,9.2 3.7,9 4,9 L12,9 C12.3,9 12.5,9.2 12.5,9.5 C12.5,9.8 12.3,10 12,10 L12,10 Z" id="Shape" fill="#86D0EA"></path>
                    <path d="M3.5,15.5 C3.2,15.5 3,15.3 3,15 L3,7 C3,6.7 3.2,6.5 3.5,6.5 C3.8,6.5 4,6.7 4,7 L4,15 C4,15.3 3.8,15.5 3.5,15.5 L3.5,15.5 Z" id="Shape" fill="#1489C9"></path>
                </g>
                <polygon id="Shape" fill="#1489C9" points="239 141 235 138 231 141 231 115 239 115"></polygon>
                <g id="Group" transform="translate(140.000000, 73.000000)">
                    <g>
                        <rect id="Rectangle-path" fill="#FFFFFF" transform="translate(24.495900, 49.000200) rotate(-73.906643) translate(-24.495900, -49.000200) " x="-22.0035532" y="38.0003294" width="92.9989063" height="21.9997413"></rect>
                        <path d="M27.2,1.9 L47.4,7.7 L21.9,96.1 L1.7,90.3 L27.2,1.9 L27.2,1.9 Z M26.5,0.7 L0.4,91 L22.5,97.4 L48.6,7.1 L26.5,0.7 L26.5,0.7 L26.5,0.7 Z" id="Shape" fill="#1489C9"></path>
                    </g>
                    <g opacity="0.1" transform="translate(19.000000, 3.000000)" id="Shape" fill="#1489C9">
                        <path d="M0.6,93.5 L16,0.1 L26.7,3.2 C28.3,3.7 29.2,5.3 28.8,6.9 L4.4,91.5 C3.9,93 2.2,94 0.6,93.5 L0.6,93.5 Z"></path>
                    </g>
                    <g transform="translate(24.000000, 9.000000)">
                        <path d="M0.8,1.1 L21,6.9" id="Shape" fill="#FFFFFF"></path>
                        <rect id="Rectangle-path" fill="#1489C9" transform="translate(10.921480, 3.974280) rotate(-73.906643) translate(-10.921480, -3.974280) " x="10.4214859" y="-6.52559652" width="0.99998824" height="20.999753"></rect>
                    </g>
                    <g transform="translate(19.000000, 27.000000)">
                        <path d="M0.5,1.3 L20.7,7.1" id="Shape" fill="#FFFFFF"></path>
                        <rect id="Rectangle-path" fill="#1489C9" transform="translate(10.592280, 4.246160) rotate(-73.906643) translate(-10.592280, -4.246160) " x="10.0922859" y="-6.25371652" width="0.99998824" height="20.999753"></rect>
                    </g>
                    <g transform="translate(3.000000, 83.000000)">
                        <path d="M0.5,1 L20.6,6.9" id="Shape" fill="#FFFFFF"></path>
                        <rect id="Rectangle-path" fill="#1489C9" transform="translate(10.606020, 3.917420) rotate(-73.906643) translate(-10.606020, -3.917420) " x="10.1060259" y="-6.58245652" width="0.99998824" height="20.999753"></rect>
                    </g>
                    <path d="M27.2,1.9 L47.4,7.7 L21.9,96.1 L1.7,90.3 L27.2,1.9 L27.2,1.9 Z M26.5,0.7 L0.4,91 L22.5,97.4 L48.6,7.1 L26.5,0.7 L26.5,0.7 L26.5,0.7 Z" id="Shape" fill="#1489C9"></path>
                </g>
                <g id="Group" transform="translate(0.000000, 169.000000)">
                    <g>
                        <rect id="Rectangle-path" fill="#FFFFFF" x="0.5" y="0.5" width="355" height="7"></rect>
                        <path d="M355,1 L355,7 L1,7 L1,1 L355,1 L355,1 Z M356,0 L0,0 L0,8 L356,8 L356,0 L356,0 L356,0 Z" id="Shape" fill="#1489C9"></path>
                    </g>
                    <rect id="Rectangle-path" fill="#E8F4FA" x="1" y="4" width="354" height="3"></rect>
                    <path d="M355,1 L355,7 L1,7 L1,1 L355,1 L355,1 Z M356,0 L0,0 L0,8 L356,8 L356,0 L356,0 L356,0 Z" id="Shape" fill="#1489C9"></path>
                </g>
            </g>
        </g>
    </g>
</svg>