<?xml version="1.0" encoding="UTF-8" standalone="no"?>
<svg width="372px" height="260px" viewBox="0 0 372 260" version="1.1" xmlns="http://www.w3.org/2000/svg" xmlns:xlink="http://www.w3.org/1999/xlink">
    <!-- Generator: Sketch 40.3 (33839) - http://www.bohemiancoding.com/sketch -->
    <title>Illustration - Flexible</title>
    <desc>Created with Sketch.</desc>
    <defs></defs>
    <g id="Home" stroke="none" stroke-width="1" fill="none" fill-rule="evenodd">
        <g id="Illustration---Flexible" transform="translate(-64.000000, -120.000000)">
            <g id="Library-Flexible" transform="translate(64.000000, 120.000000)">
                <g id="Group" opacity="0.1" transform="translate(88.000000, 0.000000)" fill="#1489C9">
                    <circle id="Oval" cx="130" cy="130" r="130"></circle>
                </g>
                <g id="Group" transform="translate(116.000000, 48.000000)">
                    <g id="Shape">
                        <path d="M5,131.5 C2.5,131.5 0.5,129.5 0.5,127 L0.5,5 C0.5,2.5 2.5,0.5 5,0.5 L197,0.5 C199.5,0.5 201.5,2.5 201.5,5 L201.5,127 C201.5,129.5 199.5,131.5 197,131.5 L5,131.5 L5,131.5 Z" fill="#FFFFFF"></path>
                        <path d="M197,1 C199.2,1 201,2.8 201,5 L201,127 C201,129.2 199.2,131 197,131 L5,131 C2.8,131 1,129.2 1,127 L1,5 C1,2.8 2.8,1 5,1 L197,1 L197,1 Z M197,0 L5,0 C2.2,0 0,2.2 0,5 L0,127 C0,129.8 2.2,132 5,132 L197,132 C199.8,132 202,129.8 202,127 L202,5 C202,2.2 199.8,0 197,0 L197,0 L197,0 Z" fill="#1489C9"></path>
                    </g>
                    <rect id="Rectangle-path" fill="#1489C9" x="1" y="110" width="200" height="1"></rect>
                    <g transform="translate(96.000000, 116.000000)">
                        <circle id="Oval" fill="#FFFFFF" cx="5" cy="5" r="4.5"></circle>
                        <path d="M5,1 C7.2,1 9,2.8 9,5 C9,7.2 7.2,9 5,9 C2.8,9 1,7.2 1,5 C1,2.8 2.8,1 5,1 L5,1 Z M5,0 C2.2,0 0,2.2 0,5 C0,7.8 2.2,10 5,10 C7.8,10 10,7.8 10,5 C10,2.2 7.8,0 5,0 L5,0 L5,0 Z" id="Shape" fill="#1489C9"></path>
                    </g>
                    <g opacity="0.1" transform="translate(1.000000, 1.000000)" id="Shape" fill="#1489C9">
                        <path d="M4,0 C1.8,0 0,1.8 0,4 L0,109 L149.4,109 L113,0 L4,0 L4,0 Z"></path>
                    </g>
                    <g opacity="0.1" transform="translate(7.000000, 7.000000)" id="Shape" fill="#1489C9">
                        <path d="M185,0 L3,0 C1.4,0 0,1.4 0,3 L0,94 C0,95.6 1.4,97 3,97 L185,97 C186.6,97 188,95.6 188,94 L188,3 C188,1.4 186.6,0 185,0 L185,0 Z"></path>
                    </g>
                    <g transform="translate(74.000000, 131.000000)" id="Shape">
                        <polygon fill="#FFFFFF" points="1.4 26.5 4.6 0.5 49.4 0.5 52.6 26.5"></polygon>
                        <path d="M49,1 L52,26 L2,26 L5,1 L49,1 L49,1 Z M49.9,0 L49,0 L5,0 L4.1,0 L4,0.9 L1,25.9 L0.9,27 L2,27 L52,27 L53.1,27 L53,25.9 L50,0.9 L49.9,0 L49.9,0 L49.9,0 Z" fill="#1489C9"></path>
                    </g>
                    <g opacity="0.1" transform="translate(77.000000, 132.000000)" id="Shape" fill="#1489C9">
                        <polygon points="0.9 9 2 0 46 0 47 9"></polygon>
                    </g>
                    <g transform="translate(62.000000, 153.000000)" id="Shape">
                        <path d="M2,5.5 C1.2,5.5 0.5,4.8 0.5,4 L0.5,2 C0.5,1.2 1.2,0.5 2,0.5 L76,0.5 C76.8,0.5 77.5,1.2 77.5,2 L77.5,4 C77.5,4.8 76.8,5.5 76,5.5 L2,5.5 L2,5.5 Z" fill="#FFFFFF"></path>
                        <path d="M76,1 C76.5,1 77,1.5 77,2 L77,4 C77,4.5 76.5,5 76,5 L2,5 C1.4,5 1,4.5 1,4 L1,2 C1,1.5 1.4,1 2,1 L76,1 L76,1 Z M76,0 L2,0 C0.9,0 0,0.9 0,2 L0,4 C0,5.1 0.9,6 2,6 L76,6 C77.1,6 78,5.1 78,4 L78,2 C78,0.9 77.1,0 76,0 L76,0 L76,0 Z" fill="#1489C9"></path>
                    </g>
                    <g opacity="0.1" transform="translate(97.000000, 117.000000)" id="Shape" fill="#1489C9">
                        <path d="M1,6.5 C1,3.5 3.5,1 6.5,1 L6.6,1 C5.9,0.4 5,0 4,0 C1.8,0 0,1.8 0,4 C0,5 0.4,5.9 1,6.6 L1,6.5 L1,6.5 Z"></path>
                    </g>
                    <circle id="Oval" fill="#1489C9" cx="101" cy="4" r="1"></circle>
                </g>
                <g id="Group" transform="translate(268.000000, 110.000000)">
                    <path d="M4,97.5 C2.1,97.5 0.5,95.9 0.5,94 L0.5,4 C0.5,2.1 2.1,0.5 4,0.5 L68,0.5 C69.9,0.5 71.5,2.1 71.5,4 L71.5,94 C71.5,95.9 69.9,97.5 68,97.5 L4,97.5 L4,97.5 Z" id="Shape" fill="#FFFFFF"></path>
                    <path d="M68,1 C69.6,1 71,2.4 71,4 L71,94 C71,95.6 69.6,97 68,97 L4,97 C2.4,97 1,95.6 1,94 L1,4 C1,2.4 2.4,1 4,1 L68,1 L68,1 Z M68,0 L4,0 C1.8,0 0,1.8 0,4 L0,94 C0,96.2 1.8,98 4,98 L68,98 C70.2,98 72,96.2 72,94 L72,4 C72,1.8 70.2,0 68,0 L68,0 L68,0 Z" id="Shape" fill="#1489C9"></path>
                </g>
                <g id="Group" opacity="0.1" transform="translate(269.000000, 111.000000)" fill="#1489C9">
                    <path d="M23.4,0 L3,0 C1.3,0 0,1.3 0,3 L0,93 C0,94.6 1.3,96 3,96 L55.7,96 L23.4,0 L23.4,0 Z" id="Shape"></path>
                </g>
                <circle id="Oval" fill="#1489C9" cx="304" cy="203" r="2"></circle>
                <path d="M306.5,114 L301.5,114 C301.2,114 301,113.8 301,113.5 L301,113.5 C301,113.2 301.2,113 301.5,113 L306.5,113 C306.8,113 307,113.2 307,113.5 L307,113.5 C307,113.8 306.8,114 306.5,114 L306.5,114 Z" id="Shape" fill="#1489C9"></path>
                <circle id="Oval" fill="#1489C9" cx="299.5" cy="113.5" r="0.5"></circle>
                <g id="Group" transform="translate(0.000000, 114.000000)">
                    <g transform="translate(13.000000, 0.000000)" id="Shape">
                        <path d="M4,85.5 C2.1,85.5 0.5,83.9 0.5,82 L0.5,4 C0.5,2.1 2.1,0.5 4,0.5 L134,0.5 C135.9,0.5 137.5,2.1 137.5,4 L137.5,82 C137.5,83.9 135.9,85.5 134,85.5 L4,85.5 L4,85.5 Z" fill="#FFFFFF"></path>
                        <path d="M134,1 C135.6,1 137,2.4 137,4 L137,82 C137,83.6 135.6,85 134,85 L4,85 C2.3,85 1,83.6 1,82 L1,4 C1,2.4 2.3,1 4,1 L134,1 L134,1 Z M134,0 L4,0 C1.8,0 0,1.8 0,4 L0,82 C0,84.2 1.8,86 4,86 L134,86 C136.2,86 138,84.2 138,82 L138,4 C138,1.8 136.2,0 134,0 L134,0 L134,0 Z" fill="#1489C9"></path>
                    </g>
                    <g opacity="0.1" transform="translate(17.000000, 5.000000)" id="Shape" fill="#1489C9">
                        <path d="M130,76 L130,1 C130,0.4 129.6,0 129,0 L1,0 C0.4,0 0,0.4 0,1 L0,76 C0,76.5 0.4,77 1,77 L129,77 C129.6,77 130,76.5 130,76 L130,76 Z"></path>
                    </g>
                    <g transform="translate(0.000000, 85.000000)" id="Shape">
                        <path d="M4,7.5 C2.1,7.5 0.5,5.9 0.5,4 L0.5,0.5 L163.5,0.5 L163.5,4 C163.5,5.9 161.9,7.5 160,7.5 L4,7.5 L4,7.5 Z" fill="#FFFFFF"></path>
                        <path d="M163,1 L163,4 C163,5.7 161.7,7 160,7 L4,7 C2.3,7 1,5.7 1,4 L1,1 L163,1 L163,1 Z M164,0 L163,0 L1,0 L0,0 L0,1 L0,4 C0,6.2 1.8,8 4,8 L160,8 C162.2,8 164,6.2 164,4 L164,1 L164,0 L164,0 L164,0 Z" fill="#1489C9"></path>
                    </g>
                    <path d="M99,88 L65,88 C64.4,88 64,87.6 64,87 L64,86 L100,86 L100,87 C100,87.6 99.6,88 99,88 L99,88 Z" id="Shape" fill="#86D0EA"></path>
                    <circle id="Oval" fill="#1489C9" cx="82" cy="3" r="1"></circle>
                    <g opacity="0.1" transform="translate(14.000000, 1.000000)" id="Shape" fill="#1489C9">
                        <path d="M77.1,0 L3,0 C1.3,0 0,1.3 0,3 L0,81 C0,82.6 1.3,84 3,84 L105.4,84 L77.1,0 L77.1,0 Z"></path>
                    </g>
                </g>
                <g id="Group" transform="translate(350.000000, 168.000000)">
                    <g id="Shape">
                        <path d="M3,39.5 C1.6,39.5 0.5,38.4 0.5,37 L0.5,3 C0.5,1.6 1.6,0.5 3,0.5 L19,0.5 C20.4,0.5 21.5,1.6 21.5,3 L21.5,37 C21.5,38.4 20.4,39.5 19,39.5 L3,39.5 L3,39.5 Z" fill="#FFFFFF"></path>
                        <path d="M19,1 C20.1,1 21,1.9 21,3 L21,37 C21,38.1 20.1,39 19,39 L3,39 C1.9,39 1,38.1 1,37 L1,3 C1,1.9 1.9,1 3,1 L19,1 L19,1 Z M19,0 L3,0 C1.3,0 0,1.3 0,3 L0,37 C0,38.7 1.3,40 3,40 L19,40 C20.7,40 22,38.7 22,37 L22,3 C22,1.3 20.7,0 19,0 L19,0 L19,0 Z" fill="#1489C9"></path>
                    </g>
                    <g opacity="0.1" transform="translate(1.000000, 1.000000)" id="Shape" fill="#1489C9">
                        <path d="M8.9,0 L2,0 C0.9,0 0,0.9 0,2 L0,36 C0,37.1 0.9,38 2,38 L18,38 C19.1,38 20,37.1 20,36 L20,32.8 L8.9,0 L8.9,0 Z"></path>
                    </g>
                    <path d="M13.5,3 L8.5,3 C8.2,3 8,2.8 8,2.5 L8,2.5 C8,2.2 8.2,2 8.5,2 L13.5,2 C13.8,2 14,2.2 14,2.5 L14,2.5 C14,2.8 13.8,3 13.5,3 L13.5,3 Z" id="Shape" fill="#1489C9"></path>
                    <circle id="Oval" fill="#1489C9" cx="6.5" cy="2.5" r="0.5"></circle>
                    <g opacity="0.1" transform="translate(1.000000, 4.000000)" id="Rectangle-path" fill="#1489C9">
                        <rect x="0" y="0" width="20" height="29"></rect>
                    </g>
                    <circle id="Oval" fill="#1489C9" cx="11" cy="36" r="2"></circle>
                </g>
                <g id="Group" opacity="0.1" transform="translate(274.000000, 116.000000)" fill="#1489C9">
                    <rect id="Rectangle-path" x="0" y="0" width="60" height="83"></rect>
                </g>
            </g>
        </g>
    </g>
</svg>