<?xml version="1.0" encoding="utf-8"?>
<!-- Generator: Adobe Illustrator 17.1.0, SVG Export Plug-In . SVG Version: 6.00 Build 0)  -->
<!DOCTYPE svg PUBLIC "-//W3C//DTD SVG 1.1//EN" "http://www.w3.org/Graphics/SVG/1.1/DTD/svg11.dtd">
<svg version="1.1" id="Layer_1" xmlns="http://www.w3.org/2000/svg" xmlns:xlink="http://www.w3.org/1999/xlink" x="0px" y="0px"
	 viewBox="0 0 48 48" enable-background="new 0 0 48 48" xml:space="preserve">
<g id="cogwheel_1_">
	<path fill="#010101" d="M47.8,27.1c0.1-1,0.2-2,0.2-3.1s-0.1-2.1-0.2-3.1l-6.3-1.6c-0.4-1.5-1-3-1.8-4.3L43,9.4
		c-1.3-1.6-2.7-3.1-4.4-4.4L33,8.3c-1.3-0.8-2.8-1.4-4.3-1.8l-1.6-6.3c-1-0.1-2-0.2-3.1-0.2c-1,0-2.1,0.1-3.1,0.2l-1.6,6.3
		c-1.5,0.4-3,1-4.3,1.8L9.4,5C7.8,6.3,6.3,7.7,5,9.4L8.3,15c-0.8,1.3-1.4,2.8-1.8,4.3l-6.3,1.6c-0.1,1-0.2,2-0.2,3.1
		s0.1,2.1,0.2,3.1l6.3,1.6c0.4,1.5,1,3,1.8,4.3L5,38.6c1.3,1.6,2.7,3.1,4.4,4.4l5.6-3.3c1.3,0.8,2.8,1.4,4.3,1.8l1.6,6.3
		c1,0.1,2,0.2,3.1,0.2c1,0,2.1-0.1,3.1-0.2l1.6-6.3c1.5-0.4,3-1,4.3-1.8l5.6,3.3c1.6-1.3,3.1-2.7,4.4-4.4L39.7,33
		c0.8-1.3,1.4-2.8,1.8-4.3L47.8,27.1z M24.1,32.4c-4.6,0-8.4-3.7-8.4-8.4s3.7-8.4,8.4-8.4s8.4,3.7,8.4,8.4S28.7,32.4,24.1,32.4z"/>
</g>
</svg>
