<?xml version="1.0" encoding="utf-8"?>
<!-- Generator: Adobe Illustrator 17.1.0, SVG Export Plug-In . SVG Version: 6.00 Build 0)  -->
<!DOCTYPE svg PUBLIC "-//W3C//DTD SVG 1.1//EN" "http://www.w3.org/Graphics/SVG/1.1/DTD/svg11.dtd">
<svg version="1.1" id="Layer_1" xmlns="http://www.w3.org/2000/svg" xmlns:xlink="http://www.w3.org/1999/xlink" x="0px" y="0px"
	 viewBox="0 0 113 25" enable-background="new 0 0 113 25" xml:space="preserve">
<g>
	<polygon fill="none" points="27.867,15.577 27.867,7.094 18.28,11.479 18.28,19.962 	"/>
	<polygon fill="none" points="8.229,5.88 11.927,7.571 21.198,3.33 17.5,1.638 	"/>
	<polygon fill="none" points="17.5,10.12 22.744,7.722 22.78,7.702 22.787,7.702 26.772,5.88 23.074,4.188 13.803,8.429 
		16.076,9.469 	"/>
	<polygon fill="none" points="32.345,13.528 29.427,12.193 29.427,14.863 	"/>
	<polygon fill="none" points="7.134,7.094 7.134,15.577 16.72,19.962 16.72,11.479 	"/>
	<polygon fill="none" points="5.573,12.193 2.655,13.528 5.573,14.863 	"/>
	<polygon fill="none" points="2.655,18.627 11.927,22.869 15.625,21.177 6.353,16.935 	"/>
	<polygon fill="none" points="32.345,18.627 28.647,16.935 19.375,21.177 23.073,22.869 	"/>
	<path fill="#FCEE22" d="M34.544,17.918l-4.023-1.84l4.023-1.84C34.821,14.111,35,13.832,35,13.528c0-0.304-0.179-0.583-0.456-0.709
		l-5.118-2.341V5.88c0-0.113-0.029-0.228-0.086-0.344c-0.007-0.017-0.013-0.029-0.019-0.042c-0.053-0.092-0.124-0.17-0.212-0.236
		c-0.009-0.01-0.023-0.023-0.04-0.034c-0.015-0.01-0.03-0.017-0.043-0.022c-0.013-0.01-0.032-0.022-0.057-0.033L17.825,0.071
		C17.722,0.024,17.613,0,17.5,0s-0.222,0.024-0.325,0.071L6.029,5.17c-0.023,0.01-0.042,0.023-0.056,0.033
		C5.96,5.208,5.945,5.215,5.929,5.225C5.912,5.237,5.899,5.249,5.89,5.26c-0.09,0.068-0.16,0.145-0.21,0.233
		C5.673,5.504,5.667,5.518,5.661,5.532C5.602,5.651,5.573,5.767,5.573,5.88v4.598l-5.118,2.341C0.179,12.945,0,13.224,0,13.528
		c0,0.304,0.179,0.583,0.455,0.709l4.023,1.84l-4.023,1.84C0.179,18.044,0,18.323,0,18.627c0,0.304,0.179,0.583,0.456,0.709
		l11.147,5.099c0.102,0.047,0.211,0.071,0.324,0.071c0.113,0,0.222-0.024,0.325-0.071l5.248-2.401l5.249,2.401
		c0.102,0.047,0.211,0.071,0.324,0.071c0.113,0,0.222-0.024,0.325-0.071l11.146-5.099C34.821,19.21,35,18.932,35,18.627
		C35,18.323,34.821,18.044,34.544,17.918z M32.345,13.528l-2.918,1.335v-2.67L32.345,13.528z M7.134,15.577V7.094l9.587,4.385v8.483
		L7.134,15.577z M11.927,7.571L8.229,5.88L17.5,1.638l3.698,1.692L11.927,7.571z M27.867,7.094v8.482l-9.586,4.385v-8.483
		L27.867,7.094z M23.074,4.188l3.698,1.692l-3.985,1.823H22.78l-0.036,0.02L17.5,10.12l-1.424-0.652l-2.273-1.04L23.074,4.188z
		 M28.647,16.935l3.698,1.692l-9.272,4.241l-3.698-1.692L28.647,16.935z M15.625,21.177l-3.698,1.692l-9.272-4.242l3.698-1.692
		L15.625,21.177z M5.573,12.193v2.67l-2.918-1.335L5.573,12.193z"/>
</g>
<g>
	<path fill="#FCEE23" d="M42.577,8.713c0-0.533,0.411-0.944,0.944-0.944h3.837c1.218,0,2.177,0.335,2.786,0.944
		c0.472,0.472,0.715,1.05,0.715,1.766v0.03c0,1.279-0.731,1.964-1.522,2.375c1.248,0.426,2.116,1.142,2.116,2.588v0.03
		c0,1.903-1.568,2.923-3.943,2.923h-3.989c-0.533,0-0.944-0.411-0.944-0.944V8.713z M46.977,12.261c1.203,0,2.01-0.472,2.01-1.446
		v-0.031c0-0.837-0.67-1.355-1.873-1.355h-2.695v2.832H46.977z M47.525,16.767c1.279,0,2.055-0.502,2.055-1.462v-0.03
		c0-0.898-0.716-1.431-2.193-1.431h-2.969v2.923H47.525z"/>
	<path fill="#FCEE23" d="M52.822,16.112v-0.03c0-1.736,1.355-2.588,3.319-2.588c0.898,0,1.538,0.137,2.162,0.335v-0.198
		c0-1.142-0.7-1.751-1.994-1.751c-0.7,0-1.279,0.122-1.781,0.32c-0.107,0.03-0.198,0.046-0.289,0.046
		c-0.426,0-0.777-0.335-0.777-0.761c0-0.335,0.228-0.624,0.502-0.731c0.761-0.289,1.538-0.472,2.588-0.472
		c1.203,0,2.101,0.32,2.665,0.898c0.594,0.579,0.868,1.431,0.868,2.482v3.959c0,0.502-0.396,0.883-0.898,0.883
		c-0.533,0-0.898-0.365-0.898-0.777v-0.304c-0.548,0.655-1.386,1.172-2.619,1.172C54.162,18.594,52.822,17.726,52.822,16.112z
		 M58.334,15.534v-0.548c-0.472-0.183-1.096-0.32-1.827-0.32c-1.188,0-1.888,0.502-1.888,1.34v0.031
		c0,0.776,0.685,1.218,1.568,1.218C57.405,17.254,58.334,16.554,58.334,15.534z"/>
	<path fill="#FCEE23" d="M61.987,17.62c-0.198-0.107-0.35-0.335-0.35-0.639c0-0.411,0.32-0.746,0.746-0.746
		c0.152,0,0.289,0.046,0.396,0.107c0.777,0.518,1.583,0.777,2.314,0.777c0.792,0,1.248-0.335,1.248-0.868v-0.03
		c0-0.624-0.853-0.838-1.797-1.127c-1.188-0.335-2.512-0.822-2.512-2.36v-0.03c0-1.523,1.264-2.451,2.862-2.451
		c0.853,0,1.751,0.243,2.527,0.655c0.259,0.137,0.441,0.381,0.441,0.7c0,0.426-0.335,0.746-0.761,0.746
		c-0.152,0-0.244-0.03-0.365-0.091c-0.655-0.335-1.325-0.548-1.888-0.548c-0.716,0-1.127,0.335-1.127,0.792v0.031
		c0,0.594,0.868,0.837,1.812,1.142c1.172,0.365,2.497,0.898,2.497,2.345v0.03c0,1.69-1.309,2.527-2.984,2.527
		C64.027,18.579,62.916,18.259,61.987,17.62z"/>
	<path fill="#FCEE23" d="M73.604,18.61c-2.33,0-4.126-1.69-4.126-4.172v-0.031c0-2.299,1.629-4.187,3.928-4.187
		c2.558,0,3.822,2.101,3.822,3.959c0,0.518-0.396,0.883-0.868,0.883h-5.04c0.198,1.309,1.127,2.04,2.314,2.04
		c0.777,0,1.386-0.274,1.903-0.7c0.137-0.107,0.259-0.167,0.472-0.167c0.411,0,0.731,0.32,0.731,0.746
		c0,0.228-0.107,0.426-0.244,0.563C75.765,18.198,74.852,18.61,73.604,18.61z M75.431,13.844c-0.122-1.188-0.822-2.116-2.04-2.116
		c-1.127,0-1.918,0.868-2.086,2.116H75.431z"/>
	<path fill="#FCEE23" d="M78.672,8.972c-0.046-0.107-0.076-0.244-0.076-0.365c0-0.518,0.442-0.914,0.959-0.914
		c0.457,0,0.807,0.289,0.929,0.685l2.451,7.323l2.406-7.293c0.152-0.442,0.472-0.746,0.944-0.746h0.137
		c0.472,0,0.807,0.304,0.944,0.746l2.406,7.293l2.451-7.339c0.137-0.381,0.457-0.67,0.914-0.67c0.502,0,0.929,0.396,0.929,0.898
		c0,0.122-0.046,0.274-0.091,0.381l-3.152,8.831c-0.167,0.472-0.518,0.776-0.974,0.776h-0.183c-0.457,0-0.792-0.289-0.959-0.776
		l-2.375-6.958l-2.375,6.958c-0.167,0.487-0.518,0.776-0.974,0.776h-0.183c-0.457,0-0.792-0.289-0.974-0.776L78.672,8.972z"/>
	<path fill="#FCEE23" d="M98.753,18.61c-2.33,0-4.126-1.69-4.126-4.172v-0.031c0-2.299,1.629-4.187,3.928-4.187
		c2.558,0,3.821,2.101,3.821,3.959c0,0.518-0.396,0.883-0.868,0.883h-5.04c0.198,1.309,1.127,2.04,2.314,2.04
		c0.776,0,1.386-0.274,1.903-0.7c0.137-0.107,0.259-0.167,0.472-0.167c0.411,0,0.731,0.32,0.731,0.746
		c0,0.228-0.107,0.426-0.244,0.563C100.915,18.198,100.002,18.61,98.753,18.61z M100.58,13.844c-0.122-1.188-0.822-2.116-2.04-2.116
		c-1.127,0-1.918,0.868-2.086,2.116H100.58z"/>
	<path fill="#FCEE23" d="M104.264,8.15c0-0.518,0.396-0.914,0.914-0.914c0.518,0,0.929,0.396,0.929,0.914v3.578
		c0.594-0.838,1.431-1.507,2.741-1.507c1.888,0,3.73,1.492,3.73,4.172v0.031c0,2.664-1.827,4.172-3.73,4.172
		c-1.34,0-2.177-0.67-2.741-1.416v0.411c0,0.502-0.411,0.914-0.929,0.914c-0.502,0-0.914-0.411-0.914-0.914V8.15z M110.704,14.423
		v-0.031c0-1.553-1.05-2.573-2.299-2.573c-1.249,0-2.345,1.035-2.345,2.573v0.031c0,1.538,1.096,2.573,2.345,2.573
		C109.669,16.996,110.704,16.006,110.704,14.423z"/>
</g>
</svg>
