<!-- Generated by IcoMoon.io -->
<svg version="1.1" xmlns="http://www.w3.org/2000/svg" width="24" height="24" viewBox="0 0 24 24">
<title>alert-octagon</title>
<path d="M22.706 7.15l-5.862-5.862c-0.188-0.188-0.444-0.294-0.706-0.294h-8.275c-0.262 0-0.519 0.106-0.706 0.294l-5.862 5.862c-0.188 0.188-0.294 0.444-0.294 0.706v8.281c0 0.262 0.106 0.519 0.294 0.706l5.862 5.862c0.188 0.188 0.444 0.294 0.706 0.294h8.281c0.263 0 0.519-0.106 0.706-0.294l5.862-5.862c0.188-0.188 0.294-0.444 0.294-0.706v-8.275c-0.006-0.269-0.112-0.525-0.3-0.712zM21 15.725l-5.275 5.275h-7.45l-5.275-5.275v-7.45l5.275-5.275h7.45l5.275 5.275v7.45z"></path>
<path d="M12 7c-0.55 0-1 0.45-1 1v4c0 0.55 0.45 1 1 1s1-0.45 1-1v-4c0-0.55-0.45-1-1-1z"></path>
<path d="M12 15c-0.262 0-0.519 0.106-0.706 0.294s-0.294 0.444-0.294 0.706 0.106 0.519 0.294 0.706c0.188 0.188 0.444 0.294 0.706 0.294s0.519-0.106 0.706-0.294c0.188-0.188 0.294-0.444 0.294-0.706s-0.106-0.519-0.294-0.706c-0.188-0.188-0.444-0.294-0.706-0.294z"></path>
</svg>
