<!-- Generated by IcoMoon.io -->
<svg version="1.1" xmlns="http://www.w3.org/2000/svg" width="24" height="24" viewBox="0 0 24 24">
<title>align-center</title>
<path d="M6 9c-0.55 0-1 0.45-1 1s0.45 1 1 1h12c0.55 0 1-0.45 1-1s-0.45-1-1-1h-12z"></path>
<path d="M3 7h18c0.55 0 1-0.45 1-1s-0.45-1-1-1h-18c-0.55 0-1 0.45-1 1s0.45 1 1 1z"></path>
<path d="M21 13h-18c-0.55 0-1 0.45-1 1s0.45 1 1 1h18c0.55 0 1-0.45 1-1s-0.45-1-1-1z"></path>
<path d="M18 17h-12c-0.55 0-1 0.45-1 1s0.45 1 1 1h12c0.55 0 1-0.45 1-1s-0.45-1-1-1z"></path>
</svg>
