<!-- Generated by IcoMoon.io -->
<svg version="1.1" xmlns="http://www.w3.org/2000/svg" width="24" height="24" viewBox="0 0 24 24">
<title>aperture</title>
<path d="M20.925 18.419c1.306-1.806 2.075-4.025 2.075-6.419 0-1.525-0.312-2.981-0.875-4.306-0.019-0.069-0.050-0.131-0.081-0.188-1.55-3.45-4.831-5.969-8.738-6.431-0.050-0.006-0.1-0.012-0.144-0.019-0.381-0.038-0.769-0.063-1.156-0.063-3.581 0.006-6.762 1.719-8.769 4.369-0.063 0.069-0.119 0.138-0.162 0.219-1.306 1.806-2.075 4.025-2.075 6.419 0 1.525 0.312 2.981 0.875 4.306 0.019 0.069 0.050 0.131 0.081 0.188 1.55 3.45 4.831 5.969 8.738 6.431 0.050 0.006 0.1 0.012 0.15 0.019 0.381 0.038 0.769 0.063 1.156 0.063 3.575 0 6.756-1.713 8.763-4.362 0.069-0.069 0.119-0.144 0.162-0.225zM13.731 15h-3.462l-1.731-3 1.731-3h3.462l1.731 3-1.731 3zM3 12c0-1.425 0.331-2.781 0.925-3.981l2.575 4.456c0.006 0.012 0.012 0.025 0.025 0.038l1.431 2.481h-4.444c-0.331-0.931-0.513-1.944-0.513-2.994zM17.5 11.519c-0.006-0.012-0.019-0.031-0.025-0.044l-1.431-2.475h4.444c0.331 0.938 0.513 1.95 0.513 3 0 1.425-0.331 2.781-0.925 3.981l-2.575-4.463zM19.481 7h-5.156c-0.012 0-0.019 0-0.031 0h-2.869l2.225-3.85c2.419 0.45 4.506 1.875 5.831 3.85zM11.412 3.019l-2.581 4.475c0 0.006-0.006 0.006-0.006 0.012l-1.437 2.494-2.225-3.844c1.531-1.794 3.75-2.975 6.25-3.138zM4.519 17h5.15c0.006 0 0.012 0 0.019 0s0.012 0 0.019 0h2.869l-2.225 3.85c-2.419-0.45-4.506-1.875-5.831-3.85zM12.588 20.981l2.581-4.475c0.006-0.006 0.006-0.012 0.012-0.019l1.437-2.494 2.219 3.844c-1.531 1.8-3.75 2.981-6.25 3.144z"></path>
</svg>
