<!-- Generated by IcoMoon.io -->
<svg version="1.1" xmlns="http://www.w3.org/2000/svg" width="24" height="24" viewBox="0 0 24 24">
<title>arrow-up</title>
<path d="M18.706 9.294l-6-6c-0.012-0.012-0.025-0.025-0.037-0.037 0 0 0 0-0.006 0 0 0-0.006-0.006-0.006-0.006s-0.006 0-0.006-0.006c0 0 0 0-0.006 0 0 0-0.006-0.006-0.006-0.006s0 0 0 0c-0.075-0.069-0.162-0.119-0.256-0.156 0 0 0 0 0 0s-0.006 0-0.006 0c0 0 0 0-0.006 0 0 0 0 0-0.006 0-0.094-0.037-0.194-0.063-0.3-0.069 0 0 0 0 0 0s-0.006 0-0.006 0c0 0-0.006 0-0.006 0s-0.006 0-0.006 0c0 0-0.006 0-0.006 0s0 0-0.006 0c-0.025 0-0.050 0-0.075 0 0 0 0 0-0.006 0 0 0-0.006 0-0.006 0s-0.006 0-0.006 0c0 0-0.006 0-0.006 0s-0.006 0-0.006 0c0 0 0 0 0 0-0.1 0.006-0.2 0.031-0.294 0.069 0 0 0 0 0 0s-0.006 0-0.006 0c0 0-0.006 0-0.006 0s0 0 0 0c-0.1 0.037-0.188 0.094-0.275 0.169 0 0 0 0 0 0s-0.006 0.006-0.006 0.006c0 0 0 0 0 0s-0.006 0.006-0.006 0.006c0 0-0.006 0.006-0.006 0.006s0 0 0 0c-0.012 0.006-0.019 0.019-0.031 0.031l-6 6c-0.387 0.387-0.387 1.025 0 1.413s1.025 0.387 1.413 0l4.294-4.294v13.581c0 0.55 0.45 1 1 1s1-0.45 1-1v-13.587l4.294 4.294c0.194 0.194 0.45 0.294 0.706 0.294s0.513-0.1 0.706-0.294c0.394-0.387 0.394-1.025 0-1.413z"></path>
</svg>
