<!-- Generated by IcoMoon.io -->
<svg version="1.1" xmlns="http://www.w3.org/2000/svg" width="24" height="24" viewBox="0 0 24 24">
<title>arrow-left</title>
<path d="M20 11h-13.587l4.294-4.294c0.387-0.387 0.387-1.025 0-1.413s-1.025-0.387-1.413 0l-6 6c-0.012 0.012-0.019 0.019-0.031 0.031 0 0 0 0 0 0s-0.006 0.006-0.006 0.006c0 0-0.006 0.006-0.006 0.006s0 0 0 0.006c0 0-0.006 0.006-0.006 0.006v0c-0.069 0.075-0.119 0.162-0.162 0.25 0 0 0 0 0 0s0 0.006 0 0.006c0 0 0 0.006 0 0.006s0 0 0 0c-0.050 0.119-0.075 0.25-0.075 0.387s0.025 0.269 0.075 0.387c0 0 0 0 0 0s0 0.006 0.006 0.006c0 0 0 0 0 0.006 0 0 0 0 0 0.006 0.038 0.087 0.087 0.169 0.15 0.244 0 0 0 0 0 0s0.006 0.006 0.006 0.006c0 0 0 0 0.006 0.006 0 0 0 0 0.006 0.006 0 0 0.006 0.006 0.006 0.006s0 0 0 0c0.012 0.012 0.025 0.025 0.037 0.038l6 6c0.194 0.194 0.45 0.294 0.706 0.294s0.513-0.1 0.706-0.294c0.387-0.387 0.387-1.025 0-1.413l-4.3-4.3h13.587c0.55 0 1-0.45 1-1s-0.45-1-1-1z"></path>
</svg>
