<!-- Generated by IcoMoon.io -->
<svg version="1.1" xmlns="http://www.w3.org/2000/svg" width="24" height="24" viewBox="0 0 24 24">
<title>at-sign</title>
<path d="M12 1c-6.063 0-11 4.938-11 11s4.938 11 11 11c2.456 0 4.775-0.788 6.712-2.288 0.438-0.337 0.519-0.963 0.181-1.4s-0.963-0.519-1.4-0.181c-1.587 1.225-3.488 1.869-5.494 1.869-4.962 0-9-4.038-9-9s4.038-9 9-9c4.962 0 9 4.038 9 9v1c0 1.1-0.9 2-2 2s-2-0.9-2-2v-1c0-2.756-2.244-5-5-5s-5 2.244-5 5 2.244 5 5 5c1.488 0 2.825-0.65 3.738-1.688 0.725 1.019 1.919 1.688 3.263 1.688 2.206 0 4-1.794 4-4v-1c0-6.063-4.938-11-11-11zM12 15c-1.656 0-3-1.344-3-3s1.344-3 3-3c1.656 0 3 1.344 3 3s-1.344 3-3 3z"></path>
</svg>
