<!-- Generated by IcoMoon.io -->
<svg version="1.1" xmlns="http://www.w3.org/2000/svg" width="24" height="24" viewBox="0 0 24 24">
<title>bar-chart</title>
<path d="M21 2h-2c-1.1 0-2 0.9-2 2v16c0 1.1 0.9 2 2 2h2c1.1 0 2-0.9 2-2v-16c0-1.1-0.9-2-2-2zM21 20h-2v-16c0 0 0 0 0 0h2v16z"></path>
<path d="M13 7h-2c-1.1 0-2 0.9-2 2v11c0 1.1 0.9 2 2 2h2c1.1 0 2-0.9 2-2v-11c0-1.1-0.9-2-2-2zM13 20h-2v-11c0 0 0 0 0 0h2v11z"></path>
<path d="M5 12h-2c-1.1 0-2 0.9-2 2v6c0 1.1 0.9 2 2 2h2c1.1 0 2-0.9 2-2v-6c0-1.1-0.9-2-2-2zM5 20h-2v-6c0 0 0 0 0 0h2v6z"></path>
</svg>
