<!-- Generated by IcoMoon.io -->
<svg version="1.1" xmlns="http://www.w3.org/2000/svg" width="24" height="24" viewBox="0 0 24 24">
<title>bell-off</title>
<path d="M9.056 3.769c0.875-0.506 1.894-0.769 2.944-0.769 3.306 0 6 2.694 6 6.006v4c0 0.55 0.45 1 1 1s1-0.45 1-1v-4.006c0-4.413-3.588-8-8-8-1.394 0-2.756 0.356-3.938 1.038-0.481 0.275-0.644 0.888-0.369 1.362s0.888 0.644 1.362 0.369z"></path>
<path d="M14.238 20.138c-0.475-0.281-1.087-0.119-1.369 0.356-0.188 0.312-0.513 0.506-0.869 0.506s-0.681-0.188-0.863-0.494c-0.281-0.475-0.894-0.638-1.369-0.356s-0.637 0.894-0.356 1.369c0.537 0.912 1.531 1.481 2.587 1.481s2.050-0.569 2.594-1.488c0.281-0.481 0.119-1.094-0.356-1.375z"></path>
<path d="M23.706 22.294l-5.994-5.994c0 0-0.006-0.006-0.006-0.006l-11.031-11.031c-0.087-0.162-0.225-0.3-0.394-0.394l-4.575-4.575c-0.387-0.387-1.025-0.387-1.413 0s-0.387 1.025 0 1.413l4.287 4.287c-0.381 0.95-0.581 1.969-0.581 2.994v5.013c0 1.1-0.9 2-2 2-0.55 0-1 0.45-1 1s0.45 1 1 1h14.588l5.706 5.706c0.194 0.194 0.45 0.294 0.706 0.294s0.513-0.1 0.706-0.294c0.394-0.387 0.394-1.025 0-1.413zM5.463 16c0.344-0.588 0.537-1.275 0.537-2v-5.006c0-0.481 0.056-0.956 0.162-1.413l8.425 8.419h-9.125z"></path>
</svg>
