<!-- Generated by IcoMoon.io -->
<svg version="1.1" xmlns="http://www.w3.org/2000/svg" width="24" height="24" viewBox="0 0 24 24">
<title>bell</title>
<path d="M22 16c-1.1 0-2-0.9-2-2v-5c0-4.413-3.588-8-8-8s-8 3.588-8 8v5c0 1.1-0.9 2-2 2-0.55 0-1 0.45-1 1s0.45 1 1 1h20c0.55 0 1-0.45 1-1s-0.45-1-1-1zM5.463 16c0.344-0.588 0.537-1.275 0.537-2v-5c0-3.306 2.694-6 6-6s6 2.694 6 6v5c0 0.725 0.194 1.413 0.537 2h-13.075z"></path>
<path d="M14.238 20.138c-0.475-0.281-1.087-0.119-1.369 0.356-0.188 0.312-0.513 0.506-0.869 0.506s-0.681-0.188-0.863-0.494c-0.281-0.475-0.894-0.638-1.369-0.356s-0.637 0.894-0.356 1.369c0.537 0.912 1.531 1.481 2.587 1.481s2.050-0.569 2.594-1.488c0.281-0.481 0.119-1.094-0.356-1.375z"></path>
</svg>
