<!-- Generated by IcoMoon.io -->
<svg version="1.1" xmlns="http://www.w3.org/2000/svg" width="24" height="24" viewBox="0 0 24 24">
<title>bookmark</title>
<path d="M17 2h-10c-1.656 0-3 1.344-3 3v16c0 0.375 0.206 0.719 0.544 0.888 0.331 0.169 0.731 0.144 1.038-0.075l6.419-4.581 6.419 4.581c0.175 0.125 0.375 0.188 0.581 0.188 0.156 0 0.312-0.038 0.456-0.113 0.331-0.169 0.544-0.513 0.544-0.888v-16c0-1.656-1.344-3-3-3zM18 19.056l-5.419-3.869c-0.175-0.125-0.375-0.188-0.581-0.188s-0.406 0.063-0.581 0.188l-5.419 3.869v-14.056c0-0.55 0.45-1 1-1h10c0.55 0 1 0.45 1 1v14.056z"></path>
</svg>
