<!-- Generated by IcoMoon.io -->
<svg version="1.1" xmlns="http://www.w3.org/2000/svg" width="24" height="24" viewBox="0 0 24 24">
<title>box</title>
<path d="M21.337 4.556l-7.962-3.981c-0.006-0.006-0.012-0.006-0.019-0.012-0.419-0.213-0.888-0.319-1.356-0.319s-0.931 0.112-1.338 0.312l-8.013 4.006c-1.019 0.513-1.65 1.537-1.65 2.675v9.531c0 1.131 0.631 2.156 1.644 2.675 0 0 0.006 0 0.006 0.006l7.988 3.994c0.419 0.213 0.888 0.325 1.356 0.325s0.938-0.113 1.344-0.319l8.013-4.006c1.013-0.513 1.644-1.538 1.65-2.675v-9.531c0-1.137-0.637-2.163-1.662-2.681zM11.562 2.344c0.087-0.044 0.237-0.1 0.438-0.1 0.15 0 0.294 0.031 0.425 0.094 0.006 0 0.012 0.006 0.019 0.006l7.313 3.656-7.756 3.881-7.756-3.881 7.319-3.656zM3.55 17.669c-0.344-0.175-0.55-0.519-0.55-0.894 0-0.006 0-0.006 0-0.012v-9.144l8 4v9.775l-7.45-3.725zM20.456 17.663l-7.456 3.725v-9.769l8-4v9.15c0 0.381-0.213 0.725-0.544 0.894z"></path>
</svg>
