<!-- Generated by IcoMoon.io -->
<svg version="1.1" xmlns="http://www.w3.org/2000/svg" width="24" height="24" viewBox="0 0 24 24">
<title>check-square</title>
<path d="M23.706 2.294c-0.387-0.387-1.025-0.387-1.413 0l-10.294 10.294-2.294-2.294c-0.387-0.387-1.025-0.387-1.413 0s-0.387 1.025 0 1.413l3 3c0.194 0.194 0.45 0.294 0.706 0.294s0.513-0.1 0.706-0.294l11-11c0.394-0.387 0.394-1.025 0-1.413z"></path>
<path d="M21 11c-0.55 0-1 0.45-1 1v7c0 0.55-0.45 1-1 1h-14c-0.55 0-1-0.45-1-1v-14c0-0.55 0.45-1 1-1h11c0.55 0 1-0.45 1-1s-0.45-1-1-1h-11c-1.656 0-3 1.344-3 3v14c0 1.656 1.344 3 3 3h14c1.656 0 3-1.344 3-3v-7c0-0.55-0.45-1-1-1z"></path>
</svg>
