<!-- Generated by IcoMoon.io -->
<svg version="1.1" xmlns="http://www.w3.org/2000/svg" width="24" height="24" viewBox="0 0 24 24">
<title>chrome</title>
<path d="M22.125 7.694c-0.019-0.069-0.050-0.131-0.081-0.188-1.725-3.831-5.575-6.506-10.044-6.506-3.575 0-6.756 1.713-8.763 4.362-0.063 0.069-0.119 0.138-0.162 0.219-1.306 1.806-2.075 4.025-2.075 6.419 0 5.625 4.244 10.275 9.694 10.925 0.050 0.006 0.1 0.012 0.15 0.019 0.381 0.038 0.769 0.063 1.156 0.063 6.063 0 11-4.938 11-11 0-1.531-0.312-2.988-0.875-4.313zM12 3c3.112 0 5.862 1.587 7.481 4h-7.481c-2.063 0-3.831 1.25-4.6 3.038l-2.238-3.881c1.65-1.931 4.106-3.156 6.837-3.156zM15 12c0 0.525-0.138 1.013-0.369 1.444-0.012 0.019-0.025 0.037-0.037 0.056l-0.063 0.106c-0.531 0.837-1.469 1.394-2.531 1.394-1.081 0-2.037-0.581-2.562-1.444-0.012-0.019-0.019-0.037-0.031-0.056l-0.069-0.119c-0.213-0.413-0.337-0.881-0.337-1.381 0-1.656 1.344-3 3-3s3 1.344 3 3zM3 12c0-1.425 0.331-2.781 0.931-3.981l3.663 6.331c0.844 1.575 2.506 2.644 4.413 2.644 0.2 0 0.4-0.012 0.594-0.038l-2.244 3.888c-4.181-0.769-7.356-4.444-7.356-8.844zM12.588 20.981l3.663-6.356c0.475-0.762 0.75-1.662 0.75-2.625 0-1.125-0.375-2.163-1-3h4.488c0.331 0.938 0.513 1.95 0.513 3 0 4.763-3.725 8.675-8.412 8.981z"></path>
</svg>
