<!-- Generated by IcoMoon.io -->
<svg version="1.1" xmlns="http://www.w3.org/2000/svg" width="24" height="24" viewBox="0 0 24 24">
<title>clipboard</title>
<path d="M18 3h-1c0-1.1-0.9-2-2-2h-6c-1.1 0-2 0.9-2 2h-1c-1.656 0-3 1.344-3 3v14c0 1.656 1.344 3 3 3h12c1.656 0 3-1.344 3-3v-14c0-1.656-1.344-3-3-3zM9 3h6v2h-6v-0.963c0-0.012 0-0.025 0-0.038s0-0.025 0-0.038v-0.963c0 0 0 0 0 0zM19 20c0 0.55-0.45 1-1 1h-12c-0.55 0-1-0.45-1-1v-14c0-0.55 0.45-1 1-1h1c0 1.1 0.9 2 2 2h6c1.1 0 2-0.9 2-2h1c0.55 0 1 0.45 1 1v14z"></path>
</svg>
