<!-- Generated by IcoMoon.io -->
<svg version="1.1" xmlns="http://www.w3.org/2000/svg" width="24" height="24" viewBox="0 0 24 24">
<title>cloud-off</title>
<path d="M9.631 5c2.925 0.269 5.394 2.375 6.144 5.256 0.112 0.444 0.513 0.75 0.969 0.75h1.269c2.206 0 4 1.794 4 4 0 0.544-0.106 1.081-0.312 1.55-0.219 0.506 0.012 1.094 0.519 1.319 0.131 0.056 0.263 0.081 0.4 0.081 0.387 0 0.756-0.225 0.919-0.6 0.312-0.719 0.481-1.531 0.481-2.35 0-3.306-2.694-6-6.006-6h-0.519c-0.531-1.5-1.431-2.825-2.644-3.863-1.425-1.225-3.156-1.956-5.025-2.125-0.55-0.050-1.038 0.356-1.088 0.906-0.063 0.537 0.344 1.025 0.894 1.075z"></path>
<path d="M20.6 19.181c-0.087-0.15-0.213-0.275-0.356-0.356l-14.519-14.519c-0.012-0.012-0.019-0.025-0.031-0.031l-3.987-3.981c-0.387-0.387-1.025-0.387-1.413 0s-0.387 1.025 0 1.413l3.131 3.131c-0.912 0.7-1.688 1.563-2.281 2.544-0.831 1.394-1.275 2.988-1.275 4.619 0 4.962 4.038 9 9 9 0.050 0 0.094 0 0.144 0h8.988c0.481 0 0.956-0.056 1.413-0.169l2.875 2.875c0.194 0.194 0.45 0.294 0.706 0.294s0.513-0.1 0.706-0.294c0.387-0.387 0.387-1.025 0-1.413l-3.1-3.113zM9.006 19c-0.006 0-0.012 0-0.019 0-0.037 0-0.081 0-0.119 0-3.862 0-7-3.138-7-7 0-2.281 1.125-4.413 2.988-5.731l12.731 12.731h-8.581z"></path>
</svg>
