<!-- Generated by IcoMoon.io -->
<svg version="1.1" xmlns="http://www.w3.org/2000/svg" width="24" height="24" viewBox="0 0 24 24">
<title>cog</title>
<path d="M20.325 15.375c0.106-0.225 0.337-0.375 0.581-0.375h0.087c1.656 0 3-1.344 3-3s-1.344-3-3-3h-0.169c-0.219 0-0.413-0.106-0.531-0.281-0.012-0.069-0.037-0.131-0.063-0.194-0.038-0.081-0.056-0.175-0.056-0.269 0-0.169 0.063-0.331 0.181-0.45l0.056-0.056c0.569-0.569 0.881-1.319 0.881-2.125s-0.312-1.556-0.881-2.119c-0.569-0.569-1.319-0.881-2.125-0.881-0.8 0-1.556 0.312-2.125 0.881l-0.056 0.056c-0.119 0.119-0.281 0.181-0.45 0.181-0.087 0-0.181-0.019-0.256-0.050-0.012-0.006-0.025-0.012-0.038-0.012-0.231-0.106-0.375-0.338-0.375-0.581v-0.1c0-1.656-1.344-3-3-3s-3 1.344-3 3v0.169c0 0.219-0.106 0.413-0.281 0.531-0.069 0.012-0.131 0.038-0.194 0.063-0.081 0.037-0.175 0.056-0.269 0.056-0.169 0-0.331-0.063-0.45-0.181l-0.056-0.056c-0.569-0.569-1.319-0.881-2.125-0.881s-1.556 0.312-2.119 0.881c-0.556 0.569-0.869 1.319-0.869 2.125s0.312 1.556 0.881 2.125l0.056 0.056c0.119 0.119 0.181 0.281 0.181 0.45 0 0.087-0.019 0.181-0.050 0.256-0.012 0.025-0.025 0.056-0.031 0.087-0.094 0.237-0.319 0.4-0.581 0.406h-0.081c-1.656 0-3 1.344-3 3s1.344 3 3 3h0.169c0.262 0 0.488 0.156 0.6 0.4 0 0.006 0.006 0.012 0.006 0.019 0.031 0.075 0.050 0.162 0.050 0.244 0 0.169-0.063 0.331-0.181 0.45l-0.056 0.056c-0.569 0.569-0.881 1.319-0.881 2.125s0.312 1.556 0.881 2.119c0.569 0.569 1.319 0.881 2.125 0.881s1.556-0.312 2.119-0.881l0.056-0.056c0.119-0.119 0.281-0.181 0.45-0.181 0.087 0 0.181 0.019 0.256 0.050 0.025 0.012 0.056 0.025 0.087 0.031 0.237 0.094 0.4 0.319 0.406 0.581v0.075c0 1.656 1.344 3 3 3s3-1.344 3-3v-0.169c0-0.262 0.156-0.487 0.4-0.6 0.006 0 0.012-0.006 0.019-0.006 0.075-0.031 0.162-0.050 0.244-0.050 0.169 0 0.331 0.063 0.45 0.181l0.056 0.056c0.569 0.569 1.319 0.881 2.125 0.881s1.556-0.312 2.119-0.881c0.569-0.569 0.881-1.319 0.881-2.125 0-0.8-0.312-1.556-0.881-2.119l-0.056-0.056c-0.119-0.119-0.181-0.281-0.181-0.45 0-0.087 0.019-0.181 0.050-0.256 0.006-0.006 0.012-0.019 0.012-0.031zM18.487 14.587c-0.006 0.012-0.006 0.019-0.012 0.031-0.144 0.325-0.219 0.687-0.219 1.050 0 0.7 0.269 1.356 0.756 1.856 0 0 0.006 0.006 0.006 0.006l0.063 0.063c0.188 0.188 0.294 0.438 0.294 0.706s-0.106 0.519-0.294 0.706c-0.188 0.188-0.438 0.294-0.706 0.294s-0.519-0.106-0.706-0.294l-0.063-0.063c0 0-0.006-0.006-0.006-0.006-0.5-0.488-1.156-0.756-1.856-0.756-0.381 0-0.744 0.081-1.088 0.231-0.006 0.006-0.019 0.006-0.025 0.012-0.944 0.431-1.55 1.369-1.556 2.406v0.169c0 0.55-0.45 1-1 1s-1-0.45-1-1v-0.087c0-0.006 0-0.019 0-0.025-0.025-1.087-0.7-2.031-1.713-2.419-0.319-0.138-0.675-0.213-1.038-0.213-0.7 0-1.356 0.269-1.856 0.756 0 0-0.006 0.006-0.006 0.006l-0.063 0.063c-0.188 0.188-0.438 0.294-0.706 0.294s-0.519-0.106-0.706-0.294c-0.188-0.188-0.294-0.438-0.294-0.706s0.106-0.519 0.294-0.706l0.069-0.069c0.488-0.5 0.756-1.156 0.756-1.856 0-0.375-0.081-0.744-0.231-1.088-0.006-0.006-0.006-0.019-0.012-0.025-0.431-0.944-1.369-1.55-2.406-1.55h-0.162c-0.55 0-1-0.45-1-1s0.45-1 1-1h0.087c0.006 0 0.019 0 0.025 0 1.088-0.025 2.031-0.7 2.419-1.713 0.138-0.319 0.213-0.675 0.213-1.038 0-0.7-0.269-1.356-0.756-1.856 0 0-0.006-0.006-0.006-0.006l-0.063-0.063c-0.188-0.188-0.294-0.438-0.294-0.706s0.106-0.519 0.294-0.706c0.188-0.188 0.438-0.294 0.706-0.294s0.519 0.106 0.706 0.294l0.063 0.063c0 0 0.006 0.006 0.006 0.006 0.5 0.488 1.156 0.756 1.856 0.756 0.3 0 0.6-0.050 0.881-0.15 0.094-0.012 0.181-0.037 0.269-0.075 0.969-0.425 1.594-1.375 1.6-2.425v-0.169c0-0.55 0.45-1 1-1s1 0.45 1 1v0.094c0.006 1.050 0.625 2 1.587 2.419 0.006 0.006 0.019 0.006 0.025 0.012 0.325 0.144 0.687 0.219 1.050 0.219 0.7 0 1.356-0.269 1.856-0.756 0 0 0.006-0.006 0.006-0.006l0.063-0.063c0.188-0.188 0.438-0.294 0.706-0.294s0.519 0.106 0.706 0.294c0.188 0.188 0.294 0.438 0.294 0.706s-0.106 0.519-0.294 0.706l-0.063 0.063c0 0-0.006 0.006-0.006 0.006-0.487 0.5-0.756 1.156-0.756 1.856 0 0.3 0.050 0.6 0.15 0.881 0.012 0.094 0.037 0.181 0.075 0.269 0.425 0.969 1.375 1.594 2.425 1.6h0.169c0.55 0 1 0.45 1 1s-0.45 1-1 1h-0.094c-1.050 0-2 0.619-2.419 1.581z"></path>
<path d="M12 8c-2.206 0-4 1.794-4 4s1.794 4 4 4c2.206 0 4-1.794 4-4s-1.794-4-4-4zM12 14c-1.1 0-2-0.9-2-2s0.9-2 2-2c1.1 0 2 0.9 2 2s-0.9 2-2 2z"></path>
</svg>
