<!-- Generated by IcoMoon.io -->
<svg version="1.1" xmlns="http://www.w3.org/2000/svg" width="24" height="24" viewBox="0 0 24 24">
<title>comment-square</title>
<path d="M19 2h-14c-1.656 0-3 1.344-3 3v16c0 0.406 0.244 0.769 0.619 0.925 0.125 0.050 0.256 0.075 0.381 0.075 0.263 0 0.519-0.1 0.706-0.294l3.706-3.706h11.588c1.656 0 3-1.344 3-3v-10c0-1.656-1.344-3-3-3zM20 15c0 0.55-0.45 1-1 1h-12c-0.262 0-0.519 0.106-0.706 0.294l-2.294 2.294v-13.587c0-0.55 0.45-1 1-1h14c0.55 0 1 0.45 1 1v10z"></path>
</svg>
