<!-- Generated by IcoMoon.io -->
<svg version="1.1" xmlns="http://www.w3.org/2000/svg" width="24" height="24" viewBox="0 0 24 24">
<title>command</title>
<path d="M18 14h-2v-4h2c2.206 0 4-1.794 4-4s-1.794-4-4-4-4 1.794-4 4v2h-4v-2c0-2.206-1.794-4-4-4s-4 1.794-4 4 1.794 4 4 4h2v4h-2c-2.206 0-4 1.794-4 4s1.794 4 4 4 4-1.794 4-4v-2h4v2c0 2.206 1.794 4 4 4s4-1.794 4-4-1.794-4-4-4zM16 6c0-1.1 0.9-2 2-2s2 0.9 2 2-0.9 2-2 2h-2v-2zM8 18c0 1.1-0.9 2-2 2s-2-0.9-2-2 0.9-2 2-2h2v2zM8 8h-2c-1.1 0-2-0.9-2-2s0.9-2 2-2 2 0.9 2 2v2zM14 14h-4v-4h4v4zM18 20c-1.1 0-2-0.9-2-2v-2h2c1.1 0 2 0.9 2 2s-0.9 2-2 2z"></path>
</svg>
