<!-- Generated by IcoMoon.io -->
<svg version="1.1" xmlns="http://www.w3.org/2000/svg" width="24" height="24" viewBox="0 0 24 24">
<title>comment-circle</title>
<path d="M22 10.969c0-0.019 0-0.031 0-0.050-0.275-4.812-4.119-8.644-8.944-8.919-0.019 0-0.038 0-0.056 0h-0.519c-1.506 0-2.95 0.35-4.281 1.031-3.206 1.631-5.2 4.875-5.2 8.469v0.025c0 1.344 0.281 2.662 0.825 3.85l-1.769 5.313c-0.119 0.363-0.025 0.756 0.244 1.025 0.188 0.188 0.444 0.294 0.706 0.294 0.106 0 0.219-0.019 0.319-0.056l5.262-1.788c1.212 0.55 2.55 0.844 3.894 0.844h0.025c3.594 0 6.837-1.994 8.469-5.194 0.675-1.313 1.031-2.794 1.031-4.281v-0.031c-0.006-0.175-0.006-0.356-0.006-0.531zM20 11.525c0 1.188-0.275 2.319-0.813 3.375-1.287 2.531-3.85 4.106-6.687 4.106h-0.025c-1.188 0-2.319-0.275-3.369-0.813-0.244-0.125-0.525-0.144-0.781-0.056l-3.744 1.275 1.263-3.787c0.087-0.256 0.063-0.537-0.063-0.775-0.519-1-0.787-2.15-0.787-3.319v-0.031c0-2.838 1.575-5.4 4.106-6.687 1.050-0.537 2.181-0.813 3.369-0.813h0.494c3.787 0.231 6.8 3.237 7.031 7.012 0 0.162 0 0.331 0 0.488v0.025z"></path>
</svg>
