<!-- Generated by IcoMoon.io -->
<svg version="1.1" xmlns="http://www.w3.org/2000/svg" width="24" height="24" viewBox="0 0 24 24">
<title>crosshair</title>
<path d="M12 1c-6.063 0-11 4.938-11 11s4.938 11 11 11 11-4.938 11-11-4.938-11-11-11zM13 20.944v-2.944c0-0.55-0.45-1-1-1s-1 0.45-1 1v2.944c-4.162-0.462-7.481-3.781-7.944-7.944h2.944c0.55 0 1-0.45 1-1s-0.45-1-1-1h-2.944c0.462-4.162 3.781-7.481 7.944-7.944v2.944c0 0.55 0.45 1 1 1s1-0.45 1-1v-2.944c4.163 0.462 7.481 3.781 7.944 7.944h-2.944c-0.55 0-1 0.45-1 1s0.45 1 1 1h2.944c-0.462 4.163-3.781 7.481-7.944 7.944z"></path>
</svg>
