<!-- Generated by IcoMoon.io -->
<svg version="1.1" xmlns="http://www.w3.org/2000/svg" width="24" height="24" viewBox="0 0 24 24">
<title>delete</title>
<path d="M21 3h-13c-0.288 0-0.563 0.125-0.75 0.344l-7 8c-0.331 0.375-0.331 0.938 0 1.319l7 8c0.188 0.219 0.462 0.344 0.75 0.344h13c1.656 0 3-1.344 3-3v-12.006c0-1.656-1.344-3-3-3zM22 18c0 0.55-0.45 1-1 1h-12.544l-6.125-7 6.125-7h12.544c0.55 0 1 0.45 1 1v12z"></path>
<path d="M18.706 8.294c-0.387-0.387-1.025-0.387-1.413 0l-2.294 2.294-2.294-2.294c-0.387-0.387-1.025-0.387-1.413 0s-0.387 1.025 0 1.413l2.294 2.294-2.294 2.294c-0.387 0.387-0.387 1.025 0 1.413 0.194 0.194 0.45 0.294 0.706 0.294s0.513-0.1 0.706-0.294l2.294-2.294 2.294 2.294c0.194 0.194 0.45 0.294 0.706 0.294s0.513-0.1 0.706-0.294c0.387-0.387 0.387-1.025 0-1.413l-2.294-2.294 2.294-2.294c0.394-0.387 0.394-1.025 0-1.413z"></path>
</svg>
