<!-- Generated by IcoMoon.io -->
<svg version="1.1" xmlns="http://www.w3.org/2000/svg" width="24" height="24" viewBox="0 0 24 24">
<title>download-cloud</title>
<path d="M15.294 16.294l-2.294 2.294v-6.588c0-0.55-0.45-1-1-1s-1 0.45-1 1v6.588l-2.294-2.294c-0.387-0.387-1.025-0.387-1.413 0s-0.387 1.025 0 1.413l4 4c0.012 0.012 0.025 0.025 0.037 0.037 0 0 0 0 0 0s0.006 0.006 0.006 0.006c0 0 0 0 0.006 0.006 0 0 0 0 0.006 0.006 0 0 0.006 0.006 0.006 0.006s0 0 0 0 0.006 0.006 0.006 0.006c0 0 0 0 0 0 0.075 0.063 0.15 0.106 0.231 0.144 0 0 0 0 0.006 0 0 0 0 0 0.006 0 0.106 0.044 0.225 0.075 0.35 0.081 0 0 0 0 0 0 0.006 0 0.006 0 0.012 0 0 0 0 0 0 0s0.006 0 0.006 0c0 0 0.006 0 0.006 0s0.006 0 0.006 0 0.006 0 0.012 0 0.006 0 0.012 0c0 0 0.006 0 0.006 0s0.006 0 0.006 0c0 0 0.006 0 0.006 0s0 0 0 0c0.006 0 0.006 0 0.012 0 0 0 0 0 0 0 0.125-0.006 0.244-0.031 0.35-0.081 0 0 0 0 0 0s0.006 0 0.006 0c0 0 0.006 0 0.006 0s0 0 0 0c0.075-0.031 0.144-0.075 0.213-0.131 0 0 0 0 0 0s0.006-0.006 0.006-0.006c0 0 0 0 0 0s0.006-0.006 0.006-0.006c0 0 0 0 0.006-0.006 0 0 0 0 0.006-0.006 0 0 0.006-0.006 0.006-0.006s0 0 0 0c0.019-0.012 0.031-0.031 0.050-0.050l3.994-3.994c0.387-0.387 0.387-1.025 0-1.413-0.375-0.4-1.013-0.4-1.4-0.006z"></path>
<path d="M18 8h-0.525c-1.275-3.575-4.662-6.012-8.487-6.012-4.962 0-9 4.038-9 9 0 2.206 0.806 4.325 2.269 5.975 0.369 0.413 1 0.45 1.413 0.081s0.45-1 0.081-1.413c-1.137-1.281-1.762-2.931-1.762-4.644 0-3.863 3.138-7 7-7 3.175 0 5.969 2.163 6.781 5.269 0.112 0.438 0.513 0.744 0.969 0.744h1.263c2.206 0 4 1.794 4 4 0 1.313-0.619 2.506-1.7 3.275-0.45 0.319-0.556 0.944-0.237 1.394 0.194 0.275 0.506 0.419 0.819 0.419 0.2 0 0.4-0.063 0.575-0.188 1.594-1.131 2.544-2.963 2.544-4.906 0.006-3.3-2.688-5.994-6-5.994z"></path>
</svg>
