<!-- Generated by IcoMoon.io -->
<svg version="1.1" xmlns="http://www.w3.org/2000/svg" width="24" height="24" viewBox="0 0 24 24">
<title>edit</title>
<path d="M20 13.662c-0.55 0-1 0.45-1 1v5.337c0 0.55-0.45 1-1 1h-14c-0.55 0-1-0.45-1-1v-14c0-0.55 0.45-1 1-1h5.337c0.55 0 1-0.45 1-1s-0.45-1-1-1h-5.337c-1.656 0-3 1.344-3 3v14c0 1.656 1.344 3 3 3h14c1.656 0 3-1.344 3-3v-5.337c0-0.556-0.45-1-1-1z"></path>
<path d="M22.706 5.294l-4-4c-0.387-0.387-1.025-0.387-1.413 0l-10 10c-0.188 0.188-0.294 0.444-0.294 0.706v4c0 0.55 0.45 1 1 1h4c0.263 0 0.519-0.106 0.706-0.294l10-10c0.394-0.387 0.394-1.025 0-1.413zM11.587 15h-2.587v-2.587l9-9 2.587 2.587-9 9z"></path>
</svg>
