<!-- Generated by IcoMoon.io -->
<svg version="1.1" xmlns="http://www.w3.org/2000/svg" width="24" height="24" viewBox="0 0 24 24">
<title>eye</title>
<path d="M23.894 11.55c-0.044-0.087-1.087-2.156-3.038-4.238-2.65-2.819-5.712-4.313-8.856-4.313s-6.206 1.494-8.856 4.319c-1.95 2.081-2.994 4.15-3.037 4.238-0.144 0.281-0.144 0.612 0 0.894 0.044 0.087 1.087 2.156 3.037 4.237 2.65 2.819 5.712 4.313 8.856 4.313s6.206-1.494 8.856-4.319c1.95-2.081 2.994-4.15 3.038-4.237 0.144-0.275 0.144-0.612 0-0.894zM19.362 15.356c-2.288 2.419-4.763 3.644-7.362 3.644s-5.075-1.225-7.362-3.644c-1.25-1.325-2.106-2.675-2.5-3.356 0.394-0.675 1.244-2.025 2.5-3.356 2.287-2.419 4.762-3.644 7.362-3.644s5.075 1.225 7.362 3.644c1.25 1.331 2.106 2.675 2.5 3.356-0.4 0.675-1.25 2.025-2.5 3.356z"></path>
<path d="M12 8c-2.206 0-4 1.794-4 4s1.794 4 4 4c2.206 0 4-1.794 4-4s-1.794-4-4-4zM12 14c-1.1 0-2-0.9-2-2s0.9-2 2-2c1.1 0 2 0.9 2 2s-0.9 2-2 2z"></path>
</svg>
