<!-- Generated by IcoMoon.io -->
<svg version="1.1" xmlns="http://www.w3.org/2000/svg" width="24" height="24" viewBox="0 0 24 24">
<title>facebook</title>
<path d="M18 7c0.55 0 1-0.45 1-1v-4c0-0.55-0.45-1-1-1h-3c-3.306 0-6 2.694-6 6v2h-2c-0.55 0-1 0.45-1 1v4c0 0.55 0.45 1 1 1h2v7c0 0.55 0.45 1 1 1h4c0.55 0 1-0.45 1-1v-7h2c0.456 0 0.856-0.312 0.969-0.756l1-4c0.075-0.3 0.006-0.612-0.181-0.856s-0.481-0.387-0.788-0.387h-3v-2h3zM14 11h2.719l-0.5 2h-2.219c-0.55 0-1 0.45-1 1v7h-2v-7c0-0.55-0.45-1-1-1h-2v-2h2c0.55 0 1-0.45 1-1v-3c0-2.206 1.794-4 4-4h2v2h-2c-1.1 0-2 0.9-2 2v3c0 0.55 0.45 1 1 1z"></path>
</svg>
