<!-- Generated by IcoMoon.io -->
<svg version="1.1" xmlns="http://www.w3.org/2000/svg" width="24" height="24" viewBox="0 0 24 24">
<title>fast-forward</title>
<path d="M22.612 11.212l-9-7c-0.3-0.237-0.713-0.275-1.056-0.106s-0.563 0.519-0.563 0.9v14c0 0.381 0.219 0.731 0.563 0.9 0.138 0.069 0.288 0.1 0.438 0.1 0.219 0 0.438-0.069 0.612-0.213l9-7c0.244-0.188 0.387-0.481 0.387-0.788s-0.138-0.606-0.381-0.794zM14 16.956v-9.912l6.369 4.956-6.369 4.956z"></path>
<path d="M11.613 11.212l-9-7c-0.3-0.237-0.706-0.281-1.050-0.113s-0.563 0.519-0.563 0.9v14c0 0.381 0.219 0.731 0.563 0.9 0.138 0.069 0.288 0.1 0.438 0.1 0.219 0 0.438-0.069 0.612-0.213l9-7c0.244-0.188 0.387-0.481 0.387-0.787s-0.144-0.6-0.387-0.788zM3 16.956v-9.912l6.369 4.956-6.369 4.956z"></path>
</svg>
