<!-- Generated by IcoMoon.io -->
<svg version="1.1" xmlns="http://www.w3.org/2000/svg" width="24" height="24" viewBox="0 0 24 24">
<title>filter</title>
<path d="M22.906 2.581c-0.162-0.356-0.519-0.581-0.906-0.581h-20c-0.387 0-0.744 0.225-0.906 0.581s-0.106 0.769 0.144 1.069l7.762 9.175v6.175c0 0.381 0.213 0.725 0.55 0.894l4 2c0.144 0.069 0.294 0.106 0.45 0.106 0.181 0 0.363-0.050 0.525-0.15 0.294-0.181 0.475-0.506 0.475-0.85v-8.175l7.763-9.181c0.25-0.294 0.306-0.712 0.144-1.062zM13.237 11.813c-0.15 0.181-0.237 0.406-0.237 0.644v6.925l-2-1v-5.925c0-0.237-0.081-0.462-0.237-0.644l-6.606-7.812h15.687l-6.606 7.812z"></path>
</svg>
