<!-- Generated by IcoMoon.io -->
<svg version="1.1" xmlns="http://www.w3.org/2000/svg" width="24" height="24" viewBox="0 0 24 24">
<title>globe</title>
<path d="M23 12c0-6.006-4.844-10.906-10.831-11-0.106-0.019-0.213-0.019-0.319 0-5.994 0.081-10.85 4.981-10.85 11 0 6.006 4.844 10.906 10.831 11 0.050 0.006 0.106 0.012 0.156 0.012v0c0.050 0 0.106-0.006 0.156-0.012 6-0.081 10.856-4.981 10.856-11zM20.944 11h-3.994c-0.225-2.763-1.144-5.419-2.669-7.706 3.55 0.931 6.25 3.975 6.663 7.706zM11.994 20.456c-1.669-2.156-2.688-4.744-2.937-7.456h5.881c-0.25 2.725-1.275 5.313-2.944 7.456zM9.063 11c0.256-2.719 1.275-5.306 2.944-7.45 1.669 2.15 2.694 4.731 2.944 7.45h-5.887zM9.725 3.294c-1.525 2.287-2.444 4.944-2.675 7.706h-3.994c0.412-3.731 3.119-6.781 6.669-7.706zM3.056 13h3.994c0.225 2.756 1.144 5.406 2.662 7.706-3.544-0.931-6.244-3.981-6.656-7.706zM14.275 20.706c1.525-2.288 2.444-4.944 2.675-7.706h3.994c-0.413 3.731-3.119 6.781-6.669 7.706z"></path>
</svg>
