<!-- Generated by IcoMoon.io -->
<svg version="1.1" xmlns="http://www.w3.org/2000/svg" width="24" height="24" viewBox="0 0 24 24">
<title>hash</title>
<path d="M20 14h-4.219l0.444-4h3.775c0.55 0 1-0.45 1-1s-0.45-1-1-1h-3.55l0.544-4.887c0.063-0.55-0.338-1.044-0.881-1.106-0.55-0.063-1.044 0.337-1.106 0.881l-0.569 5.112h-3.987l0.544-4.887c0.063-0.55-0.338-1.044-0.881-1.106-0.55-0.063-1.044 0.337-1.106 0.881l-0.569 5.112h-4.437c-0.55 0-1 0.45-1 1s0.45 1 1 1h4.219l-0.444 4h-3.775c-0.55 0-1 0.45-1 1s0.45 1 1 1h3.55l-0.544 4.887c-0.063 0.55 0.337 1.044 0.881 1.106 0.038 0.006 0.075 0.006 0.113 0.006 0.5 0 0.938-0.381 0.994-0.888l0.569-5.112h3.987l-0.544 4.887c-0.063 0.55 0.338 1.044 0.881 1.106 0.038 0.006 0.075 0.006 0.113 0.006 0.5 0 0.938-0.381 0.994-0.888l0.569-5.112h4.437c0.55 0 1-0.45 1-1s-0.45-1-1-1zM9.781 14l0.444-4h3.987l-0.444 4h-3.987z"></path>
</svg>
