<!-- Generated by IcoMoon.io -->
<svg version="1.1" xmlns="http://www.w3.org/2000/svg" width="24" height="24" viewBox="0 0 24 24">
<title>headphones</title>
<path d="M12 2c-5.512 0-10 4.488-10 10v7c0 1.656 1.344 3 3 3h1c1.656 0 3-1.344 3-3v-3c0-1.656-1.344-3-3-3h-2v-1c0-4.413 3.588-8 8-8s8 3.588 8 8v1h-2c-1.656 0-3 1.344-3 3v3c0 1.656 1.344 3 3 3h1c1.656 0 3-1.344 3-3v-7c0-5.512-4.488-10-10-10zM6 15c0.55 0 1 0.45 1 1v3c0 0.55-0.45 1-1 1h-1c-0.55 0-1-0.45-1-1v-4h2zM20 19c0 0.55-0.45 1-1 1h-1c-0.55 0-1-0.45-1-1v-3c0-0.55 0.45-1 1-1h2v4z"></path>
</svg>
