<!-- Generated by IcoMoon.io -->
<svg version="1.1" xmlns="http://www.w3.org/2000/svg" width="24" height="24" viewBox="0 0 24 24">
<title>heart</title>
<path d="M21.55 3.9c-1.231-1.225-2.862-1.9-4.6-1.9s-3.369 0.675-4.6 1.906l-0.35 0.35-0.35-0.35c-1.231-1.231-2.862-1.906-4.6-1.906-3.588 0-6.5 2.919-6.5 6.5 0 1.737 0.675 3.369 1.906 4.6l8.838 8.838c0.194 0.194 0.45 0.294 0.706 0.294s0.513-0.1 0.706-0.294l8.838-8.838c1.231-1.225 1.906-2.862 1.906-4.6s-0.675-3.369-1.9-4.6zM20.131 11.681l-8.131 8.137-8.131-8.137c-0.85-0.85-1.319-1.981-1.319-3.181 0-2.481 2.019-4.5 4.5-4.5 1.2 0 2.331 0.469 3.181 1.319l1.062 1.062c0.188 0.188 0.444 0.294 0.706 0.294s0.519-0.106 0.706-0.294l1.062-1.062c0.85-0.85 1.981-1.319 3.181-1.319s2.331 0.469 3.181 1.319c0 0 0 0 0 0 0.85 0.85 1.319 1.981 1.319 3.181s-0.469 2.331-1.319 3.181z"></path>
</svg>
