<!-- Generated by IcoMoon.io -->
<svg version="1.1" xmlns="http://www.w3.org/2000/svg" width="24" height="24" viewBox="0 0 24 24">
<title>image</title>
<path d="M8.5 11c1.381 0 2.5-1.119 2.5-2.5s-1.119-2.5-2.5-2.5-2.5 1.119-2.5 2.5 1.119 2.5 2.5 2.5zM8.5 8c0.275 0 0.5 0.225 0.5 0.5s-0.225 0.5-0.5 0.5-0.5-0.225-0.5-0.5 0.225-0.5 0.5-0.5z"></path>
<path d="M22 15v-10c0-1.656-1.344-3-3-3h-14c-1.656 0-3 1.344-3 3v14c0 1.65 1.338 2.994 2.988 3 0.006 0 0.006 0 0.012 0h14c1.656 0 3-1.344 3-3v-4c0 0 0 0 0 0zM4 5c0-0.55 0.45-1 1-1h14c0.55 0 1 0.45 1 1v7.587l-3.294-3.294c-0.387-0.387-1.025-0.387-1.413 0l-10.644 10.644c-0.381-0.144-0.65-0.506-0.65-0.938v-14zM19 20h-11.588l8.588-8.587 4 4v3.588c0 0.55-0.45 1-1 1z"></path>
</svg>
