<!-- Generated by IcoMoon.io -->
<svg version="1.1" xmlns="http://www.w3.org/2000/svg" width="24" height="24" viewBox="0 0 24 24">
<title>life-buoy</title>
<path d="M19.837 19.713c1.956-1.987 3.162-4.713 3.162-7.713s-1.206-5.725-3.162-7.713c-0.019-0.025-0.038-0.044-0.063-0.069-0.019-0.019-0.044-0.044-0.069-0.063-1.981-1.95-4.706-3.156-7.706-3.156s-5.725 1.206-7.713 3.162c-0.025 0.019-0.044 0.037-0.069 0.063-0.019 0.019-0.044 0.044-0.063 0.069-1.95 1.981-3.156 4.706-3.156 7.706s1.206 5.725 3.162 7.713c0.019 0.025 0.037 0.044 0.063 0.069 0.019 0.019 0.044 0.044 0.069 0.063 1.981 1.95 4.706 3.156 7.706 3.156s5.725-1.206 7.713-3.162c0.025-0.019 0.044-0.038 0.069-0.063 0.019-0.019 0.037-0.044 0.056-0.063zM19.031 17.613l-2.856-2.856c0.525-0.794 0.831-1.737 0.831-2.756s-0.306-1.962-0.831-2.756l2.856-2.856c1.231 1.537 1.969 3.494 1.969 5.613s-0.738 4.075-1.969 5.613zM9 12c0-1.656 1.344-3 3-3s3 1.344 3 3c0 1.656-1.344 3-3 3s-3-1.344-3-3zM17.613 4.969l-2.856 2.856c-0.794-0.525-1.737-0.831-2.756-0.831s-1.962 0.306-2.756 0.831l-2.856-2.856c1.537-1.231 3.494-1.969 5.613-1.969s4.075 0.738 5.613 1.969zM4.969 6.387l2.856 2.856c-0.525 0.794-0.831 1.737-0.831 2.756s0.306 1.962 0.831 2.756l-2.856 2.856c-1.231-1.538-1.969-3.494-1.969-5.613s0.738-4.075 1.969-5.613zM6.387 19.031l2.856-2.856c0.794 0.525 1.737 0.831 2.756 0.831s1.962-0.306 2.756-0.831l2.856 2.856c-1.538 1.231-3.494 1.969-5.613 1.969s-4.075-0.738-5.613-1.969z"></path>
</svg>
