<!-- Generated by IcoMoon.io -->
<svg version="1.1" xmlns="http://www.w3.org/2000/svg" width="24" height="24" viewBox="0 0 24 24">
<title>location</title>
<path d="M22.706 1.294c-0.294-0.294-0.738-0.375-1.119-0.206l-20 9c-0.394 0.175-0.631 0.588-0.588 1.013 0.044 0.431 0.356 0.781 0.775 0.875l8.381 1.863 1.863 8.381c0.094 0.419 0.444 0.731 0.875 0.775 0.031 0.006 0.069 0.006 0.1 0.006 0.387 0 0.75-0.231 0.912-0.588l9-20c0.175-0.381 0.094-0.825-0.2-1.119zM13.325 18.844l-1.35-6.063c-0.081-0.381-0.381-0.675-0.756-0.756l-6.063-1.35 14.85-6.681-6.681 14.85z"></path>
</svg>
