<!-- Generated by IcoMoon.io -->
<svg version="1.1" xmlns="http://www.w3.org/2000/svg" width="24" height="24" viewBox="0 0 24 24">
<title>map</title>
<path d="M23.5 1.137c-0.306-0.181-0.687-0.181-1-0.006l-6.531 3.738-7.506-3.75c-0.131-0.069-0.288-0.112-0.444-0.112 0 0 0 0 0 0-0.006 0-0.012 0-0.019 0-0.188 0-0.363 0.050-0.513 0.138l-6.981 3.987c-0.312 0.181-0.506 0.513-0.506 0.869v16c0 0.356 0.188 0.687 0.5 0.862 0.306 0.181 0.687 0.181 1 0.006l6.537-3.738 7.5 3.75c0.131 0.069 0.281 0.112 0.438 0.112 0 0 0 0 0 0 0.006 0 0.006 0 0.012 0 0 0 0 0 0 0 0.006 0 0.006 0 0.012 0s0.012 0 0.012 0c0 0 0 0 0.006 0s0.006 0 0.012 0c0 0 0 0 0 0 0.175-0.006 0.337-0.056 0.475-0.138l6.987-3.994c0.312-0.175 0.506-0.506 0.506-0.869v-15.994c0-0.356-0.188-0.687-0.5-0.862zM9 3.619l6 3v13.763l-6-3v-13.763zM2 6.581l5-2.856v13.694l-5 2.856v-13.694zM22 17.419l-5 2.856v-13.694l5-2.856v13.694z"></path>
</svg>
