<!-- Generated by IcoMoon.io -->
<svg version="1.1" xmlns="http://www.w3.org/2000/svg" width="24" height="24" viewBox="0 0 24 24">
<title>mic-off</title>
<path d="M23.706 22.294l-5.838-5.838c-0.044-0.081-0.1-0.15-0.169-0.219-0.063-0.063-0.131-0.112-0.206-0.156l-2.662-2.663c0 0 0 0-0.006-0.006 0 0-0.006-0.006-0.006-0.006l-5.112-5.112c0 0 0 0-0.006-0.006l-8-8c-0.387-0.387-1.025-0.387-1.413 0s-0.387 1.025 0 1.413l7.713 7.713v2.588c0 2.206 1.794 3.994 4 3.994 0.725 0 1.425-0.194 2.031-0.55l1.475 1.475c-0.938 0.675-2.044 1.069-3.213 1.125-0.094-0.031-0.194-0.044-0.294-0.044s-0.2 0.012-0.294 0.044c-3.175-0.156-5.706-2.781-5.706-5.994v-0.050c0 0 0-0.006 0-0.006v-2c0-0.55-0.45-1-1-1s-1 0.45-1 1v2.056c0 4.075 3.056 7.444 7 7.938v2.013h-3c-0.55 0-1 0.45-1 1s0.45 1 1 1h8c0.55 0 1-0.45 1-1s-0.45-1-1-1h-3v-2.013c1.444-0.181 2.794-0.744 3.938-1.644l5.356 5.356c0.194 0.194 0.45 0.294 0.706 0.294s0.513-0.1 0.706-0.294c0.394-0.381 0.394-1.019 0-1.406zM12 14c-1.1 0-2-0.894-2-2v-0.588l2.519 2.519c-0.169 0.044-0.344 0.069-0.519 0.069z"></path>
<path d="M8.856 4.362c0.544 0.113 1.069-0.231 1.181-0.775 0.2-0.925 1.019-1.587 1.962-1.587 1.1 0 2 0.9 2 2v5.337c0 0.55 0.45 1 1 1s1-0.45 1-1v-5.337c0-2.206-1.794-4-4-4-1.881 0-3.531 1.338-3.912 3.181-0.119 0.537 0.231 1.062 0.769 1.181z"></path>
<path d="M18.7 14.256c0.063 0.012 0.125 0.019 0.181 0.019 0.475 0 0.894-0.337 0.981-0.819 0.087-0.475 0.131-0.969 0.131-1.456v-2c0-0.55-0.45-1-1-1s-1 0.45-1 1v2c0 0.369-0.031 0.738-0.1 1.094-0.094 0.544 0.263 1.062 0.806 1.163z"></path>
</svg>
