<!-- Generated by IcoMoon.io -->
<svg version="1.1" xmlns="http://www.w3.org/2000/svg" width="24" height="24" viewBox="0 0 24 24">
<title>mic</title>
<path d="M12 16c2.206 0 4-1.794 4-4v-8c0-2.206-1.794-4-4-4s-4 1.794-4 4v8c0 2.206 1.794 4 4 4zM10 4c0-1.1 0.9-2 2-2s2 0.9 2 2v8c0 1.1-0.9 2-2 2s-2-0.9-2-2v-8z"></path>
<path d="M19 9c-0.55 0-1 0.45-1 1v2c0 3.306-2.694 6-6 6s-6-2.694-6-6v-2c0-0.55-0.45-1-1-1s-1 0.45-1 1v2c0 4.075 3.056 7.444 7 7.938v2.063h-3c-0.55 0-1 0.45-1 1s0.45 1 1 1h8c0.55 0 1-0.45 1-1s-0.45-1-1-1h-3v-2.063c3.944-0.494 7-3.863 7-7.938v-2c0-0.55-0.45-1-1-1z"></path>
</svg>
