<!-- Generated by IcoMoon.io -->
<svg version="1.1" xmlns="http://www.w3.org/2000/svg" width="24" height="24" viewBox="0 0 24 24">
<title>music</title>
<path d="M21.644 2.238c-0.225-0.188-0.519-0.269-0.813-0.225l-12 2c-0.481 0.081-0.837 0.5-0.837 0.987v11h-2.994c-1.656 0-3 1.344-3 3s1.344 3 3 3h2c1.656 0 3-1.344 3-3v-13.15l10-1.669v9.819h-3c-1.656 0-3 1.344-3 3s1.344 3 3 3h2c1.656 0 3-1.344 3-3v-14c0-0.294-0.131-0.575-0.356-0.762zM8 19c0 0.55-0.45 1-1 1h-2c-0.55 0-1-0.45-1-1s0.45-1 1-1h3v1zM20 17c0 0.55-0.45 1-1 1h-2c-0.55 0-1-0.45-1-1s0.45-1 1-1h3v1z"></path>
</svg>
