<!-- Generated by IcoMoon.io -->
<svg version="1.1" xmlns="http://www.w3.org/2000/svg" width="24" height="24" viewBox="0 0 24 24">
<title>pocket</title>
<path d="M20 2h-16c-1.656 0-3 1.344-3 3v6c0 6.063 4.938 11 11 11s11-4.938 11-11v-6c0-1.656-1.344-3-3-3zM21 11c0 4.962-4.038 9-9 9s-9-4.038-9-9v-6c0-0.55 0.45-1 1-1h16c0.55 0 1 0.45 1 1v6z"></path>
<path d="M15.294 9.294l-3.294 3.294-3.294-3.294c-0.387-0.387-1.025-0.387-1.413 0s-0.387 1.025 0 1.413l4 4c0.194 0.194 0.45 0.294 0.706 0.294s0.513-0.1 0.706-0.294l4-4c0.387-0.387 0.387-1.025 0-1.413-0.387-0.394-1.025-0.394-1.413 0z"></path>
</svg>
