<!-- Generated by IcoMoon.io -->
<svg version="1.1" xmlns="http://www.w3.org/2000/svg" width="24" height="24" viewBox="0 0 24 24">
<title>power</title>
<path d="M19.069 5.931c-0.387-0.387-1.025-0.394-1.413 0-0.387 0.387-0.394 1.025 0 1.413 1.512 1.512 2.344 3.519 2.344 5.656 0 4.413-3.588 8-8 8s-8-3.588-8-8c0-2.137 0.831-4.144 2.344-5.656 0.387-0.387 0.387-1.025 0-1.413s-1.025-0.387-1.413 0c-1.894 1.887-2.937 4.4-2.937 7.069 0 5.512 4.488 10 10 10s10-4.488 10-10c0-2.669-1.038-5.181-2.925-7.069z"></path>
<path d="M12 13c0.55 0 1-0.45 1-1v-10c0-0.55-0.45-1-1-1s-1 0.45-1 1v10c0 0.55 0.45 1 1 1z"></path>
</svg>
