<!-- Generated by IcoMoon.io -->
<svg version="1.1" xmlns="http://www.w3.org/2000/svg" width="24" height="24" viewBox="0 0 24 24">
<title>shuffle</title>
<path d="M20 8c0 0.55 0.45 1 1 1s1-0.45 1-1v-5c0-0.012 0-0.025 0-0.037 0 0 0 0 0-0.006 0 0 0-0.006 0-0.006s0-0.006 0-0.006c0 0 0-0.006 0-0.006s0-0.006 0-0.006c0 0 0 0 0 0-0.006-0.106-0.031-0.206-0.069-0.3 0 0 0 0 0-0.006 0 0 0 0 0-0.006 0 0 0-0.006-0.006-0.006 0 0 0 0 0 0-0.038-0.094-0.094-0.175-0.156-0.256 0 0 0 0 0 0s-0.006-0.006-0.006-0.006c0 0 0 0 0 0s-0.006-0.006-0.006-0.006-0.006-0.006-0.006-0.006 0 0 0-0.006c-0.025-0.025-0.044-0.050-0.069-0.069 0 0 0 0-0.006 0 0 0-0.006-0.006-0.006-0.006s-0.006 0-0.006-0.006c0 0 0 0-0.006 0 0 0-0.006-0.006-0.006-0.006s0 0 0 0c-0.075-0.069-0.162-0.119-0.256-0.156 0 0 0 0 0 0s-0.006 0-0.006 0c0 0 0 0-0.006 0 0 0 0 0-0.006 0-0.094-0.038-0.194-0.063-0.3-0.069 0 0 0 0 0 0s-0.006 0-0.006 0c0 0-0.006 0-0.006 0s-0.006 0-0.006 0c0 0-0.006 0-0.006 0s0 0-0.006 0c-0.012 0-0.025 0-0.038 0h-5c-0.55 0-1 0.45-1 1s0.45 1 1 1h2.587l-15.3 15.275c-0.387 0.387-0.387 1.025 0 1.413 0.194 0.194 0.45 0.294 0.706 0.294s0.513-0.1 0.706-0.294l15.294-15.294v2.587z"></path>
<path d="M21.75 21.663c0 0 0-0.006 0 0 0.006-0.006 0.006-0.006 0.006-0.006s0.006-0.006 0.006-0.006c0 0 0 0 0 0s0.006-0.006 0.006-0.006c0 0 0 0 0 0 0.063-0.075 0.113-0.156 0.15-0.244 0 0 0 0 0-0.006 0 0 0-0.006 0-0.006s0-0.006 0-0.006c0 0 0 0 0 0 0.037-0.094 0.063-0.194 0.069-0.3 0 0 0 0 0 0s0-0.006 0-0.006c0 0 0-0.006 0-0.006s0-0.006 0-0.006c0 0 0-0.006 0-0.006s0 0 0-0.006c0-0.012 0-0.025 0-0.038v-5c0-0.55-0.45-1-1-1s-1 0.45-1 1v2.587l-4.45-4.475c-0.387-0.387-1.025-0.387-1.413 0s-0.387 1.025 0 1.413l4.463 4.462h-2.588c-0.55 0-1 0.45-1 1s0.45 1 1 1h5c0.006 0 0.006 0 0.012 0 0 0 0.006 0 0.006 0s0.006 0 0.006 0c0 0 0.006 0 0.006 0s0 0 0 0c0.006 0 0.006 0 0.012 0 0 0 0 0 0 0 0.125-0.006 0.244-0.031 0.35-0.081 0 0 0 0 0 0s0.006 0 0.006 0c0 0 0.006 0 0.006 0s0 0 0 0c0.075-0.031 0.144-0.075 0.213-0.131 0 0 0 0 0 0s0.006-0.006 0.006-0.006c0 0 0 0 0 0s0.006-0.006 0.006-0.006c0 0 0 0 0.006-0.006 0 0 0 0 0.006-0.006 0 0 0.006-0.006 0.006-0.006s0 0 0 0c0.031-0.025 0.056-0.050 0.081-0.081 0 0 0 0 0 0 0.012-0.006 0.019-0.012 0.019-0.012z"></path>
<path d="M8.463 9.875c0.194 0.194 0.45 0.294 0.706 0.294s0.513-0.1 0.706-0.294c0.387-0.387 0.387-1.025 0-1.413l-5.169-5.169c-0.387-0.387-1.025-0.387-1.413 0s-0.387 1.025 0 1.413l5.169 5.169z"></path>
</svg>
