<!-- Generated by IcoMoon.io -->
<svg version="1.1" xmlns="http://www.w3.org/2000/svg" width="24" height="24" viewBox="0 0 24 24">
<title>skip-back</title>
<path d="M20.469 3.119c-0.325-0.175-0.719-0.156-1.025 0.050l-12 8c-0.281 0.188-0.444 0.5-0.444 0.831s0.169 0.644 0.444 0.831l12 8c0.169 0.113 0.363 0.169 0.556 0.169 0.162 0 0.325-0.038 0.469-0.119 0.325-0.175 0.531-0.513 0.531-0.881v-16c0-0.369-0.2-0.706-0.531-0.881zM19 18.131l-9.2-6.131 9.2-6.131v12.263z"></path>
<path d="M4 3c-0.55 0-1 0.45-1 1v16c0 0.55 0.45 1 1 1s1-0.45 1-1v-16c0-0.55-0.45-1-1-1z"></path>
</svg>
