<!-- Generated by IcoMoon.io -->
<svg version="1.1" xmlns="http://www.w3.org/2000/svg" width="24" height="24" viewBox="0 0 24 24">
<title>star</title>
<path d="M22.95 8.962c-0.119-0.363-0.431-0.625-0.806-0.681l-6.387-0.931-2.856-5.787c-0.169-0.344-0.519-0.556-0.894-0.556s-0.731 0.219-0.894 0.556l-2.856 5.787-6.4 0.931c-0.375 0.056-0.687 0.319-0.806 0.681s-0.019 0.756 0.256 1.025l4.625 4.5-1.094 6.363c-0.063 0.375 0.087 0.756 0.4 0.981 0.306 0.225 0.719 0.256 1.056 0.075l5.712-3.006 5.712 3.006c0.144 0.075 0.306 0.113 0.462 0.113 0.206 0 0.413-0.063 0.588-0.194 0.306-0.225 0.462-0.6 0.4-0.981l-1.094-6.363 4.625-4.5c0.269-0.263 0.369-0.656 0.25-1.019zM16.3 13.425c-0.237 0.231-0.344 0.563-0.288 0.888l0.837 4.881-4.387-2.306c-0.144-0.075-0.306-0.112-0.462-0.112-0.162 0-0.319 0.038-0.462 0.112l-4.388 2.306 0.837-4.881c0.056-0.325-0.050-0.656-0.288-0.888l-3.55-3.456 4.906-0.719c0.325-0.050 0.606-0.25 0.75-0.544l2.194-4.45 2.194 4.444c0.144 0.294 0.425 0.5 0.75 0.544l4.906 0.719-3.55 3.462z"></path>
</svg>
