<!-- Generated by IcoMoon.io -->
<svg version="1.1" xmlns="http://www.w3.org/2000/svg" width="24" height="24" viewBox="0 0 24 24">
<title>sun</title>
<path d="M12 6c-3.306 0-6 2.694-6 6s2.694 6 6 6 6-2.694 6-6-2.694-6-6-6zM12 16c-2.206 0-4-1.794-4-4s1.794-4 4-4c2.206 0 4 1.794 4 4s-1.794 4-4 4z"></path>
<path d="M12 4c0.55 0 1-0.45 1-1v-2c0-0.55-0.45-1-1-1s-1 0.45-1 1v2c0 0.55 0.45 1 1 1z"></path>
<path d="M12 20c-0.55 0-1 0.45-1 1v2c0 0.55 0.45 1 1 1s1-0.45 1-1v-2c0-0.55-0.45-1-1-1z"></path>
<path d="M4.931 6.35c0.194 0.194 0.45 0.294 0.706 0.294s0.513-0.1 0.706-0.294c0.387-0.387 0.387-1.025 0-1.413l-1.419-1.425c-0.387-0.387-1.025-0.387-1.413 0s-0.387 1.025 0 1.413l1.419 1.425z"></path>
<path d="M19.069 17.65c-0.387-0.387-1.025-0.387-1.413 0s-0.387 1.025 0 1.413l1.419 1.419c0.194 0.194 0.45 0.294 0.706 0.294s0.513-0.1 0.706-0.294c0.387-0.387 0.387-1.025 0-1.413l-1.419-1.419z"></path>
<path d="M4 12c0-0.55-0.45-1-1-1h-2c-0.55 0-1 0.45-1 1s0.45 1 1 1h2c0.55 0 1-0.45 1-1z"></path>
<path d="M23 11h-2c-0.55 0-1 0.45-1 1s0.45 1 1 1h2c0.55 0 1-0.45 1-1s-0.45-1-1-1z"></path>
<path d="M4.931 17.65l-1.419 1.419c-0.387 0.387-0.387 1.025 0 1.413 0.194 0.194 0.45 0.294 0.706 0.294s0.513-0.1 0.706-0.294l1.419-1.419c0.387-0.387 0.387-1.025 0-1.413s-1.019-0.387-1.413 0z"></path>
<path d="M18.363 6.637c0.256 0 0.513-0.1 0.706-0.294l1.419-1.419c0.387-0.387 0.387-1.025 0-1.413s-1.025-0.387-1.413 0l-1.419 1.419c-0.387 0.387-0.387 1.025 0 1.413 0.194 0.2 0.45 0.294 0.706 0.294z"></path>
</svg>
