<!-- Generated by IcoMoon.io -->
<svg version="1.1" xmlns="http://www.w3.org/2000/svg" width="24" height="24" viewBox="0 0 24 24">
<title>sunset</title>
<path d="M12 12c-3.306 0-6 2.694-6 6 0 0.55 0.45 1 1 1s1-0.45 1-1c0-2.206 1.794-4 4-4s4 1.794 4 4c0 0.55 0.45 1 1 1s1-0.45 1-1c0-3.306-2.694-6-6-6z"></path>
<path d="M4.931 12.35c0.194 0.194 0.45 0.294 0.706 0.294s0.513-0.1 0.706-0.294c0.387-0.387 0.387-1.025 0-1.413l-1.419-1.419c-0.387-0.387-1.025-0.387-1.413 0s-0.387 1.025 0 1.413l1.419 1.419z"></path>
<path d="M1 19h2c0.55 0 1-0.45 1-1s-0.45-1-1-1h-2c-0.55 0-1 0.45-1 1s0.45 1 1 1z"></path>
<path d="M20 18c0 0.55 0.45 1 1 1h2c0.55 0 1-0.45 1-1s-0.45-1-1-1h-2c-0.55 0-1 0.45-1 1z"></path>
<path d="M18.363 12.638c0.256 0 0.513-0.1 0.706-0.294l1.419-1.419c0.387-0.387 0.387-1.025 0-1.413s-1.025-0.387-1.413 0l-1.419 1.419c-0.387 0.387-0.387 1.025 0 1.413 0.194 0.2 0.45 0.294 0.706 0.294z"></path>
<path d="M23 21h-22c-0.55 0-1 0.45-1 1s0.45 1 1 1h22c0.55 0 1-0.45 1-1s-0.45-1-1-1z"></path>
<path d="M11.294 9.706c0.012 0.012 0.019 0.019 0.031 0.031 0 0 0 0 0 0s0.006 0.006 0.006 0.006c0 0 0.006 0.006 0.006 0.006s0 0 0 0 0.006 0.006 0.006 0.006c0 0 0 0 0 0 0.081 0.069 0.169 0.125 0.262 0.162 0 0 0 0 0 0s0.006 0 0.006 0c0 0 0.006 0 0.006 0s0 0 0 0c0.1 0.044 0.213 0.069 0.325 0.069 0 0 0 0 0 0 0.006 0 0.006 0 0.012 0 0 0 0 0 0 0s0.006 0 0.006 0c0 0 0.006 0 0.006 0s0.006 0 0.006 0 0.006 0 0.012 0 0.006 0 0.012 0c0 0 0.006 0 0.006 0s0.006 0 0.006 0c0 0 0.006 0 0.006 0s0 0 0 0c0.006 0 0.006 0 0.012 0 0 0 0 0 0 0 0.112-0.006 0.225-0.031 0.325-0.075 0 0 0 0 0 0s0.006 0 0.006 0c0 0 0.006 0 0.006 0s0 0 0.006 0c0.087-0.038 0.175-0.087 0.25-0.156 0 0 0 0 0 0s0.006-0.006 0.006-0.006c0 0 0 0 0.006 0 0 0 0.006 0 0.006-0.006 0 0 0.006-0.006 0.006-0.006s0 0 0.006 0c0.012-0.012 0.025-0.025 0.038-0.037l4-4c0.387-0.387 0.387-1.025 0-1.413s-1.025-0.387-1.413 0l-2.281 2.3v-4.587c0-0.55-0.45-1-1-1s-1 0.45-1 1v4.587l-2.294-2.294c-0.387-0.387-1.025-0.387-1.413 0s-0.387 1.025 0 1.413l4 4z"></path>
</svg>
