<!-- Generated by IcoMoon.io -->
<svg version="1.1" xmlns="http://www.w3.org/2000/svg" width="24" height="24" viewBox="0 0 24 24">
<title>tag</title>
<path d="M21.3 9.881l-8.594-8.588c-0.188-0.188-0.444-0.294-0.706-0.294h-10c-0.55 0-1 0.45-1 1v10c0 0.263 0.106 0.519 0.294 0.706l8.587 8.581c0.569 0.569 1.319 0.881 2.125 0.881 0.8 0 1.556-0.312 2.125-0.881l7.169-7.169c0.006-0.006 0.006-0.006 0.012-0.012 0.556-0.563 0.863-1.313 0.863-2.106-0.006-0.8-0.312-1.55-0.875-2.119zM19.881 12.706c0 0-0.006 0.006-0.006 0.006l-7.163 7.163c-0.188 0.188-0.438 0.294-0.706 0.294s-0.519-0.106-0.706-0.294l-8.3-8.288v-8.587h8.588l8.294 8.294c0.188 0.188 0.294 0.438 0.294 0.706-0.006 0.269-0.106 0.519-0.294 0.706z"></path>
<path d="M7 6c-0.263 0-0.519 0.106-0.706 0.294s-0.294 0.444-0.294 0.706 0.106 0.519 0.294 0.706c0.188 0.188 0.444 0.294 0.706 0.294s0.519-0.106 0.706-0.294c0.188-0.188 0.294-0.444 0.294-0.706s-0.106-0.519-0.294-0.706c-0.188-0.188-0.444-0.294-0.706-0.294z"></path>
</svg>
