<!-- Generated by IcoMoon.io -->
<svg version="1.1" xmlns="http://www.w3.org/2000/svg" width="24" height="24" viewBox="0 0 24 24">
<title>thermometer</title>
<path d="M15 14.256v-10.756c0-1.931-1.569-3.5-3.5-3.5s-3.5 1.569-3.5 3.5v10.763c-1.263 1.044-2 2.594-2 4.238 0 3.031 2.469 5.5 5.5 5.5s5.5-2.469 5.5-5.5c0-1.65-0.738-3.2-2-4.244zM11.5 22c-1.931 0-3.5-1.569-3.5-3.5 0-1.163 0.581-2.256 1.563-2.913 0.275-0.188 0.438-0.494 0.438-0.831v-11.256c0-0.825 0.675-1.5 1.5-1.5s1.5 0.675 1.5 1.5v11.262c0 0.344 0.175 0.656 0.462 0.844h0.006c0.963 0.656 1.531 1.737 1.531 2.894 0 1.931-1.569 3.5-3.5 3.5z"></path>
</svg>
