<!-- Generated by IcoMoon.io -->
<svg version="1.1" xmlns="http://www.w3.org/2000/svg" width="24" height="24" viewBox="0 0 24 24">
<title>thumbs-up</title>
<path d="M19.681 8h-4.681v-3c0-2.206-1.794-4-4-4-0.394 0-0.756 0.231-0.912 0.594l-3.738 8.406h-2.35c-1.656 0-3 1.344-3 3v7c0 1.656 1.344 3 3 3h14.306c1.488 0 2.737-1.069 2.962-2.538l1.381-9.006c0.025-0.144 0.038-0.3 0.038-0.456-0.006-1.656-1.35-3-3.006-3zM3 20v-7c0-0.55 0.45-1 1-1h2v9h-2c-0.55 0-1-0.45-1-1zM20.675 11.144v0.006l-1.381 9.006c-0.075 0.481-0.5 0.844-0.987 0.844h-0.012c0 0-0.006 0-0.006 0h-10.287v-9.787l3.606-8.119c0.806 0.256 1.394 1.012 1.394 1.906v4c0 0.55 0.45 1 1 1h5.656c0 0 0.006 0 0.006 0h0.019c0.55 0 1 0.45 1 1 0 0.050 0 0.1-0.006 0.144z"></path>
</svg>
