<!-- Generated by IcoMoon.io -->
<svg version="1.1" xmlns="http://www.w3.org/2000/svg" width="24" height="24" viewBox="0 0 24 24">
<title>thumbs-down</title>
<path d="M23 3.987c0-0.044-0.006-0.094-0.012-0.138-0.225-1.625-1.638-2.85-3.281-2.85-0.019 0-0.031 0-0.050 0h-13.962c-1.488 0-2.737 1.069-2.963 2.538l-1.381 9.006c-0.025 0.144-0.038 0.3-0.038 0.456 0 1.656 1.344 3 3 3h4.681v3c0 2.206 1.794 4 4 4 0.394 0 0.756-0.231 0.912-0.594l3.744-8.406h2.013c0.019 0 0.031 0 0.050 0 1.644 0 3.050-1.231 3.281-2.862 0.006-0.044 0.012-0.094 0.012-0.138l-0.006-7.012zM12.394 20.906c-0.806-0.256-1.394-1.013-1.394-1.906v-4c0-0.55-0.45-1-1-1h-5.688c-0.55 0-1-0.45-1-1 0-0.050 0.006-0.1 0.012-0.144 0 0 0-0.006 0-0.006l1.388-9.006c0.075-0.481 0.5-0.844 0.987-0.844h0.012c0 0 0.006 0 0.006 0h10.281v9.788l-3.606 8.119zM19.713 12h-0.025c-0.006 0-0.012 0-0.019 0h-1.669v-9h1.669c0.006 0 0.012 0 0.019 0h0.019c0.631 0 1.175 0.456 1.287 1.069v6.856c-0.106 0.612-0.65 1.075-1.281 1.075z"></path>
</svg>
