<!-- Generated by IcoMoon.io -->
<svg version="1.1" xmlns="http://www.w3.org/2000/svg" width="24" height="24" viewBox="0 0 24 24">
<title>twitter</title>
<path d="M23.55 2.163c-0.344-0.225-0.794-0.219-1.131 0.025-0.675 0.481-1.444 0.888-2.238 1.188-1.069-0.894-2.356-1.381-3.7-1.381-3.019 0-5.475 2.456-5.481 5.469-2.25-0.188-5.069-1.15-8.219-5.088-0.225-0.275-0.575-0.419-0.925-0.363-0.356 0.050-0.65 0.288-0.787 0.619-0.044 0.112-1.087 2.756-0.819 5.956 0.225 2.669 1.406 6.162 5.581 8.494-1.356 0.612-2.838 0.931-4.369 0.931-0.15 0-0.3 0-0.444-0.006-0.462-0.019-0.881 0.281-1.006 0.731-0.125 0.444 0.075 0.919 0.475 1.144 2.412 1.338 5.075 2.050 7.694 2.056 0.019 0 0.037 0 0.056 0 2.544 0 4.994-0.656 7.1-1.894 4.231-2.494 6.656-7.062 6.656-12.544 0-0.169-0.006-0.337-0.025-0.506 0.95-1.031 1.638-2.3 1.981-3.694 0-0.012 0.006-0.025 0.006-0.038l0.012-0.056c0.094-0.4-0.075-0.819-0.419-1.044zM20.225 5.919c-0.25 0.237-0.356 0.581-0.294 0.919 0.044 0.219 0.063 0.444 0.069 0.663 0 2.481-0.537 4.713-1.594 6.619-0.963 1.744-2.375 3.194-4.075 4.194-1.8 1.056-3.9 1.619-6.087 1.619-0.019 0-0.031 0-0.050 0-1.075-0.006-2.156-0.144-3.225-0.413 1.275-0.369 2.487-0.938 3.594-1.694 0.306-0.206 0.469-0.569 0.425-0.938s-0.281-0.681-0.625-0.819c-3.744-1.5-5.8-4.050-6.119-7.587-0.119-1.294 0.025-2.494 0.206-3.412 0.769 0.825 1.731 1.713 2.869 2.456 2.006 1.312 4.25 1.975 6.675 1.975 0.55 0 1-0.45 1-1v-1.031c0-1.919 1.563-3.481 3.481-3.481 1 0 1.975 0.431 2.744 1.219 0.262 0.269 0.65 0.369 1.012 0.256 0.194-0.063 0.394-0.125 0.588-0.2-0.181 0.237-0.381 0.45-0.594 0.656z"></path>
</svg>
