<!-- Generated by IcoMoon.io -->
<svg version="1.1" xmlns="http://www.w3.org/2000/svg" width="24" height="24" viewBox="0 0 24 24">
<title>unlock</title>
<path d="M19 10h-11v-3.006c0-2.206 1.794-4 4-4 1.881 0 3.531 1.338 3.912 3.175 0.112 0.544 0.644 0.888 1.181 0.775s0.888-0.644 0.775-1.181c-0.575-2.763-3.050-4.769-5.875-4.769-3.306 0-6 2.694-6 6.006v3h-0.994c-1.656 0-3 1.344-3 3v7c0 1.656 1.344 3 3 3h14c1.656 0 3-1.344 3-3v-7c0-1.656-1.344-3-3-3zM20 20c0 0.55-0.45 1-1 1h-14c-0.55 0-1-0.45-1-1v-7c0-0.55 0.45-1 1-1h14c0.55 0 1 0.45 1 1v7z"></path>
</svg>
