<!-- Generated by IcoMoon.io -->
<svg version="1.1" xmlns="http://www.w3.org/2000/svg" width="24" height="24" viewBox="0 0 24 24">
<title>upload-cloud</title>
<path d="M18 8h-0.525c-0.575-1.606-1.606-3.037-2.944-4.087-1.594-1.25-3.506-1.913-5.538-1.913-4.962 0-9 4.038-9 9 0 2.2 0.806 4.325 2.262 5.969 0.369 0.413 1 0.45 1.413 0.087 0.412-0.369 0.45-1 0.087-1.413-1.137-1.281-1.763-2.931-1.763-4.644 0-3.863 3.138-7 7-7 3.175 0 5.963 2.163 6.781 5.256 0.119 0.438 0.513 0.744 0.969 0.744h1.256c2.206 0 4 1.794 4 4 0 1.456-0.8 2.8-2.094 3.513-0.481 0.269-0.656 0.875-0.394 1.356 0.181 0.331 0.525 0.519 0.875 0.519 0.162 0 0.331-0.038 0.481-0.125 1.925-1.062 3.125-3.081 3.125-5.262 0-3.306-2.688-6-5.994-6z"></path>
<path d="M12.712 11.294c-0.012-0.012-0.025-0.025-0.037-0.038 0 0 0 0-0.006 0 0 0-0.006-0.006-0.006-0.006s-0.006 0-0.006-0.006c0 0 0 0-0.006 0 0 0-0.006-0.006-0.006-0.006s0 0 0 0c-0.075-0.069-0.162-0.119-0.256-0.156 0 0 0 0 0 0s-0.006 0-0.006 0c0 0 0 0-0.006 0 0 0 0 0-0.006 0-0.094-0.038-0.194-0.063-0.3-0.069 0 0 0 0 0 0s-0.006 0-0.006 0c0 0-0.006 0-0.006 0s-0.006 0-0.006 0c0 0-0.006 0-0.006 0s0 0-0.006 0c-0.025 0-0.050 0-0.075 0 0 0 0 0-0.006 0 0 0-0.006 0-0.006 0s-0.006 0-0.006 0c0 0-0.006 0-0.006 0s-0.006 0-0.006 0c0 0 0 0 0 0-0.1 0.006-0.2 0.031-0.294 0.069 0 0 0 0 0 0s-0.006 0-0.006 0c0 0-0.006 0-0.006 0s0 0 0 0c-0.1 0.037-0.188 0.094-0.275 0.169 0 0 0 0 0 0s-0.006 0.006-0.006 0.006c0 0 0 0 0 0s-0.006 0.006-0.006 0.006c0 0-0.006 0.006-0.006 0.006s0 0 0 0c-0.012 0.006-0.019 0.019-0.031 0.031l-4 4c-0.387 0.387-0.387 1.025 0 1.413s1.025 0.387 1.413 0l2.294-2.294v6.581c0 0.55 0.45 1 1 1s1-0.45 1-1v-6.588l2.294 2.294c0.194 0.194 0.45 0.294 0.706 0.294s0.513-0.1 0.706-0.294c0.387-0.387 0.387-1.025 0-1.413l-4-4z"></path>
</svg>
