<!-- Generated by IcoMoon.io -->
<svg version="1.1" xmlns="http://www.w3.org/2000/svg" width="24" height="24" viewBox="0 0 24 24">
<title>video-off</title>
<path d="M10.662 6h3.337c0.55 0 1 0.45 1 1v3.337c0 0.262 0.106 0.519 0.294 0.706l1 1c0.35 0.35 0.894 0.394 1.294 0.106l4.413-3.194v8.044c0 0.55 0.45 1 1 1s1-0.45 1-1v-10c0-0.375-0.213-0.719-0.544-0.888-0.337-0.169-0.738-0.138-1.044 0.081l-5.313 3.837-0.106-0.106v-2.925c0-1.656-1.344-3-3-3h-3.337c-0.55 0-1 0.45-1 1s0.45 1 1.006 1z"></path>
<path d="M23.706 22.294l-6.994-7c0 0-0.006-0.006-0.006-0.006l-11-10.994c0 0 0 0-0.006-0.006l-4-4c-0.387-0.387-1.025-0.387-1.413 0s-0.387 1.025 0 1.413l2.319 2.319c-1.469 0.2-2.606 1.456-2.606 2.981v10c0 1.656 1.344 3 3 3h11c1.237 0 2.3-0.756 2.763-1.825l5.531 5.531c0.194 0.194 0.45 0.294 0.706 0.294s0.513-0.1 0.706-0.294c0.394-0.387 0.394-1.025 0-1.413zM15 17c0 0.55-0.45 1-1 1h-11c-0.55 0-1-0.45-1-1v-10c0-0.55 0.45-1 1-1h1.587l10.413 10.413v0.588z"></path>
</svg>
