<!-- Generated by IcoMoon.io -->
<svg version="1.1" xmlns="http://www.w3.org/2000/svg" width="24" height="24" viewBox="0 0 24 24">
<title>watch</title>
<path d="M20 12c0-2.288-0.963-4.35-2.506-5.813l-0.319-3.469c-0.144-1.55-1.431-2.719-2.988-2.719h-4.356c-1.556 0-2.838 1.175-2.988 2.731l-0.312 3.438c-1.556 1.456-2.531 3.531-2.531 5.831 0 2.294 0.969 4.362 2.519 5.825l0.319 3.456c0.144 1.55 1.431 2.719 2.988 2.719h4.344c1.556 0 2.844-1.175 2.988-2.731l0.312-3.438c1.556-1.456 2.531-3.531 2.531-5.831zM8.838 2.913c0.050-0.519 0.475-0.912 0.994-0.912h4.356c0.519 0 0.95 0.387 0.994 0.9l0.169 1.831c-1.019-0.469-2.156-0.731-3.35-0.731-1.188 0-2.319 0.263-3.331 0.725l0.169-1.812zM6 12c0-1.831 0.825-3.481 2.125-4.581 0.006-0.006 0.006-0.006 0.012-0.012 1.050-0.875 2.394-1.406 3.862-1.406 3.306 0 6 2.694 6 6s-2.694 6-6 6-6-2.694-6-6zM15.162 21.087c-0.050 0.519-0.475 0.912-0.994 0.912h-4.344c-0.519 0-0.95-0.387-0.994-0.906l-0.169-1.831c1.019 0.469 2.15 0.731 3.338 0.731s2.313-0.263 3.331-0.725l-0.169 1.819z"></path>
<path d="M12.794 14.206c0.194 0.194 0.45 0.294 0.706 0.294s0.513-0.1 0.706-0.294c0.387-0.387 0.387-1.025 0-1.413l-1.206-1.206v-2.588c0-0.55-0.45-1-1-1s-1 0.45-1 1v3c0 0.263 0.106 0.519 0.294 0.706l1.5 1.5z"></path>
</svg>
