<!-- Generated by IcoMoon.io -->
<svg version="1.1" xmlns="http://www.w3.org/2000/svg" width="24" height="24" viewBox="0 0 24 24">
<title>wifi</title>
<path d="M19.737 10.8c-2.15-1.8-4.887-2.794-7.7-2.794s-5.538 0.987-7.681 2.781c-0.425 0.356-0.481 0.987-0.125 1.406 0.356 0.425 0.987 0.481 1.406 0.125 1.781-1.494 4.056-2.313 6.4-2.313s4.619 0.825 6.413 2.331c0.188 0.156 0.413 0.231 0.644 0.231 0.288 0 0.569-0.125 0.769-0.356 0.356-0.431 0.3-1.062-0.125-1.413z"></path>
<path d="M23.262 7.269c-3.113-2.756-7.113-4.269-11.269-4.269s-8.15 1.512-11.25 4.25c-0.413 0.369-0.45 1-0.087 1.413 0.369 0.412 1 0.45 1.413 0.087 2.731-2.419 6.256-3.75 9.925-3.75s7.194 1.338 9.937 3.762c0.188 0.169 0.425 0.25 0.663 0.25 0.275 0 0.55-0.113 0.75-0.338 0.369-0.412 0.331-1.044-0.081-1.406z"></path>
<path d="M16.069 14.313c-1.194-0.856-2.6-1.313-4.075-1.313s-2.875 0.45-4.056 1.294c-0.45 0.325-0.55 0.944-0.231 1.394 0.325 0.45 0.944 0.55 1.394 0.231 0.837-0.6 1.838-0.919 2.894-0.919 1.050 0 2.056 0.325 2.913 0.931 0.175 0.125 0.381 0.188 0.581 0.188 0.312 0 0.619-0.144 0.813-0.419 0.325-0.444 0.219-1.069-0.231-1.388z"></path>
<path d="M12 18c-0.262 0-0.519 0.106-0.706 0.294s-0.294 0.444-0.294 0.706 0.106 0.519 0.294 0.706c0.188 0.188 0.444 0.294 0.706 0.294s0.519-0.106 0.706-0.294c0.188-0.188 0.294-0.444 0.294-0.706s-0.106-0.519-0.294-0.706c-0.188-0.188-0.444-0.294-0.706-0.294z"></path>
</svg>
