<!-- Generated by IcoMoon.io -->
<svg version="1.1" xmlns="http://www.w3.org/2000/svg" width="24" height="24" viewBox="0 0 24 24">
<title>x-circle</title>
<path d="M12 1c-6.063 0-11 4.938-11 11s4.938 11 11 11 11-4.938 11-11-4.938-11-11-11zM12 21c-4.962 0-9-4.038-9-9s4.038-9 9-9c4.962 0 9 4.038 9 9s-4.038 9-9 9z"></path>
<path d="M15.706 8.294c-0.387-0.387-1.025-0.387-1.413 0l-2.294 2.294-2.294-2.294c-0.387-0.387-1.025-0.387-1.413 0s-0.387 1.025 0 1.413l2.294 2.294-2.294 2.294c-0.387 0.387-0.387 1.025 0 1.413 0.194 0.194 0.45 0.294 0.706 0.294s0.513-0.1 0.706-0.294l2.294-2.294 2.294 2.294c0.194 0.194 0.45 0.294 0.706 0.294s0.513-0.1 0.706-0.294c0.387-0.387 0.387-1.025 0-1.413l-2.294-2.294 2.294-2.294c0.394-0.387 0.394-1.025 0-1.413z"></path>
</svg>
