<!-- Generated by IcoMoon.io -->
<svg version="1.1" xmlns="http://www.w3.org/2000/svg" width="24" height="24" viewBox="0 0 24 24">
<title>x-square</title>
<path d="M19 2h-14c-1.656 0-3 1.344-3 3v14c0 1.656 1.344 3 3 3h14c1.656 0 3-1.344 3-3v-14c0-1.656-1.344-3-3-3zM20 19c0 0.55-0.45 1-1 1h-14c-0.55 0-1-0.45-1-1v-14c0-0.55 0.45-1 1-1h14c0.55 0 1 0.45 1 1v14z"></path>
<path d="M15.706 8.294c-0.387-0.387-1.025-0.387-1.413 0l-2.294 2.294-2.294-2.294c-0.387-0.387-1.025-0.387-1.413 0s-0.387 1.025 0 1.413l2.294 2.294-2.294 2.294c-0.387 0.387-0.387 1.025 0 1.413 0.194 0.194 0.45 0.294 0.706 0.294s0.513-0.1 0.706-0.294l2.294-2.294 2.294 2.294c0.194 0.194 0.45 0.294 0.706 0.294s0.513-0.1 0.706-0.294c0.387-0.387 0.387-1.025 0-1.413l-2.294-2.294 2.294-2.294c0.394-0.387 0.394-1.025 0-1.413z"></path>
</svg>
