<!-- Generated by IcoMoon.io -->
<svg version="1.1" xmlns="http://www.w3.org/2000/svg" width="24" height="24" viewBox="0 0 24 24">
<title>zap</title>
<path d="M21.906 9.575c-0.162-0.35-0.519-0.575-0.906-0.575h-7.869l0.862-6.875c0.056-0.438-0.188-0.862-0.594-1.044-0.406-0.175-0.881-0.063-1.169 0.275l-10 12c-0.25 0.3-0.3 0.713-0.138 1.062s0.519 0.581 0.906 0.581h7.869l-0.862 6.875c-0.056 0.438 0.188 0.862 0.594 1.044 0.131 0.056 0.262 0.081 0.4 0.081 0.288 0 0.575-0.125 0.769-0.363l10-12c0.25-0.294 0.3-0.712 0.138-1.062zM12.413 18.738l0.575-4.613c0.037-0.288-0.050-0.569-0.244-0.788s-0.462-0.337-0.75-0.337h-6.856l6.45-7.737-0.575 4.613c-0.038 0.288 0.050 0.569 0.244 0.787 0.188 0.213 0.462 0.338 0.75 0.338h6.862l-6.456 7.737z"></path>
</svg>
